<svg width="51" height="52" viewBox="0 0 51 52" fill="none" xmlns="http://www.w3.org/2000/svg">
<path d="M21.9616 14.7357L22.4074 14.7236H40.5777C42.5884 14.7234 44.5231 15.4926 45.9849 16.8733C47.4467 18.254 48.3249 20.1417 48.4393 22.1492L48.4514 22.5974V26.3768C47.3704 25.3385 46.1467 24.4599 44.8174 23.7675V22.5974C44.8174 21.4729 44.3707 20.3945 43.5756 19.5994C42.7805 18.8043 41.7021 18.3576 40.5777 18.3576H22.4074C21.3434 18.3577 20.3183 18.7578 19.5356 19.4786C18.7529 20.1994 18.2698 21.1881 18.1822 22.2485L18.1677 22.5974V40.7676C18.1678 41.832 18.5682 42.8575 19.2895 43.6402C20.0108 44.423 21.0001 44.9058 22.061 44.9928L22.4074 45.0073H23.5751C24.2705 46.3398 25.1499 47.5633 26.182 48.6414H22.4074C20.3962 48.6415 18.4612 47.872 16.9994 46.4908C15.5375 45.1096 14.6596 43.2213 14.5458 41.2134L14.5336 40.77V22.5998C14.5335 20.5886 15.303 18.6536 16.6842 17.1918C18.0654 15.7299 19.9537 14.852 21.9616 14.7381M32.9025 5.60214L33.0285 6.03095L34.7075 12.3009H30.945L29.5205 6.97096C29.3765 6.43286 29.1279 5.92839 28.7889 5.4864C28.45 5.0444 28.0272 4.67354 27.5448 4.395C27.0624 4.11646 26.5299 3.93571 25.9776 3.86307C25.4254 3.79043 24.8642 3.82733 24.3262 3.97166L6.77615 8.67412C5.75166 8.94885 4.86736 9.59761 4.29776 10.4924C3.72816 11.3871 3.51464 12.4629 3.69933 13.5074L3.77685 13.866L8.48174 31.416C8.70242 32.2407 9.16693 32.9795 9.81447 33.5359C10.462 34.0922 11.2624 34.4401 12.1109 34.534V38.1826C10.5356 38.0894 9.02456 37.5249 7.77392 36.5624C6.52328 35.5999 5.59073 34.2838 5.09722 32.7848L4.97124 32.3584L0.268786 14.806C-0.252087 12.8639 -0.0102222 10.7961 0.944786 9.02662C1.89979 7.25715 3.49557 5.92009 5.40491 5.28961L5.83615 5.16363L23.3862 0.461168C25.3283 -0.0597046 27.3961 0.182161 29.1655 1.13717C30.935 2.09218 32.2721 3.68796 32.9025 5.59729M50.8741 37.7417C50.8741 34.2077 49.4703 30.8185 46.9714 28.3196C44.4725 25.8207 41.0832 24.4168 37.5493 24.4168C34.0153 24.4168 30.6261 25.8207 28.1272 28.3196C25.6283 30.8185 24.2244 34.2077 24.2244 37.7417C24.2244 41.2756 25.6283 44.6649 28.1272 47.1637C30.6261 49.6626 34.0153 51.0665 37.5493 51.0665C41.0832 51.0665 44.4725 49.6626 46.9714 47.1637C49.4703 44.6649 50.8741 41.2756 50.8741 37.7417ZM37.3312 29.2792L37.5493 29.2622L37.7673 29.2816C38.0094 29.3258 38.2322 29.4427 38.4062 29.6167C38.5802 29.7906 38.697 30.0135 38.7412 30.2555L38.7606 30.4736V36.5303L44.8295 36.5327L45.0475 36.5521C45.2896 36.5963 45.5124 36.7132 45.6864 36.8872C45.8604 37.0612 45.9772 37.284 46.0215 37.526L46.0408 37.7441L46.0215 37.9621C45.9771 38.2045 45.8599 38.4276 45.6854 38.6016C45.511 38.7756 45.2876 38.8923 45.0451 38.9361L44.8271 38.9554H38.763V45.0194L38.7437 45.2375C38.6994 45.4795 38.5826 45.7024 38.4086 45.8763C38.2346 46.0503 38.0118 46.1672 37.7697 46.2114L37.5517 46.2308L37.3337 46.2114C37.0916 46.1672 36.8688 46.0503 36.6948 45.8763C36.5208 45.7024 36.404 45.4795 36.3597 45.2375L36.3403 45.0194V38.953H30.2763L30.0583 38.9336C29.8163 38.8894 29.5934 38.7725 29.4194 38.5986C29.2455 38.4246 29.1286 38.2017 29.0844 37.9597L29.065 37.7417L29.0844 37.5236C29.1286 37.2816 29.2455 37.0587 29.4194 36.8848C29.5934 36.7108 29.8163 36.5939 30.0583 36.5497L30.2763 36.5303H36.3379V30.4736L36.3573 30.2555C36.4011 30.013 36.5178 29.7897 36.6918 29.6152C36.8658 29.4408 37.0889 29.3235 37.3312 29.2792Z" fill="white"/>
</svg>
