<svg width="50" height="50" viewBox="0 0 50 50" fill="none" xmlns="http://www.w3.org/2000/svg">
<rect width="50" height="50" rx="25" fill="white"/>
<path d="M16.4867 35.6667C15.8725 35.6667 15.36 35.4614 14.9494 35.0507C14.5387 34.64 14.3329 34.1272 14.332 33.512V16.488C14.332 15.8738 14.5378 15.3614 14.9494 14.9507C15.3609 14.54 15.8734 14.3343 16.4867 14.3334H25.82V15.6667H16.4867C16.2467 15.6667 16.0498 15.7436 15.896 15.8974C15.7423 16.0512 15.6654 16.248 15.6654 16.488V33.5134C15.6654 33.7525 15.7423 33.9489 15.896 34.1027C16.0498 34.2565 16.2467 34.3334 16.4867 34.3334H33.512C33.7511 34.3334 33.9476 34.2565 34.1014 34.1027C34.2551 33.9489 34.332 33.752 34.332 33.512V24.1787H35.6654V33.512C35.6654 34.1263 35.46 34.6387 35.0494 35.0494C34.6387 35.46 34.1258 35.6658 33.5107 35.6667H16.4867ZM18.024 30.8454H31.9734L27.6654 25.1027L23.6654 30.1547L20.9987 26.9494L18.024 30.8454ZM31.6654 21V18.3334H28.9987V17H31.6654V14.3334H32.9987V17H35.6654V18.3334H32.9987V21H31.6654Z" fill="black"/>
</svg>
