<svg width="24" height="25" viewBox="0 0 24 25" fill="none" xmlns="http://www.w3.org/2000/svg">
<path d="M17.7339 5.61816H6.26416C5.95996 5.61816 5.66823 5.73901 5.45313 5.9541C5.23803 6.1692 5.11719 6.46094 5.11719 6.76514V18.2349C5.11719 18.5391 5.23803 18.8308 5.45313 19.0459C5.66823 19.261 5.95996 19.3818 6.26416 19.3818H17.7339C18.0381 19.3818 18.3298 19.261 18.5449 19.0459C18.76 18.8308 18.8809 18.5391 18.8809 18.2349V6.76514C18.8809 6.46094 18.76 6.1692 18.5449 5.9541C18.3298 5.73901 18.0381 5.61816 17.7339 5.61816Z" stroke="white" stroke-width="1.5" stroke-linejoin="round"/>
<path d="M11.9971 14.2686V12.7393C12.4508 12.7393 12.8943 12.6047 13.2715 12.3527C13.6488 12.1006 13.9428 11.7423 14.1164 11.3232C14.29 10.904 14.3355 10.4428 14.2469 9.99779C14.1584 9.55281 13.9399 9.14406 13.6191 8.82325C13.2983 8.50244 12.8896 8.28396 12.4446 8.19545C11.9996 8.10693 11.5384 8.15236 11.1192 8.32598C10.7001 8.49961 10.3418 8.79363 10.0897 9.17087C9.83766 9.5481 9.70313 9.99161 9.70312 10.4453" stroke="white" stroke-width="1.5" stroke-linecap="round" stroke-linejoin="round"/>
<path fill-rule="evenodd" clip-rule="evenodd" d="M11.9988 17.7095C12.2523 17.7095 12.4954 17.6088 12.6746 17.4295C12.8539 17.2503 12.9546 17.0072 12.9546 16.7537C12.9546 16.5002 12.8539 16.2571 12.6746 16.0778C12.4954 15.8986 12.2523 15.7979 11.9988 15.7979C11.7453 15.7979 11.5022 15.8986 11.3229 16.0778C11.1437 16.2571 11.043 16.5002 11.043 16.7537C11.043 17.0072 11.1437 17.2503 11.3229 17.4295C11.5022 17.6088 11.7453 17.7095 11.9988 17.7095Z" fill="white"/>
</svg>
