<svg width="24" height="25" viewBox="0 0 24 25" fill="none" xmlns="http://www.w3.org/2000/svg">
<path d="M5.616 20.5C5.15533 20.5 4.771 20.346 4.463 20.038C4.155 19.73 4.00067 19.3453 4 18.884V6.116C4 5.65533 4.15433 5.271 4.463 4.963C4.77167 4.655 5.156 4.50067 5.616 4.5H12.616V5.5H5.616C5.436 5.5 5.28833 5.55767 5.173 5.673C5.05767 5.78833 5 5.936 5 6.116V18.885C5 19.0643 5.05767 19.2117 5.173 19.327C5.28833 19.4423 5.436 19.5 5.616 19.5H18.385C18.5643 19.5 18.7117 19.4423 18.827 19.327C18.9423 19.2117 19 19.064 19 18.884V11.884H20V18.884C20 19.3447 19.846 19.729 19.538 20.037C19.23 20.345 18.8453 20.4993 18.384 20.5H5.616ZM6.769 16.884H17.231L14 12.577L11 16.366L9 13.962L6.769 16.884ZM17 9.5V7.5H15V6.5H17V4.5H18V6.5H20V7.5H18V9.5H17Z" fill="white"/>
</svg>
