<svg width="24" height="25" viewBox="0 0 24 25" fill="none" xmlns="http://www.w3.org/2000/svg">
<path d="M12 5.82034H6.09501C5.62223 5.82034 5.1541 5.91359 4.71741 6.09475C4.28072 6.27592 3.88406 6.54144 3.55013 6.87611C3.2162 7.21079 2.95156 7.60804 2.77136 8.04513C2.59117 8.48222 2.49896 8.95056 2.50001 9.42334V15.5853C2.50001 16.5388 2.87877 17.4532 3.55296 18.1274C3.88679 18.4612 4.2831 18.726 4.71926 18.9067C5.15543 19.0874 5.62291 19.1803 6.09501 19.1803H12C12.9535 19.1803 13.8679 18.8016 14.5421 18.1274C15.2163 17.4532 15.595 16.5388 15.595 15.5853V9.42434C15.5965 8.95136 15.5045 8.48274 15.3245 8.04536C15.1445 7.60798 14.8799 7.21044 14.5459 6.87553C14.2119 6.54061 13.8151 6.27492 13.3782 6.09367C12.9413 5.91243 12.473 5.8192 12 5.81934M21.5 9.93834V15.0733C21.5 15.3233 21.429 15.5693 21.295 15.7813C21.1593 15.994 20.9671 16.1647 20.74 16.2743C20.5144 16.3873 20.2603 16.4304 20.01 16.3983C19.7633 16.3688 19.5293 16.2727 19.333 16.1203L16.108 13.5323C15.9531 13.4049 15.8279 13.2452 15.741 13.0643C15.6541 12.8835 15.6077 12.6859 15.605 12.4853C15.605 12.2853 15.65 12.0883 15.738 11.9103C15.83 11.7423 15.956 11.5953 16.108 11.4783L19.333 8.91134C19.5293 8.75838 19.7638 8.66223 20.011 8.63334C20.261 8.60134 20.515 8.64434 20.74 8.75634C20.9637 8.86368 21.1532 9.03102 21.2874 9.23972C21.4216 9.44842 21.4952 9.69027 21.5 9.93834Z" stroke="white" stroke-width="1.5" stroke-linecap="round" stroke-linejoin="round"/>
</svg>
