<svg width="24" height="25" viewBox="0 0 24 25" fill="none" xmlns="http://www.w3.org/2000/svg">
<path fill-rule="evenodd" clip-rule="evenodd" d="M8.223 7.01632C8.61323 6.58603 8.87014 6.0517 8.96255 5.47822C9.05495 4.90473 8.97888 4.31675 8.74356 3.78566C8.50824 3.25458 8.1238 2.80323 7.63691 2.48642C7.15003 2.16962 6.58163 2.00098 6.00075 2.00098C5.41987 2.00098 4.85147 2.16962 4.36459 2.48642C3.8777 2.80323 3.49326 3.25458 3.25794 3.78566C3.02262 4.31675 2.94655 4.90473 3.03895 5.47822C3.13136 6.0517 3.38827 6.58603 3.7785 7.01632C3.6585 7.07932 3.5435 7.14732 3.4335 7.22032C2.748 7.67782 2.3085 8.27632 2.034 8.82982C1.70682 9.49653 1.52481 10.2251 1.5 10.9673V14.0003C1.5 14.3981 1.65804 14.7797 1.93934 15.061C2.22064 15.3423 2.60218 15.5003 3 15.5003H6.75C7.01258 14.9675 7.35898 14.4803 7.776 14.0573L7.7565 14.0003H3V11.0003C3 11.0003 3 8.00032 6 8.00032C7.5105 8.00032 8.2605 8.76082 8.6325 9.51532C8.97 9.13432 9.372 8.81032 9.822 8.56132C9.44357 7.90723 8.8897 7.37206 8.223 7.01632ZM6 6.50032C6.39782 6.50032 6.77936 6.34228 7.06066 6.06098C7.34196 5.77967 7.5 5.39814 7.5 5.00032C7.5 4.60249 7.34196 4.22096 7.06066 3.93966C6.77936 3.65835 6.39782 3.50032 6 3.50032C5.60218 3.50032 5.22064 3.65835 4.93934 3.93966C4.65804 4.22096 4.5 4.60249 4.5 5.00032C4.5 5.39814 4.65804 5.77967 4.93934 6.06098C5.22064 6.34228 5.60218 6.50032 6 6.50032ZM21 15.5003H17.25C16.9874 14.9675 16.641 14.4803 16.224 14.0573L16.2435 14.0003H21V11.0003C21 11.0003 21 8.00032 18 8.00032C16.4895 8.00032 15.7395 8.76082 15.3675 9.51532C15.0282 9.13197 14.6259 8.80934 14.178 8.56132C14.5564 7.90723 15.1103 7.37206 15.777 7.01632C15.3868 6.58603 15.1299 6.0517 15.0375 5.47822C14.945 4.90473 15.0211 4.31675 15.2564 3.78566C15.4918 3.25458 15.8762 2.80323 16.3631 2.48642C16.85 2.16962 17.4184 2.00098 17.9993 2.00098C18.5801 2.00098 19.1485 2.16962 19.6354 2.48642C20.1223 2.80323 20.5067 3.25458 20.7421 3.78566C20.9774 4.31675 21.0535 4.90473 20.961 5.47822C20.8686 6.0517 20.6117 6.58603 20.2215 7.01632C20.3415 7.07932 20.4565 7.14732 20.5665 7.22032C21.252 7.67782 21.6915 8.27632 21.966 8.82982C22.2884 9.48017 22.4703 10.1911 22.5 10.9163V14.0003C22.5 14.3981 22.342 14.7797 22.0607 15.061C21.7794 15.3423 21.3978 15.5003 21 15.5003ZM18 6.50032C18.3978 6.50032 18.7794 6.34228 19.0607 6.06098C19.342 5.77967 19.5 5.39814 19.5 5.00032C19.5 4.60249 19.342 4.22096 19.0607 3.93966C18.7794 3.65835 18.3978 3.50032 18 3.50032C17.6022 3.50032 17.2206 3.65835 16.9393 3.93966C16.658 4.22096 16.5 4.60249 16.5 5.00032C16.5 5.39814 16.658 5.77967 16.9393 6.06098C17.2206 6.34228 17.6022 6.50032 18 6.50032Z" fill="white"/>
<path fill-rule="evenodd" clip-rule="evenodd" d="M15 12.5C15 13.2755 14.706 13.9835 14.223 14.516C14.9788 14.9253 15.5885 15.5596 15.9675 16.331C16.2959 16.9961 16.4775 17.7241 16.5 18.4655V21.5C16.5 21.8978 16.342 22.2794 16.0607 22.5607C15.7794 22.842 15.3978 23 15 23H9C8.60218 23 8.22064 22.842 7.93934 22.5607C7.65804 22.2794 7.5 21.8978 7.5 21.5V18.467C7.50072 18.3994 7.50372 18.3319 7.509 18.2645C7.55807 17.5918 7.73632 16.9348 8.034 16.3295C8.41261 15.5583 9.02175 14.924 9.777 14.5145C9.4499 14.1536 9.21561 13.7184 9.09439 13.2466C8.97316 12.7748 8.96864 12.2806 9.08122 11.8067C9.1938 11.3327 9.42009 10.8933 9.74053 10.5265C10.061 10.1596 10.4659 9.87627 10.9204 9.70098C11.3749 9.52569 11.8652 9.4637 12.349 9.52038C12.8329 9.57705 13.2956 9.75068 13.6973 10.0263C14.0989 10.3019 14.4274 10.6711 14.6544 11.1021C14.8814 11.5331 15 12.0129 15 12.5ZM9 18.5V21.5H15V18.5C15 18.5 15 15.5 12 15.5C9 15.5 9 18.5 9 18.5ZM13.5 12.5C13.5 12.8978 13.342 13.2794 13.0607 13.5607C12.7794 13.842 12.3978 14 12 14C11.6022 14 11.2206 13.842 10.9393 13.5607C10.658 13.2794 10.5 12.8978 10.5 12.5C10.5 12.1022 10.658 11.7207 10.9393 11.4394C11.2206 11.1581 11.6022 11 12 11C12.3978 11 12.7794 11.1581 13.0607 11.4394C13.342 11.7207 13.5 12.1022 13.5 12.5Z" fill="white"/>
</svg>
