<svg width="70" height="48" viewBox="0 0 70 48" fill="none" xmlns="http://www.w3.org/2000/svg">
<rect x="0.5" y="0.493164" width="69" height="47" rx="5.5" fill="#93989A" stroke="#D9D9D9"/>
<path fill-rule="evenodd" clip-rule="evenodd" d="M42.207 33.6832C42.6011 32.6826 43.4781 30.4403 43.0611 29.897H43.0641C42.6489 29.3524 40.3182 29.6382 39.2699 29.7667L39.2676 29.767C38.9487 29.8061 38.8996 29.5227 39.1864 29.3176C41.0478 27.9819 44.0976 28.364 44.4518 28.8149C44.806 29.2659 44.3552 32.3882 42.6118 33.8789C42.3435 34.1075 42.0874 33.9854 42.207 33.6832ZM29.6813 35.2272C33.7354 35.2272 38.4565 33.9197 41.7087 31.4691V31.4738C42.2469 31.0604 41.7853 30.4529 41.2364 30.6909C37.6865 32.22 33.8759 33.0182 30.0232 33.0397C24.678 33.0397 19.5077 31.5427 15.3247 29.0577C14.9583 28.84 14.6854 29.2237 14.992 29.504C19.019 33.2143 24.2576 35.2554 29.6813 35.2272Z" fill="#FF9900"/>
<path fill-rule="evenodd" clip-rule="evenodd" d="M56.192 27.8894H57.9186H57.9201C58.1007 27.8929 58.2508 27.748 58.2574 27.5637V22.6766C58.2574 22.0628 58.2896 21.5085 58.5319 20.9542C58.6982 20.5325 59.09 20.2486 59.5347 20.2276C60.6391 20.2276 60.6285 21.4635 60.6201 22.4344C60.6194 22.5163 60.6187 22.5963 60.6187 22.6735V27.6044C60.6401 27.7626 60.7692 27.8825 60.9254 27.8894H62.6673C62.8324 27.8929 62.9747 27.7711 63 27.6044V21.8906C63 21.0121 63 19.7892 62.5477 19.0626C62.0585 18.2797 61.3011 17.9932 60.5252 17.9932C59.3292 17.9932 58.65 18.5851 58.1654 19.8268H58.1317V18.4379C58.0967 18.2927 57.9714 18.189 57.825 18.1842H56.2181C56.0483 18.1799 55.9037 18.3093 55.8854 18.4817V27.5637C55.8876 27.7378 56.0217 27.8803 56.192 27.8894ZM54.5668 23.126C54.5668 20.2605 53.176 18.0057 50.6047 18.0057C48.0992 18.0057 46.7085 20.2229 46.7085 23.0305C46.7085 25.8381 48.0823 28.0929 50.6047 28.0929C53.0335 28.0929 54.5668 25.896 54.5668 23.126ZM49.263 22.744C49.263 21.6353 49.3442 19.8597 50.6215 19.8597C51.1704 19.8597 51.5584 20.1118 51.7531 20.7381C51.98 21.4631 52.0122 22.3807 52.0122 23.1448C52.0122 24.3098 51.9616 26.2202 50.6046 26.2202C49.2624 26.2202 49.2628 23.904 49.263 22.7807L49.263 22.744ZM16.8639 27.9082H18.595H18.5966C18.6834 27.9102 18.7676 27.8769 18.8303 27.8154C18.893 27.754 18.9292 27.6696 18.9308 27.5809V22.769L18.9308 22.6937C18.9301 21.6474 18.9291 20.2636 20.1268 20.2636C21.234 20.2636 21.2169 21.4795 21.2031 22.4613V22.4613V22.4614V22.4614V22.4615C21.2016 22.5673 21.2001 22.6704 21.2001 22.769V27.5824C21.2031 27.7562 21.3368 27.8983 21.5068 27.9082H23.2425C23.3291 27.9098 23.4129 27.8763 23.4753 27.8149C23.5377 27.7535 23.5736 27.6693 23.5753 27.5809V22.769L23.5751 22.6546C23.5741 22.1448 23.5726 21.4568 23.7378 21.0293C23.9062 20.5924 24.3132 20.2999 24.7728 20.2856C25.2742 20.2856 25.6621 20.4578 25.7909 21.0685C25.8567 21.3624 25.8481 22.0437 25.8425 22.4956C25.8412 22.6022 25.84 22.696 25.84 22.769V27.5824C25.8422 27.7566 25.9763 27.8991 26.1466 27.9082H27.8778C27.9647 27.9102 28.0488 27.8769 28.1115 27.8154C28.1742 27.754 28.2104 27.6696 28.212 27.5809V21.8514C28.212 21.7118 28.2144 21.5691 28.2168 21.4249L28.2168 21.4246C28.231 20.5691 28.246 19.6585 27.775 19.0047C27.2041 18.263 26.2859 17.8935 25.3729 18.0379C24.46 18.1823 23.6943 18.8182 23.3698 19.7015C22.8837 18.5537 22.1891 18.0198 21.1219 18.0198C20.0547 18.0198 19.262 18.5537 18.8419 19.7015H18.8097V18.5161C18.8006 18.3472 18.6685 18.2123 18.503 18.203H16.8884C16.7101 18.2012 16.5631 18.3451 16.5572 18.5271V27.609C16.5729 27.7725 16.7033 27.8996 16.8639 27.9082ZM13.8509 27.9771C13.7369 28.0781 13.573 28.095 13.4415 28.0193C12.9509 27.6025 12.803 27.3772 12.5758 27.0311C12.5368 26.9716 12.4953 26.9085 12.4494 26.8403C11.4972 27.8299 10.8241 28.1258 9.59285 28.1258C8.13466 28.1258 7 27.2067 7 25.3684C7 23.9325 7.76666 22.9569 8.83999 22.4778C9.63255 22.1226 10.69 22.0124 11.6043 21.9171L11.6043 21.9171L11.6043 21.9171C11.7743 21.8993 11.9393 21.8821 12.0968 21.864V21.6354C12.0968 21.5917 12.0971 21.5473 12.0975 21.5022C12.1005 21.1124 12.1039 20.6784 11.8867 20.3514C11.6751 20.0257 11.2734 19.8926 10.9146 19.8926C10.2537 19.8926 9.66492 20.2386 9.52079 20.9542C9.50252 21.1211 9.37674 21.2547 9.21412 21.2799L7.54893 21.0936C7.46584 21.0814 7.39125 21.035 7.34258 20.9652C7.2939 20.8954 7.27537 20.8082 7.29133 20.724C7.6762 18.6446 9.51619 18.0167 11.1645 18.0167C12.0078 18.0167 13.1088 18.2453 13.7712 18.8967C14.5488 19.6402 14.5439 20.6134 14.5387 21.6771C14.5383 21.7649 14.5378 21.8533 14.5378 21.9423V24.6966C14.5378 25.4384 14.8073 25.8074 15.0912 26.1961C15.1249 26.2422 15.1589 26.2887 15.1926 26.3361C15.303 26.4926 15.3275 26.6884 15.1926 26.8058C14.8384 27.108 14.2097 27.6655 13.8647 27.9802L13.8509 27.9771ZM12.1044 23.6647L12.1045 23.7504C12.1051 24.4017 12.1056 24.954 11.7809 25.5437C11.5049 26.0417 11.0679 26.3486 10.5803 26.3486C9.91635 26.3486 9.52842 25.8318 9.52842 25.0646C9.52842 23.5582 10.8517 23.2842 12.1044 23.2842V23.6647ZM37.7935 26.1896C37.8273 26.2358 37.8612 26.2823 37.895 26.3298C38.0115 26.4926 38.036 26.6837 37.8873 26.7917C37.5331 27.0939 36.9045 27.6529 36.5595 27.9661C36.4447 28.0657 36.2814 28.0819 36.1501 28.0068C35.6573 27.5882 35.5114 27.3661 35.281 27.0156L35.2809 27.0154L35.2804 27.0147C35.2421 26.9564 35.2014 26.8946 35.1565 26.8277C34.2058 27.8173 33.5281 28.1133 32.3014 28.1133C30.8432 28.1133 29.7086 27.1941 29.7086 25.3574C29.7086 23.9199 30.4706 22.9444 31.5562 22.4652C32.3505 22.1087 33.4139 21.999 34.3308 21.9044L34.3309 21.9044L34.3312 21.9044L34.3313 21.9043C34.4975 21.8872 34.6589 21.8705 34.813 21.853V21.6291C34.813 21.5857 34.8133 21.5414 34.8137 21.4966C34.8167 21.1066 34.8201 20.6725 34.6014 20.3466C34.3959 20.021 33.9865 19.8863 33.6293 19.8863C32.9684 19.8863 32.3827 20.2323 32.237 20.9479C32.2182 21.1146 32.0927 21.2479 31.9303 21.2736L30.2514 21.0889C30.1677 21.0771 30.0924 21.0307 30.0434 20.9604C29.9943 20.8902 29.9758 20.8024 29.9922 20.7178C30.3786 18.6367 32.2186 18.0104 33.8669 18.0104C34.7087 18.0104 35.8097 18.239 36.4736 18.8904C37.2528 19.63 37.2473 20.5958 37.2413 21.654L37.2413 21.6548C37.2408 21.7479 37.2403 21.8416 37.2403 21.936V24.6919C37.2403 25.4321 37.5097 25.801 37.7935 26.1896ZM33.2919 26.3391C33.778 26.3391 34.2165 26.0322 34.491 25.5359C34.8168 24.943 34.8165 24.3881 34.8161 23.7286L34.8161 23.6584V23.2763C33.5633 23.2763 32.2401 23.5488 32.2401 25.0567C32.2401 25.8224 32.628 26.3391 33.2919 26.3391ZM39.3608 18.4958V19.7892C39.3599 19.8779 39.3946 19.9631 39.4569 20.025C39.5192 20.0868 39.6036 20.1199 39.6904 20.1164H42.6712L39.2534 25.1272C39.0974 25.3959 39.0237 25.7062 39.0418 26.0181V27.3413C39.0418 27.5323 39.2488 27.75 39.4466 27.6419C41.3317 26.6438 43.5733 26.6397 45.4619 27.631C45.6781 27.7453 45.882 27.5245 45.882 27.3335V25.943C45.8762 25.7304 45.7591 25.5373 45.5753 25.4372C44.5802 24.8657 43.4225 24.6981 42.3277 24.7247L45.2779 20.4249C45.5523 20.0397 45.7057 19.7954 45.7057 19.6091V18.4958C45.7065 18.4073 45.672 18.3224 45.61 18.2606C45.5481 18.1988 45.4641 18.1655 45.3775 18.1685H39.6843C39.5976 18.1635 39.513 18.1963 39.4513 18.2587C39.3896 18.3211 39.3567 18.4072 39.3608 18.4958Z" fill="black"/>
</svg>
