<svg width="30" height="32" viewBox="0 0 30 32" fill="none" xmlns="http://www.w3.org/2000/svg">
<g clip-path="url(#clip0_4290_38383)">
<path d="M29.423 27.936C29.4259 28.4984 29.3093 29.055 29.0808 29.569C28.8523 30.0829 28.5172 30.5424 28.0977 30.917C27.6782 31.2916 27.1838 31.5728 26.6474 31.7419C26.111 31.911 25.5448 31.9641 24.9863 31.8978C22.9531 31.597 21.4633 29.8278 21.5129 27.7732V4.15144C21.4638 2.09465 22.9573 0.324512 24.993 0.0269346C25.551 -0.0384085 26.1165 0.0154663 26.6521 0.184995C27.1877 0.354524 27.6813 0.635843 28.1 1.01034C28.5188 1.38485 28.8533 1.84399 29.0813 2.35742C29.3094 2.87084 29.4259 3.42683 29.423 3.98863V27.936Z" fill="#F9AB00"/>
<path d="M4.53317 24.0218C6.71751 24.0218 8.48821 25.7926 8.48821 27.9768C8.48821 30.1612 6.71751 31.9319 4.53317 31.9319C2.34883 31.9319 0.578125 30.1612 0.578125 27.977C0.578125 25.7927 2.34883 24.0218 4.53317 24.0218ZM14.9397 12.0345C12.7451 12.1549 11.0422 13.9958 11.0933 16.1932V26.8168C11.0933 29.7 12.3619 31.4503 14.2206 31.8234C14.7969 31.9402 15.3919 31.9273 15.9625 31.7856C16.5332 31.6439 17.0651 31.3769 17.5198 31.0041C17.9745 30.6313 18.3405 30.1619 18.5912 29.6301C18.8419 29.0983 18.9711 28.5173 18.9694 27.9293V16.0101C18.9704 15.4832 18.8665 14.9613 18.6636 14.475C18.4608 13.9887 18.1631 13.5476 17.788 13.1775C17.4129 12.8075 16.9678 12.5158 16.4788 12.3196C15.9898 12.1234 15.4666 12.0264 14.9397 12.0345Z" fill="#E37400"/>
</g>
<defs>
<clipPath id="clip0_4290_38383">
<rect width="28.85" height="32" fill="white" transform="translate(0.574219)"/>
</clipPath>
</defs>
</svg>
