<svg width="25" height="24" viewBox="0 0 25 24" fill="none" xmlns="http://www.w3.org/2000/svg">
<path fill-rule="evenodd" clip-rule="evenodd" d="M18.1239 17.2191L16.8083 16.6389C16.0903 16.3222 14.8259 15.8371 13.4105 15.4326C12.6431 15.2133 11.8506 15.0234 11.089 14.8947L12.5033 19.687H9.99016L8.40864 14.6434C6.51807 14.293 5 12.7569 5 10.7815C5 8.5269 6.9778 6.84439 9.22981 6.84439C10.4702 6.84439 11.9838 6.53819 13.4105 6.13052C14.8259 5.72606 16.0903 5.24088 16.8083 4.92426L18.1239 4.34399V8.75542C19.2238 8.8392 19.9994 9.80482 19.9994 10.8587C19.9994 11.9125 19.2238 12.8782 18.1239 12.962V17.2191ZM18.1245 10.8587C18.1245 10.8656 18.1244 10.8724 18.1239 10.879V10.8384C18.1241 10.8411 18.1242 10.8438 18.1243 10.8465C18.1244 10.8505 18.1245 10.8546 18.1245 10.8587Z" fill="#3ECE23"/>
</svg>
