<svg width="17" height="16" viewBox="0 0 17 16" fill="none" xmlns="http://www.w3.org/2000/svg">
<path d="M13.9728 3.91101C14.0648 3.82227 14.1382 3.71611 14.1887 3.59871C14.2392 3.48131 14.2658 3.35504 14.2669 3.22725C14.2681 3.09946 14.2438 2.97271 14.1955 2.85441C14.1471 2.73611 14.0757 2.62862 13.9854 2.53821C13.8951 2.4478 13.7877 2.37629 13.6694 2.32784C13.5511 2.27939 13.4244 2.25498 13.2966 2.25603C13.1688 2.25708 13.0425 2.28357 12.9251 2.33395C12.8076 2.38434 12.7014 2.45761 12.6126 2.54949L8.75515 6.40565L4.89899 2.54949C4.81088 2.45493 4.70462 2.37908 4.58656 2.32648C4.46851 2.27388 4.34106 2.24559 4.21184 2.24331C4.08261 2.24103 3.95425 2.26481 3.83441 2.31321C3.71457 2.36162 3.6057 2.43366 3.51431 2.52506C3.42292 2.61645 3.35087 2.72531 3.30247 2.84515C3.25406 2.96499 3.23029 3.09335 3.23257 3.22258C3.23485 3.35181 3.26314 3.47925 3.31574 3.59731C3.36834 3.71536 3.44419 3.82162 3.53874 3.90973L7.39234 7.76717L3.53618 11.6233C3.36617 11.8058 3.27362 12.0471 3.27802 12.2964C3.28242 12.5458 3.38343 12.7837 3.55976 12.96C3.7361 13.1363 3.97399 13.2373 4.22333 13.2417C4.47266 13.2461 4.71397 13.1536 4.89642 12.9836L8.75515 9.12741L12.6113 12.9849C12.7938 13.1549 13.0351 13.2474 13.2844 13.243C13.5337 13.2386 13.7716 13.1376 13.948 12.9613C14.1243 12.7849 14.2253 12.547 14.2297 12.2977C14.2341 12.0484 14.1416 11.8071 13.9715 11.6246L10.118 7.76717L13.9728 3.91101Z" fill="#B93737"/>
</svg>
