<svg width="579" height="456" viewBox="0 0 579 456" fill="none" xmlns="http://www.w3.org/2000/svg">
<g clip-path="url(#clip0_770_1988)">
<path d="M290.034 12.7534C290.007 14.2411 289.688 15.7089 289.094 17.0731C288.5 18.4374 287.643 19.6712 286.573 20.7042C285.502 21.7372 284.238 22.5491 282.853 23.0936C281.468 23.638 279.99 23.9043 278.502 23.8773H225.005C224.812 23.8723 224.618 23.8673 224.424 23.8524C223.923 23.8201 223.424 23.752 222.933 23.6486V4.71122C222.932 3.9535 223.164 3.21376 223.595 2.59106C224.027 1.96835 224.639 1.49241 225.348 1.22693H278.91C281.913 1.2837 284.77 2.52914 286.855 4.69002C288.941 6.8509 290.084 9.75076 290.034 12.7534Z" fill="#E6E6E6"/>
<path d="M572.474 2.60152e-05H227.462C226.718 -0.00216997 225.981 0.134678 225.288 0.403506C224.112 0.843303 223.099 1.63177 222.384 2.66336C221.668 3.69495 221.285 4.92041 221.286 6.17567V382.478C221.287 384.116 221.937 385.686 223.095 386.844C224.253 388.002 225.824 388.653 227.462 388.654H572.474C574.112 388.653 575.682 388.002 576.84 386.844C577.998 385.686 578.649 384.116 578.65 382.478V6.17567C578.649 4.53797 577.998 2.96751 576.84 1.80948C575.682 0.651456 574.112 0.000619631 572.474 2.60152e-05ZM576.18 382.478C576.178 383.46 575.787 384.402 575.093 385.097C574.398 385.791 573.456 386.182 572.474 386.184H227.462C226.479 386.182 225.538 385.791 224.843 385.097C224.149 384.402 223.758 383.46 223.756 382.478V6.17567C223.758 5.19339 224.149 4.25178 224.843 3.5572C225.538 2.86263 226.479 2.47176 227.462 2.47028H572.474C573.456 2.47176 574.398 2.86263 575.093 3.5572C575.787 4.25178 576.178 5.19339 576.18 6.17567V382.478Z" fill="#E6E6E6"/>
<path d="M389.36 129.295C393.837 129.295 397.465 125.666 397.465 121.19C397.465 116.713 393.837 113.085 389.36 113.085C384.884 113.085 381.256 116.713 381.256 121.19C381.256 125.666 384.884 129.295 389.36 129.295Z" fill="#3ECE23"/>
<path d="M423.131 129.295C427.607 129.295 431.236 125.666 431.236 121.19C431.236 116.713 427.607 113.085 423.131 113.085C418.655 113.085 415.026 116.713 415.026 121.19C415.026 125.666 418.655 129.295 423.131 129.295Z" fill="#3ECE23"/>
<path d="M321.819 196.271C326.296 196.271 329.924 192.642 329.924 188.166C329.924 183.689 326.296 180.061 321.819 180.061C317.343 180.061 313.714 183.689 313.714 188.166C313.714 192.642 317.343 196.271 321.819 196.271Z" fill="#3ECE23"/>
<path d="M355.59 196.271C360.066 196.271 363.695 192.642 363.695 188.166C363.695 183.689 360.066 180.061 355.59 180.061C351.114 180.061 347.485 183.689 347.485 188.166C347.485 192.642 351.114 196.271 355.59 196.271Z" fill="#3ECE23"/>
<path d="M389.36 229.759C393.837 229.759 397.465 226.13 397.465 221.654C397.465 217.178 393.837 213.549 389.36 213.549C384.884 213.549 381.256 217.178 381.256 221.654C381.256 226.13 384.884 229.759 389.36 229.759Z" fill="#3ECE23"/>
<path d="M423.131 229.759C427.607 229.759 431.236 226.13 431.236 221.654C431.236 217.178 427.607 213.549 423.131 213.549C418.655 213.549 415.026 217.178 415.026 221.654C415.026 226.13 418.655 229.759 423.131 229.759Z" fill="#3ECE23"/>
<path d="M456.902 229.759C461.378 229.759 465.006 226.13 465.006 221.654C465.006 217.178 461.378 213.549 456.902 213.549C452.425 213.549 448.797 217.178 448.797 221.654C448.797 226.13 452.425 229.759 456.902 229.759Z" fill="#3ECE23"/>
<path d="M253.812 5.98821C253.631 6.16888 253.53 6.41391 253.53 6.66942C253.53 6.92492 253.631 7.16998 253.812 7.35067L257.948 11.4867H247.749C247.494 11.4874 247.25 11.5893 247.07 11.7699C246.89 11.9505 246.789 12.1951 246.789 12.4501C246.789 12.7052 246.89 12.9498 247.07 13.1304C247.25 13.311 247.494 13.4128 247.749 13.4136H257.948L253.812 17.5495C253.631 17.7302 253.53 17.9752 253.53 18.2308C253.53 18.4863 253.631 18.7313 253.812 18.912C253.993 19.0927 254.238 19.1942 254.493 19.1942C254.749 19.1942 254.994 19.0927 255.174 18.912L260.955 13.1314C261.136 12.9507 261.237 12.7056 261.237 12.4501C261.237 12.1946 261.136 11.9495 260.955 11.7689L255.174 5.98821C254.994 5.80755 254.749 5.70605 254.493 5.70605C254.238 5.70605 253.993 5.80755 253.812 5.98821Z" fill="white"/>
<path d="M498.076 138.481H280.45C279.608 138.481 278.925 138.112 278.925 137.658C278.925 137.203 279.608 136.834 280.45 136.834H498.076C498.918 136.834 499.6 137.203 499.6 137.658C499.6 138.112 498.918 138.481 498.076 138.481Z" fill="#E6E6E6"/>
<path d="M498.076 102.104H280.45C279.608 102.104 278.925 101.735 278.925 101.28C278.925 100.826 279.608 100.457 280.45 100.457H498.076C498.918 100.457 499.6 100.826 499.6 101.28C499.6 101.735 498.918 102.104 498.076 102.104Z" fill="#E6E6E6"/>
<path d="M498.777 172.458H279.944C279.726 172.458 279.516 172.371 279.362 172.216C279.207 172.062 279.121 171.853 279.121 171.634C279.121 171.416 279.207 171.206 279.362 171.052C279.516 170.898 279.726 170.811 279.944 170.811H498.777C498.995 170.811 499.205 170.898 499.359 171.052C499.514 171.206 499.6 171.416 499.6 171.634C499.6 171.853 499.514 172.062 499.359 172.216C499.205 172.371 498.995 172.458 498.777 172.458Z" fill="#E6E6E6"/>
<path d="M498.777 205.394H279.944C279.726 205.394 279.516 205.308 279.362 205.153C279.207 204.999 279.121 204.789 279.121 204.571C279.121 204.353 279.207 204.143 279.362 203.989C279.516 203.834 279.726 203.748 279.944 203.748H498.777C498.995 203.748 499.205 203.834 499.359 203.989C499.514 204.143 499.6 204.353 499.6 204.571C499.6 204.789 499.514 204.999 499.359 205.153C499.205 205.308 498.995 205.394 498.777 205.394Z" fill="#E6E6E6"/>
<path d="M498.777 239.155H279.944C279.726 239.155 279.516 239.068 279.362 238.913C279.207 238.759 279.121 238.55 279.121 238.331C279.121 238.113 279.207 237.903 279.362 237.749C279.516 237.595 279.726 237.508 279.944 237.508H498.777C498.995 237.508 499.205 237.595 499.359 237.749C499.514 237.903 499.6 238.113 499.6 238.331C499.6 238.55 499.514 238.759 499.359 238.913C499.205 239.068 498.995 239.155 498.777 239.155Z" fill="#E6E6E6"/>
<path d="M473.252 237.458V101.791C473.252 101.509 473.621 101.281 474.076 101.281C474.53 101.281 474.899 101.509 474.899 101.791V237.458C474.899 237.74 474.53 237.968 474.076 237.968C473.621 237.968 473.252 237.74 473.252 237.458Z" fill="#E6E6E6"/>
<path d="M439.492 237.458V101.791C439.492 101.509 439.861 101.281 440.315 101.281C440.77 101.281 441.139 101.509 441.139 101.791V237.458C441.139 237.74 440.77 237.968 440.315 237.968C439.861 237.968 439.492 237.74 439.492 237.458Z" fill="#E6E6E6"/>
<path d="M405.732 237.458V101.791C405.732 101.509 406.101 101.281 406.555 101.281C407.01 101.281 407.379 101.509 407.379 101.791V237.458C407.379 237.74 407.01 237.968 406.555 237.968C406.101 237.968 405.732 237.74 405.732 237.458Z" fill="#E6E6E6"/>
<path d="M372.795 237.458V101.791C372.795 101.509 373.164 101.281 373.618 101.281C374.073 101.281 374.442 101.509 374.442 101.791V237.458C374.442 237.74 374.073 237.968 373.618 237.968C373.164 237.968 372.795 237.74 372.795 237.458Z" fill="#E6E6E6"/>
<path d="M338.211 271.912V101.92C338.258 101.737 338.364 101.575 338.514 101.459C338.663 101.343 338.846 101.281 339.035 101.281C339.224 101.281 339.407 101.343 339.556 101.459C339.705 101.575 339.812 101.737 339.858 101.92V271.912C339.812 272.095 339.705 272.257 339.556 272.373C339.407 272.489 339.224 272.552 339.035 272.552C338.846 272.552 338.663 272.489 338.514 272.373C338.364 272.257 338.258 272.095 338.211 271.912Z" fill="#E6E6E6"/>
<path d="M303.628 271.912V101.92C303.675 101.737 303.781 101.575 303.93 101.459C304.079 101.343 304.263 101.281 304.451 101.281C304.64 101.281 304.824 101.343 304.973 101.459C305.122 101.575 305.228 101.737 305.275 101.92V271.912C305.228 272.095 305.122 272.257 304.973 272.373C304.824 272.489 304.64 272.552 304.451 272.552C304.263 272.552 304.079 272.489 303.93 272.373C303.781 272.257 303.675 272.095 303.628 271.912Z" fill="#E6E6E6"/>
<path d="M279.944 272.915C279.726 272.916 279.516 272.829 279.361 272.675C279.207 272.521 279.119 272.312 279.119 272.093C279.118 271.875 279.205 271.665 279.359 271.511C279.513 271.356 279.722 271.269 279.94 271.268L363.734 270.905C363.951 270.909 364.157 270.997 364.311 271.15C364.465 271.302 364.555 271.508 364.561 271.725C364.561 271.833 364.54 271.94 364.5 272.04C364.459 272.14 364.398 272.231 364.322 272.308C364.246 272.385 364.156 272.446 364.056 272.488C363.956 272.529 363.849 272.551 363.741 272.552L279.948 272.915H279.944Z" fill="#E6E6E6"/>
<path d="M341.206 66.0202C340.988 66.0203 340.779 65.9337 340.624 65.7794C340.469 65.6251 340.383 65.4157 340.382 65.1973C340.382 64.979 340.469 64.7694 340.623 64.6149C340.777 64.4604 340.987 64.3735 341.205 64.3733L458.728 64.2266H458.729C458.948 64.2264 459.157 64.313 459.312 64.4673C459.466 64.6216 459.553 64.831 459.553 65.0494C459.554 65.2678 459.467 65.4773 459.313 65.6318C459.158 65.7863 458.949 65.8732 458.731 65.8734L341.208 66.0202H341.206Z" fill="#E6E6E6"/>
<path d="M381 334.475C377.737 334.475 374.547 333.507 371.834 331.695C369.121 329.882 367.007 327.305 365.758 324.291C364.51 321.276 364.183 317.959 364.82 314.759C365.456 311.559 367.027 308.619 369.335 306.312C371.642 304.005 374.581 302.434 377.782 301.797C380.982 301.16 384.299 301.487 387.313 302.736C390.328 303.984 392.905 306.099 394.717 308.812C396.53 311.525 397.498 314.715 397.498 317.978C397.498 320.144 397.071 322.289 396.242 324.291C395.413 326.292 394.198 328.111 392.666 329.643C391.134 331.175 389.315 332.39 387.313 333.219C385.312 334.048 383.167 334.475 381 334.475Z" fill="#E6E6E6"/>
<path d="M387.51 316.35H382.628V311.468C382.628 311.037 382.456 310.623 382.151 310.317C381.846 310.012 381.432 309.841 381 309.841C380.569 309.841 380.155 310.012 379.849 310.317C379.544 310.623 379.373 311.037 379.373 311.468V316.35H374.491C374.059 316.35 373.645 316.522 373.34 316.827C373.035 317.132 372.863 317.546 372.863 317.978C372.863 318.409 373.035 318.823 373.34 319.128C373.645 319.434 374.059 319.605 374.491 319.605H379.373V324.487C379.372 324.701 379.414 324.913 379.496 325.111C379.577 325.309 379.697 325.489 379.848 325.64C379.999 325.792 380.179 325.912 380.376 325.994C380.574 326.076 380.786 326.118 381 326.118C381.214 326.118 381.426 326.076 381.624 325.994C381.821 325.912 382.001 325.792 382.152 325.64C382.303 325.489 382.423 325.309 382.505 325.111C382.586 324.913 382.628 324.701 382.628 324.487V319.605H387.51C387.941 319.605 388.355 319.434 388.66 319.128C388.965 318.823 389.137 318.409 389.137 317.978C389.137 317.546 388.965 317.132 388.66 316.827C388.355 316.522 387.941 316.35 387.51 316.35Z" fill="white"/>
<path d="M418.877 334.475C415.614 334.475 412.425 333.507 409.712 331.695C406.999 329.882 404.884 327.305 403.636 324.291C402.387 321.276 402.06 317.959 402.697 314.759C403.333 311.559 404.905 308.619 407.212 306.312C409.519 304.005 412.459 302.434 415.659 301.797C418.859 301.16 422.176 301.487 425.191 302.736C428.205 303.984 430.782 306.099 432.595 308.812C434.407 311.525 435.375 314.715 435.375 317.978C435.375 320.144 434.948 322.289 434.119 324.291C433.29 326.292 432.075 328.111 430.543 329.643C429.011 331.175 427.192 332.39 425.191 333.219C423.189 334.048 421.044 334.475 418.877 334.475Z" fill="#E6E6E6"/>
<path d="M427.227 324.998L422.93 319.967C423.936 318.543 424.373 316.795 424.155 315.065C423.936 313.335 423.078 311.75 421.75 310.621C420.421 309.492 418.719 308.901 416.976 308.965C415.234 309.028 413.579 309.741 412.336 310.964C411.093 312.187 410.353 313.83 410.261 315.571C410.169 317.312 410.732 319.024 411.839 320.371C412.946 321.718 414.517 322.601 416.243 322.848C417.969 323.095 419.725 322.686 421.165 321.704L425.349 326.602C425.562 326.849 425.865 327.002 426.19 327.027C426.516 327.052 426.838 326.947 427.086 326.735C427.335 326.523 427.489 326.221 427.515 325.895C427.542 325.57 427.438 325.247 427.227 324.998ZM412.702 315.919C412.702 315.023 412.967 314.148 413.465 313.403C413.963 312.658 414.67 312.078 415.497 311.735C416.325 311.392 417.236 311.303 418.114 311.477C418.993 311.652 419.8 312.083 420.433 312.717C421.066 313.35 421.498 314.157 421.672 315.036C421.847 315.914 421.757 316.825 421.415 317.652C421.072 318.48 420.491 319.187 419.747 319.685C419.002 320.182 418.126 320.448 417.231 320.448C416.03 320.447 414.879 319.969 414.03 319.12C413.181 318.271 412.703 317.12 412.702 315.919Z" fill="white"/>
<path d="M341.206 336.102C340.988 336.102 340.779 336.016 340.624 335.861C340.469 335.707 340.383 335.498 340.382 335.279C340.382 335.061 340.469 334.851 340.623 334.697C340.777 334.542 340.987 334.455 341.205 334.455L458.728 334.308H458.729C458.948 334.308 459.157 334.395 459.312 334.549C459.466 334.703 459.553 334.913 459.553 335.131C459.554 335.349 459.467 335.559 459.313 335.713C459.158 335.868 458.949 335.955 458.731 335.955L341.208 336.102H341.206Z" fill="#E6E6E6"/>
<path d="M190.812 443.833L201.316 443.832L206.313 403.317L190.81 403.318L190.812 443.833Z" fill="#FFB6B6"/>
<path d="M188.136 440.402V454.013H222.004V453.585C222.003 450.089 220.614 446.736 218.142 444.264C215.67 441.792 212.317 440.403 208.821 440.402L202.629 435.708L202.307 435.84L191.093 440.402H188.136Z" fill="#2F2E41"/>
<path d="M95.902 430.176L105.303 434.862L127.849 400.831L113.974 393.916L95.902 430.176Z" fill="#FFB6B6"/>
<path d="M88.9639 438.097L119.274 453.198L119.463 452.819C120.237 451.27 120.697 449.584 120.818 447.857C120.94 446.13 120.72 444.396 120.171 442.755C119.622 441.113 118.754 439.595 117.619 438.289C116.483 436.982 115.101 435.912 113.551 435.14L110.101 428.183L109.739 428.158L97.6839 427.227L97.4368 427.104L95.0324 425.91L88.9639 438.097Z" fill="#2F2E41"/>
<path d="M197.936 226.066L140.016 228.094L139.612 227.507C139.612 227.507 134.672 239.035 134.672 248.916C134.672 252.201 136.957 273.689 135.795 277.754C135.651 278.259 136.645 279.498 136.319 281.853C136.107 283.381 134.94 282.205 134.672 284.323C134.479 285.843 136.534 286.682 136.319 288.44C136.084 290.361 133.258 296.583 133.004 298.719C130.296 321.467 126.69 354.422 126.69 354.422C126.69 354.422 112.209 393.208 109.146 393.838C104.004 394.895 100.533 404.245 103.382 406.189C104.739 407.115 122.275 413.343 122.275 413.343C123.238 413.518 126.253 412.006 124.332 408.43C123.979 407.772 126.087 409.447 126.438 408.659C126.81 407.821 126.079 404.487 126.506 403.557C130.338 395.205 136.222 383.631 141.798 377.687C150.037 368.906 155.254 357.722 156.689 345.767L169.479 274.85L173.863 294.737L177.49 298.321L176.495 306.678L176.666 314.79L185.724 348.55C185.724 348.55 187.082 411.598 184.9 413.6C183.719 414.684 178.705 428.041 188.194 429.245L205.435 427.915C205.435 427.915 207.758 423.019 206.597 421.277C205.435 419.535 205.505 420.01 206.922 417.159C208.339 414.308 207.758 409.477 207.758 409.477C210.017 386.771 210.908 363.951 210.426 341.139C209.562 303.671 204.325 260.627 204.325 259.75C204.281 258.854 204.446 257.959 204.807 257.138V254.773L202.582 246.393L197.936 226.066Z" fill="#2F2E41"/>
<path d="M122.95 247.133C122.464 246.304 122.166 245.377 122.077 244.42C121.988 243.462 122.111 242.497 122.435 241.592C122.759 240.687 123.279 239.863 123.955 239.181C124.632 238.498 125.451 237.972 126.353 237.639L125.937 196.022L136.202 202.516L135.022 241.96C135.48 243.513 135.352 245.18 134.663 246.645C133.974 248.11 132.772 249.271 131.284 249.909C129.796 250.547 128.126 250.616 126.59 250.105C125.053 249.593 123.758 248.536 122.95 247.133Z" fill="#FFB8B8"/>
<path d="M125.293 229.688L126.167 229.646L126.271 229.648L129.504 229.637L134.828 229.626L135.214 229.62L135.388 229.653L137.205 229.969L137.281 229.482L140.824 222.714L143.548 218.967L142.557 214.552L140.602 212.117L143.922 208.094L144.341 206.107L147.12 193.039L156.331 149.695L156.332 149.669L156.525 148.749L159.521 134.669L158.598 131.128L157.57 127.241C156.912 124.773 155.387 122.624 153.275 121.189C152.358 120.568 151.349 120.097 150.284 119.792C148.928 119.391 147.504 119.273 146.1 119.448L146.084 119.453C145.288 119.552 144.505 119.741 143.751 120.017L143.451 120.134C143.034 120.303 142.627 120.498 142.235 120.719C141.018 121.396 139.948 122.308 139.087 123.402C138.226 124.496 137.592 125.75 137.22 127.091L127.46 137.963L125.744 144.115L125.192 146.09L123.422 156.622L123.449 198.067L123.134 199.944L122.686 210.349L124.436 212.734L122.459 215.625L122.391 217.213L122.378 217.621L125.019 220.303L125.187 226.088L125.293 229.688Z" fill="#3F3D56"/>
<path d="M134.827 239.615C149.452 242.144 159.258 241.181 165.293 232.204C173.167 222.178 187.486 234.017 199.566 238.418L200.999 236.87L203.437 234.243L201.197 231.707L203.437 226.816L201.567 220.781L199.179 220.344L199.822 215.148L200.826 212.11L197.878 208.874L195.375 200.796L197.179 183.891C199.646 160.72 194.865 137.353 183.493 117.013L176.651 110.871L173.81 108.318L169.998 101.204L165.971 101.673L155.069 102.933L154.698 103.822L152.022 110.278L142.301 120.721C140.926 122.198 139.881 123.95 139.236 125.862C138.591 127.775 138.36 129.802 138.559 131.81L138.839 134.626L139.045 136.652L140.017 146.401L143.977 186.23L144.274 188.346L147.461 211.245C142.281 216.252 141.966 215.159 139.767 223.97C139.52 224.95 136.655 227.132 136.474 228.087C136.219 229.438 134.827 239.615 134.827 239.615Z" fill="#3F3D56"/>
<path d="M164.52 97.0068C174.978 97.0068 183.456 88.5291 183.456 78.0713C183.456 67.6135 174.978 59.1357 164.52 59.1357C154.063 59.1357 145.585 67.6135 145.585 78.0713C145.585 88.5291 154.063 97.0068 164.52 97.0068Z" fill="#FFB6B6"/>
<path d="M144.71 63.8169C147.251 61.1706 151.311 59.8653 154.759 61.1211C155.53 58.915 156.891 56.9627 158.695 55.4767C160.499 53.9908 162.676 53.0282 164.988 52.6937C167.301 52.3593 169.662 52.6658 171.812 53.5799C173.963 54.494 175.822 55.9806 177.186 57.8779C177.81 57.5978 178.496 57.4835 179.177 57.5461C179.858 57.6087 180.511 57.846 181.073 58.2352C182.19 59.0291 183.089 60.0904 183.69 61.322C185.238 64.2631 185.959 67.5689 185.778 70.8876C185.596 74.2062 184.518 77.4136 182.658 80.1681C183.399 78.6718 181.315 81.2488 179.285 80.5736C177.54 80.1165 170.375 75.5221 168.587 75.7544C166.799 75.9867 166.219 74.5448 164.47 74.1076C162.757 73.5596 158.384 80.6418 157.507 85.3279C157.341 86.2159 156.938 87.3193 156.035 87.3395C154.922 87.3644 154.589 85.7713 153.651 85.173C153.209 84.9481 152.696 84.9037 152.222 85.049C151.748 85.1944 151.348 85.5183 151.108 85.9523C150.889 86.3985 150.779 86.8906 150.788 87.3876C150.798 87.8846 150.925 88.3723 151.161 88.8099C151.641 89.6798 152.257 90.4666 152.988 91.1398L152.502 91.4067C152.023 91.7495 151.441 91.9151 150.853 91.8752C150.266 91.8354 149.711 91.5925 149.283 91.1882C147.475 92.0041 142.556 87.4027 143.209 84.6189C141.835 81.2065 141.084 77.5757 140.991 73.8985C140.916 70.1894 142.244 66.5886 144.71 63.8169Z" fill="#2F2E41"/>
<path d="M283.613 176.687C282.696 176.976 281.726 177.061 280.773 176.934C279.82 176.808 278.906 176.475 278.095 175.957C277.285 175.44 276.598 174.751 276.083 173.939C275.567 173.127 275.236 172.212 275.113 171.258L234.445 162.413L243.058 153.848L281.252 163.767C282.868 163.665 284.465 164.16 285.74 165.158C287.015 166.155 287.881 167.586 288.171 169.178C288.462 170.771 288.159 172.415 287.319 173.799C286.479 175.183 285.16 176.21 283.613 176.687Z" fill="#FFB8B8"/>
<path d="M173.71 117.978C171.352 118.064 169.091 118.933 167.283 120.448C166.283 121.277 165.448 122.289 164.824 123.429C164.138 124.665 163.709 126.029 163.565 127.436L163.566 127.444C163.355 129.516 163.762 131.604 164.737 133.445C165.712 135.286 167.21 136.797 169.042 137.787L182.439 145.047L184.136 145.965C195.551 157.599 214.798 163.681 236.941 167.715L249.671 171.197L253.951 169.609L254.987 173.678L259.248 173.817L261.565 173.336L266.413 171.434L267.339 169.572L267.339 169.564L269.328 160.737L269.342 160.679L269.341 160.67L269.805 158.651L267.071 157.386L264.693 154.209L260.392 154.295L256.47 154.636L255.321 151.948L205.621 128.95L195.33 124.184L195.305 124.169L194.814 123.938L181.39 117.727L177.735 117.843L173.71 117.978Z" fill="#3F3D56"/>
<path d="M282.316 186.934C286.792 186.934 290.421 183.305 290.421 178.829C290.421 174.353 286.792 170.724 282.316 170.724C277.84 170.724 274.211 174.353 274.211 178.829C274.211 183.305 277.84 186.934 282.316 186.934Z" fill="#3ECE23"/>
<path d="M230.508 455.269L109.603 453.441C186.579 453.441 211.444 454.981 0.287189 455.235C230.508 455.269 3.05176e-05 454.802 3.05176e-05 454.542C3.05176e-05 454.282 0.103323 454.032 0.287189 453.848C0.471055 453.664 0.720441 453.561 0.980466 453.561L230.508 453.308C230.768 453.309 231.017 453.412 231.2 453.596C231.383 453.78 231.486 454.029 231.486 454.289C231.486 454.548 231.383 454.797 231.2 454.981C231.017 455.165 230.768 455.268 230.508 455.269Z" fill="#CACACA"/>
<path d="M421.788 55.0214H378.147C377.165 55.0214 376.222 54.631 375.527 53.9361C374.832 53.2412 374.442 52.2987 374.442 51.316C374.442 50.3333 374.832 49.3908 375.527 48.6959C376.222 48.001 377.165 47.6106 378.147 47.6106H421.788C422.771 47.6106 423.714 48.001 424.409 48.6959C425.103 49.3908 425.494 50.3333 425.494 51.316C425.494 52.2987 425.103 53.2412 424.409 53.9361C423.714 54.631 422.771 55.0214 421.788 55.0214Z" fill="#E6E6E6"/>
<path d="M559.245 23.5556C557.451 23.5556 555.697 23.0235 554.205 22.0267C552.713 21.0298 551.55 19.6129 550.863 17.9552C550.177 16.2975 549.997 14.4734 550.347 12.7135C550.697 10.9537 551.561 9.3372 552.83 8.06844C554.099 6.79967 555.715 5.93563 557.475 5.58558C559.235 5.23553 561.059 5.41518 562.717 6.10184C564.374 6.78849 565.791 7.95129 566.788 9.44321C567.785 10.9351 568.317 12.6891 568.317 14.4834C568.317 16.8895 567.361 19.1971 565.66 20.8984C563.959 22.5998 561.651 23.5556 559.245 23.5556Z" fill="#E6E6E6"/>
</g>
<defs>
<clipPath id="clip0_770_1988">
<rect width="578.65" height="455.522" fill="white"/>
</clipPath>
</defs>
</svg>
