<svg width="532" height="419" viewBox="0 0 532 419" fill="none" xmlns="http://www.w3.org/2000/svg">
<g clip-path="url(#clip0_1458_5771)">
<path d="M266.454 12.017C266.43 13.3812 266.137 14.7272 265.593 15.9781C265.048 17.2291 264.262 18.3605 263.28 19.3077C262.298 20.255 261.139 20.9995 259.87 21.4987C258.6 21.9979 257.244 22.2421 255.88 22.2173H206.825C206.647 22.2128 206.469 22.2082 206.291 22.1945C205.832 22.1649 205.375 22.1024 204.924 22.0077V4.64252C204.924 3.94771 205.136 3.26939 205.532 2.69838C205.928 2.12738 206.488 1.69095 207.139 1.44751H256.254C259.007 1.49957 261.627 2.64161 263.54 4.62308C265.452 6.60456 266.5 9.26366 266.454 12.017Z" fill="white"/>
<path d="M525.445 0.322412H209.077C208.395 0.320398 207.719 0.445884 207.084 0.692393C206.005 1.09568 205.076 1.81868 204.421 2.76463C203.765 3.71057 203.413 4.83429 203.414 5.98533V351.046C203.415 352.547 204.011 353.988 205.073 355.049C206.135 356.111 207.575 356.708 209.077 356.709H525.445C526.947 356.708 528.387 356.111 529.449 355.049C530.511 353.988 531.108 352.547 531.108 351.046V5.98533C531.108 4.4836 530.511 3.04353 529.449 1.98164C528.387 0.919757 526.947 0.322956 525.445 0.322412ZM528.843 351.046C528.842 351.947 528.483 352.81 527.846 353.447C527.209 354.084 526.346 354.442 525.445 354.444H209.077C208.176 354.442 207.313 354.084 206.676 353.447C206.039 352.81 205.68 351.947 205.679 351.046V5.98533C205.68 5.0846 206.039 4.22117 206.676 3.58426C207.313 2.94735 208.176 2.58893 209.077 2.58758H525.445C526.346 2.58893 527.209 2.94735 527.846 3.58426C528.483 4.22117 528.842 5.0846 528.843 5.98533V351.046Z" fill="white"/>
<path d="M357.534 118.882C361.639 118.882 364.966 115.555 364.966 111.45C364.966 107.346 361.639 104.018 357.534 104.018C353.43 104.018 350.102 107.346 350.102 111.45C350.102 115.555 353.43 118.882 357.534 118.882Z" fill="#7B00D9"/>
<path d="M388.501 118.882C392.606 118.882 395.933 115.555 395.933 111.45C395.933 107.346 392.606 104.018 388.501 104.018C384.397 104.018 381.069 107.346 381.069 111.45C381.069 115.555 384.397 118.882 388.501 118.882Z" fill="#7B00D9"/>
<path d="M295.601 180.298C299.705 180.298 303.033 176.97 303.033 172.866C303.033 168.761 299.705 165.434 295.601 165.434C291.496 165.434 288.169 168.761 288.169 172.866C288.169 176.97 291.496 180.298 295.601 180.298Z" fill="#7B00D9"/>
<path d="M326.568 180.298C330.672 180.298 334 176.97 334 172.866C334 168.761 330.672 165.434 326.568 165.434C322.463 165.434 319.135 168.761 319.135 172.866C319.135 176.97 322.463 180.298 326.568 180.298Z" fill="#7B00D9"/>
<path d="M357.534 211.006C361.639 211.006 364.966 207.678 364.966 203.574C364.966 199.469 361.639 196.142 357.534 196.142C353.43 196.142 350.102 199.469 350.102 203.574C350.102 207.678 353.43 211.006 357.534 211.006Z" fill="#7B00D9"/>
<path d="M388.501 211.006C392.606 211.006 395.933 207.678 395.933 203.574C395.933 199.469 392.606 196.142 388.501 196.142C384.397 196.142 381.069 199.469 381.069 203.574C381.069 207.678 384.397 211.006 388.501 211.006Z" fill="#7B00D9"/>
<path d="M419.468 211.006C423.572 211.006 426.9 207.678 426.9 203.574C426.9 199.469 423.572 196.142 419.468 196.142C415.363 196.142 412.036 199.469 412.036 203.574C412.036 207.678 415.363 211.006 419.468 211.006Z" fill="#7B00D9"/>
<path d="M233.24 5.81342C233.074 5.97909 232.981 6.20377 232.981 6.43807C232.981 6.67236 233.074 6.89707 233.24 7.06276L237.032 10.8554H227.68C227.446 10.8561 227.222 10.9494 227.057 11.1151C226.892 11.2807 226.799 11.505 226.799 11.7388C226.799 11.9727 226.892 12.197 227.057 12.3626C227.222 12.5282 227.446 12.6216 227.68 12.6223H237.032L233.24 16.4148C233.074 16.5805 232.981 16.8052 232.981 17.0395C232.981 17.2738 233.074 17.4986 233.24 17.6642C233.405 17.8299 233.63 17.923 233.864 17.923C234.099 17.923 234.323 17.8299 234.489 17.6643L239.79 12.3635C239.955 12.1979 240.048 11.9731 240.048 11.7388C240.048 11.5045 239.955 11.2798 239.79 11.1141L234.489 5.81342C234.323 5.64775 234.099 5.55469 233.864 5.55469C233.63 5.55469 233.405 5.64775 233.24 5.81342Z" fill="white"/>
<path d="M457.224 127.306H257.666C256.894 127.306 256.268 126.968 256.268 126.551C256.268 126.134 256.894 125.796 257.666 125.796H457.224C457.996 125.796 458.622 126.134 458.622 126.551C458.622 126.968 457.996 127.306 457.224 127.306Z" fill="white"/>
<path d="M457.224 93.9493H257.666C256.894 93.9493 256.268 93.6112 256.268 93.1943C256.268 92.7773 256.894 92.4392 257.666 92.4392H457.224C457.996 92.4392 458.622 92.7773 458.622 93.1943C458.622 93.6112 457.996 93.9493 457.224 93.9493Z" fill="white"/>
<path d="M457.867 158.462H257.202C257.002 158.462 256.81 158.382 256.668 158.241C256.527 158.099 256.447 157.907 256.447 157.707C256.447 157.507 256.527 157.315 256.668 157.173C256.81 157.031 257.002 156.952 257.202 156.952H457.867C458.067 156.952 458.259 157.031 458.401 157.173C458.542 157.315 458.622 157.507 458.622 157.707C458.622 157.907 458.542 158.099 458.401 158.241C458.259 158.382 458.067 158.462 457.867 158.462Z" fill="white"/>
<path d="M457.867 188.664H257.202C257.002 188.664 256.81 188.585 256.668 188.443C256.527 188.301 256.447 188.109 256.447 187.909C256.447 187.709 256.527 187.517 256.668 187.375C256.81 187.234 257.002 187.154 257.202 187.154H457.867C458.067 187.154 458.259 187.234 458.401 187.375C458.542 187.517 458.622 187.709 458.622 187.909C458.622 188.109 458.542 188.301 458.401 188.443C458.259 188.585 458.067 188.664 457.867 188.664Z" fill="white"/>
<path d="M457.867 219.621H257.202C257.002 219.621 256.81 219.542 256.668 219.4C256.527 219.259 256.447 219.067 256.447 218.866C256.447 218.666 256.527 218.474 256.668 218.332C256.81 218.191 257.002 218.111 257.202 218.111H457.867C458.067 218.111 458.259 218.191 458.401 218.332C458.542 218.474 458.622 218.666 458.622 218.866C458.622 219.067 458.542 219.259 458.401 219.4C458.259 219.542 458.067 219.621 457.867 219.621Z" fill="white"/>
<path d="M434.461 218.065V93.6622C434.461 93.4037 434.799 93.1941 435.216 93.1941C435.633 93.1941 435.971 93.4037 435.971 93.6622V218.065C435.971 218.324 435.633 218.533 435.216 218.533C434.799 218.533 434.461 218.324 434.461 218.065Z" fill="white"/>
<path d="M403.504 218.065V93.6622C403.504 93.4037 403.842 93.1941 404.259 93.1941C404.676 93.1941 405.014 93.4037 405.014 93.6622V218.065C405.014 218.324 404.676 218.533 404.259 218.533C403.842 218.533 403.504 218.324 403.504 218.065Z" fill="white"/>
<path d="M372.547 218.065V93.6622C372.547 93.4037 372.885 93.1941 373.302 93.1941C373.719 93.1941 374.057 93.4037 374.057 93.6622V218.065C374.057 218.324 373.719 218.533 373.302 218.533C372.885 218.533 372.547 218.324 372.547 218.065Z" fill="white"/>
<path d="M342.344 218.065V93.6622C342.344 93.4037 342.682 93.1941 343.099 93.1941C343.516 93.1941 343.854 93.4037 343.854 93.6622V218.065C343.854 218.324 343.516 218.533 343.099 218.533C342.682 218.533 342.344 218.324 342.344 218.065Z" fill="white"/>
<path d="M310.632 249.659V93.7808C310.675 93.613 310.772 93.4643 310.909 93.3581C311.046 93.2519 311.214 93.1942 311.387 93.1942C311.56 93.1942 311.728 93.2519 311.865 93.3581C312.002 93.4643 312.099 93.613 312.142 93.7808V249.659C312.099 249.827 312.002 249.976 311.865 250.082C311.728 250.188 311.56 250.246 311.387 250.246C311.214 250.246 311.046 250.188 310.909 250.082C310.772 249.976 310.675 249.827 310.632 249.659Z" fill="white"/>
<path d="M278.92 249.659V93.7808C278.962 93.613 279.06 93.4643 279.197 93.3581C279.333 93.2519 279.502 93.1942 279.675 93.1942C279.848 93.1942 280.016 93.2519 280.153 93.3581C280.289 93.4643 280.387 93.613 280.43 93.7808V249.659C280.387 249.827 280.289 249.976 280.153 250.082C280.016 250.188 279.848 250.246 279.675 250.246C279.502 250.246 279.333 250.188 279.197 250.082C279.06 249.976 278.962 249.827 278.92 249.659Z" fill="white"/>
<path d="M257.202 250.579C257.002 250.579 256.81 250.5 256.668 250.359C256.526 250.218 256.446 250.026 256.445 249.826C256.445 249.625 256.524 249.433 256.665 249.291C256.807 249.149 256.999 249.069 257.199 249.069L334.035 248.736C334.234 248.74 334.424 248.82 334.565 248.96C334.706 249.1 334.788 249.289 334.794 249.488C334.794 249.587 334.775 249.685 334.737 249.777C334.7 249.869 334.645 249.952 334.575 250.022C334.505 250.093 334.422 250.149 334.331 250.187C334.239 250.225 334.141 250.245 334.042 250.246L257.205 250.579H257.202Z" fill="white"/>
<path d="M313.378 60.8615C313.178 60.8616 312.986 60.7822 312.844 60.6407C312.702 60.4992 312.623 60.3072 312.623 60.107C312.622 59.9067 312.702 59.7146 312.843 59.5729C312.985 59.4312 313.177 59.3515 313.377 59.3514L421.143 59.2168H421.144C421.344 59.2166 421.536 59.2961 421.678 59.4376C421.82 59.5791 421.899 59.771 421.9 59.9713C421.9 60.1716 421.82 60.3637 421.679 60.5054C421.537 60.6471 421.345 60.7268 421.145 60.7269L313.379 60.8615H313.378Z" fill="white"/>
<path d="M349.868 307.028C346.876 307.028 343.951 306.141 341.463 304.479C338.976 302.816 337.037 300.454 335.892 297.689C334.747 294.925 334.447 291.884 335.031 288.949C335.615 286.014 337.055 283.319 339.171 281.203C341.287 279.088 343.982 277.647 346.917 277.063C349.851 276.479 352.893 276.779 355.657 277.924C358.421 279.069 360.784 281.008 362.446 283.496C364.109 285.983 364.996 288.908 364.996 291.9C364.996 293.887 364.605 295.854 363.844 297.69C363.084 299.525 361.97 301.193 360.565 302.597C359.16 304.002 357.493 305.116 355.657 305.877C353.822 306.637 351.855 307.028 349.868 307.028Z" fill="white"/>
<path d="M355.837 290.408H351.36V285.931C351.36 285.535 351.203 285.156 350.923 284.876C350.643 284.596 350.264 284.439 349.868 284.439C349.472 284.439 349.093 284.596 348.813 284.876C348.533 285.156 348.376 285.535 348.376 285.931V290.408H343.899C343.503 290.408 343.124 290.565 342.844 290.845C342.564 291.125 342.407 291.505 342.407 291.9C342.407 292.296 342.564 292.676 342.844 292.956C343.124 293.235 343.503 293.393 343.899 293.393H348.376V297.869C348.375 298.066 348.414 298.26 348.488 298.442C348.563 298.623 348.673 298.788 348.812 298.927C348.95 299.066 349.115 299.176 349.296 299.251C349.478 299.326 349.672 299.365 349.868 299.365C350.064 299.365 350.259 299.326 350.44 299.251C350.621 299.176 350.786 299.066 350.925 298.927C351.063 298.788 351.173 298.623 351.248 298.442C351.323 298.26 351.361 298.066 351.36 297.869V293.393H355.837C356.233 293.393 356.612 293.235 356.892 292.956C357.172 292.676 357.329 292.296 357.329 291.9C357.329 291.505 357.172 291.125 356.892 290.845C356.612 290.565 356.233 290.408 355.837 290.408Z" fill="white"/>
<path d="M384.601 307.028C381.609 307.028 378.684 306.141 376.196 304.479C373.708 302.816 371.769 300.454 370.624 297.689C369.479 294.925 369.18 291.884 369.763 288.949C370.347 286.014 371.788 283.319 373.904 281.203C376.019 279.088 378.715 277.647 381.649 277.063C384.584 276.479 387.626 276.779 390.39 277.924C393.154 279.069 395.517 281.008 397.179 283.496C398.841 285.983 399.728 288.908 399.728 291.9C399.728 293.887 399.337 295.854 398.577 297.69C397.817 299.525 396.702 301.193 395.298 302.597C393.893 304.002 392.225 305.116 390.39 305.877C388.554 306.637 386.587 307.028 384.601 307.028Z" fill="white"/>
<path d="M392.257 298.338L388.317 293.725C389.239 292.419 389.64 290.815 389.44 289.229C389.239 287.643 388.453 286.19 387.235 285.154C386.017 284.119 384.455 283.577 382.857 283.636C381.26 283.694 379.742 284.348 378.602 285.469C377.463 286.59 376.784 288.097 376.7 289.693C376.615 291.29 377.132 292.86 378.147 294.095C379.162 295.33 380.603 296.14 382.185 296.366C383.768 296.592 385.378 296.218 386.698 295.317L390.535 299.809C390.73 300.036 391.008 300.176 391.306 300.198C391.605 300.221 391.9 300.125 392.128 299.93C392.356 299.736 392.497 299.459 392.521 299.161C392.546 298.862 392.451 298.566 392.257 298.338ZM378.938 290.013C378.938 289.191 379.181 288.388 379.638 287.706C380.094 287.023 380.742 286.49 381.501 286.176C382.26 285.862 383.095 285.779 383.901 285.94C384.706 286.1 385.446 286.495 386.027 287.076C386.608 287.657 387.003 288.397 387.164 289.203C387.324 290.008 387.242 290.843 386.927 291.602C386.613 292.361 386.081 293.009 385.398 293.466C384.715 293.922 383.912 294.165 383.091 294.165C381.989 294.164 380.934 293.726 380.155 292.948C379.377 292.169 378.939 291.114 378.938 290.013Z" fill="white"/>
<path d="M313.378 308.52C313.178 308.52 312.986 308.441 312.844 308.299C312.702 308.158 312.623 307.966 312.623 307.766C312.622 307.565 312.702 307.373 312.843 307.231C312.985 307.09 313.177 307.01 313.377 307.01L421.143 306.875H421.144C421.344 306.875 421.536 306.954 421.678 307.096C421.82 307.237 421.899 307.429 421.9 307.63C421.9 307.83 421.82 308.022 421.679 308.164C421.537 308.305 421.345 308.385 421.145 308.385L313.379 308.52H313.378Z" fill="white"/>
<path d="M175.47 407.307L185.102 407.306L189.685 370.155L175.468 370.156L175.47 407.307Z" fill="#FFB6B6"/>
<path d="M173.017 404.161V416.642H204.072V416.249C204.072 413.043 202.798 409.969 200.531 407.702C198.264 405.435 195.19 404.161 191.984 404.161L186.306 399.857L186.011 399.978L175.727 404.161H173.017Z" fill="#2F2E41"/>
<path d="M88.4399 394.784L97.0603 399.08L117.735 367.875L105.011 361.534L88.4399 394.784Z" fill="#FFB6B6"/>
<path d="M82.0778 402.046L109.871 415.894L110.045 415.547C110.754 414.127 111.176 412.58 111.288 410.997C111.399 409.413 111.197 407.823 110.694 406.318C110.19 404.812 109.395 403.421 108.353 402.223C107.312 401.025 106.045 400.044 104.624 399.336L101.46 392.956L101.128 392.933L90.0738 392.08L89.8473 391.966L87.6425 390.872L82.0778 402.046Z" fill="#2F2E41"/>
<path d="M182.003 207.62L128.891 209.479L128.521 208.941C128.521 208.941 123.991 219.512 123.991 228.572C123.991 231.585 126.086 251.288 125.021 255.016C124.889 255.48 125.8 256.616 125.501 258.775C125.307 260.176 124.237 259.098 123.991 261.04C123.814 262.434 125.698 263.203 125.501 264.815C125.286 266.576 122.695 272.282 122.461 274.241C119.978 295.1 116.672 325.319 116.672 325.319C116.672 325.319 103.393 360.885 100.584 361.462C95.8692 362.432 92.686 371.005 95.2988 372.788C96.5429 373.637 112.623 379.348 112.623 379.348C113.507 379.508 116.271 378.122 114.51 374.843C114.186 374.24 116.119 375.776 116.44 375.053C116.782 374.285 116.111 371.227 116.503 370.375C120.017 362.716 125.412 352.102 130.525 346.652C138.08 338.601 142.865 328.345 144.18 317.383L155.908 252.353L159.928 270.589L163.254 273.876L162.341 281.539L162.499 288.977L170.804 319.934C170.804 319.934 172.05 377.748 170.049 379.584C168.966 380.578 164.368 392.826 173.07 393.93L188.879 392.71C188.879 392.71 191.009 388.221 189.944 386.623C188.879 385.026 188.943 385.462 190.242 382.847C191.542 380.233 191.009 375.803 191.009 375.803C193.08 354.983 193.897 334.057 193.456 313.139C192.663 278.781 187.861 239.312 187.861 238.507C187.821 237.685 187.972 236.865 188.303 236.111V233.943L186.263 226.259L182.003 207.62Z" fill="#2F2E41"/>
<path d="M113.242 226.938C112.797 226.177 112.524 225.328 112.442 224.45C112.36 223.572 112.472 222.686 112.77 221.856C113.068 221.026 113.543 220.272 114.164 219.645C114.785 219.019 115.536 218.537 116.363 218.232L115.981 180.07L125.394 186.025L124.312 222.194C124.732 223.618 124.615 225.146 123.983 226.49C123.351 227.833 122.249 228.898 120.884 229.483C119.52 230.068 117.988 230.132 116.58 229.663C115.171 229.194 113.984 228.224 113.242 226.938Z" fill="#FFB8B8"/>
<path d="M115.391 210.941L116.192 210.902L116.288 210.904L119.252 210.894L124.134 210.884L124.488 210.879L124.647 210.909L126.314 211.199L126.383 210.752L129.632 204.546L132.13 201.11L131.221 197.061L129.429 194.829L132.473 191.139L132.858 189.318L135.406 177.334L143.852 137.589L143.853 137.565L144.03 136.722L146.777 123.81L145.931 120.563L144.988 116.999C144.384 114.736 142.986 112.766 141.049 111.45C140.208 110.881 139.283 110.449 138.307 110.169C137.064 109.801 135.757 109.693 134.47 109.853L134.456 109.858C133.725 109.948 133.008 110.122 132.316 110.375L132.041 110.482C131.658 110.637 131.286 110.817 130.926 111.019C129.81 111.639 128.829 112.475 128.04 113.479C127.25 114.482 126.668 115.632 126.327 116.862L117.378 126.831L115.804 132.472L115.298 134.284L113.675 143.941L113.7 181.945L113.411 183.666L113 193.207L114.605 195.394L112.792 198.046L112.73 199.501L112.717 199.876L115.139 202.335L115.294 207.639L115.391 210.941Z" fill="#3F3D56"/>
<path d="M124.133 220.044C137.544 222.363 146.536 221.48 152.07 213.248C159.29 204.055 172.42 214.91 183.498 218.946L184.812 217.527L187.047 215.118L184.993 212.792L187.047 208.307L185.333 202.773L183.143 202.373L183.732 197.608L184.653 194.822L181.95 191.855L179.655 184.448L181.308 168.946C183.571 147.698 179.186 126.272 168.759 107.621L162.485 101.988L159.88 99.6473L156.384 93.1237L152.691 93.554L142.695 94.7093L142.355 95.5247L139.901 101.444L130.986 111.02C129.725 112.375 128.767 113.982 128.176 115.735C127.584 117.489 127.373 119.348 127.556 121.189L127.812 123.771L128.001 125.629L128.892 134.569L132.524 171.091L132.796 173.031L135.718 194.029C130.969 198.62 130.679 197.618 128.663 205.698C128.437 206.596 125.809 208.597 125.643 209.473C125.409 210.711 124.133 220.044 124.133 220.044Z" fill="#3F3D56"/>
<path d="M151.361 89.2753C160.951 89.2753 168.725 81.5014 168.725 71.9119C168.725 62.3223 160.951 54.5485 151.361 54.5485C141.772 54.5485 133.998 62.3223 133.998 71.9119C133.998 81.5014 141.772 89.2753 151.361 89.2753Z" fill="#FFB6B6"/>
<path d="M133.195 58.841C135.526 56.4144 139.249 55.2175 142.41 56.369C143.117 54.3461 144.366 52.5558 146.02 51.1933C147.674 49.8307 149.67 48.948 151.791 48.6413C153.911 48.3346 156.076 48.6157 158.048 49.4539C160.02 50.2921 161.725 51.6553 162.976 53.3951C163.548 53.1382 164.176 53.0334 164.801 53.0908C165.425 53.1482 166.024 53.3658 166.54 53.7227C167.564 54.4507 168.389 55.4239 168.939 56.5532C170.359 59.2502 171.02 62.2815 170.854 65.3246C170.687 68.3678 169.698 71.3088 167.993 73.8346C168.672 72.4626 166.762 74.8256 164.9 74.2065C163.3 73.7873 156.73 69.5744 155.09 69.7874C153.451 70.0004 152.919 68.6782 151.315 68.2773C149.744 67.7749 145.734 74.269 144.93 78.566C144.778 79.3804 144.408 80.3921 143.58 80.4106C142.56 80.4335 142.255 78.9727 141.394 78.4241C140.989 78.2178 140.519 78.1771 140.084 78.3104C139.649 78.4437 139.283 78.7406 139.062 79.1387C138.861 79.5478 138.761 79.999 138.769 80.4548C138.778 80.9105 138.895 81.3577 139.111 81.759C139.551 82.5567 140.116 83.2781 140.786 83.8954L140.341 84.1402C139.902 84.4545 139.367 84.6064 138.829 84.5698C138.29 84.5333 137.781 84.3106 137.389 83.9398C135.731 84.688 131.22 80.4687 131.819 77.9159C130.56 74.7869 129.871 71.4575 129.786 68.0856C129.716 64.6844 130.934 61.3825 133.195 58.841Z" fill="#2F2E41"/>
<path d="M260.566 162.34C259.725 162.605 258.836 162.683 257.962 162.567C257.088 162.451 256.25 162.145 255.507 161.671C254.764 161.196 254.134 160.564 253.661 159.82C253.189 159.076 252.885 158.237 252.772 157.362L215.48 149.251L223.378 141.397L258.402 150.493C259.884 150.4 261.348 150.854 262.517 151.768C263.686 152.683 264.48 153.995 264.746 155.455C265.013 156.915 264.735 158.423 263.965 159.692C263.194 160.961 261.985 161.903 260.566 162.34Z" fill="#FFB8B8"/>
<path d="M159.788 108.506C157.626 108.584 155.553 109.381 153.895 110.77C152.977 111.531 152.212 112.458 151.64 113.504C151.01 114.637 150.617 115.887 150.485 117.178L150.486 117.185C150.292 119.085 150.666 121 151.56 122.688C152.454 124.376 153.828 125.762 155.508 126.67L167.793 133.327L169.349 134.169C179.816 144.837 197.465 150.413 217.769 154.113L229.442 157.306L233.367 155.85L234.317 159.581L238.224 159.709L240.349 159.267L244.795 157.524L245.644 155.816L245.643 155.809L247.468 147.714L247.48 147.661L247.48 147.653L247.905 145.801L245.398 144.641L243.217 141.728L239.273 141.807L235.677 142.12L234.623 139.655L189.049 118.567L179.613 114.196L179.59 114.182L179.14 113.971L166.83 108.275L163.478 108.382L159.788 108.506Z" fill="#3F3D56"/>
<path d="M259.377 171.736C263.482 171.736 266.809 168.409 266.809 164.304C266.809 160.2 263.482 156.872 259.377 156.872C255.272 156.872 251.945 160.2 251.945 164.304C251.945 168.409 255.272 171.736 259.377 171.736Z" fill="#7B00D9"/>
<path d="M211.871 417.793L101.004 416.117C171.588 416.117 194.389 417.529 0.763348 417.762C211.871 417.793 0.500031 417.365 0.500031 417.126C0.500031 416.888 0.594748 416.659 0.763348 416.49C0.931949 416.322 1.16063 416.227 1.39907 416.227L211.871 415.995C212.109 415.996 212.337 416.091 212.505 416.259C212.673 416.428 212.767 416.656 212.767 416.894C212.767 417.132 212.673 417.36 212.505 417.529C212.337 417.697 212.109 417.792 211.871 417.793Z" fill="#93989A"/>
<path d="M387.27 50.7757H347.252C346.351 50.7757 345.487 50.4177 344.85 49.7805C344.212 49.1433 343.854 48.2791 343.854 47.378C343.854 46.4768 344.212 45.6126 344.85 44.9754C345.487 44.3382 346.351 43.9802 347.252 43.9802H387.27C388.171 43.9802 389.035 44.3382 389.673 44.9754C390.31 45.6126 390.668 46.4768 390.668 47.378C390.668 48.2791 390.31 49.1433 389.673 49.7805C389.035 50.4177 388.171 50.7757 387.27 50.7757Z" fill="white"/>
<path d="M513.314 21.9224C511.669 21.9224 510.061 21.4345 508.693 20.5204C507.325 19.6063 506.258 18.307 505.629 16.7869C504.999 15.2668 504.834 13.5942 505.155 11.9804C505.476 10.3667 506.269 8.88443 507.432 7.721C508.595 6.55757 510.078 5.76526 511.691 5.44427C513.305 5.12329 514.978 5.28803 516.498 5.91767C518.018 6.54731 519.317 7.61358 520.231 8.98163C521.145 10.3497 521.633 11.9581 521.633 13.6034C521.633 15.8097 520.757 17.9257 519.197 19.4858C517.637 21.0459 515.521 21.9224 513.314 21.9224Z" fill="white"/>
</g>
<defs>
<clipPath id="clip0_1458_5771">
<rect width="530.608" height="417.703" fill="white" transform="translate(0.5 0.322388)"/>
</clipPath>
</defs>
</svg>
