<svg width="24" height="25" viewBox="0 0 24 25" fill="none" xmlns="http://www.w3.org/2000/svg">
<path d="M10.243 16.4052L6 12.1612L7.414 10.7472L10.243 13.5752L15.899 7.91821L17.314 9.33321L10.243 16.4052Z" fill="black"/>
<path fill-rule="evenodd" clip-rule="evenodd" d="M1 12.0913C1 6.01631 5.925 1.09131 12 1.09131C18.075 1.09131 23 6.01631 23 12.0913C23 18.1663 18.075 23.0913 12 23.0913C5.925 23.0913 1 18.1663 1 12.0913ZM12 21.0913C10.8181 21.0913 9.64778 20.8585 8.55585 20.4062C7.46392 19.9539 6.47177 19.291 5.63604 18.4553C4.80031 17.6195 4.13738 16.6274 3.68508 15.5355C3.23279 14.4435 3 13.2732 3 12.0913C3 10.9094 3.23279 9.73909 3.68508 8.64716C4.13738 7.55523 4.80031 6.56307 5.63604 5.72735C6.47177 4.89162 7.46392 4.22868 8.55585 3.77639C9.64778 3.3241 10.8181 3.09131 12 3.09131C14.3869 3.09131 16.6761 4.03952 18.364 5.72735C20.0518 7.41517 21 9.70436 21 12.0913C21 14.4783 20.0518 16.7674 18.364 18.4553C16.6761 20.1431 14.3869 21.0913 12 21.0913Z" fill="black"/>
</svg>
