<svg width="163" height="49" viewBox="0 0 163 49" fill="none" xmlns="http://www.w3.org/2000/svg">
<path d="M25.1361 0C11.743 0 0.885254 10.8574 0.885254 24.2506C0.885254 37.6451 11.743 48.5021 25.1361 48.5021C38.5298 48.5021 49.387 37.6451 49.387 24.2506C49.387 10.8584 38.5304 0.0012207 25.1358 0.0012207L25.1361 0ZM36.2574 34.9763C35.8219 35.6907 34.8912 35.9147 34.179 35.4794C28.4843 31.9987 21.3165 31.2125 12.875 33.1409C12.0616 33.3275 11.2507 32.8175 11.0654 32.0044C10.8792 31.1909 11.3868 30.38 12.2023 30.1946C21.4401 28.0828 29.3641 28.9918 35.7561 32.8978C36.4685 33.335 36.6944 34.2644 36.2571 34.9768L36.2574 34.9763ZM39.2257 28.3741C38.6772 29.264 37.5136 29.5431 36.6249 28.9968C30.1077 24.9906 20.17 23.8301 12.4597 26.1705C11.4598 26.4725 10.4037 25.9091 10.1002 24.9109C9.79903 23.9109 10.3629 22.8569 11.3611 22.5527C20.1683 19.8806 31.117 21.1749 38.6028 25.7751C39.4918 26.3221 39.7727 27.4865 39.2254 28.3744L39.2257 28.3741H39.2257ZM39.4805 21.498C31.6634 16.8558 18.7692 16.4287 11.3069 18.6937C10.1086 19.0571 8.84135 18.3807 8.4782 17.1824C8.11506 15.9835 8.79095 14.7172 9.99014 14.3528C18.5564 11.7522 32.7969 12.2549 41.7955 17.5968C42.8733 18.2363 43.2269 19.6285 42.5881 20.7048C41.951 21.7826 40.5551 22.1381 39.4808 21.498H39.4805ZM66.8639 22.3877C62.6767 21.3892 61.9313 20.6885 61.9313 19.2159C61.9313 17.8247 63.2411 16.8883 65.1888 16.8883C67.077 16.8883 68.9491 17.5995 70.912 19.0631C70.9714 19.1073 71.0458 19.125 71.119 19.1133C71.1923 19.1023 71.2572 19.062 71.3 19.0017L73.3445 16.1195C73.4285 16.0007 73.4056 15.8372 73.2924 15.7467C70.9563 13.8722 68.3257 12.9608 65.2509 12.9608C60.7298 12.9608 57.5719 15.6738 57.5719 19.556C57.5719 23.7188 60.296 25.1927 65.0036 26.3304C69.0103 27.2533 69.6865 28.0266 69.6865 29.4089C69.6865 30.9403 68.319 31.8926 66.1185 31.8926C63.6744 31.8926 61.6809 31.0693 59.4507 29.1379C59.3954 29.0902 59.3196 29.0686 59.2495 29.0726C59.1756 29.0786 59.1082 29.1125 59.0613 29.1693L56.7689 31.8976C56.6727 32.0106 56.6849 32.1797 56.7961 32.2776C59.3908 34.594 62.582 35.8174 66.0258 35.8174C70.8975 35.8174 74.0456 33.1558 74.0456 29.0358C74.0543 25.5579 71.9722 23.632 66.8726 22.3914L66.8639 22.3877ZM85.0673 18.2582C82.9556 18.2582 81.2236 19.09 79.7954 20.7941V18.8759C79.7954 18.7242 79.6726 18.6012 79.5214 18.6012H75.7721C75.6207 18.6012 75.4982 18.7242 75.4982 18.8759V40.1899C75.4982 40.3416 75.6207 40.4648 75.7721 40.4648H79.5214C79.6726 40.4648 79.7954 40.3416 79.7954 40.1899V33.462C81.2239 35.0653 82.9562 35.8485 85.0673 35.8485C88.9909 35.8485 92.9629 32.8281 92.9629 27.0544C92.9687 21.2793 88.9955 18.2579 85.0716 18.2579L85.0673 18.2582ZM88.6031 27.0544C88.6031 29.9945 86.7921 32.0461 84.1988 32.0461C81.6351 32.0461 79.7012 29.9014 79.7012 27.0544C79.7012 24.2076 81.6351 22.0625 84.1988 22.0625C86.7501 22.0623 88.6034 24.1611 88.6034 27.054L88.6031 27.0544ZM103.143 18.2582C98.0903 18.2582 94.1317 22.149 94.1317 27.1171C94.1317 32.0312 98.0631 35.8813 103.081 35.8813C108.152 35.8813 112.123 32.0034 112.123 27.0544C112.123 22.1224 108.179 18.2587 103.143 18.2587L103.143 18.2582ZM103.143 32.0756C100.456 32.0756 98.4294 29.916 98.4294 27.053C98.4294 24.1776 100.386 22.0911 103.081 22.0911C105.786 22.0911 107.826 24.2506 107.826 27.1158C107.826 29.9906 105.857 32.0756 103.144 32.0756H103.143ZM122.913 18.6012H118.788V14.3828C118.788 14.2319 118.665 14.1084 118.514 14.1084H114.765C114.614 14.1084 114.49 14.2319 114.49 14.3828V18.6012H112.688C112.537 18.6012 112.415 18.7242 112.415 18.8759V22.098C112.415 22.2491 112.537 22.3729 112.688 22.3729H114.49V30.7104C114.49 34.0797 116.167 35.7881 119.475 35.7881C120.82 35.7881 121.935 35.5103 122.987 34.9142C123.072 34.8665 123.125 34.7742 123.125 34.6763V31.6079C123.125 31.5133 123.076 31.4238 122.995 31.374C122.913 31.3229 122.812 31.3203 122.728 31.3617C122.006 31.7251 121.308 31.8928 120.527 31.8928C119.324 31.8928 118.788 31.3467 118.788 30.1226V22.3745H122.913C123.065 22.3745 123.187 22.251 123.187 22.0996V18.8777C123.193 18.7262 123.071 18.6027 122.917 18.6027L122.913 18.6012ZM137.288 18.6177V18.0996C137.288 16.5754 137.873 15.8956 139.184 15.8956C139.965 15.8956 140.593 16.0509 141.296 16.2855C141.383 16.3126 141.473 16.2992 141.543 16.2473C141.616 16.1953 141.657 16.1123 141.657 16.0243V12.8651C141.657 12.7443 141.579 12.6373 141.463 12.6016C140.72 12.3806 139.769 12.1539 138.346 12.1539C134.883 12.1539 133.053 14.1041 133.053 17.7914V18.5848H131.252C131.101 18.5848 130.977 18.7081 130.977 18.8593V22.098C130.977 22.2491 131.101 22.3729 131.252 22.3729H133.053V35.2333C133.053 35.3846 133.175 35.5079 133.326 35.5079H137.076C137.227 35.5079 137.35 35.3846 137.35 35.2333V22.3738H140.851L146.213 35.2308C145.605 36.5818 145.006 36.8505 144.189 36.8505C143.528 36.8505 142.833 36.6533 142.121 36.2642C142.055 36.2273 141.975 36.2211 141.903 36.2435C141.832 36.2688 141.771 36.322 141.741 36.3916L140.47 39.1793C140.41 39.3113 140.462 39.4659 140.588 39.5343C141.915 40.2526 143.112 40.5591 144.592 40.5591C147.361 40.5591 148.891 39.2698 150.24 35.8005L156.744 18.9929C156.777 18.9082 156.767 18.8127 156.715 18.7377C156.664 18.6633 156.581 18.6184 156.49 18.6184H152.587C152.47 18.6184 152.365 18.6927 152.327 18.8026L148.329 30.2234L143.949 18.7952C143.909 18.6887 143.807 18.6184 143.693 18.6184H137.288L137.288 18.6177ZM128.954 18.6012H125.205C125.053 18.6012 124.93 18.7242 124.93 18.8759V35.2333C124.93 35.3846 125.053 35.5079 125.205 35.5079H128.954C129.105 35.5079 129.229 35.3846 129.229 35.2333V18.8772C129.229 18.8041 129.2 18.734 129.149 18.6823C129.097 18.6309 129.027 18.6019 128.954 18.6022L128.954 18.6012ZM127.101 11.1532C125.616 11.1532 124.41 12.3555 124.41 13.8409C124.41 15.3271 125.616 16.5309 127.101 16.5309C128.586 16.5309 129.79 15.3271 129.79 13.8409C129.79 12.3557 128.585 11.1532 127.102 11.1532H127.101ZM159.946 23.8601C158.462 23.8601 157.307 22.6686 157.307 21.2216C157.307 19.7744 158.477 18.5692 159.96 18.5692C161.444 18.5692 162.598 19.7605 162.598 21.2064C162.598 22.6536 161.428 23.8601 159.946 23.8601H159.946ZM159.96 18.8317C158.609 18.8317 157.586 19.906 157.586 21.2216C157.586 22.5365 158.602 23.5964 159.947 23.5964C161.298 23.5964 162.322 22.5228 162.322 21.2064C162.322 19.8915 161.305 18.8317 159.961 18.8317H159.96H159.96ZM160.545 21.4777L161.292 22.5226H160.662L159.99 21.5641H159.413V22.5226H158.886V19.7531H160.121C160.764 19.7531 161.188 20.0824 161.188 20.6365C161.19 21.0906 160.927 21.368 160.548 21.4779H160.545V21.4777ZM160.099 20.2284H159.412V21.1042H160.099C160.442 21.1042 160.647 20.9365 160.647 20.6658C160.647 20.381 160.441 20.2284 160.1 20.2284H160.099Z" fill="white"/>
</svg>
