<svg width="165" height="25" viewBox="0 0 165 25" fill="none" xmlns="http://www.w3.org/2000/svg">
<path fill-rule="evenodd" clip-rule="evenodd" d="M90.2506 11.3967C90.2506 11.3967 88.659 10.4118 87.6729 10.0307C87.6729 10.0307 84.6243 8.61769 84.0194 7.94542C84.0194 7.94542 82.8321 6.82549 83.5267 5.52592C83.5267 5.52592 83.8181 4.67485 85.0739 4.67485C85.0739 4.67485 86.7086 4.76472 86.7086 6.10826V8.00362H92.5669L92.5558 5.21233C92.5558 5.21233 93.0062 0.64006 85.6552 0.439804C85.6552 0.439804 79.8744 0.0597074 78.2162 3.1739C78.2162 3.1739 77.5653 3.86769 77.5653 6.28703V8.03526C77.5653 8.03526 77.499 10.0533 78.5297 11.3517C78.5297 11.3517 79.1122 12.2029 80.5467 13.1439C80.5467 13.1439 83.4594 14.7133 85.2065 15.6103C85.2065 15.6103 86.9722 16.6178 86.7391 18.2197C86.7391 18.2197 86.5961 19.8658 84.892 19.7984C84.892 19.7984 83.3337 19.7279 83.3337 18.1146V16.2203H77.0914V18.9729C77.0914 18.9729 76.9156 24.2358 84.9389 24.2358C84.9389 24.2358 92.6018 24.392 92.9603 18.8339V16.5943C92.9603 16.5943 93.2302 13.1888 90.2506 11.3967Z" fill="#F5F5F5"/>
<path fill-rule="evenodd" clip-rule="evenodd" d="M60.2587 1.09375L58.2971 13.3871H57.8385L55.9643 1.20386H46.1782L45.6885 23.4651H51.4825L51.5519 6.69196H52.0073L55.0787 23.4616H61.1742L64.2079 6.6983H64.6113L64.7512 23.4651H70.5754L69.9491 1.09375H60.2587Z" fill="#F5F5F5"/>
<path fill-rule="evenodd" clip-rule="evenodd" d="M25.7683 1.18604L21.9133 23.4398H28.1505L30.4338 6.18497H30.947L33.2297 23.4398H39.4662L35.6121 1.18604H25.7683Z" fill="#F5F5F5"/>
<path fill-rule="evenodd" clip-rule="evenodd" d="M156.651 11.0897V14.3735H158.25V17.8975C158.25 19.619 156.778 19.6508 156.778 19.6508C154.988 19.6508 155.055 18.0139 155.055 18.0139V5.82474C155.055 4.56903 156.643 4.50168 156.643 4.50168C158.168 4.50168 158.179 5.99945 158.179 5.99945V7.8529H164.052C164.243 4.23599 163.523 3.36035 163.523 3.36035C162.066 0.0887136 156.555 0.267608 156.555 0.267608C148.086 0.267608 149.025 6.76575 149.025 6.76575V18.5513C149.207 24.6459 157.551 24.0278 157.693 24.0196C161.406 23.6089 162.527 22.4298 162.527 22.4298C163.559 21.6636 163.825 20.603 163.825 20.603C164.119 19.9848 164.193 18.0139 164.193 18.0139V11.0897H156.651Z" fill="#F5F5F5"/>
<path fill-rule="evenodd" clip-rule="evenodd" d="M137.184 14.7118H136.929L130.967 1.09882H123.839V23.4688H129.641L129.293 9.8573H129.552L135.727 23.4688H142.642V1.09741H136.766L137.184 14.7118Z" fill="#F5F5F5"/>
<path fill-rule="evenodd" clip-rule="evenodd" d="M109.671 17.894C109.671 17.894 109.756 19.73 108.054 19.73C108.054 19.73 106.263 19.826 106.263 17.94L106.246 1.11206H99.8793V17.8061C99.8793 17.8061 99.2263 24.1245 108.143 24.1245C108.143 24.1245 115.891 24.2164 115.891 18.0952V1.11313H109.671V17.894Z" fill="#F5F5F5"/>
<path fill-rule="evenodd" clip-rule="evenodd" d="M13.6335 11.3967C13.6335 11.3967 12.0427 10.4118 11.0567 10.0307C11.0567 10.0307 8.00897 8.61974 7.40521 7.94539C7.40521 7.94539 6.21692 6.82457 6.91284 5.52694C6.91284 5.52694 7.20282 4.6758 8.45752 4.6758C8.45752 4.6758 10.0933 4.76476 10.0933 6.10824V8.00359H15.9537L15.9416 5.21126C15.9416 5.21126 16.3901 0.640004 9.04095 0.439778C9.04095 0.439778 8.48712 0.403981 7.67499 0.444936C7.67499 0.444936 3.22333 0.68398 1.63147 3.12587C1.62329 3.14324 1.61011 3.15752 1.60095 3.17388C1.60095 3.17388 0.950989 3.8666 0.950989 6.28701V8.03518C0.950989 8.03518 0.883667 10.0521 1.91559 11.3518C1.91559 11.3518 2.49695 12.2028 3.9325 13.1438C3.9325 13.1438 6.84326 14.7122 8.59137 15.6093C8.59137 15.6093 10.3577 16.6167 10.125 18.2197C10.125 18.2197 9.98083 19.8658 8.27771 19.7983C8.27771 19.7983 6.71967 19.7279 6.71967 18.1146V16.2193H0.476135V18.9729C0.476135 18.9729 0.30127 24.2357 8.32269 24.2357C8.32269 24.2357 15.9854 24.392 16.345 18.8339V16.5953C16.345 16.5953 16.6138 13.1888 13.6335 11.3967Z" fill="#F5F5F5"/>
</svg>
