<svg width="86" height="29" viewBox="0 0 86 29" fill="none" xmlns="http://www.w3.org/2000/svg">
<path d="M37.3411 27.6892H30.3491L34.7193 0.830811H41.7119L37.3411 27.6892Z" fill="#F5F5F5"/>
<path d="M24.4664 0.831055L17.7995 19.3034L17.0114 15.3254L17.0122 15.3269L14.6586 3.25001C14.6586 3.25001 14.3749 0.831055 11.3417 0.831055H0.321954L0.193359 1.28511C0.193359 1.28511 3.56416 1.98629 7.50682 4.3564L13.5817 27.6889H20.8672L31.9918 0.831055H24.4664Z" fill="#F5F5F5"/>
<path d="M79.4649 27.6889H85.8854L80.2875 0.831055H74.6659C72.0695 0.831055 71.4373 2.8326 71.4373 2.8326L61.0103 27.6889H68.2979L69.7562 23.7002H78.6452L79.4649 27.6889ZM71.7707 18.1883L75.4454 8.1375L77.5123 18.1883H71.7707Z" fill="#F5F5F5"/>
<path d="M61.5567 7.28978L62.5538 1.52151C62.5538 1.52151 59.4747 0.350464 56.2648 0.350464C52.7949 0.350464 44.5554 1.86778 44.5554 9.24177C44.5554 16.1811 54.226 16.2673 54.226 19.9105C54.226 23.5536 45.5518 22.9027 42.6897 20.6045L41.6494 26.6343C41.6494 26.6343 44.7709 28.1516 49.5426 28.1516C54.3136 28.1516 61.5129 25.6795 61.5129 18.9564C61.5129 11.9732 51.7546 11.3231 51.7546 8.28769C51.7546 5.25088 58.5645 5.64099 61.5567 7.28978Z" fill="#F5F5F5"/>
<path d="M17.0122 15.3262L14.6586 3.2494C14.6586 3.2494 14.3749 0.830444 11.3417 0.830444H0.321954L0.193359 1.2845C0.193359 1.2845 5.49023 2.38297 10.5716 6.49527C15.4281 10.4265 17.0122 15.3262 17.0122 15.3262Z" fill="#F5F5F5"/>
</svg>
