<svg width="111" height="46" viewBox="0 0 111 46" fill="none" xmlns="http://www.w3.org/2000/svg">
<path d="M8.36395 18.3298C8.36395 17.145 9.33605 16.6893 10.9461 16.6893C13.2549 16.6893 16.1712 17.388 18.4799 18.6336V11.4946C15.9585 10.4922 13.4675 10.0972 10.9461 10.0972C4.7793 10.0972 0.678223 13.3173 0.678223 18.6943C0.678223 27.0787 12.222 25.7421 12.222 29.3571C12.222 30.7545 11.0069 31.2102 9.30567 31.2102C6.78427 31.2102 3.56417 30.1773 1.01238 28.7799V36.01C3.83757 37.2251 6.69314 37.7415 9.30567 37.7415C15.6244 37.7415 19.9685 34.6126 19.9685 29.1748C19.9381 20.1221 8.36395 21.7321 8.36395 18.3298ZM28.8997 4.02157L21.4874 5.60124L21.457 29.9343C21.457 34.4303 24.829 37.7415 29.325 37.7415C31.816 37.7415 33.6387 37.2859 34.6412 36.7391V30.5722C33.6691 30.9672 28.8693 32.3646 28.8693 27.8686V17.0843H34.6412V10.6137H28.8693L28.8997 4.02157ZM44.0889 12.8617L43.6028 10.6137H37.0411V37.1947H44.6357V19.1804C46.428 16.8412 49.4659 17.2665 50.4076 17.6007V10.6137C49.4355 10.2491 45.8812 9.58081 44.0889 12.8617ZM52.2607 10.6137H59.8856V37.1947H52.2607V10.6137ZM52.2607 8.30492L59.8856 6.66449V0.497681L52.2607 2.10773V8.30492ZM75.7431 10.0972C72.7661 10.0972 70.8522 11.4946 69.789 12.4668L69.3941 10.5833H62.7108V46.0045L70.3054 44.3944L70.3358 35.7973C71.4294 36.5872 73.0395 37.7112 75.7128 37.7112C81.1505 37.7112 86.1021 33.3367 86.1021 23.7067C86.0718 14.897 81.0593 10.0972 75.7431 10.0972ZM73.9204 31.0279C72.1281 31.0279 71.0649 30.39 70.3358 29.6001L70.3054 18.3298C71.0952 17.4488 72.1889 16.8412 73.9204 16.8412C76.6849 16.8412 78.5987 19.9398 78.5987 23.9194C78.5987 27.9901 76.7152 31.0279 73.9204 31.0279ZM110.04 24.0105C110.04 16.2337 106.273 10.0972 99.0737 10.0972C91.8437 10.0972 87.4692 16.2337 87.4692 23.9498C87.4692 33.0937 92.6335 37.7112 100.046 37.7112C103.661 37.7112 106.395 36.8909 108.461 35.7366V29.6609C106.395 30.6938 104.025 31.3317 101.018 31.3317C98.0712 31.3317 95.4587 30.2988 95.1245 26.7142H109.98C109.98 26.3193 110.04 24.7396 110.04 24.0105ZM95.0334 21.1246C95.0334 17.6918 97.1295 16.264 99.0433 16.264C100.896 16.264 102.871 17.6918 102.871 21.1246H95.0334Z" fill="white"/>
</svg>
