<svg width="133" height="44" viewBox="0 0 133 44" fill="none" xmlns="http://www.w3.org/2000/svg">
<path d="M32.6005 15.8738H17.1467V20.4595H28.1067C27.5655 26.8904 22.2152 29.6325 17.1653 29.6325C10.7047 29.6325 5.06654 24.549 5.06654 17.4237C5.06654 10.4827 10.4411 5.13687 17.1797 5.13687C22.3788 5.13687 25.4419 8.45142 25.4419 8.45142L28.6531 5.12662C28.6531 5.12662 24.5318 0.53833 17.0156 0.53833C7.44449 0.53833 0.0402832 8.61646 0.0402832 17.3417C0.0402832 25.892 7.00493 34.2286 17.2597 34.2286C26.2782 34.2286 32.8802 28.0502 32.8802 18.9144C32.8802 16.9866 32.6 15.8727 32.6 15.8727L32.6005 15.8738Z" fill="#F5F5F5"/>
<path d="M45.2595 12.5527C38.9182 12.5527 34.3738 17.5105 34.3738 23.2923C34.3738 29.1596 38.7819 34.2091 45.3338 34.2091C51.265 34.2091 56.1247 29.6755 56.1247 23.4181C56.1247 16.2464 50.472 12.5527 45.2595 12.5527ZM45.3224 16.8062C48.4407 16.8062 51.3956 19.3271 51.3956 23.3897C51.3956 27.3661 48.4532 29.9588 45.308 29.9588C41.8523 29.9588 39.1261 27.1913 39.1261 23.3582C39.1261 19.6072 41.8187 16.8062 45.3224 16.8062Z" fill="#F5F5F5"/>
<path d="M68.9331 12.5527C62.5923 12.5527 58.0479 17.5105 58.0479 23.2923C58.0479 29.1596 62.4555 34.2091 69.0079 34.2091C74.9392 34.2091 79.7982 29.6755 79.7982 23.4181C79.7982 16.2464 74.1461 12.5527 68.9331 12.5527ZM68.9966 16.8062C72.1144 16.8062 75.0697 19.3271 75.0697 23.3897C75.0697 27.3661 72.1273 29.9588 68.9821 29.9588C65.5264 29.9588 62.8002 27.1913 62.8002 23.3582C62.8002 19.6072 65.4924 16.8062 68.9966 16.8062Z" fill="#F5F5F5"/>
<path d="M92.1538 12.5652C86.3336 12.5652 81.7588 17.6631 81.7588 23.3851C81.7588 29.9026 87.0625 34.2246 92.0538 34.2246C95.1396 34.2246 96.7808 32.9998 97.9922 31.5932V33.7288C97.9922 37.4642 95.7242 39.7014 92.3004 39.7014C88.9928 39.7014 87.334 37.2424 86.7572 35.8467L82.5956 37.5865C84.0723 40.7081 87.044 43.9637 92.3344 43.9637C98.1217 43.9637 102.532 40.3185 102.532 32.6737V13.2163H97.9922V15.0505C96.5961 13.5464 94.6871 12.5656 92.1538 12.5656V12.5652ZM92.5754 16.8098C95.429 16.8098 98.359 19.2467 98.359 23.4078C98.359 27.6376 95.4352 29.9686 92.512 29.9686C89.4091 29.9686 86.5219 27.4487 86.5219 23.4481C86.5219 19.2911 89.5206 16.8098 92.5754 16.8098Z" fill="#F5F5F5"/>
<path d="M122.717 12.5383C117.227 12.5383 112.617 16.9069 112.617 23.3521C112.617 30.1729 117.756 34.218 123.245 34.218C127.826 34.218 130.638 31.7115 132.316 29.4656L128.573 26.9751C127.602 28.4827 125.978 29.9557 123.268 29.9557C120.224 29.9557 118.824 28.2887 117.957 26.6743L132.476 20.6496L131.722 18.884C130.32 15.4266 127.048 12.5394 122.718 12.5394L122.717 12.5383ZM122.907 16.7031C124.885 16.7031 126.309 17.7546 126.914 19.0161L117.218 23.0688C116.8 19.9309 119.772 16.7031 122.907 16.7031Z" fill="#F5F5F5"/>
<path d="M105.696 33.575H110.465V1.65845H105.696V33.575Z" fill="#F5F5F5"/>
</svg>
