<svg width="154" height="44" viewBox="0 0 154 44" fill="none" xmlns="http://www.w3.org/2000/svg">
<path d="M153.322 39.6222C153.322 42.0199 151.385 43.9634 148.995 43.9634H114.733C112.343 43.9634 110.406 42.0199 110.406 39.6222V4.87997C110.406 2.48242 112.343 0.538696 114.733 0.538696H148.995C151.385 0.538696 153.322 2.48242 153.322 4.87997V39.6222Z" fill="#F5F5F5"/>
<path d="M0.597656 9.29431H6.37146V30.0354H16.5516V34.8975H0.597656V9.29431Z" fill="#F5F5F5"/>
<path d="M24.5649 11.1561C24.5649 12.7512 23.3875 14.0429 21.4502 14.0429C19.6269 14.0429 18.4492 12.7512 18.4492 11.1561C18.4492 9.52272 19.6651 8.26917 21.5264 8.26917C23.3875 8.26917 24.5271 9.52272 24.5649 11.1561ZM18.6013 34.8975V16.3221H24.3753V34.8975H18.6013Z" fill="#F5F5F5"/>
<path d="M27.8307 22.248C27.8307 19.9311 27.7548 17.994 27.6787 16.3221H32.6928L32.9591 18.9053H33.0732C33.8327 17.6895 35.694 15.9043 38.8085 15.9043C42.6076 15.9043 45.4567 18.4496 45.4567 23.9195V34.8976H39.6824V24.6032C39.6824 22.2102 38.847 20.577 36.7578 20.577C35.162 20.577 34.2126 21.6786 33.7945 22.7419C33.6428 23.1218 33.6051 23.6535 33.6051 24.1856V34.8976H27.8307V22.248Z" fill="#F5F5F5"/>
<path d="M54.6855 24.1474H54.7614C55.1795 23.3496 55.6353 22.5901 56.091 21.9064L59.8513 16.3221H66.8028L60.1553 23.8434L67.7523 34.8976H60.6492L56.1284 27.262L54.6855 29.0854V34.8976H48.9111V7.92725H54.6855V24.1474Z" fill="#F5F5F5"/>
<path d="M72.2343 27.4523C72.3863 29.8453 74.779 30.9851 77.4762 30.9851C79.4516 30.9851 81.0468 30.7189 82.6049 30.1872L83.3642 34.0999C81.4647 34.8976 79.1479 35.2775 76.6408 35.2775C70.3348 35.2775 66.7261 31.631 66.7261 25.8188C66.7261 21.1086 69.6514 15.9043 76.1084 15.9043C82.1106 15.9043 84.3898 20.577 84.3898 25.1731C84.3898 26.1606 84.2755 27.0342 84.1996 27.4523H72.2343ZM79.0336 23.5015C79.0336 22.0961 78.426 19.7408 75.767 19.7408C73.3358 19.7408 72.3479 21.9827 72.1961 23.5015H79.0336Z" fill="#F5F5F5"/>
<path d="M104.673 7.92725V29.3517C104.673 31.4408 104.749 33.6443 104.825 34.8976H99.6963L99.4686 32.2006H99.3551C98.2155 34.2516 95.936 35.316 93.5431 35.316C89.1369 35.316 85.6038 31.5551 85.6038 25.7808C85.5662 19.5128 89.4789 15.8666 93.9227 15.8666C96.2398 15.8666 97.9873 16.702 98.8228 17.9555H98.8988V7.92725H104.673ZM98.8988 24.1856C98.8988 23.8813 98.8988 23.4637 98.8228 23.1217C98.4813 21.6026 97.228 20.3109 95.4426 20.3109C92.783 20.3109 91.4535 22.666 91.4535 25.5911C91.4535 28.7434 93.0115 30.7188 95.4044 30.7188C97.0757 30.7188 98.4431 29.5797 98.7851 27.9464C98.8613 27.5284 98.8988 27.0729 98.8988 26.6167V24.1856Z" fill="#F5F5F5"/>
<path d="M124.366 11.156C124.366 12.751 123.189 14.0428 121.252 14.0428C119.429 14.0428 118.251 12.751 118.251 11.156C118.251 9.5226 119.466 8.26904 121.327 8.26904C123.189 8.26904 124.329 9.5226 124.366 11.156ZM118.403 34.8974V16.322H124.177V34.8974H118.403Z" fill="#2E55E2"/>
<path d="M127.632 22.2477C127.632 19.9308 127.556 17.9937 127.48 16.3219H132.494L132.76 18.9051H132.874C133.634 17.6893 135.496 15.9041 138.611 15.9041C142.409 15.9041 145.258 18.4494 145.258 23.9193V34.8974H139.484V24.603C139.484 22.21 138.648 20.5768 136.559 20.5768C134.963 20.5768 134.014 21.6783 133.596 22.7416C133.444 23.1216 133.406 23.6533 133.406 24.1854V34.8974H127.632V22.2477Z" fill="#2E55E2"/>
</svg>
