<svg width="33" height="34" viewBox="0 0 33 34" fill="none" xmlns="http://www.w3.org/2000/svg">
<rect y="0.830078" width="32.3398" height="32.3398" rx="16.1699" fill="#7B00D9" fill-opacity="0.53"/>
<path d="M21.1104 17.4612C20.8433 19.686 19.3861 20.575 18.7567 21.2204C18.1264 21.8676 18.2393 21.9965 18.2816 22.9457C18.2887 23.0631 18.2716 23.1808 18.2315 23.2914C18.1914 23.4019 18.129 23.5032 18.0483 23.5887C17.9676 23.6743 17.8702 23.7425 17.7621 23.789C17.654 23.8355 17.5376 23.8593 17.4199 23.8591H14.9194C14.8019 23.8589 14.6856 23.8348 14.5776 23.7881C14.4697 23.7415 14.3724 23.6734 14.2917 23.5879C14.211 23.5024 14.1485 23.4014 14.1081 23.291C14.0677 23.1806 14.0503 23.0631 14.0568 22.9457C14.0568 22.0143 14.1433 21.798 13.5826 21.2204C12.8677 20.5054 11.1856 19.496 11.1856 16.7199C11.1813 16.0303 11.32 15.3473 11.5927 14.714C11.8655 14.0807 12.2665 13.5107 12.7705 13.04C13.2744 12.5694 13.8704 12.2082 14.5209 11.9793C15.1714 11.7504 15.8622 11.6588 16.5499 11.7102C17.2376 11.7615 17.9071 11.9548 18.5164 12.2778C19.1257 12.6007 19.6614 13.0464 20.0899 13.5867C20.5183 14.127 20.8302 14.7503 21.0059 15.4171C21.1815 16.0839 21.2171 16.7799 21.1104 17.4612Z" stroke="white" stroke-width="1.41111" stroke-linecap="round" stroke-linejoin="round"/>
<path d="M14.72 23.8072V25.2296C14.72 25.6181 14.9364 25.937 15.2026 25.937H17.1339C17.402 25.937 17.6175 25.6171 17.6175 25.2296V23.8072M15.435 13.8918C14.8795 13.892 14.3469 14.1129 13.9542 14.5057C13.5615 14.8986 13.3409 15.4313 13.3409 15.9868M23.0662 16.9097H24.7915M21.3296 11.254L22.5535 10.0301M22.2704 21.7037L23.4943 22.9266M16.1687 7.94727V9.34238M9.80935 10.0291L11.0248 11.254M8.86861 22.9266L10.084 21.7037M9.27125 16.9097H7.54688" stroke="white" stroke-width="1.41111" stroke-linecap="round" stroke-linejoin="round"/>
</svg>
