<svg width="26" height="26" viewBox="0 0 26 26" fill="none" xmlns="http://www.w3.org/2000/svg">
<path d="M4.33203 19.9168V6.08259C4.33203 5.60159 4.50356 5.18992 4.84661 4.84759C5.18967 4.50526 5.60134 4.33373 6.08161 4.33301H19.9158C20.3968 4.33301 20.8084 4.50454 21.1508 4.84759C21.4931 5.19065 21.6646 5.60231 21.6654 6.08259V19.9168C21.6654 20.3978 21.4938 20.8094 21.1508 21.1518C20.8077 21.4941 20.3961 21.6656 19.9158 21.6663H6.08161C5.60061 21.6663 5.18895 21.4948 4.84661 21.1518C4.50428 20.8087 4.33275 20.3963 4.33203 19.9168ZM5.41536 9.91759H20.582V6.08367C20.582 5.88867 20.5196 5.7287 20.3946 5.60376C20.2697 5.47881 20.1101 5.41634 19.9158 5.41634H6.08161C5.88734 5.41634 5.72773 5.47881 5.60278 5.60376C5.47784 5.7287 5.41536 5.88867 5.41536 6.08367V9.91759ZM10.8299 15.2508H15.1675V11.0009H10.8299V15.2508ZM10.8299 20.5841H15.1675V16.3342H10.8299V20.5841ZM5.41536 15.2498H9.74653V10.9998H5.41536V15.2498ZM16.2509 15.2498H20.582V10.9998H16.2509V15.2498ZM6.0827 20.583H9.74653V16.3331H5.41536V19.9168C5.41536 20.111 5.47784 20.2706 5.60278 20.3956C5.72773 20.5205 5.8877 20.583 6.0827 20.583ZM16.2509 20.583H19.9147C20.1097 20.583 20.2697 20.5205 20.3946 20.3956C20.5196 20.2706 20.582 20.111 20.582 19.9168V16.3331H16.2509V20.583Z" fill="white"/>
</svg>
