<svg width="23" height="20" viewBox="0 0 23 20" fill="none" xmlns="http://www.w3.org/2000/svg">
<path d="M20.2695 2.33366H16.8354L14.8529 0.166992H8.35286L6.37036 2.33366H2.9362C2.36156 2.33366 1.81046 2.56193 1.40413 2.96826C0.997804 3.37459 0.769531 3.92569 0.769531 4.50033V17.5003C0.769531 18.075 0.997804 18.6261 1.40413 19.0324C1.81046 19.4387 2.36156 19.667 2.9362 19.667H20.2695C20.8442 19.667 21.3953 19.4387 21.8016 19.0324C22.2079 18.6261 22.4362 18.075 22.4362 17.5003V4.50033C22.4362 3.92569 22.2079 3.37459 21.8016 2.96826C21.3953 2.56193 20.8442 2.33366 20.2695 2.33366ZM20.2695 17.5003H2.9362V4.50033H7.3237L9.3062 2.33366H13.8995L15.882 4.50033H20.2695V17.5003ZM11.6029 5.58366C10.1663 5.58366 8.78853 6.15434 7.7727 7.17016C6.75688 8.18599 6.1862 9.56374 6.1862 11.0003C6.1862 12.4369 6.75688 13.8147 7.7727 14.8305C8.78853 15.8463 10.1663 16.417 11.6029 16.417C13.0395 16.417 14.4172 15.8463 15.433 14.8305C16.4488 13.8147 17.0195 12.4369 17.0195 11.0003C17.0195 9.56374 16.4488 8.18599 15.433 7.17016C14.4172 6.15434 13.0395 5.58366 11.6029 5.58366ZM11.6029 14.2503C10.7409 14.2503 9.91426 13.9079 9.30477 13.2984C8.69527 12.6889 8.35286 11.8623 8.35286 11.0003C8.35286 10.1384 8.69527 9.31172 9.30477 8.70223C9.91426 8.09274 10.7409 7.75033 11.6029 7.75033C12.4648 7.75033 13.2915 8.09274 13.901 8.70223C14.5105 9.31172 14.8529 10.1384 14.8529 11.0003C14.8529 11.8623 14.5105 12.6889 13.901 13.2984C13.2915 13.9079 12.4648 14.2503 11.6029 14.2503Z" fill="white"/>
</svg>
