<svg width="28" height="28" viewBox="0 0 28 28" fill="none" xmlns="http://www.w3.org/2000/svg">
<path d="M13.9993 0.666992C6.62602 0.666992 0.666016 6.62699 0.666016 14.0003C0.666016 21.3737 6.62602 27.3337 13.9993 27.3337C21.3727 27.3337 27.3327 21.3737 27.3327 14.0003C27.3327 6.62699 21.3727 0.666992 13.9993 0.666992ZM13.9993 24.667C8.11935 24.667 3.33268 19.8803 3.33268 14.0003C3.33268 8.12033 8.11935 3.33366 13.9993 3.33366C19.8793 3.33366 24.666 8.12033 24.666 14.0003C24.666 19.8803 19.8793 24.667 13.9993 24.667ZM18.786 7.33366L13.9993 12.1203L9.21268 7.33366L7.33268 9.21366L12.1193 14.0003L7.33268 18.787L9.21268 20.667L13.9993 15.8803L18.786 20.667L20.666 18.787L15.8793 14.0003L20.666 9.21366L18.786 7.33366Z" fill="white"/>
</svg>
