<svg width="7" height="6" viewBox="0 0 7 6" fill="none" xmlns="http://www.w3.org/2000/svg">
<path d="M6.48612 1.11533C6.53329 1.06981 6.57093 1.01535 6.59683 0.955127C6.62274 0.894905 6.63638 0.830128 6.63699 0.764575C6.63759 0.699021 6.62512 0.634005 6.60033 0.573319C6.57553 0.512633 6.5389 0.457493 6.49257 0.411116C6.44624 0.364739 6.39113 0.328054 6.33047 0.303201C6.2698 0.278349 6.2048 0.265827 6.13925 0.266365C6.07369 0.266904 6.0089 0.280492 5.94866 0.306338C5.88841 0.332184 5.83391 0.369769 5.78835 0.416901L3.80958 2.39501L1.83147 0.416901C1.78627 0.368395 1.73176 0.32949 1.6712 0.302506C1.61064 0.275522 1.54527 0.261012 1.47898 0.259842C1.41269 0.258673 1.34684 0.270867 1.28537 0.295698C1.22389 0.320529 1.16805 0.357487 1.12117 0.404369C1.07428 0.45125 1.03733 0.507094 1.01249 0.568568C0.987664 0.630043 0.97547 0.69589 0.976639 0.76218C0.977809 0.82847 0.992319 0.893845 1.0193 0.954406C1.04629 1.01497 1.08519 1.06947 1.1337 1.11467L3.11049 3.09344L1.13238 5.07155C1.04517 5.16514 0.997696 5.28893 0.999953 5.41683C1.00221 5.54473 1.05402 5.66677 1.14448 5.75722C1.23493 5.84768 1.35697 5.89949 1.48487 5.90175C1.61278 5.90401 1.73656 5.85653 1.83015 5.76932L3.80958 3.79121L5.78769 5.76998C5.88128 5.85719 6.00507 5.90467 6.13297 5.90241C6.26087 5.90015 6.38291 5.84834 6.47336 5.75788C6.56382 5.66743 6.61563 5.54539 6.61789 5.41749C6.62014 5.28959 6.57267 5.1658 6.48546 5.07221L4.50867 3.09344L6.48612 1.11533Z" fill="white"/>
</svg>
