<svg width="32" height="32" viewBox="0 0 32 32" fill="none" xmlns="http://www.w3.org/2000/svg">
<path d="M15.9993 2.66699C8.62602 2.66699 2.66602 8.62699 2.66602 16.0003C2.66602 23.3737 8.62602 29.3337 15.9993 29.3337C23.3727 29.3337 29.3327 23.3737 29.3327 16.0003C29.3327 8.62699 23.3727 2.66699 15.9993 2.66699ZM15.9993 26.667C10.1193 26.667 5.33268 21.8803 5.33268 16.0003C5.33268 10.1203 10.1193 5.33366 15.9993 5.33366C21.8793 5.33366 26.666 10.1203 26.666 16.0003C26.666 21.8803 21.8793 26.667 15.9993 26.667ZM20.786 9.33366L15.9993 14.1203L11.2127 9.33366L9.33268 11.2137L14.1193 16.0003L9.33268 20.787L11.2127 22.667L15.9993 17.8803L20.786 22.667L22.666 20.787L17.8793 16.0003L22.666 11.2137L20.786 9.33366Z" fill="white"/>
</svg>
