<svg width="21" height="20" viewBox="0 0 21 20" fill="none" xmlns="http://www.w3.org/2000/svg">
<path d="M19.0391 15V13.75H17.7259C17.6449 13.3589 17.4896 12.987 17.2684 12.6544L18.1997 11.7231L17.3159 10.8394L16.3847 11.7706C16.0521 11.5495 15.6802 11.3942 15.2891 11.3131V10H14.0391V11.3131C13.648 11.3942 13.2761 11.5495 12.9434 11.7706L12.0122 10.8394L11.1284 11.7231L12.0597 12.6544C11.8386 12.987 11.6833 13.3589 11.6022 13.75H10.2891V15H11.6022C11.6833 15.3911 11.8386 15.763 12.0597 16.0956L11.1284 17.0269L12.0122 17.9106L12.9434 16.9794C13.2761 17.2005 13.648 17.3558 14.0391 17.4369V18.75H15.2891V17.4369C15.6802 17.3558 16.0521 17.2005 16.3847 16.9794L17.3159 17.9106L18.1997 17.0269L17.2684 16.0956C17.4896 15.763 17.6449 15.3911 17.7259 15H19.0391ZM14.6641 16.25C14.2932 16.25 13.9307 16.14 13.6224 15.934C13.314 15.728 13.0737 15.4351 12.9318 15.0925C12.7899 14.7499 12.7527 14.3729 12.8251 14.0092C12.8974 13.6455 13.076 13.3114 13.3382 13.0492C13.6005 12.787 13.9346 12.6084 14.2983 12.536C14.662 12.4637 15.039 12.5008 15.3816 12.6427C15.7242 12.7846 16.017 13.025 16.2231 13.3333C16.4291 13.6416 16.5391 14.0042 16.5391 14.375C16.5386 14.8721 16.3409 15.3488 15.9893 15.7003C15.6378 16.0518 15.1612 16.2495 14.6641 16.25Z" fill="white"/>
<path d="M17.7891 2.5H2.78906C2.45754 2.5 2.1396 2.6317 1.90518 2.86612C1.67076 3.10054 1.53906 3.41848 1.53906 3.75V16.25C1.53906 16.5815 1.67076 16.8995 1.90518 17.1339C2.1396 17.3683 2.45754 17.5 2.78906 17.5H9.03906V16.25H2.78906V7.5H17.7891V9.375H19.0391V3.75C19.0391 3.41848 18.9074 3.10054 18.6729 2.86612C18.4385 2.6317 18.1206 2.5 17.7891 2.5ZM17.7891 6.25H2.78906V3.75H17.7891V6.25Z" fill="white"/>
<path d="M12.7891 5.625C13.1342 5.625 13.4141 5.34518 13.4141 5C13.4141 4.65482 13.1342 4.375 12.7891 4.375C12.4439 4.375 12.1641 4.65482 12.1641 5C12.1641 5.34518 12.4439 5.625 12.7891 5.625Z" fill="white"/>
<path d="M14.6641 5.625C15.0092 5.625 15.2891 5.34518 15.2891 5C15.2891 4.65482 15.0092 4.375 14.6641 4.375C14.3189 4.375 14.0391 4.65482 14.0391 5C14.0391 5.34518 14.3189 5.625 14.6641 5.625Z" fill="white"/>
<path d="M16.5391 5.625C16.8842 5.625 17.1641 5.34518 17.1641 5C17.1641 4.65482 16.8842 4.375 16.5391 4.375C16.1939 4.375 15.9141 4.65482 15.9141 5C15.9141 5.34518 16.1939 5.625 16.5391 5.625Z" fill="white"/>
</svg>
