<svg width="21" height="20" viewBox="0 0 21 20" fill="none" xmlns="http://www.w3.org/2000/svg">
<path d="M16.5859 3.75V1.25H1.58594V7.5H7.21094V18.75H19.0859V3.75H16.5859ZM2.83594 6.25V2.5H15.3359V3.75H7.21094V6.25H2.83594ZM17.8359 17.5H8.46094V5H17.8359V17.5Z" fill="#93989A"/>
<path d="M9.71094 6.875H10.9609V8.125H9.71094V6.875ZM12.2109 6.875H16.5859V8.125H12.2109V6.875ZM9.71094 10.625H10.9609V11.875H9.71094V10.625ZM12.2109 10.625H16.5859V11.875H12.2109V10.625ZM9.71094 14.375H10.9609V15.625H9.71094V14.375ZM12.2109 14.375H16.5859V15.625H12.2109V14.375Z" fill="#93989A"/>
</svg>
