<svg width="21" height="20" viewBox="0 0 21 20" fill="none" xmlns="http://www.w3.org/2000/svg">
<path d="M19.0404 3.75H16.5404V1.25H15.2904V3.75H12.7904V5H15.2904V7.5H16.5404V5H19.0404V3.75ZM15.2904 17.8663L11.5561 14.1319C12.4561 13.0059 12.8908 11.5781 12.7709 10.1416C12.651 8.70508 11.9856 7.36904 10.9113 6.40789C9.83704 5.44674 8.43549 4.93346 6.99457 4.97347C5.55364 5.01348 4.18274 5.60375 3.16346 6.62303C2.14417 7.64231 1.5539 9.01321 1.51389 10.4541C1.47388 11.8951 1.98717 13.2966 2.94832 14.3709C3.90947 15.4452 5.24551 16.1106 6.68199 16.2305C8.11848 16.3504 9.54635 15.9157 10.6723 15.0156L14.4067 18.75L15.2904 17.8663ZM2.79043 10.625C2.79043 9.75971 3.04702 8.91385 3.52775 8.19438C4.00848 7.47492 4.69176 6.91416 5.49119 6.58303C6.29061 6.25189 7.17028 6.16525 8.01895 6.33406C8.86762 6.50287 9.64717 6.91955 10.259 7.53141C10.8709 8.14326 11.2876 8.92281 11.4564 9.77148C11.6252 10.6201 11.5385 11.4998 11.2074 12.2992C10.8763 13.0987 10.3155 13.7819 9.59605 14.2627C8.87658 14.7434 8.03072 15 7.16543 15C6.00561 14.9983 4.89378 14.5369 4.07366 13.7168C3.25355 12.8967 2.79208 11.7848 2.79043 10.625Z" fill="white"/>
</svg>
