<svg width="42" height="42" viewBox="0 0 42 42" fill="none" xmlns="http://www.w3.org/2000/svg">
<path d="M21 2.625C17.3658 2.625 13.8132 3.70267 10.7914 5.72175C7.76965 7.74082 5.41448 10.6106 4.02372 13.9682C2.63296 17.3258 2.26908 21.0204 2.97808 24.5848C3.68708 28.1492 5.43713 31.4233 8.00692 33.9931C10.5767 36.5629 13.8508 38.3129 17.4152 39.0219C20.9796 39.7309 24.6742 39.367 28.0318 37.9763C31.3894 36.5855 34.2592 34.2304 36.2783 31.2086C38.2973 28.1868 39.375 24.6342 39.375 21C39.375 16.1266 37.4391 11.4529 33.9931 8.00691C30.5471 4.56093 25.8734 2.625 21 2.625ZM18.375 28.3369L11.8125 21.7744L13.8994 19.6875L18.375 24.1631L28.1006 14.4375L30.1954 16.5191L18.375 28.3369Z" fill="#3ECE23"/>
</svg>
