<svg width="17" height="17" viewBox="0 0 17 17" fill="none" xmlns="http://www.w3.org/2000/svg">
<path d="M7.32867 11.2755L4.5 8.44619L5.44267 7.50352L7.32867 9.38886L11.0993 5.61752L12.0427 6.56086L7.32867 11.2755Z" fill="#3ECE23"/>
<path fill-rule="evenodd" clip-rule="evenodd" d="M1.16699 8.39953C1.16699 4.34953 4.45033 1.06619 8.50033 1.06619C12.5503 1.06619 15.8337 4.34953 15.8337 8.39953C15.8337 12.4495 12.5503 15.7329 8.50033 15.7329C4.45033 15.7329 1.16699 12.4495 1.16699 8.39953ZM8.50033 14.3995C7.71239 14.3995 6.93218 14.2443 6.20423 13.9428C5.47627 13.6413 4.81484 13.1993 4.25768 12.6422C3.70053 12.085 3.25858 11.4236 2.95705 10.6956C2.65552 9.96767 2.50033 9.18746 2.50033 8.39953C2.50033 7.6116 2.65552 6.83138 2.95705 6.10343C3.25858 5.37547 3.70053 4.71404 4.25768 4.15689C4.81484 3.59973 5.47627 3.15778 6.20423 2.85625C6.93218 2.55472 7.71239 2.39953 8.50033 2.39953C10.0916 2.39953 11.6177 3.03167 12.743 4.15689C13.8682 5.2821 14.5003 6.80823 14.5003 8.39953C14.5003 9.99082 13.8682 11.5169 12.743 12.6422C11.6177 13.7674 10.0916 14.3995 8.50033 14.3995Z" fill="#3ECE23"/>
</svg>
