<svg width="25" height="24" viewBox="0 0 25 24" fill="none" xmlns="http://www.w3.org/2000/svg">
<path d="M12.5 9.48138L11.812 8.79238L13.906 6.69238H9V5.69238H13.906L11.806 3.59238L12.5 2.90438L15.788 6.19238L12.5 9.48138ZM7.808 21.3084C7.386 21.3084 7.03033 21.1637 6.741 20.8744C6.45167 20.585 6.30733 20.2297 6.308 19.8084C6.30867 19.387 6.453 19.0314 6.741 18.7414C7.03033 18.4527 7.386 18.3084 7.808 18.3084C8.23 18.3084 8.58533 18.4527 8.874 18.7414C9.16267 19.03 9.30733 19.3857 9.308 19.8084C9.30867 20.231 9.164 20.5864 8.874 20.8744C8.584 21.1624 8.22867 21.307 7.808 21.3084ZM17.192 21.3084C16.7707 21.3084 16.4153 21.1637 16.126 20.8744C15.8367 20.585 15.692 20.2297 15.692 19.8084C15.692 19.387 15.8367 19.0314 16.126 18.7414C16.4153 18.4527 16.7707 18.3084 17.192 18.3084C17.6133 18.3084 17.969 18.4527 18.259 18.7414C18.5477 19.0307 18.692 19.3864 18.692 19.8084C18.692 20.2297 18.5477 20.585 18.259 20.8744C17.9697 21.1637 17.614 21.3084 17.192 21.3084ZM2.5 3.69238V2.69238H4.948L9.044 11.3084H15.679C15.7943 11.3084 15.897 11.2794 15.987 11.2214C16.0763 11.1634 16.153 11.0834 16.217 10.9814L19.713 4.69238H20.853L17.069 11.5274C16.9243 11.7707 16.7363 11.9617 16.505 12.1004C16.2737 12.239 16.0193 12.3084 15.742 12.3084H8.6L7.385 14.5384C7.28233 14.6924 7.279 14.859 7.375 15.0384C7.471 15.2177 7.61533 15.3077 7.808 15.3084H18.692V16.3084H7.808C7.22467 16.3084 6.78833 16.0634 6.499 15.5734C6.20967 15.0834 6.20367 14.5884 6.481 14.0884L7.985 11.4084L4.308 3.69238H2.5Z" fill="#7B00D9"/>
</svg>
