<svg width="25" height="24" viewBox="0 0 25 24" fill="none" xmlns="http://www.w3.org/2000/svg">
<path d="M2.5 12C2.5 7.757 2.5 5.636 3.964 4.318C5.43 3 7.786 3 12.5 3C17.214 3 19.571 3 21.035 4.318C22.499 5.636 22.5 7.758 22.5 12C22.5 16.242 22.5 18.364 21.035 19.682C19.572 21 17.214 21 12.5 21C7.786 21 5.429 21 3.964 19.682C2.499 18.364 2.5 16.242 2.5 12Z" stroke="#7B00D9" stroke-width="1.5" stroke-linecap="round" stroke-linejoin="round"/>
<path d="M6.5 16H10.5M14.5 8H18.5M14.5 12H18.5M14.5 16H18.5M8.9 8H8.1C7.346 8 6.969 8 6.734 8.234C6.5 8.47 6.5 8.846 6.5 9.6V10.4C6.5 11.154 6.5 11.531 6.734 11.766C6.97 12 7.346 12 8.1 12H8.9C9.654 12 10.031 12 10.266 11.766C10.5 11.53 10.5 11.154 10.5 10.4V9.6C10.5 8.846 10.5 8.469 10.266 8.234C10.03 8 9.654 8 8.9 8Z" stroke="#7B00D9" stroke-width="1.5" stroke-linecap="round" stroke-linejoin="round"/>
</svg>
