<svg width="25" height="24" viewBox="0 0 25 24" fill="none" xmlns="http://www.w3.org/2000/svg">
<g clip-path="url(#clip0_2378_11488)">
<path d="M16.5 8H7.16667C6.98986 8 6.82029 7.92976 6.69526 7.80474C6.57024 7.67971 6.5 7.51014 6.5 7.33333V4.66667C6.5 4.48986 6.57024 4.32029 6.69526 4.19526C6.82029 4.07024 6.98986 4 7.16667 4H16.5C16.6768 4 16.8464 4.07024 16.9714 4.19526C17.0964 4.32029 17.1667 4.48986 17.1667 4.66667V7.33333C17.1667 7.51014 17.0964 7.67971 16.9714 7.80474C16.8464 7.92976 16.6768 8 16.5 8ZM7.83333 6.66667H15.8333V5.29333H7.83333V6.66667Z" fill="#7B00D9"/>
<path d="M16.5 9.38672H7.16667C6.98986 9.38672 6.82029 9.45696 6.69526 9.58198C6.57024 9.70701 6.5 9.87657 6.5 10.0534V12.6667C6.5 12.8435 6.57024 13.0131 6.69526 13.1381C6.82029 13.2631 6.98986 13.3334 7.16667 13.3334H14.74L17.1667 10.8667V10.0534C17.1667 9.87657 17.0964 9.70701 16.9714 9.58198C16.8464 9.45696 16.6768 9.38672 16.5 9.38672ZM15.8333 12.0001H7.83333V10.6667H15.8333V12.0001Z" fill="#7B00D9"/>
<path d="M9.87398 21.0063V20.9663L10.0873 20.0397H5.16732V2.66634H18.5007V9.49967L19.834 8.23967V1.99967C19.834 1.82286 19.7637 1.65329 19.6387 1.52827C19.5137 1.40325 19.3441 1.33301 19.1673 1.33301H4.50065C4.32384 1.33301 4.15427 1.40325 4.02925 1.52827C3.90422 1.65329 3.83398 1.82286 3.83398 1.99967V20.6663C3.83398 20.8432 3.90422 21.0127 4.02925 21.1377C4.15427 21.2628 4.32384 21.333 4.50065 21.333H9.83398C9.83939 21.2233 9.85275 21.1141 9.87398 21.0063Z" fill="#7B00D9"/>
<path d="M17.1665 12.7803L16.6465 13.3069C16.7755 13.2803 16.8937 13.2161 16.9863 13.1224C17.0788 13.0287 17.1415 12.9096 17.1665 12.7803Z" fill="#7B00D9"/>
<path d="M6.5 17.9603C6.5 18.1371 6.57024 18.3067 6.69526 18.4317C6.82029 18.5568 6.98986 18.627 7.16667 18.627H10.3933L10.5933 17.7603L10.68 17.3937V17.3603H7.83333V16.0003H12.06L13.3933 14.667H7.16667C6.98986 14.667 6.82029 14.7372 6.69526 14.8623C6.57024 14.9873 6.5 15.1568 6.5 15.3337V17.9603Z" fill="#7B00D9"/>
<path d="M24.8262 11.1129L22.5795 8.86619C22.4798 8.76621 22.3613 8.68689 22.2309 8.63277C22.1005 8.57864 21.9607 8.55078 21.8195 8.55078C21.6783 8.55078 21.5385 8.57864 21.4081 8.63277C21.2777 8.68689 21.1592 8.76621 21.0595 8.86619L11.9195 18.0595L11.1662 21.2662C11.138 21.4045 11.1373 21.5471 11.1643 21.6857C11.1913 21.8242 11.2453 21.9562 11.3234 22.0738C11.4014 22.1915 11.5019 22.2926 11.619 22.3714C11.7362 22.4501 11.8678 22.505 12.0062 22.5329C12.0749 22.5395 12.1441 22.5395 12.2128 22.5329C12.2946 22.5456 12.3778 22.5456 12.4595 22.5329L15.6928 21.8195L24.8262 12.6662C24.9259 12.5671 25.0051 12.4492 25.0592 12.3193C25.1132 12.1894 25.141 12.0502 25.141 11.9095C25.141 11.7689 25.1132 11.6296 25.0592 11.4997C25.0051 11.3699 24.9259 11.252 24.8262 11.1529V11.1129ZM15.0128 20.6062L12.5728 21.1462L13.1662 18.7262L20.0195 11.7995L21.8995 13.6795L15.0128 20.6062ZM22.6528 12.9262L20.7728 11.0462L21.8328 9.99953L23.7262 11.8929L22.6528 12.9262Z" fill="#7B00D9"/>
</g>
<defs>
<clipPath id="clip0_2378_11488">
<rect width="24" height="24" fill="white" transform="translate(0.5)"/>
</clipPath>
</defs>
</svg>
