<svg width="49" height="49" viewBox="0 0 49 49" fill="none" xmlns="http://www.w3.org/2000/svg">
<path d="M34.1012 7.09072C34.1012 6.61333 34.2908 6.15549 34.6284 5.81793C34.9659 5.48036 35.4238 5.29072 35.9012 5.29072H41.9011C42.3785 5.29072 42.8364 5.48036 43.1739 5.81793C43.5115 6.15549 43.7012 6.61333 43.7012 7.09072V13.0907C43.7012 13.5681 43.5115 14.0259 43.1739 14.3635C42.8364 14.7011 42.3785 14.8907 41.9011 14.8907C41.4238 14.8907 40.9659 14.7011 40.6284 14.3635C40.2908 14.0259 40.1012 13.5681 40.1012 13.0907V11.4347L29.3731 22.1627C29.0356 22.4998 28.5782 22.6891 28.1012 22.6891C27.6241 22.6891 27.1667 22.4998 26.8292 22.1627L20.9012 16.2347L10.7732 26.3627C10.6084 26.5396 10.4096 26.6814 10.1888 26.7798C9.96804 26.8782 9.72969 26.9311 9.488 26.9353C9.24632 26.9396 9.00625 26.8951 8.78212 26.8046C8.55798 26.7141 8.35438 26.5793 8.18346 26.4084C8.01253 26.2375 7.87779 26.0339 7.78726 25.8098C7.69672 25.5856 7.65227 25.3456 7.65653 25.1039C7.66079 24.8622 7.7137 24.6238 7.81208 24.403C7.91046 24.1822 8.0523 23.9835 8.22915 23.8187L19.6291 12.4187C19.9667 12.0816 20.4241 11.8923 20.9012 11.8923C21.3782 11.8923 21.8356 12.0816 22.1732 12.4187L28.1012 18.3467L37.5571 8.89072H35.9012C35.4238 8.89072 34.9659 8.70108 34.6284 8.36351C34.2908 8.02595 34.1012 7.56811 34.1012 7.09072ZM9.50115 34.0907C9.97854 34.0907 10.4364 34.2804 10.7739 34.6179C11.1115 34.9555 11.3012 35.4133 11.3012 35.8907V41.8907C11.3012 42.3681 11.1115 42.826 10.7739 43.1635C10.4364 43.5011 9.97854 43.6907 9.50115 43.6907C9.02376 43.6907 8.56592 43.5011 8.22836 43.1635C7.89079 42.826 7.70115 42.3681 7.70115 41.8907V35.8907C7.70115 35.4133 7.89079 34.9555 8.22836 34.6179C8.56592 34.2804 9.02376 34.0907 9.50115 34.0907ZM20.9012 28.6907C20.9012 28.2133 20.7115 27.7555 20.3739 27.4179C20.0364 27.0804 19.5785 26.8907 19.1012 26.8907C18.6238 26.8907 18.1659 27.0804 17.8284 27.4179C17.4908 27.7555 17.3012 28.2133 17.3012 28.6907V41.8907C17.3012 42.3681 17.4908 42.826 17.8284 43.1635C18.1659 43.5011 18.6238 43.6907 19.1012 43.6907C19.5785 43.6907 20.0364 43.5011 20.3739 43.1635C20.7115 42.826 20.9012 42.3681 20.9012 41.8907V28.6907ZM28.7012 31.6907C29.1785 31.6907 29.6364 31.8804 29.9739 32.2179C30.3115 32.5555 30.5012 33.0133 30.5012 33.4907V41.8907C30.5012 42.3681 30.3115 42.826 29.9739 43.1635C29.6364 43.5011 29.1785 43.6907 28.7012 43.6907C28.2238 43.6907 27.7659 43.5011 27.4284 43.1635C27.0908 42.826 26.9011 42.3681 26.9011 41.8907V33.4907C26.9011 33.0133 27.0908 32.5555 27.4284 32.2179C27.7659 31.8804 28.2238 31.6907 28.7012 31.6907ZM40.1012 23.8907C40.1012 23.4133 39.9115 22.9555 39.5739 22.6179C39.2364 22.2804 38.7785 22.0907 38.3012 22.0907C37.8238 22.0907 37.3659 22.2804 37.0284 22.6179C36.6908 22.9555 36.5012 23.4133 36.5012 23.8907V41.8907C36.5012 42.3681 36.6908 42.826 37.0284 43.1635C37.3659 43.5011 37.8238 43.6907 38.3012 43.6907C38.7785 43.6907 39.2364 43.5011 39.5739 43.1635C39.9115 42.826 40.1012 42.3681 40.1012 41.8907V23.8907Z" fill="white"/>
</svg>
