<svg width="49" height="49" viewBox="0 0 49 49" fill="none" xmlns="http://www.w3.org/2000/svg">
<path d="M24.5 7.99072C24.0404 7.99072 23.5852 8.08125 23.1606 8.25714C22.736 8.43304 22.3501 8.69084 22.0251 9.01585C21.7001 9.34085 21.4423 9.72669 21.2664 10.1513C21.0905 10.576 21 11.0311 21 11.4907C21 11.9503 21.0905 12.4055 21.2664 12.8301C21.4423 13.2548 21.7001 13.6406 22.0251 13.9656C22.3501 14.2906 22.736 14.5484 23.1606 14.7243C23.5852 14.9002 24.0404 14.9907 24.5 14.9907C25.4283 14.9907 26.3185 14.622 26.9749 13.9656C27.6313 13.3092 28 12.419 28 11.4907C28 10.5625 27.6313 9.67223 26.9749 9.01585C26.3185 8.35947 25.4283 7.99072 24.5 7.99072ZM18.5 11.4907C18.5 9.89942 19.1321 8.3733 20.2574 7.24808C21.3826 6.12286 22.9087 5.49072 24.5 5.49072C26.0913 5.49072 27.6174 6.12286 28.7426 7.24808C29.8679 8.3733 30.5 9.89942 30.5 11.4907C30.5 13.082 29.8679 14.6081 28.7426 15.7334C27.6174 16.8586 26.0913 17.4907 24.5 17.4907C22.9087 17.4907 21.3826 16.8586 20.2574 15.7334C19.1321 14.6081 18.5 13.082 18.5 11.4907ZM37.5 9.99072C36.837 9.99072 36.2011 10.2541 35.7322 10.723C35.2634 11.1918 35 11.8277 35 12.4907C35 13.1538 35.2634 13.7896 35.7322 14.2585C36.2011 14.7273 36.837 14.9907 37.5 14.9907C38.163 14.9907 38.7989 14.7273 39.2678 14.2585C39.7366 13.7896 40 13.1538 40 12.4907C40 11.8277 39.7366 11.1918 39.2678 10.723C38.7989 10.2541 38.163 9.99072 37.5 9.99072ZM32.5 12.4907C32.5 11.1646 33.0268 9.89287 33.9645 8.95519C34.9021 8.01751 36.1739 7.49072 37.5 7.49072C38.8261 7.49072 40.0979 8.01751 41.0355 8.95519C41.9732 9.89287 42.5 11.1646 42.5 12.4907C42.5 13.8168 41.9732 15.0886 41.0355 16.0263C40.0979 16.9639 38.8261 17.4907 37.5 17.4907C36.1739 17.4907 34.9021 16.9639 33.9645 16.0263C33.0268 15.0886 32.5 13.8168 32.5 12.4907ZM9 12.4907C9 11.8277 9.26339 11.1918 9.73223 10.723C10.2011 10.2541 10.837 9.99072 11.5 9.99072C12.163 9.99072 12.7989 10.2541 13.2678 10.723C13.7366 11.1918 14 11.8277 14 12.4907C14 13.1538 13.7366 13.7896 13.2678 14.2585C12.7989 14.7273 12.163 14.9907 11.5 14.9907C10.837 14.9907 10.2011 14.7273 9.73223 14.2585C9.26339 13.7896 9 13.1538 9 12.4907ZM11.5 7.49072C10.1739 7.49072 8.90215 8.01751 7.96447 8.95519C7.02678 9.89287 6.5 11.1646 6.5 12.4907C6.5 13.8168 7.02678 15.0886 7.96447 16.0263C8.90215 16.9639 10.1739 17.4907 11.5 17.4907C12.8261 17.4907 14.0979 16.9639 15.0355 16.0263C15.9732 15.0886 16.5 13.8168 16.5 12.4907C16.5 11.1646 15.9732 9.89287 15.0355 8.95519C14.0979 8.01751 12.8261 7.49072 11.5 7.49072ZM15.5 23.7407C15.5 22.6136 15.9478 21.5325 16.7448 20.7355C17.5418 19.9385 18.6228 19.4907 19.75 19.4907H29.25C30.3772 19.4907 31.4582 19.9385 32.2552 20.7355C33.0522 21.5325 33.5 22.6136 33.5 23.7407V34.4907C33.5 36.8777 32.5518 39.1669 30.864 40.8547C29.1761 42.5425 26.8869 43.4907 24.5 43.4907C22.1131 43.4907 19.8239 42.5425 18.136 40.8547C16.4482 39.1669 15.5 36.8777 15.5 34.4907V23.7407ZM24.5 40.9907C26.2239 40.9907 27.8772 40.3059 29.0962 39.0869C30.3152 37.8679 31 36.2146 31 34.4907V23.7407C31 23.2766 30.8156 22.8315 30.4874 22.5033C30.1592 22.1751 29.7141 21.9907 29.25 21.9907H19.75C19.2859 21.9907 18.8408 22.1751 18.5126 22.5033C18.1844 22.8315 18 23.2766 18 23.7407V34.4907C18 36.2146 18.6848 37.8679 19.9038 39.0869C21.1228 40.3059 22.7761 40.9907 24.5 40.9907ZM11.5 37.9907C12.3361 37.991 13.1558 37.7583 13.867 37.3187C14.086 38.1447 14.399 38.9317 14.793 39.6687C13.7263 40.2374 12.5306 40.5201 11.3222 40.4894C10.1138 40.4587 8.934 40.1156 7.89759 39.4935C6.86117 38.8715 6.00351 37.9916 5.4081 36.9397C4.81269 35.8877 4.49984 34.6995 4.5 33.4907V23.7417C4.49987 23.1835 4.6097 22.6308 4.82323 22.115C5.03675 21.5993 5.34978 21.1306 5.74444 20.7359C6.1391 20.3411 6.60767 20.028 7.12336 19.8143C7.63906 19.6007 8.1918 19.4907 8.75 19.4907H14.25C14.5387 19.4914 14.819 19.5191 15.091 19.5737C14.4682 20.2688 14.0093 21.0948 13.748 21.9907H8.75C8.28587 21.9907 7.84075 22.1751 7.51256 22.5033C7.18437 22.8315 7 23.2766 7 23.7407V33.4907C7 34.6842 7.47411 35.8288 8.31802 36.6727C9.16193 37.5166 10.3065 37.9907 11.5 37.9907ZM37.5 40.4907C36.3516 40.4913 35.2207 40.2094 34.207 39.6697C34.601 38.9317 34.914 38.1447 35.133 37.3187C35.8147 37.7403 36.5966 37.9722 37.398 37.9904C38.1993 38.0086 38.991 37.8124 39.6911 37.4221C40.3912 37.0318 40.9744 36.4616 41.3803 35.7705C41.7862 35.0793 42.0001 34.2923 42 33.4907V23.7407C42 23.2766 41.8156 22.8315 41.4874 22.5033C41.1592 22.1751 40.7141 21.9907 40.25 21.9907H35.252C34.9904 21.0947 34.5311 20.2687 33.908 19.5737C34.1813 19.5191 34.462 19.4914 34.75 19.4907H40.25C41.3772 19.4907 42.4582 19.9385 43.2552 20.7355C44.0522 21.5325 44.5 22.6136 44.5 23.7407V33.4907C44.5 35.3472 43.7625 37.1277 42.4497 38.4405C41.137 39.7532 39.3565 40.4907 37.5 40.4907Z" fill="white"/>
</svg>
