<svg width="49" height="49" viewBox="0 0 49 49" fill="none" xmlns="http://www.w3.org/2000/svg">
<path d="M17.2992 11.2907C17.2992 11.7019 17.2592 12.1019 17.1792 12.4907H24.4992C25.1357 12.4907 25.7462 12.7436 26.1963 13.1937C26.6464 13.6438 26.8992 14.2542 26.8992 14.8907V19.6907H24.4992C23.2262 19.6907 22.0053 20.1964 21.1051 21.0966C20.2049 21.9968 19.6992 23.2177 19.6992 24.4907V26.8907H14.8992C14.2627 26.8907 13.6523 26.6379 13.2022 26.1878C12.7521 25.7377 12.4992 25.1272 12.4992 24.4907V17.1707C11.7074 17.3324 10.8911 17.3324 10.0992 17.1707V24.4907C10.0992 25.7638 10.6049 26.9847 11.5051 27.8848C12.4053 28.785 13.6262 29.2907 14.8992 29.2907H19.6992V34.0907C19.6992 35.3638 20.2049 36.5847 21.1051 37.4848C22.0053 38.385 23.2262 38.8907 24.4992 38.8907H31.8192C31.6576 38.0989 31.6576 37.2826 31.8192 36.4907H24.4992C23.8627 36.4907 23.2523 36.2379 22.8022 35.7878C22.3521 35.3377 22.0992 34.7272 22.0992 34.0907V29.2907H24.4992C25.7723 29.2907 26.9932 28.785 27.8933 27.8848C28.7935 26.9847 29.2992 25.7638 29.2992 24.4907V22.0907H34.0992C34.7357 22.0907 35.3462 22.3436 35.7963 22.7937C36.2464 23.2438 36.4992 23.8542 36.4992 24.4907V31.8107C37.2911 31.6491 38.1074 31.6491 38.8992 31.8107V24.4907C38.8992 23.2177 38.3935 21.9968 37.4933 21.0966C36.5932 20.1964 35.3723 19.6907 34.0992 19.6907H29.2992V14.8907C29.2992 13.6177 28.7935 12.3968 27.8933 11.4966C26.9932 10.5964 25.7723 10.0907 24.4992 10.0907H17.1792C17.2592 10.4795 17.2992 10.8795 17.2992 11.2907ZM26.8992 22.0907V24.4907C26.8992 25.1272 26.6464 25.7377 26.1963 26.1878C25.7462 26.6379 25.1357 26.8907 24.4992 26.8907H22.0992V24.4907C22.0992 23.8542 22.3521 23.2438 22.8022 22.7937C23.2523 22.3436 23.8627 22.0907 24.4992 22.0907H26.8992ZM14.8992 11.2907C14.8992 12.2455 14.5199 13.1612 13.8448 13.8363C13.1697 14.5114 12.254 14.8907 11.2992 14.8907C10.3444 14.8907 9.42877 14.5114 8.75363 13.8363C8.0785 13.1612 7.69922 12.2455 7.69922 11.2907C7.69922 10.3359 8.0785 9.42027 8.75363 8.74514C9.42877 8.07001 10.3444 7.69072 11.2992 7.69072C12.254 7.69072 13.1697 8.07001 13.8448 8.74514C14.5199 9.42027 14.8992 10.3359 14.8992 11.2907ZM41.2992 37.6907C41.2992 38.6455 40.9199 39.5612 40.2448 40.2363C39.5697 40.9114 38.654 41.2907 37.6992 41.2907C36.7444 41.2907 35.8288 40.9114 35.1536 40.2363C34.4785 39.5612 34.0992 38.6455 34.0992 37.6907C34.0992 36.7359 34.4785 35.8203 35.1536 35.1451C35.8288 34.47 36.7444 34.0907 37.6992 34.0907C38.654 34.0907 39.5697 34.47 40.2448 35.1451C40.9199 35.8203 41.2992 36.7359 41.2992 37.6907ZM41.2992 11.2907C41.2992 12.2455 40.9199 13.1612 40.2448 13.8363C39.5697 14.5114 38.654 14.8907 37.6992 14.8907C36.7444 14.8907 35.8288 14.5114 35.1536 13.8363C34.4785 13.1612 34.0992 12.2455 34.0992 11.2907C34.0992 10.3359 34.4785 9.42027 35.1536 8.74514C35.8288 8.07001 36.7444 7.69072 37.6992 7.69072C38.654 7.69072 39.5697 8.07001 40.2448 8.74514C40.9199 9.42027 41.2992 10.3359 41.2992 11.2907ZM14.8992 37.6907C14.8992 38.6455 14.5199 39.5612 13.8448 40.2363C13.1697 40.9114 12.254 41.2907 11.2992 41.2907C10.3444 41.2907 9.42877 40.9114 8.75363 40.2363C8.0785 39.5612 7.69922 38.6455 7.69922 37.6907C7.69922 36.7359 8.0785 35.8203 8.75363 35.1451C9.42877 34.47 10.3444 34.0907 11.2992 34.0907C12.254 34.0907 13.1697 34.47 13.8448 35.1451C14.5199 35.8203 14.8992 36.7359 14.8992 37.6907Z" fill="white"/>
</svg>
