<svg width="259" height="207" viewBox="0 0 259 207" fill="none" xmlns="http://www.w3.org/2000/svg">
<g clip-path="url(#clip0_1112_2683)">
<path d="M157.491 124.202H0.402344V6.34406H157.491V124.202Z" fill="white"/>
<path d="M38.4678 30.9419C41.9212 30.9419 44.7207 28.1423 44.7207 24.6889C44.7207 21.2355 41.9212 18.4359 38.4678 18.4359C35.0144 18.4359 32.2148 21.2355 32.2148 24.6889C32.2148 28.1423 35.0144 30.9419 38.4678 30.9419Z" fill="#93989A"/>
<path d="M52.9075 20.5203C52.6314 20.5208 52.3668 20.6308 52.1718 20.8262C51.9767 21.0216 51.8672 21.2864 51.8672 21.5624C51.8672 21.8385 51.9767 22.1033 52.1718 22.2987C52.3668 22.4941 52.6314 22.6041 52.9075 22.6046H128.997C129.273 22.6041 129.538 22.4941 129.733 22.2987C129.928 22.1033 130.037 21.8385 130.037 21.5624C130.037 21.2864 129.928 21.0216 129.733 20.8262C129.538 20.6308 129.273 20.5208 128.997 20.5203H52.9075Z" fill="#93989A"/>
<path d="M52.9076 26.7732C52.6312 26.7726 52.3659 26.8819 52.1701 27.0769C51.9742 27.2719 51.8639 27.5368 51.8633 27.8132C51.8627 28.0896 51.9719 28.3549 52.167 28.5507C52.362 28.7466 52.6269 28.8569 52.9032 28.8575H101.008C101.145 28.8578 101.281 28.831 101.407 28.7787C101.534 28.7265 101.649 28.6497 101.746 28.5529C101.843 28.4561 101.92 28.3412 101.972 28.2146C102.025 28.088 102.052 27.9524 102.052 27.8154C102.052 27.6783 102.025 27.5427 101.972 27.4161C101.92 27.2895 101.843 27.1746 101.746 27.0778C101.649 26.981 101.534 26.9042 101.407 26.852C101.281 26.7997 101.145 26.7729 101.008 26.7732H52.9076Z" fill="#93989A"/>
<path d="M157.491 124.202H0.402344V6.34406H157.491V124.202ZM2.16056 122.444H155.733V8.10229H2.16056V122.444Z" fill="#93989A"/>
<path d="M9.17969 42.2858V112.386H148.709V42.2858H9.17969ZM148.038 59.6431H113.994V42.9566H148.038V59.6431ZM79.2795 59.6431V42.9566H113.323V59.6431H79.2795ZM113.323 60.3139V77.0003H79.2795V60.3139H113.323ZM78.6087 59.6431H44.565V42.9566H78.6087V59.6431ZM78.6087 60.3139V77.0003H44.565V60.3139H78.6087ZM43.8942 77.0003H9.8505V60.3139H43.8942V77.0003ZM43.8942 77.6711V94.3576H9.8505V77.6711H43.8942ZM44.565 77.6711H78.6087V94.3576H44.565V77.6711ZM78.6087 95.0284V111.715H44.565V95.0284H78.6087ZM79.2795 95.0284H113.323V111.715H79.2795V95.0284ZM79.2795 94.3576V77.6711H113.323V94.3576H79.2795ZM113.994 77.6711H148.038V94.3576H113.994V77.6711ZM113.994 77.0003V60.3139H148.038V77.0003H113.994ZM43.8942 42.9566V59.6431H9.8505V42.9566H43.8942ZM9.8505 95.0284H43.8942V111.715H9.8505V95.0284ZM113.994 111.715V95.0284H148.038V111.715H113.994Z" fill="#93989A"/>
<path d="M66.4587 61.1449L52.5754 60.8305C51.1867 55.451 51.8119 50.329 52.9201 45.609L66.8033 45.9234C65.3991 50.8858 65.2805 56.1239 66.4587 61.1449Z" fill="#7B00D9"/>
<path d="M55.3008 48.9731L55.3082 48.4448L62.5009 48.7017L62.4932 49.23L55.3008 48.9731Z" fill="white"/>
<path d="M55.2695 51.0861L55.2769 50.5579L62.4694 50.8151L62.462 51.3434L55.2695 51.0861Z" fill="white"/>
<path d="M55.2383 53.1992L55.246 52.6709L62.4384 52.9282L62.4311 53.4565L55.2383 53.1992Z" fill="white"/>
<path d="M55.207 55.3123L55.2144 54.784L62.4072 55.0413L62.3995 55.5695L55.207 55.3123Z" fill="white"/>
<path d="M55.1797 57.4253L55.1871 56.897L62.3798 57.1543L62.3721 57.6826L55.1797 57.4253Z" fill="white"/>
<path d="M36.2712 100.052L22.3879 99.7376C20.9992 94.3581 21.6244 89.2361 22.7326 84.5161L36.6158 84.8304C35.2116 89.7929 35.093 95.031 36.2712 100.052Z" fill="#3ECE23"/>
<path d="M25.1133 87.8801L25.1207 87.3519L32.3134 87.6088L32.3057 88.1371L25.1133 87.8801Z" fill="white"/>
<path d="M25.082 89.9932L25.0894 89.4649L32.2819 89.7222L32.2745 90.2504L25.082 89.9932Z" fill="white"/>
<path d="M25.0508 92.1063L25.0585 91.578L32.2509 91.8353L32.2436 92.3635L25.0508 92.1063Z" fill="white"/>
<path d="M25.0234 94.2193L25.0308 93.6911L32.2236 93.9483L32.2159 94.4766L25.0234 94.2193Z" fill="white"/>
<path d="M24.9922 96.3324L24.9996 95.8041L32.1923 96.0614L32.1846 96.5897L24.9922 96.3324Z" fill="white"/>
<path d="M108.72 82.2754L94.8371 81.9611C93.4484 76.5816 94.0736 71.4596 95.1818 66.7396L109.065 67.0539C107.661 72.0164 107.542 77.2545 108.72 82.2754Z" fill="#3ECE23"/>
<path d="M97.5625 70.1037L97.5699 69.5754L104.763 69.8323L104.755 70.3606L97.5625 70.1037Z" fill="white"/>
<path d="M97.5312 72.2167L97.5386 71.6884L104.731 71.9457L104.724 72.474L97.5312 72.2167Z" fill="white"/>
<path d="M97.5 74.3297L97.5077 73.8015L104.7 74.0587L104.693 74.587L97.5 74.3297Z" fill="white"/>
<path d="M97.4688 76.4428L97.4761 75.9146L104.669 76.1718L104.661 76.7001L97.4688 76.4428Z" fill="white"/>
<path d="M97.4375 78.5559L97.4449 78.0276L104.638 78.2849L104.63 78.8131L97.4375 78.5559Z" fill="white"/>
<path d="M102.681 78.9213L88.798 78.607C87.4093 73.2275 88.0345 68.1055 89.1427 63.3855L103.026 63.6999C101.622 68.6623 101.503 73.9004 102.681 78.9213Z" fill="#7B00D9"/>
<path d="M91.5234 66.7496L91.5308 66.2213L98.7236 66.4782L98.7159 67.0065L91.5234 66.7496Z" fill="white"/>
<path d="M91.4922 68.8626L91.4996 68.3344L98.692 68.5916L98.6846 69.1199L91.4922 68.8626Z" fill="white"/>
<path d="M91.4609 70.9757L91.4687 70.4474L98.6611 70.7047L98.6537 71.233L91.4609 70.9757Z" fill="white"/>
<path d="M91.4336 73.0887L91.441 72.5605L98.6338 72.8177L98.626 73.346L91.4336 73.0887Z" fill="white"/>
<path d="M91.4023 75.2018L91.4097 74.6736L98.6025 74.9308L98.5948 75.4591L91.4023 75.2018Z" fill="white"/>
<path d="M153.888 109.561L140.005 109.246C138.616 103.867 139.242 98.7447 140.35 94.0247L154.233 94.3391C152.829 99.3015 152.71 104.54 153.888 109.561Z" fill="#7B00D9"/>
<path d="M142.73 97.3886L142.738 96.8603L149.931 97.1175L149.923 97.6458L142.73 97.3886Z" fill="white"/>
<path d="M142.699 99.5016L142.707 98.9734L149.899 99.2306L149.892 99.7589L142.699 99.5016Z" fill="white"/>
<path d="M142.668 101.615L142.676 101.087L149.868 101.344L149.861 101.872L142.668 101.615Z" fill="white"/>
<path d="M142.637 103.728L142.644 103.2L149.837 103.457L149.829 103.985L142.637 103.728Z" fill="white"/>
<path d="M142.605 105.841L142.613 105.313L149.806 105.57L149.798 106.098L142.605 105.841Z" fill="white"/>
<path d="M138.908 63.8281L125.025 63.5138C123.636 58.1343 124.261 53.0122 125.369 48.2923L139.253 48.6066C137.848 53.569 137.73 58.8072 138.908 63.8281Z" fill="#3ECE23"/>
<path d="M127.746 51.6563L127.753 51.1281L134.946 51.385L134.939 51.9132L127.746 51.6563Z" fill="white"/>
<path d="M127.719 53.7694L127.726 53.2411L134.919 53.4984L134.911 54.0266L127.719 53.7694Z" fill="white"/>
<path d="M127.688 55.8825L127.695 55.3542L134.888 55.6114L134.88 56.1397L127.688 55.8825Z" fill="white"/>
<path d="M127.656 57.9955L127.664 57.4672L134.856 57.7245L134.849 58.2527L127.656 57.9955Z" fill="white"/>
<path d="M127.625 60.1086L127.632 59.5803L134.825 59.8375L134.817 60.3658L127.625 60.1086Z" fill="white"/>
<path d="M153.141 98.3428C153.62 98.2249 154.067 98.0035 154.451 97.6941C154.835 97.3848 155.146 96.995 155.363 96.5522C155.58 96.1095 155.698 95.6245 155.707 95.1315C155.716 94.6385 155.617 94.1495 155.417 93.6989L164.171 85.5119L158.115 84.0565L150.731 92.0541C149.996 92.4405 149.428 93.083 149.136 93.8599C148.843 94.6367 148.845 95.4939 149.143 96.2691C149.44 97.0443 150.011 97.6835 150.748 98.0657C151.485 98.4479 152.336 98.5465 153.141 98.3428Z" fill="#FFB6B6"/>
<path d="M157.665 91.7481L153.582 85.9921L168.916 70.1319L172.477 45.1323C172.653 43.8966 173.099 42.7147 173.783 41.6707C174.467 40.6267 175.373 39.7461 176.435 39.0915C177.498 38.4368 178.692 38.0241 179.932 37.8827C181.172 37.7413 182.428 37.8747 183.611 38.2733C185.747 38.9957 187.508 40.5358 188.51 42.5556C189.511 44.5755 189.671 46.9101 188.953 49.0473L179.869 75.9998L157.665 91.7481Z" fill="#93989A"/>
<path d="M186.454 198.269L181.922 198.269L179.766 180.789L186.455 180.789L186.454 198.269Z" fill="#FFB6B6"/>
<path d="M188.894 206.874H185.678L185.104 203.838L183.634 206.874H175.105C174.696 206.874 174.298 206.744 173.969 206.501C173.639 206.259 173.396 205.918 173.274 205.528C173.153 205.137 173.159 204.718 173.292 204.332C173.426 203.945 173.679 203.612 174.015 203.379L180.826 198.675V195.606L187.99 196.034L188.894 206.874Z" fill="#2F2E41"/>
<path d="M214.414 193.657L210.433 195.823L200.184 181.5L206.059 178.303L214.414 193.657Z" fill="#FFB6B6"/>
<path d="M220.668 200.051L217.844 201.588L215.888 199.195L216.048 202.565L208.556 206.641C208.197 206.837 207.785 206.912 207.38 206.857C206.975 206.801 206.598 206.618 206.305 206.333C206.011 206.049 205.817 205.678 205.749 205.274C205.681 204.871 205.744 204.457 205.929 204.092L209.663 196.705L208.196 194.009L214.693 190.96L220.668 200.051Z" fill="#2F2E41"/>
<path d="M188.36 192.045H178.995V158.694L173.196 136.951C169.035 121.401 167.929 105.192 169.94 89.2219L169.948 89.1565L169.998 89.1142C170.147 88.9891 184.987 76.7187 194.374 86.1054C200.701 92.4326 194.756 115.184 194.423 116.432V155.653L188.36 192.045Z" fill="#2F2E41"/>
<path d="M167.09 95.2799L170.108 65.0934C169.716 64.2703 164.071 59.0561 169.974 49.8886L176.349 34.9236L188.289 34.738L188.339 34.7883C191.148 37.5911 193.219 41.0453 194.369 44.8431C195.519 48.6408 195.711 52.664 194.929 56.5541L191.411 74.1453L194.459 86.3386L167.09 95.2799Z" fill="#93989A"/>
<path d="M182.777 158.866L202.018 185.929L209.398 180.681L193.329 147.66L182.777 158.866Z" fill="#2F2E41"/>
<path d="M181.204 31.8816C187.293 31.8816 192.229 26.9456 192.229 20.8568C192.229 14.768 187.293 9.83203 181.204 9.83203C175.116 9.83203 170.18 14.768 170.18 20.8568C170.18 26.9456 175.116 31.8816 181.204 31.8816Z" fill="#FFB6B6"/>
<path opacity="0.1" d="M178.494 60.7331L181.513 78.845L178.494 93.9382H172.457L175.201 78.845L178.494 60.7331Z" fill="#93989A"/>
<path d="M181.376 109.489C181.743 109.16 182.033 108.754 182.226 108.3C182.419 107.847 182.51 107.356 182.493 106.863C182.476 106.371 182.352 105.888 182.128 105.448C181.904 105.009 181.586 104.624 181.198 104.321L185.066 92.9764L179.038 94.5438L176.289 105.076C175.822 105.763 175.624 106.597 175.732 107.42C175.839 108.243 176.245 108.999 176.872 109.543C177.499 110.087 178.304 110.382 179.134 110.372C179.964 110.362 180.762 110.048 181.376 109.489Z" fill="#FFB6B6"/>
<path d="M182.26 101.542L175.948 98.3864L182.009 77.1743L173.379 53.4427C172.953 52.2696 172.789 51.017 172.901 49.7739C173.013 48.5307 173.398 47.3275 174.027 46.2495C174.656 45.1716 175.515 44.2454 176.543 43.5368C177.57 42.8281 178.741 42.3543 179.972 42.1491C182.197 41.7809 184.476 42.31 186.311 43.6204C188.145 44.9308 189.385 46.9155 189.758 49.1389L194.434 77.1942L182.26 101.542Z" fill="#93989A"/>
<path d="M253.609 204.804C253.609 204.804 253.604 204.804 253.594 204.804C253.584 204.804 253.569 204.804 253.55 204.804C253.531 204.804 253.508 204.804 253.483 204.804C253.458 204.804 253.432 204.804 253.405 204.804H142.177C142.123 204.804 142.071 204.804 142.033 204.804C141.994 204.804 141.973 204.804 141.973 204.804C141.973 204.805 141.994 204.805 142.033 204.805C142.071 204.805 142.123 204.805 142.177 204.805H253.405C253.459 204.805 253.511 204.805 253.549 204.805C253.588 204.805 253.609 204.805 253.609 204.804Z" fill="#3ECE23"/>
<path d="M224.08 20.3177C222.689 22.5757 219.743 23.5711 217.129 23.119C214.516 22.6669 212.246 20.9803 210.568 18.926C208.891 16.8716 207.731 14.4535 206.589 12.0598C205.448 9.66611 204.293 7.24613 202.624 5.185C200.955 3.12384 198.697 1.42423 196.087 0.950832C194.667 0.6932 193.059 0.86329 192.022 1.86798C191.308 2.62102 190.918 3.62453 190.936 4.66235C190.485 4.50335 190.001 4.45787 189.528 4.52995C189.054 4.60202 188.606 4.78943 188.222 5.07564C187.838 5.36186 187.531 5.7381 187.327 6.1712C187.123 6.6043 187.028 7.08096 187.052 7.55918C187.013 7.55844 186.975 7.55587 186.936 7.55587C182.074 4.79158 174.694 6.39741 174.694 9.41606C172.026 9.41606 168.766 12.0508 168.766 16.0516C174.283 16.0516 177.529 23.1202 174.309 28.1885C173.477 29.4812 172.561 30.7172 171.565 31.8883H178.464C179.043 31.0578 179.392 30.0892 179.476 29.0805C179.73 29.9969 179.881 30.9386 179.928 31.8883C179.928 31.8883 198.772 34.3165 193.909 15.5329C194.23 15.5168 194.543 15.4219 194.82 15.2566C195.555 14.8139 195.955 13.8777 196.025 12.9278C196.206 12.9764 196.388 13.0249 196.568 13.0732C197.865 13.4232 199.212 13.8767 200.102 14.8825C201.606 16.5824 201.289 19.1625 201.835 21.3656C202.494 24.0224 204.464 26.1713 206.653 27.815C209.005 29.5809 211.752 30.9226 214.679 31.2011C217.607 31.4796 220.722 30.5893 222.751 28.4601C224.779 26.3309 225.486 22.9009 224.08 20.3177Z" fill="#2F2E41"/>
</g>
<defs>
<clipPath id="clip0_1112_2683">
<rect width="268.726" height="206.031" fill="white" transform="translate(0.402344 0.843689)"/>
</clipPath>
</defs>
</svg>
