<svg width="16" height="17" viewBox="0 0 16 17" fill="none" xmlns="http://www.w3.org/2000/svg">
<path d="M13.5 2.75415H5.5C5.36739 2.75415 5.24021 2.80683 5.14645 2.9006C5.05268 2.99437 5 3.12154 5 3.25415V5.75415H2.5C2.36739 5.75415 2.24021 5.80683 2.14645 5.9006C2.05268 5.99437 2 6.12154 2 6.25415V14.2542C2 14.3868 2.05268 14.5139 2.14645 14.6077C2.24021 14.7015 2.36739 14.7542 2.5 14.7542H10.5C10.6326 14.7542 10.7598 14.7015 10.8536 14.6077C10.9473 14.5139 11 14.3868 11 14.2542V11.7542H13.5C13.6326 11.7542 13.7598 11.7015 13.8536 11.6077C13.9473 11.5139 14 11.3868 14 11.2542V3.25415C14 3.12154 13.9473 2.99437 13.8536 2.9006C13.7598 2.80683 13.6326 2.75415 13.5 2.75415ZM10 13.7542H3V6.75415H10V13.7542ZM13 10.7542H11V6.25415C11 6.12154 10.9473 5.99437 10.8536 5.9006C10.7598 5.80683 10.6326 5.75415 10.5 5.75415H6V3.75415H13V10.7542Z" fill="#7B00D9"/>
</svg>
