<svg width="32" height="32" viewBox="0 0 32 32" fill="none" xmlns="http://www.w3.org/2000/svg">
<path d="M8.66602 11.3334L6.37535 12.86C5.75135 13.2774 5.43802 13.4854 5.21135 13.76C5.01135 14.0039 4.86138 14.2848 4.77002 14.5867C4.66602 14.928 4.66602 15.304 4.66602 16.0547V20.8267C4.66602 22.1707 4.66602 22.8427 4.92735 23.356C5.15749 23.8079 5.52483 24.1752 5.97668 24.4054C6.49002 24.6667 7.16202 24.6667 8.50602 24.6667H23.4927C24.8367 24.6667 25.5087 24.6667 26.022 24.4054C26.4739 24.1752 26.8412 23.8079 27.0713 23.356C27.3327 22.8427 27.3327 22.1707 27.3327 20.8267V16.0547C27.3327 15.304 27.3327 14.928 27.2287 14.588C27.1373 14.2862 26.9873 14.0053 26.7873 13.7614C26.5607 13.4854 26.2473 13.2774 25.6233 12.86L23.3327 11.3334" stroke="white" stroke-width="1.5" stroke-linecap="round"/>
<path d="M27.3327 16.6667H23.922C22.994 16.6667 22.53 16.6667 22.1807 16.9187C21.8313 17.1694 21.6847 17.6094 21.3913 18.4894L21.274 18.8427C20.9807 19.7227 20.834 20.1627 20.4847 20.4161C20.1353 20.6667 19.6713 20.6667 18.7433 20.6667H13.2567C12.3287 20.6667 11.8647 20.6667 11.5153 20.4147C11.166 20.1641 11.0193 19.7241 10.726 18.8441L10.6087 18.4907C10.3153 17.6107 10.1687 17.1707 9.81935 16.9174C9.47002 16.6667 9.00602 16.6667 8.07802 16.6667H4.66602M11.5153 10.1299L15.9993 15.3423M15.9993 15.3423L19.7886 10.1299M15.9993 15.3423V5.59009" stroke="white" stroke-width="1.5"/>
</svg>
