<svg width="50" height="50" viewBox="0 0 50 50" fill="none" xmlns="http://www.w3.org/2000/svg">
<rect width="50" height="50" rx="25" fill="white"/>
<path d="M23.125 17.875V18.25H26.875V17.875C26.875 17.3777 26.6775 16.9008 26.3258 16.5492C25.9742 16.1975 25.4973 16 25 16C24.5027 16 24.0258 16.1975 23.6742 16.5492C23.3225 16.9008 23.125 17.3777 23.125 17.875ZM21.625 18.25V17.875C21.625 16.9799 21.9806 16.1214 22.6135 15.4885C23.2464 14.8556 24.1049 14.5 25 14.5C25.8951 14.5 26.7535 14.8556 27.3865 15.4885C28.0194 16.1214 28.375 16.9799 28.375 17.875V18.25H34C34.1989 18.25 34.3897 18.329 34.5303 18.4697C34.671 18.6103 34.75 18.8011 34.75 19C34.75 19.1989 34.671 19.3897 34.5303 19.5303C34.3897 19.671 34.1989 19.75 34 19.75H32.869L31.45 32.176C31.3454 33.0911 30.9076 33.9358 30.2201 34.5488C29.5326 35.1618 28.6436 35.5004 27.7225 35.5H22.2775C21.3564 35.5004 20.4674 35.1618 19.7799 34.5488C19.0924 33.9358 18.6546 33.0911 18.55 32.176L17.131 19.75H16C15.8011 19.75 15.6103 19.671 15.4697 19.5303C15.329 19.3897 15.25 19.1989 15.25 19C15.25 18.8011 15.329 18.6103 15.4697 18.4697C15.6103 18.329 15.8011 18.25 16 18.25H21.625ZM20.041 32.005C20.1036 32.5539 20.366 33.0606 20.7782 33.4286C21.1904 33.7965 21.7235 33.9999 22.276 34H27.7233C28.2757 33.9999 28.8089 33.7965 29.2211 33.4286C29.6332 33.0606 29.8956 32.5539 29.9583 32.005L31.36 19.75H18.6407L20.041 32.005ZM22.75 22.375C22.9489 22.375 23.1397 22.454 23.2803 22.5947C23.421 22.7353 23.5 22.9261 23.5 23.125V30.625C23.5 30.8239 23.421 31.0147 23.2803 31.1553C23.1397 31.296 22.9489 31.375 22.75 31.375C22.5511 31.375 22.3603 31.296 22.2197 31.1553C22.079 31.0147 22 30.8239 22 30.625V23.125C22 22.9261 22.079 22.7353 22.2197 22.5947C22.3603 22.454 22.5511 22.375 22.75 22.375ZM28 23.125C28 22.9261 27.921 22.7353 27.7803 22.5947C27.6397 22.454 27.4489 22.375 27.25 22.375C27.0511 22.375 26.8603 22.454 26.7197 22.5947C26.579 22.7353 26.5 22.9261 26.5 23.125V30.625C26.5 30.8239 26.579 31.0147 26.7197 31.1553C26.8603 31.296 27.0511 31.375 27.25 31.375C27.4489 31.375 27.6397 31.296 27.7803 31.1553C27.921 31.0147 28 30.8239 28 30.625V23.125Z" fill="black"/>
</svg>
