<svg width="12" height="13" viewBox="0 0 12 13" fill="none" xmlns="http://www.w3.org/2000/svg">
<path d="M2.88497 12.6764C2.53407 12.6764 2.23538 12.5531 1.98891 12.3067C1.74244 12.0602 1.61921 11.7618 1.61921 11.4114V1.71061H0.835938V0.927336H3.96901V0.324219H8.66863V0.927336H11.8017V1.71061H11.0184V11.4114C11.0184 11.7717 10.8978 12.0727 10.6566 12.3145C10.4153 12.5563 10.114 12.6769 9.75268 12.6764H2.88497ZM10.2352 1.71061H2.40248V11.4114C2.40248 11.5519 2.44764 11.6673 2.53798 11.7576C2.62832 11.8479 2.74398 11.8931 2.88497 11.8931H9.75346C9.87356 11.8931 9.984 11.843 10.0848 11.7427C10.1856 11.6425 10.2357 11.5318 10.2352 11.4106V1.71061ZM4.6019 10.3266H5.38516V3.27714H4.6019V10.3266ZM7.25248 10.3266H8.03575V3.27714H7.25248V10.3266Z" fill="#93989A"/>
</svg>
