<svg width="13" height="14" viewBox="0 0 13 14" fill="none" xmlns="http://www.w3.org/2000/svg">
<path d="M2.58769 13.9996C2.1927 13.9996 1.85649 13.8609 1.57906 13.5834C1.30163 13.306 1.16292 12.9701 1.16292 12.5757V1.65625H0.28125V0.774586H3.80791V0.0957031H9.09791V0.774586H12.6246V1.65625H11.7429V12.5757C11.7429 12.9812 11.6071 13.3201 11.3356 13.5922C11.064 13.8644 10.7249 14.0002 10.3181 13.9996H2.58769ZM10.8612 1.65625H2.04458V12.5757C2.04458 12.7338 2.09542 12.8637 2.19711 12.9654C2.29879 13.0671 2.42899 13.1179 2.58769 13.1179H10.319C10.4542 13.1179 10.5785 13.0615 10.692 12.9486C10.8054 12.8358 10.8618 12.7112 10.8612 12.5748V1.65625ZM4.5203 11.3546H5.40196V3.41958H4.5203V11.3546ZM7.50386 11.3546H8.38552V3.41958H7.50386V11.3546Z" fill="#93989A"/>
</svg>
