<svg width="26" height="26" viewBox="0 0 26 26" fill="none" xmlns="http://www.w3.org/2000/svg">
<path d="M10.9688 5.28125V5.6875H15.0312V5.28125C15.0312 4.74253 14.8172 4.22587 14.4363 3.84494C14.0554 3.46401 13.5387 3.25 13 3.25C12.4613 3.25 11.9446 3.46401 11.5637 3.84494C11.1828 4.22587 10.9688 4.74253 10.9688 5.28125ZM9.34375 5.6875V5.28125C9.34375 4.31155 9.72896 3.38157 10.4146 2.69589C11.1003 2.01021 12.0303 1.625 13 1.625C13.9697 1.625 14.8997 2.01021 15.5854 2.69589C16.271 3.38157 16.6562 4.31155 16.6562 5.28125V5.6875H22.75C22.9655 5.6875 23.1722 5.7731 23.3245 5.92548C23.4769 6.07785 23.5625 6.28451 23.5625 6.5C23.5625 6.71549 23.4769 6.92215 23.3245 7.07452C23.1722 7.2269 22.9655 7.3125 22.75 7.3125H21.5247L19.9875 20.774C19.8741 21.7654 19.3999 22.6804 18.6551 23.3445C17.9104 24.0087 16.9472 24.3755 15.9494 24.375H10.0506C9.05276 24.3755 8.08963 24.0087 7.34488 23.3445C6.60013 22.6804 6.12586 21.7654 6.0125 20.774L4.47525 7.3125H3.25C3.03451 7.3125 2.82785 7.2269 2.67548 7.07452C2.5231 6.92215 2.4375 6.71549 2.4375 6.5C2.4375 6.28451 2.5231 6.07785 2.67548 5.92548C2.82785 5.7731 3.03451 5.6875 3.25 5.6875H9.34375ZM7.62775 20.5888C7.69558 21.1834 7.97985 21.7324 8.42637 22.1309C8.8729 22.5295 9.45046 22.7499 10.049 22.75H15.9502C16.5487 22.7499 17.1263 22.5295 17.5728 22.1309C18.0193 21.7324 18.3036 21.1834 18.3714 20.5888L19.89 7.3125H6.11081L7.62775 20.5888ZM10.5625 10.1562C10.778 10.1562 10.9847 10.2419 11.137 10.3942C11.2894 10.5466 11.375 10.7533 11.375 10.9688V19.0938C11.375 19.3092 11.2894 19.5159 11.137 19.6683C10.9847 19.8206 10.778 19.9062 10.5625 19.9062C10.347 19.9062 10.1403 19.8206 9.98798 19.6683C9.8356 19.5159 9.75 19.3092 9.75 19.0938V10.9688C9.75 10.7533 9.8356 10.5466 9.98798 10.3942C10.1403 10.2419 10.347 10.1562 10.5625 10.1562ZM16.25 10.9688C16.25 10.7533 16.1644 10.5466 16.012 10.3942C15.8597 10.2419 15.653 10.1562 15.4375 10.1562C15.222 10.1562 15.0153 10.2419 14.863 10.3942C14.7106 10.5466 14.625 10.7533 14.625 10.9688V19.0938C14.625 19.3092 14.7106 19.5159 14.863 19.6683C15.0153 19.8206 15.222 19.9062 15.4375 19.9062C15.653 19.9062 15.8597 19.8206 16.012 19.6683C16.1644 19.5159 16.25 19.3092 16.25 19.0938V10.9688Z" fill="white"/>
</svg>
