<svg width="66" height="67" viewBox="0 0 66 67" fill="none" xmlns="http://www.w3.org/2000/svg">
<g clip-path="url(#clip0_2160_9721)">
<path d="M35.1764 57.8141L8.25391 30.8916V36.3916C8.25391 37.8491 8.83141 39.2516 9.87641 40.2691L31.2989 61.6916C33.4439 63.8366 36.9364 63.8366 39.0814 61.6916L56.1589 44.6141C58.3039 42.4691 58.3039 38.9766 56.1589 36.8316L35.1764 57.8141Z" fill="#A3A4A4"/>
<path d="M31.2989 47.942C32.3714 49.0145 33.7739 49.5645 35.1764 49.5645C36.5789 49.5645 37.9814 49.0145 39.0539 47.942L56.1314 30.8645C58.2764 28.7195 58.2764 25.227 56.1314 23.082L34.7089 1.65945C33.6914 0.641953 32.2889 0.0644531 30.8314 0.0644531H13.7539C10.7289 0.0644531 8.25391 2.53945 8.25391 5.56445V22.642C8.25391 24.0995 8.83141 25.502 9.87641 26.5195L31.2989 47.942ZM13.7539 5.56445H30.8314L52.2539 26.987L35.1764 44.0645L13.7539 22.642V5.56445Z" fill="#A3A4A4"/>
<path d="M19.9414 15.1895C21.8399 15.1895 23.3789 13.6504 23.3789 11.752C23.3789 9.85347 21.8399 8.31445 19.9414 8.31445C18.0429 8.31445 16.5039 9.85347 16.5039 11.752C16.5039 13.6504 18.0429 15.1895 19.9414 15.1895Z" fill="#A3A4A4"/>
</g>
<defs>
<clipPath id="clip0_2160_9721">
<rect width="66" height="66" fill="white" transform="translate(0.00390625 0.0644531)"/>
</clipPath>
</defs>
</svg>
