<svg width="48" height="48" viewBox="0 0 48 48" fill="none" xmlns="http://www.w3.org/2000/svg">
<path d="M24 40C21.7979 40 19.7239 39.5793 17.7778 38.7378C15.8317 37.8951 14.1369 36.7514 12.6933 35.3067C11.2498 33.8619 10.1061 32.1671 9.26223 30.2222C8.41838 28.2773 7.99764 26.2033 8.00001 24C8.00001 21.7908 8.42075 19.715 9.26223 17.7724C10.1049 15.8287 11.2486 14.1357 12.6933 12.6933C14.1381 11.251 15.8329 10.1073 17.7778 9.26222C19.7239 8.42074 21.7979 8 24 8C26.2092 8 28.285 8.42074 30.2276 9.26222C32.1713 10.1049 33.8649 11.2486 35.3084 12.6933C36.752 14.1381 37.8951 15.8311 38.7378 17.7724C39.5793 19.7161 40 21.792 40 24C40 26.2021 39.5793 28.2761 38.7378 30.2222C37.8951 32.1683 36.7514 33.8631 35.3067 35.3067C33.8619 36.7502 32.1689 37.8939 30.2276 38.7378C28.2862 39.5816 26.2104 40.0024 24 40ZM24 38.2364C25.043 36.896 25.9034 35.5798 26.5813 34.288C27.2581 32.9961 27.8086 31.5502 28.2329 29.9502H19.7671C20.2376 31.6403 20.7994 33.1313 21.4525 34.4231C22.1067 35.715 22.9559 36.9861 24 38.2364ZM21.7369 37.9698C20.9073 36.992 20.1499 35.7831 19.4649 34.3431C18.7799 32.9043 18.2702 31.4394 17.936 29.9484H11.1182C12.1375 32.1588 13.5816 33.9721 15.4507 35.3884C17.3209 36.8035 19.4163 37.664 21.7369 37.9698ZM26.2631 37.9698C28.5837 37.664 30.6791 36.8035 32.5493 35.3884C34.4184 33.9721 35.8625 32.1588 36.8818 29.9484H30.0658C29.6154 31.4619 29.0483 32.9381 28.3644 34.3769C27.6794 35.8169 26.979 37.0157 26.2631 37.9698ZM10.3929 28.1724H17.5662C17.4311 27.4424 17.3363 26.7313 17.2818 26.0391C17.2249 25.3481 17.1965 24.6684 17.1965 24C17.1965 23.3316 17.2243 22.6518 17.28 21.9609C17.3357 21.2699 17.4305 20.5588 17.5645 19.8276H10.3947C10.2015 20.4438 10.0504 21.1153 9.94134 21.8418C9.83231 22.5671 9.77779 23.2865 9.77779 24C9.77779 24.7135 9.83171 25.4335 9.93957 26.16C10.0474 26.8865 10.1985 27.5567 10.3929 28.1707M19.344 28.1707H28.656C28.7911 27.4418 28.8859 26.7425 28.9404 26.0729C28.9973 25.4044 29.0258 24.7135 29.0258 24C29.0258 23.2865 28.9979 22.5956 28.9422 21.9271C28.8865 21.2587 28.7917 20.5594 28.6578 19.8293H19.3422C19.2083 20.5582 19.1135 21.2575 19.0578 21.9271C19.0021 22.5956 18.9742 23.2865 18.9742 24C18.9742 24.7135 19.0021 25.4044 19.0578 26.0729C19.1135 26.7413 19.2101 27.4406 19.344 28.1707ZM30.4356 28.1707H37.6071C37.8003 27.5555 37.9514 26.8853 38.0604 26.16C38.1683 25.4335 38.2222 24.7135 38.2222 24C38.2222 23.2865 38.1683 22.5665 38.0604 21.84C37.9526 21.1135 37.8015 20.4433 37.6071 19.8293H30.4338C30.5689 20.5582 30.6637 21.2687 30.7182 21.9609C30.7751 22.653 30.8036 23.3327 30.8036 24C30.8036 24.6673 30.7757 25.347 30.72 26.0391C30.6643 26.7313 30.5695 27.4424 30.4356 28.1724M30.0658 18.0516H36.8818C35.84 15.795 34.413 13.9816 32.6009 12.6116C30.7887 11.2415 28.6762 10.3698 26.2631 9.99644C27.0927 11.088 27.8388 12.3366 28.5013 13.7422C29.1639 15.1467 29.6853 16.5831 30.0658 18.0516ZM19.7671 18.0516H28.2329C27.7636 16.3828 27.1846 14.8741 26.496 13.5253C25.8074 12.1766 24.9754 10.9227 24 9.76356C23.0246 10.9215 22.1926 12.1754 21.504 13.5253C20.8154 14.8753 20.2353 16.384 19.7671 18.0516ZM11.12 18.0516H17.936C18.3165 16.5843 18.8379 15.1478 19.5005 13.7422C20.163 12.3366 20.909 11.088 21.7387 9.99644C19.3043 10.371 17.1864 11.248 15.3849 12.6276C13.5834 14.0095 12.1612 15.8169 11.1182 18.0498" fill="white"/>
</svg>
