<svg width="48" height="48" viewBox="0 0 48 48" fill="none" xmlns="http://www.w3.org/2000/svg">
<path d="M35.4697 10.2363H12.5303C11.9219 10.2363 11.3384 10.478 10.9082 10.9082C10.478 11.3384 10.2363 11.9219 10.2363 12.5303V35.4697C10.2363 36.0781 10.478 36.6616 10.9082 37.0918C11.3384 37.522 11.9219 37.7637 12.5303 37.7637H35.4697C36.0781 37.7637 36.6616 37.522 37.0918 37.0918C37.522 36.6616 37.7637 36.0781 37.7637 35.4697V12.5303C37.7637 11.9219 37.522 11.3384 37.0918 10.9082C36.6616 10.478 36.0781 10.2363 35.4697 10.2363Z" stroke="white" stroke-width="1.91162" stroke-linejoin="round"/>
<path d="M24 27.5365V24.4779C24.9074 24.4779 25.7944 24.2088 26.5489 23.7047C27.3034 23.2006 27.8914 22.4841 28.2387 21.6457C28.5859 20.8074 28.6768 19.8849 28.4997 18.995C28.3227 18.105 27.8858 17.2875 27.2441 16.6459C26.6025 16.0043 25.785 15.5673 24.8951 15.3903C24.0051 15.2133 23.0826 15.3041 22.2443 15.6514C21.406 15.9986 20.6894 16.5866 20.1853 17.3411C19.6812 18.0956 19.4121 18.9826 19.4121 19.89" stroke="white" stroke-width="1.91162" stroke-linecap="round" stroke-linejoin="round"/>
<path fill-rule="evenodd" clip-rule="evenodd" d="M23.9995 34.4183C24.5065 34.4183 24.9927 34.2169 25.3512 33.8584C25.7097 33.4999 25.9111 33.0137 25.9111 32.5067C25.9111 31.9997 25.7097 31.5135 25.3512 31.155C24.9927 30.7965 24.5065 30.5951 23.9995 30.5951C23.4925 30.5951 23.0063 30.7965 22.6478 31.155C22.2893 31.5135 22.0879 31.9997 22.0879 32.5067C22.0879 33.0137 22.2893 33.4999 22.6478 33.8584C23.0063 34.2169 23.4925 34.4183 23.9995 34.4183Z" fill="white"/>
</svg>
