<svg width="48" height="48" viewBox="0 0 48 48" fill="none" xmlns="http://www.w3.org/2000/svg">
<path fill-rule="evenodd" clip-rule="evenodd" d="M12.334 29.3619C12.334 28.9176 12.5145 28.4924 12.8341 28.1837L14.0345 27.0242C14.4915 26.5828 14.7487 25.9742 14.7468 25.3389L14.7358 21.6604C14.7203 16.5137 18.8882 12.3333 24.0349 12.3333C29.1706 12.3333 33.334 16.4967 33.334 21.6325L33.334 25.3668C33.334 25.9857 33.5798 26.5792 34.0174 27.0168L35.1841 28.1834C35.4935 28.4928 35.6673 28.9125 35.6673 29.3501C35.6673 30.2613 34.9286 31 34.0174 31H28.6673C28.6673 33.5773 26.578 35.6667 24.0007 35.6667C21.4233 35.6667 19.334 33.5773 19.334 31H13.9721C13.0674 31 12.334 30.2666 12.334 29.3619ZM21.6673 31C21.6673 32.2887 22.712 33.3333 24.0007 33.3333C25.2893 33.3333 26.334 32.2887 26.334 31H21.6673ZM31.0006 25.3668C31.0006 26.6045 31.4923 27.7915 32.3675 28.6667L15.6922 28.6667C16.5832 27.787 17.0839 26.5854 17.0801 25.3319L17.0691 21.6534C17.0575 17.7981 20.1796 14.6667 24.0349 14.6667C27.8819 14.6667 31.0006 17.7854 31.0006 21.6325L31.0006 25.3668Z" fill="white"/>
<rect x="21" y="5" width="12" height="12" rx="6" fill="#B93737"/>
<rect x="21" y="5" width="12" height="12" rx="6" stroke="#202226" stroke-width="2"/>
</svg>
