<svg width="4" height="12" viewBox="0 0 4 12" fill="none" xmlns="http://www.w3.org/2000/svg">
<path d="M3.20637 10.0685C3.20637 10.3916 3.078 10.7015 2.8495 10.93C2.621 11.1585 2.31109 11.2869 1.98795 11.2869C1.6648 11.2869 1.3549 11.1585 1.1264 10.93C0.8979 10.7015 0.769531 10.3916 0.769531 10.0685C0.769531 9.74533 0.8979 9.43542 1.1264 9.20692C1.3549 8.97842 1.6648 8.85005 1.98795 8.85005C2.31109 8.85005 2.621 8.97842 2.8495 9.20692C3.078 9.43542 3.20637 9.74533 3.20637 10.0685ZM3.20637 6.00708C3.20637 6.33022 3.078 6.64013 2.8495 6.86863C2.621 7.09713 2.31109 7.22549 1.98795 7.22549C1.6648 7.22549 1.3549 7.09713 1.1264 6.86863C0.8979 6.64013 0.769531 6.33022 0.769531 6.00708C0.769531 5.68393 0.8979 5.37402 1.1264 5.14552C1.3549 4.91703 1.6648 4.78866 1.98795 4.78866C2.31109 4.78866 2.621 4.91703 2.8495 5.14552C3.078 5.37402 3.20637 5.68393 3.20637 6.00708ZM3.20637 1.94568C3.20637 2.26883 3.078 2.57874 2.8495 2.80723C2.621 3.03573 2.31109 3.1641 1.98795 3.1641C1.6648 3.1641 1.3549 3.03573 1.1264 2.80723C0.8979 2.57874 0.769531 2.26883 0.769531 1.94568C0.769531 1.62254 0.8979 1.31263 1.1264 1.08413C1.3549 0.855633 1.6648 0.727264 1.98795 0.727264C2.31109 0.727264 2.621 0.855633 2.8495 1.08413C3.078 1.31263 3.20637 1.62254 3.20637 1.94568Z" fill="white"/>
</svg>
