<svg width="21" height="20" viewBox="0 0 21 20" fill="none" xmlns="http://www.w3.org/2000/svg">
<path d="M4.45312 8.33332H6.11979C7.78646 8.33332 8.61979 7.49999 8.61979 5.83332V4.16666C8.61979 2.49999 7.78646 1.66666 6.11979 1.66666H4.45312C2.78646 1.66666 1.95312 2.49999 1.95312 4.16666V5.83332C1.95312 7.49999 2.78646 8.33332 4.45312 8.33332Z" stroke="white" stroke-width="1.25" stroke-miterlimit="10" stroke-linecap="round" stroke-linejoin="round"/>
<path d="M14.4531 8.33332H16.1198C17.7865 8.33332 18.6198 7.49999 18.6198 5.83332V4.16666C18.6198 2.49999 17.7865 1.66666 16.1198 1.66666H14.4531C12.7865 1.66666 11.9531 2.49999 11.9531 4.16666V5.83332C11.9531 7.49999 12.7865 8.33332 14.4531 8.33332Z" stroke="white" stroke-width="1.25" stroke-miterlimit="10" stroke-linecap="round" stroke-linejoin="round"/>
<path d="M14.4531 18.3333H16.1198C17.7865 18.3333 18.6198 17.5 18.6198 15.8333V14.1667C18.6198 12.5 17.7865 11.6667 16.1198 11.6667H14.4531C12.7865 11.6667 11.9531 12.5 11.9531 14.1667V15.8333C11.9531 17.5 12.7865 18.3333 14.4531 18.3333Z" stroke="white" stroke-width="1.25" stroke-miterlimit="10" stroke-linecap="round" stroke-linejoin="round"/>
<path d="M4.45312 18.3333H6.11979C7.78646 18.3333 8.61979 17.5 8.61979 15.8333V14.1667C8.61979 12.5 7.78646 11.6667 6.11979 11.6667H4.45312C2.78646 11.6667 1.95312 12.5 1.95312 14.1667V15.8333C1.95312 17.5 2.78646 18.3333 4.45312 18.3333Z" stroke="white" stroke-width="1.25" stroke-miterlimit="10" stroke-linecap="round" stroke-linejoin="round"/>
</svg>
