<svg width="21" height="20" viewBox="0 0 21 20" fill="none" xmlns="http://www.w3.org/2000/svg">
<path d="M7.83789 13.4894H14.0879C14.1708 13.4894 14.2503 13.5223 14.3089 13.5809C14.3675 13.6395 14.4004 13.719 14.4004 13.8019C14.4004 13.8848 14.3675 13.9642 14.3089 14.0229C14.2503 14.0815 14.1708 14.1144 14.0879 14.1144H7.83789C7.75501 14.1144 7.67552 14.0815 7.61692 14.0229C7.55831 13.9642 7.52539 13.8848 7.52539 13.8019C7.52539 13.719 7.55831 13.6395 7.61692 13.5809C7.67552 13.5223 7.75501 13.4894 7.83789 13.4894ZM6.27539 13.4894C6.35827 13.4894 6.43776 13.5223 6.49636 13.5809C6.55497 13.6395 6.58789 13.719 6.58789 13.8019C6.58789 13.8848 6.55497 13.9642 6.49636 14.0229C6.43776 14.0815 6.35827 14.1144 6.27539 14.1144C6.19251 14.1144 6.11302 14.0815 6.05442 14.0229C5.99581 13.9642 5.96289 13.8848 5.96289 13.8019C5.96289 13.719 5.99581 13.6395 6.05442 13.5809C6.11302 13.5223 6.19251 13.4894 6.27539 13.4894ZM7.83789 10.3644H14.0879C14.1708 10.3644 14.2503 10.3973 14.3089 10.4559C14.3675 10.5145 14.4004 10.594 14.4004 10.6769C14.4004 10.7598 14.3675 10.8392 14.3089 10.8979C14.2503 10.9565 14.1708 10.9894 14.0879 10.9894H7.83789C7.75501 10.9894 7.67552 10.9565 7.61692 10.8979C7.55831 10.8392 7.52539 10.7598 7.52539 10.6769C7.52539 10.594 7.55831 10.5145 7.61692 10.4559C7.67552 10.3973 7.75501 10.3644 7.83789 10.3644ZM6.27539 10.3644C6.35827 10.3644 6.43776 10.3973 6.49636 10.4559C6.55497 10.5145 6.58789 10.594 6.58789 10.6769C6.58789 10.7598 6.55497 10.8392 6.49636 10.8979C6.43776 10.9565 6.35827 10.9894 6.27539 10.9894C6.19251 10.9894 6.11302 10.9565 6.05442 10.8979C5.99581 10.8392 5.96289 10.7598 5.96289 10.6769C5.96289 10.594 5.99581 10.5145 6.05442 10.4559C6.11302 10.3973 6.19251 10.3644 6.27539 10.3644ZM7.83789 7.23938H14.0879C14.1708 7.23938 14.2503 7.2723 14.3089 7.33091C14.3675 7.38951 14.4004 7.469 14.4004 7.55188C14.4004 7.63476 14.3675 7.71425 14.3089 7.77285C14.2503 7.83146 14.1708 7.86438 14.0879 7.86438H7.83789C7.75501 7.86438 7.67552 7.83146 7.61692 7.77285C7.55831 7.71425 7.52539 7.63476 7.52539 7.55188C7.52539 7.469 7.55831 7.38951 7.61692 7.33091C7.67552 7.2723 7.75501 7.23938 7.83789 7.23938ZM6.27539 7.23938C6.35827 7.23938 6.43776 7.2723 6.49636 7.33091C6.55497 7.38951 6.58789 7.469 6.58789 7.55188C6.58789 7.63476 6.55497 7.71425 6.49636 7.77285C6.43776 7.83146 6.35827 7.86438 6.27539 7.86438C6.19251 7.86438 6.11302 7.83146 6.05442 7.77285C5.99581 7.71425 5.96289 7.63476 5.96289 7.55188C5.96289 7.469 5.99581 7.38951 6.05442 7.33091C6.11302 7.2723 6.19251 7.23938 6.27539 7.23938Z" fill="white"/>
<path d="M11.3867 4.73938H8.88672C8.28359 4.73938 7.79297 4.24875 7.79297 3.64563V2.70813C7.79297 2.10501 8.28359 1.61438 8.88672 1.61438H11.3867C11.9898 1.61438 12.4805 2.10501 12.4805 2.70813V3.64563C12.4805 4.24844 11.9895 4.73938 11.3867 4.73938ZM8.88672 2.23938C8.62828 2.23938 8.41797 2.44969 8.41797 2.70813V3.64563C8.41797 3.90407 8.62828 4.11438 8.88672 4.11438H11.3867C11.6452 4.11438 11.8555 3.90407 11.8555 3.64563V2.70813C11.8555 2.44969 11.6452 2.23938 11.3867 2.23938H8.88672Z" fill="white"/>
<path d="M14.0859 17.8766H6.27719C4.72438 17.8766 3.46094 16.6597 3.46094 15.1641V5.56406C3.46094 4.06844 4.72406 2.85156 6.27719 2.85156H6.88563C6.96851 2.85156 7.04799 2.88449 7.1066 2.94309C7.1652 3.0017 7.19813 3.08118 7.19813 3.16406C7.19813 3.24694 7.1652 3.32643 7.1066 3.38503C7.04799 3.44364 6.96851 3.47656 6.88563 3.47656H6.27719C5.06906 3.47656 4.08594 4.41313 4.08594 5.56406V15.1641C4.08594 16.3153 5.06906 17.2516 6.27719 17.2516H14.0859C15.2941 17.2516 16.2772 16.3153 16.2772 15.1641V5.56406C16.2772 4.41313 15.2941 3.47656 14.0859 3.47656H13.4725C13.3896 3.47656 13.3101 3.44364 13.2515 3.38503C13.1929 3.32643 13.16 3.24694 13.16 3.16406C13.16 3.08118 13.1929 3.0017 13.2515 2.94309C13.3101 2.88449 13.3896 2.85156 13.4725 2.85156H14.0859C15.6388 2.85156 16.9022 4.06844 16.9022 5.56406V15.1641C16.9022 16.66 15.6388 17.8766 14.0859 17.8766Z" fill="white"/>
</svg>
