<svg width="21" height="20" viewBox="0 0 21 20" fill="none" xmlns="http://www.w3.org/2000/svg">
<g clip-path="url(#clip0_2103_1032)">
<path d="M18.0651 3.33334H2.50955C2.21486 3.33334 1.93225 3.4504 1.72387 3.65877C1.5155 3.86715 1.39844 4.14976 1.39844 4.44445V15.5556C1.39844 15.8502 1.5155 16.1329 1.72387 16.3412C1.93225 16.5496 2.21486 16.6667 2.50955 16.6667H18.0651C18.3598 16.6667 18.6424 16.5496 18.8508 16.3412C19.0592 16.1329 19.1762 15.8502 19.1762 15.5556V4.44445C19.1762 4.14976 19.0592 3.86715 18.8508 3.65877C18.6424 3.4504 18.3598 3.33334 18.0651 3.33334ZM17.2095 15.5556H3.43177L7.32066 11.5333L6.52066 10.7611L2.50955 14.9111V5.28889L9.4151 12.1611C9.62329 12.3681 9.9049 12.4842 10.1984 12.4842C10.492 12.4842 10.7736 12.3681 10.9818 12.1611L18.0651 5.11667V14.8389L13.9762 10.75L13.1929 11.5333L17.2095 15.5556ZM3.23733 4.44445H17.1651L10.1984 11.3722L3.23733 4.44445Z" fill="white"/>
</g>
<defs>
<clipPath id="clip0_2103_1032">
<rect width="20" height="20" fill="white" transform="translate(0.287109)"/>
</clipPath>
</defs>
</svg>
