<svg width="21" height="20" viewBox="0 0 21 20" fill="none" xmlns="http://www.w3.org/2000/svg">
<path d="M16.9909 7.77778H16.9198C16.8156 7.77686 16.714 7.74456 16.6284 7.68511C16.5428 7.62565 16.4771 7.54179 16.4398 7.44444C16.4006 7.35044 16.3902 7.2469 16.4099 7.14698C16.4297 7.04706 16.4788 6.95528 16.5509 6.88333L16.6015 6.83278C16.9062 6.52686 17.0773 6.11264 17.0773 5.68083C17.0773 5.24902 16.9062 4.83481 16.6015 4.52889L15.762 3.69C15.4563 3.38501 15.0422 3.21373 14.6103 3.21373C14.1785 3.21373 13.7644 3.38501 13.4587 3.69L13.4081 3.74055C13.3336 3.81228 13.2398 3.86071 13.1382 3.87989C13.0366 3.89907 12.9316 3.88817 12.8361 3.84853C12.7406 3.80889 12.6587 3.74223 12.6006 3.65673C12.5424 3.57123 12.5105 3.47061 12.5087 3.36722V3.29555C12.5082 2.86368 12.3365 2.44962 12.0311 2.14424C11.7257 1.83886 11.3117 1.66711 10.8798 1.66667H9.69312C9.26125 1.66711 8.84719 1.83886 8.54181 2.14424C8.23643 2.44962 8.06468 2.86368 8.06424 3.29555V3.36722C8.06153 3.46987 8.02912 3.56953 7.97094 3.65415C7.91276 3.73876 7.8313 3.80469 7.73642 3.84396C7.64154 3.88323 7.53731 3.89415 7.43635 3.8754C7.33539 3.85666 7.24203 3.80905 7.16757 3.73833L7.11979 3.68778C6.81411 3.38279 6.39993 3.21151 5.96812 3.21151C5.53632 3.21151 5.12214 3.38279 4.81646 3.68778L3.97424 4.52667C3.66949 4.83259 3.49838 5.2468 3.49838 5.67861C3.49838 6.11042 3.66949 6.52464 3.97424 6.83055L4.02479 6.88111C4.0976 6.9556 4.14633 7.05026 4.16466 7.1528C4.18299 7.25533 4.17006 7.36101 4.12757 7.45611C4.08945 7.55083 4.02394 7.63203 3.93943 7.68933C3.85491 7.74663 3.75523 7.77743 3.65312 7.77778H3.58201C3.15014 7.77822 2.73608 7.94997 2.4307 8.25535C2.12532 8.56073 1.95357 8.97479 1.95312 9.40667V10.5933C1.95357 11.0252 2.12532 11.4393 2.4307 11.7446C2.73608 12.05 3.15014 12.2218 3.58201 12.2222H3.65312C3.75736 12.2231 3.8589 12.2554 3.94451 12.3149C4.03013 12.3743 4.09585 12.4582 4.13312 12.5556C4.17236 12.6496 4.18275 12.7531 4.16297 12.853C4.14318 12.9529 4.09411 13.0447 4.02201 13.1167L3.97146 13.1672C3.66671 13.4731 3.4956 13.8874 3.4956 14.3192C3.4956 14.751 3.66671 15.1652 3.97146 15.4711L4.81035 16.3094C5.11598 16.6147 5.5303 16.7862 5.96229 16.7862C6.39428 16.7862 6.8086 16.6147 7.11424 16.3094L7.16479 16.2589C7.23932 16.1861 7.33398 16.1375 7.4365 16.1191C7.53902 16.1008 7.64468 16.1137 7.73979 16.1561C7.83451 16.1941 7.91574 16.2595 7.97305 16.3439C8.03036 16.4283 8.06115 16.528 8.06146 16.63V16.7017C8.06131 16.916 8.10342 17.1282 8.18536 17.3262C8.26731 17.5243 8.38749 17.7042 8.53904 17.8558C8.69058 18.0073 8.87051 18.1275 9.06854 18.2094C9.26657 18.2914 9.47881 18.3335 9.69312 18.3333H10.8798C11.3117 18.3329 11.7257 18.1611 12.0311 17.8558C12.3365 17.5504 12.5082 17.1363 12.5087 16.7044V16.6328C12.5114 16.5301 12.5438 16.4305 12.602 16.3459C12.6602 16.2612 12.7416 16.1953 12.8365 16.156C12.9314 16.1168 13.0356 16.1058 13.1366 16.1246C13.2375 16.1433 13.3309 16.191 13.4053 16.2617L13.4559 16.3122C13.7616 16.6172 14.1758 16.7885 14.6076 16.7885C15.0394 16.7885 15.4536 16.6172 15.7592 16.3122L16.5987 15.4739C16.9034 15.168 17.0745 14.7538 17.0745 14.3219C17.0745 13.8901 16.9034 13.4759 16.5987 13.17L16.5481 13.1194C16.4753 13.045 16.4266 12.9503 16.4083 12.8478C16.3899 12.7452 16.4029 12.6395 16.4453 12.5444C16.4834 12.4496 16.5489 12.3683 16.6334 12.3109C16.7179 12.2535 16.8176 12.2226 16.9198 12.2222H16.9909C17.4228 12.2218 17.8368 12.05 18.1422 11.7446C18.4476 11.4393 18.6193 11.0252 18.6198 10.5933V9.40667C18.6193 8.97479 18.4476 8.56073 18.1422 8.25535C17.8368 7.94997 17.4228 7.77822 16.9909 7.77778ZM17.5087 10.5933C17.5085 10.7306 17.4539 10.8622 17.3569 10.9593C17.2598 11.0564 17.1282 11.111 16.9909 11.1111H16.9198C16.5974 11.1139 16.2829 11.2114 16.0156 11.3917C15.7483 11.5719 15.54 11.8269 15.4166 12.1247C15.2932 12.4226 15.2602 12.7502 15.3217 13.0667C15.3832 13.3831 15.5366 13.6745 15.7626 13.9044L15.8126 13.955C15.9096 14.0523 15.964 14.184 15.964 14.3214C15.964 14.4587 15.9096 14.5905 15.8126 14.6878L14.9731 15.5261C14.876 15.6232 14.7443 15.6778 14.607 15.6778C14.4697 15.6778 14.338 15.6232 14.2409 15.5261L14.1909 15.4756C13.9609 15.2498 13.6695 15.0967 13.3531 15.0353C13.0367 14.974 12.7093 15.007 12.4115 15.1304C12.1138 15.2537 11.8589 15.4619 11.6786 15.7291C11.4983 15.9962 11.4006 16.3105 11.3976 16.6328V16.7044C11.3974 16.8417 11.3428 16.9733 11.2458 17.0704C11.1487 17.1675 11.0171 17.2221 10.8798 17.2222H9.69312C9.55585 17.2221 9.42423 17.1675 9.32716 17.0704C9.23009 16.9733 9.17549 16.8417 9.17535 16.7044V16.6328C9.17379 16.3098 9.07689 15.9946 8.89681 15.7265C8.71674 15.4584 8.4615 15.2495 8.16314 15.126C7.86477 15.0024 7.53657 14.9698 7.2197 15.032C6.90283 15.0943 6.61141 15.2488 6.38201 15.4761L6.33146 15.5267C6.23421 15.6235 6.10257 15.6778 5.96535 15.6778C5.82812 15.6778 5.69648 15.6235 5.59924 15.5267L4.76035 14.6883C4.66335 14.5911 4.60889 14.4593 4.60889 14.3219C4.60889 14.1846 4.66335 14.0528 4.76035 13.9556L4.8109 13.905C5.03712 13.6751 5.19062 13.3836 5.25223 13.067C5.31384 12.7503 5.28085 12.4226 5.15736 12.1246C5.03388 11.8266 4.82537 11.5716 4.55786 11.3913C4.29034 11.2111 3.97568 11.1136 3.65312 11.1111H3.58201C3.44474 11.111 3.31312 11.0564 3.21605 10.9593C3.11898 10.8622 3.06438 10.7306 3.06424 10.5933V9.40667C3.06438 9.26939 3.11898 9.13777 3.21605 9.0407C3.31312 8.94363 3.44474 8.88903 3.58201 8.88889H3.65312C3.97552 8.88614 4.28997 8.78856 4.55728 8.60831C4.82459 8.42806 5.03293 8.17312 5.15633 7.87526C5.27973 7.57741 5.31272 7.24982 5.25119 6.93334C5.18967 6.61686 5.03635 6.32549 4.81035 6.09555L4.76035 6.045C4.66339 5.94783 4.60894 5.81616 4.60894 5.67889C4.60894 5.54162 4.66339 5.40995 4.76035 5.31278L5.59924 4.47333C5.69634 4.37624 5.82803 4.32169 5.96535 4.32169C6.10266 4.32169 6.23436 4.37624 6.33146 4.47333L6.38146 4.52389C6.61143 4.74978 6.90278 4.90302 7.21921 4.96453C7.53565 5.02603 7.86318 4.99307 8.16103 4.86977C8.45887 4.74646 8.71385 4.53825 8.89421 4.27108C9.07457 4.0039 9.17235 3.68956 9.17535 3.36722V3.29555C9.17549 3.15828 9.23009 3.02666 9.32716 2.92959C9.42423 2.83252 9.55585 2.77792 9.69312 2.77778H10.8798C11.0171 2.77792 11.1487 2.83252 11.2458 2.92959C11.3428 3.02666 11.3974 3.15828 11.3976 3.29555V3.36722C11.4004 3.68957 11.4981 4.00395 11.6784 4.27117C11.8587 4.5384 12.1136 4.74666 12.4114 4.86998C12.7093 4.99331 13.0368 5.02626 13.3533 4.96471C13.6697 4.90317 13.961 4.74986 14.1909 4.52389L14.2415 4.47333C14.3386 4.37624 14.4703 4.32169 14.6076 4.32169C14.7449 4.32169 14.8766 4.37624 14.9737 4.47333L15.8126 5.31278C15.9095 5.40995 15.964 5.54162 15.964 5.67889C15.964 5.81616 15.9095 5.94783 15.8126 6.045L15.762 6.09555C15.536 6.32552 15.3827 6.61694 15.3211 6.93347C15.2596 7.25 15.2927 7.57764 15.4161 7.87551C15.5396 8.17339 15.748 8.42833 16.0154 8.60854C16.2828 8.78875 16.5974 8.88625 16.9198 8.88889H16.9909C17.1282 8.88903 17.2598 8.94363 17.3569 9.0407C17.4539 9.13777 17.5085 9.26939 17.5087 9.40667V10.5933Z" fill="white"/>
<path d="M10.2873 6.11111C9.51818 6.11111 8.7663 6.33919 8.12678 6.76651C7.48725 7.19382 6.9888 7.80118 6.69446 8.51179C6.40012 9.22239 6.32311 10.0043 6.47316 10.7587C6.62322 11.5131 6.9936 12.206 7.53747 12.7499C8.08134 13.2937 8.77427 13.6641 9.52864 13.8142C10.283 13.9642 11.0649 13.8872 11.7755 13.5929C12.4861 13.2985 13.0935 12.8001 13.5208 12.1606C13.9481 11.521 14.1762 10.7691 14.1762 10C14.175 8.96896 13.7649 7.98049 13.0359 7.25144C12.3068 6.52239 11.3184 6.11229 10.2873 6.11111ZM10.2873 12.7778C9.73794 12.7778 9.20088 12.6149 8.74408 12.3096C8.28727 12.0044 7.93124 11.5706 7.721 11.063C7.51075 10.5554 7.45574 9.99692 7.56292 9.45808C7.67011 8.91925 7.93466 8.42429 8.32314 8.03581C8.71162 7.64734 9.20657 7.38278 9.74541 7.2756C10.2842 7.16841 10.8428 7.22342 11.3503 7.43367C11.8579 7.64391 12.2917 7.99995 12.597 8.45675C12.9022 8.91355 13.0651 9.45061 13.0651 10C13.0642 10.7364 12.7713 11.4425 12.2505 11.9632C11.7298 12.484 11.0238 12.7769 10.2873 12.7778Z" fill="white"/>
</svg>
