<svg width="21" height="20" viewBox="0 0 21 20" fill="none" xmlns="http://www.w3.org/2000/svg">
<g clip-path="url(#clip0_2103_1057)">
<path d="M7.42496 12.498C7.11989 12.0572 6.88551 11.5513 6.74293 10.9938C6.71325 10.8761 6.68785 10.7585 6.66715 10.6408L5.13473 10.8273C5.1195 11.2148 5.01871 11.6042 4.82535 11.965L4.81129 11.9929C4.47692 12.6009 3.93903 13.0092 3.3402 13.1777C2.75074 13.3433 2.10074 13.2761 1.52692 12.9375L1.50074 12.9227C0.921448 12.5718 0.531995 12.0072 0.371838 11.3787C0.213635 10.7597 0.278088 10.0779 0.600745 9.47566L0.614417 9.44819C0.949182 8.84021 1.48707 8.43147 2.0859 8.26297C2.67535 8.09734 3.32535 8.16498 3.89918 8.50362L3.92535 8.51797C4.4566 8.84021 4.8277 9.3416 5.00973 9.90736L6.59137 9.71426H6.59489C6.6109 8.93409 6.81754 8.1822 7.17965 7.52379V7.52174C7.40426 7.11382 7.68864 6.74157 8.02379 6.42138L7.08356 4.94467C6.85869 5.05221 6.61969 5.12366 6.37457 5.15662L6.37223 5.15703C5.6984 5.24804 5.05192 5.04429 4.5527 4.64006C4.05309 4.23624 3.69996 3.63153 3.61207 2.92146V2.919C3.52496 2.21139 3.7191 1.5333 4.10426 1.00895C4.48903 0.484598 5.06559 0.113984 5.74215 0.0217408C6.41715 -0.0700926 7.06403 0.134073 7.56403 0.538304C8.06364 0.942125 8.41676 1.54724 8.50465 2.25731C8.59215 2.96574 8.39801 3.64465 8.01246 4.16982C7.98043 4.21369 7.94684 4.25633 7.91207 4.29814L8.86442 5.79372C9.16207 5.62317 9.48395 5.48665 9.82614 5.3903C10.9199 5.08283 12.0293 5.24149 12.9625 5.75067L13.4523 4.99673C13.1074 4.59701 12.88 4.07963 12.8347 3.50116L12.8343 3.49952C12.78 2.80093 13.0004 2.14416 13.4011 1.64768C13.8027 1.15039 14.3843 0.813804 15.0507 0.755998C15.7172 0.698192 16.3433 0.929825 16.8168 1.35087C17.2906 1.7719 17.6113 2.38235 17.6664 3.08217C17.7214 3.78117 17.5007 4.43835 17.1 4.93565C16.6984 5.43253 16.1168 5.76912 15.4504 5.82692L15.448 5.82733C15.039 5.86218 14.6445 5.78839 14.2918 5.62809L13.816 6.35989C14.45 6.93753 14.932 7.71238 15.1652 8.6262C15.355 9.36825 15.3586 10.1177 15.2062 10.8195L15.7566 11.0294C15.7711 11.0057 15.7863 10.9827 15.8015 10.9598C16.1644 10.417 16.7246 10.0197 17.3957 9.8967C18.0664 9.77371 18.7218 9.94795 19.239 10.3292C19.7558 10.7101 20.1343 11.298 20.2515 12.0019C20.3691 12.7058 20.2031 13.3937 19.8398 13.937C19.4769 14.4794 18.9168 14.8766 18.2457 14.9996C17.575 15.123 16.9195 14.9484 16.4023 14.5675C15.8855 14.1866 15.507 13.5987 15.3894 12.8944C15.3421 12.6117 15.34 12.3227 15.3832 12.0392L14.8601 11.8391C14.8398 11.8818 14.8195 11.924 14.798 11.9658C14.0636 13.4073 12.505 14.4794 10.9316 14.4794C10.8605 14.4794 10.7898 14.4773 10.7195 14.4736L10.625 15.1062C11.1 15.312 11.5164 15.6777 11.7941 16.1799C12.1297 16.7875 12.1992 17.4799 12.0398 18.108C11.8804 18.7377 11.4922 19.3039 10.9132 19.656L10.9082 19.6593C10.3308 20.0086 9.67301 20.0808 9.07614 19.9143C8.47614 19.7471 7.93707 19.3396 7.60114 18.732L7.59567 18.7217C7.26481 18.1166 7.19723 17.4283 7.35543 16.8035C7.51481 16.1738 7.90309 15.608 8.482 15.2558L8.48746 15.2526C8.82971 15.0447 9.21536 14.9283 9.61051 14.9135L9.70582 14.276C8.8484 13.9829 7.95387 13.263 7.42496 12.498ZM13.2316 12.3766C13.5019 12.1122 13.7277 11.8027 13.9004 11.4632C14.2863 10.7064 14.4089 9.79872 14.18 8.90252C13.941 7.96615 13.3644 7.22123 12.6257 6.77355C11.8859 6.32504 10.9816 6.17335 10.0894 6.42425C9.1984 6.67474 8.48864 7.28109 8.06129 8.05757L8.06012 8.05716C7.63395 8.83324 7.48942 9.7815 7.72848 10.7175C7.83746 11.1447 8.01715 11.5325 8.25075 11.8699C8.37262 12.0462 8.50895 12.2089 8.65739 12.3565C9.07301 12.2622 9.52184 12.2134 9.85465 11.9695C9.88512 11.9215 9.91793 11.8523 9.94957 11.7764C9.99723 11.6624 10.0402 11.5382 10.0679 11.4529C9.95192 11.3099 9.8527 11.1479 9.75739 10.9885L9.44332 10.4641C9.32848 10.2845 9.26871 10.1201 9.26481 9.98484C9.26286 9.92171 9.2734 9.8639 9.29567 9.81348C9.31911 9.76018 9.35504 9.71631 9.40387 9.68188C9.42653 9.66548 9.45231 9.65195 9.48004 9.64129C9.45934 9.35636 9.45231 8.99887 9.4652 8.69836C9.47145 8.62743 9.48512 8.5561 9.50387 8.48476C9.58434 8.18425 9.78512 7.94155 10.0343 7.77551C10.1714 7.68327 10.3222 7.6148 10.4793 7.56807C10.5789 7.53814 10.3941 7.20401 10.4968 7.19212C10.9964 7.13801 11.8031 7.61644 12.1511 8.01207C12.3257 8.21008 12.4355 8.47246 12.4593 8.82012L12.4398 9.67573C12.5269 9.7036 12.5828 9.76141 12.6054 9.85529C12.63 9.95943 12.6035 10.1062 12.5191 10.3054C12.5175 10.3087 12.5156 10.3128 12.5136 10.3161L12.1558 10.9352C12.0242 11.1623 11.8906 11.3906 11.7164 11.5702C11.732 11.594 11.7484 11.6178 11.7636 11.6419C11.8343 11.751 11.9062 11.8605 11.9972 11.9576C12.0007 11.9609 12.0035 11.9646 12.005 11.9675C12.2742 12.1671 12.7953 12.268 13.2316 12.3766ZM1.94489 12.1651C2.31637 12.3824 2.73785 12.425 3.12106 12.3172C3.51051 12.2077 3.86051 11.942 4.0777 11.5468L4.08942 11.5267C4.29645 11.1369 4.33707 10.6945 4.23434 10.2923C4.13004 9.88358 3.87692 9.51625 3.50035 9.2883L3.48121 9.2756C3.10973 9.05831 2.68825 9.01608 2.30504 9.1235C1.91559 9.23337 1.56559 9.49903 1.3484 9.89424L1.33629 9.91433C1.12926 10.3042 1.08903 10.7462 1.19137 11.1488C1.29606 11.5575 1.54918 11.9244 1.92575 12.1528L1.94489 12.1651ZM7.34215 3.6262C7.59489 3.28142 7.72262 2.83496 7.66481 2.36882C7.60778 1.90474 7.37536 1.50788 7.04645 1.24222C6.71793 0.976972 6.29254 0.842912 5.8484 0.903177C5.40621 0.963443 5.02809 1.20738 4.77496 1.55257C4.51962 1.89953 4.40229 2.33683 4.44762 2.77264C4.45231 2.7956 4.45543 2.81938 4.4566 2.84357C4.52067 3.29331 4.74957 3.67704 5.07067 3.93655C5.3902 4.19483 5.80192 4.32848 6.23317 4.27969C6.25504 4.27477 6.2777 4.27149 6.30075 4.27067C6.72887 4.20303 7.09489 3.96279 7.34215 3.6262ZM19.1461 13.4245C19.2683 13.2419 19.3549 13.0358 19.4011 12.818C19.4473 12.6002 19.4521 12.375 19.4152 12.1552C19.3382 11.6928 19.0898 11.307 18.7511 11.0573C18.5772 10.9289 18.3809 10.8378 18.1733 10.7893C17.9658 10.7407 17.7512 10.7357 17.5418 10.7744C17.1011 10.8556 16.7336 11.116 16.4953 11.4718C16.373 11.6543 16.2863 11.8604 16.2401 12.0783C16.1939 12.2961 16.1891 12.5213 16.2261 12.7411C16.3031 13.2035 16.5515 13.5893 16.8902 13.839C17.0641 13.9674 17.2605 14.0585 17.468 14.107C17.6755 14.1556 17.8902 14.1606 18.0996 14.1219C18.5402 14.0411 18.9082 13.7804 19.1461 13.4245ZM8.32184 18.2613C8.3316 18.2773 8.34098 18.2937 8.34918 18.3109C8.56793 18.6918 8.91129 18.9476 9.29176 19.0538C9.67418 19.1604 10.0945 19.1169 10.4652 18.9001C10.48 18.8894 10.4957 18.88 10.5121 18.8718C10.875 18.6418 11.1187 18.2814 11.2199 17.8817C11.3238 17.4721 11.2789 17.0212 11.0605 16.626C10.9571 16.4381 10.8193 16.2735 10.655 16.1417C10.4908 16.01 10.3033 15.9136 10.1035 15.8581C9.72145 15.7515 9.30075 15.7949 8.93043 16.0118C8.9152 16.0225 8.89957 16.0319 8.88356 16.0401C8.52028 16.2701 8.27653 16.6305 8.17535 17.0302C8.07379 17.4311 8.11481 17.8723 8.32184 18.2613ZM16.4527 4.36046C16.5865 4.19484 16.6879 4.0031 16.7509 3.79625C16.8139 3.58941 16.8373 3.37153 16.8199 3.15515C16.7839 2.69967 16.5761 2.30282 16.2691 2.03019C15.9617 1.75715 15.5547 1.60669 15.1203 1.6444C14.6867 1.68212 14.3086 1.90023 14.0484 2.22246C13.7813 2.55308 13.649 2.98078 13.68 3.41302L13.6824 3.44253C13.7214 3.89186 13.9281 4.28297 14.232 4.55314C14.547 4.83354 14.9545 4.97243 15.3664 4.93975L15.3945 4.93729C15.8222 4.89629 16.1953 4.67942 16.4527 4.36046Z" fill="white"/>
</g>
<defs>
<clipPath id="clip0_2103_1057">
<rect width="20" height="20" fill="white" transform="translate(0.287109)"/>
</clipPath>
</defs>
</svg>
