<svg width="26" height="26" viewBox="0 0 26 26" fill="none" xmlns="http://www.w3.org/2000/svg">
<path d="M15.7237 6.5C15.9392 6.5 16.1459 6.5856 16.2982 6.73798C16.4506 6.89035 16.5362 7.09701 16.5362 7.3125V9.47917H18.6888C18.9043 9.47917 19.111 9.56477 19.2633 9.71714C19.4157 9.86952 19.5013 10.0762 19.5013 10.2917C19.5013 10.5072 19.4157 10.7138 19.2633 10.8662C19.111 11.0186 18.9043 11.1042 18.6888 11.1042H16.5362V13.2708C16.5362 13.4863 16.4506 13.693 16.2982 13.8454C16.1459 13.9977 15.9392 14.0833 15.7237 14.0833C15.5082 14.0833 15.3016 13.9977 15.1492 13.8454C14.9968 13.693 14.9112 13.4863 14.9112 13.2708V11.1042H12.7305C12.515 11.1042 12.3083 11.0186 12.1559 10.8662C12.0036 10.7138 11.918 10.5072 11.918 10.2917C11.918 10.0762 12.0036 9.86952 12.1559 9.71714C12.3083 9.56477 12.515 9.47917 12.7305 9.47917H14.9112V7.3125C14.9112 7.09701 14.9968 6.89035 15.1492 6.73798C15.3016 6.5856 15.5082 6.5 15.7237 6.5Z" fill="white"/>
<path d="M7.60938 4.06283C7.60938 3.01633 8.45871 2.16699 9.50521 2.16699H21.9375C22.984 2.16699 23.8334 3.01633 23.8334 4.06283V16.519C23.8334 17.0218 23.6336 17.504 23.2781 17.8595C22.9226 18.2151 22.4403 18.4148 21.9375 18.4148H9.50521C9.0024 18.4148 8.52019 18.2151 8.16465 17.8595C7.80911 17.504 7.60938 17.0218 7.60938 16.519V4.06283ZM9.50521 3.79199C9.43338 3.79199 9.36449 3.82053 9.3137 3.87132C9.26291 3.92211 9.23438 3.991 9.23438 4.06283V16.519C9.23438 16.6696 9.35571 16.7898 9.50521 16.7898H21.9375C22.0094 16.7898 22.0783 16.7613 22.1291 16.7105C22.1798 16.6597 22.2084 16.5908 22.2084 16.519V4.06283C22.2084 3.991 22.1798 3.92211 22.1291 3.87132C22.0783 3.82053 22.0094 3.79199 21.9375 3.79199H9.50521Z" fill="white"/>
<path d="M2.16016 11.645C2.16001 11.3959 2.20895 11.1493 2.30416 10.9191C2.39937 10.689 2.53899 10.4799 2.71505 10.3037C2.89111 10.1275 3.10015 9.9878 3.33024 9.89246C3.56032 9.79712 3.80693 9.74805 4.05599 9.74805H5.68641C5.9019 9.74805 6.10856 9.83365 6.26093 9.98602C6.4133 10.1384 6.49891 10.3451 6.49891 10.5605C6.49891 10.776 6.4133 10.9827 6.26093 11.1351C6.10856 11.2874 5.9019 11.373 5.68641 11.373H4.05599C3.98416 11.373 3.91527 11.4016 3.86448 11.4524C3.81369 11.5032 3.78516 11.5721 3.78516 11.6439L3.79057 21.9377C3.79057 22.0872 3.91082 22.2085 4.06141 22.2085H14.3531C14.4249 22.2085 14.4938 22.18 14.5446 22.1292C14.5954 22.0784 14.6239 22.0095 14.6239 21.9377V20.3019C14.6239 20.0864 14.7095 19.8797 14.8619 19.7274C15.0143 19.575 15.2209 19.4894 15.4364 19.4894C15.6519 19.4894 15.8586 19.575 16.0109 19.7274C16.1633 19.8797 16.2489 20.0864 16.2489 20.3019V21.9377C16.2489 22.4405 16.0492 22.9227 15.6936 23.2783C15.3381 23.6338 14.8559 23.8335 14.3531 23.8335H4.06141C3.5586 23.8335 3.07639 23.6338 2.72085 23.2783C2.36531 22.9227 2.16557 22.4405 2.16557 21.9377L2.16016 11.645Z" fill="white"/>
</svg>
