<svg width="13" height="13" viewBox="0 0 13 13" fill="none" xmlns="http://www.w3.org/2000/svg">
<path d="M6.39408 1.59668H2.35667C2.05073 1.59668 1.75732 1.71821 1.54099 1.93455C1.32466 2.15088 1.20313 2.44429 1.20312 2.75023V10.825C1.20313 11.131 1.32466 11.4244 1.54099 11.6407C1.75732 11.8571 2.05073 11.9786 2.35667 11.9786H10.4315C10.7374 11.9786 11.0308 11.8571 11.2472 11.6407C11.4635 11.4244 11.585 11.131 11.585 10.825V6.78763" stroke="#93989A" stroke-width="1.09592" stroke-linecap="round" stroke-linejoin="round"/>
<path d="M10.0723 1.38082C10.3017 1.15137 10.6129 1.02246 10.9374 1.02246C11.2619 1.02246 11.5731 1.15137 11.8026 1.38082C12.032 1.61028 12.1609 1.92148 12.1609 2.24598C12.1609 2.57048 12.032 2.88169 11.8026 3.11114L6.60413 8.31017C6.46717 8.44701 6.29798 8.54717 6.11214 8.60144L4.45507 9.08593C4.40544 9.1004 4.35283 9.10127 4.30275 9.08844C4.25267 9.07561 4.20696 9.04955 4.1704 9.013C4.13385 8.97644 4.10779 8.93073 4.09496 8.88065C4.08213 8.83057 4.083 8.77796 4.09747 8.72833L4.58196 7.07126C4.63648 6.88557 4.73685 6.71658 4.87381 6.57985L10.0723 1.38082Z" stroke="#93989A" stroke-width="1.09592" stroke-linecap="round" stroke-linejoin="round"/>
</svg>
