<svg width="99" height="95" viewBox="0 0 99 95" fill="none" xmlns="http://www.w3.org/2000/svg">
<path d="M31.619 84.148C53.6947 87.7203 77.0711 68.5589 62.9569 50.1297C48.8426 31.7006 30.6812 56.1711 56.1052 61.8584C81.5292 67.5458 84.7642 35.0333 72.2089 18.0113" stroke="white" stroke-width="1.87678" stroke-linecap="round" stroke-linejoin="round"/>
<path fill-rule="evenodd" clip-rule="evenodd" d="M23.3036 83.1678C26.8877 79.9933 34.6782 77.719 39.7968 77.7993C39.9676 82.4401 40.1774 86.4315 38.9204 90.0602C33.4153 89.2956 26.5843 87.0127 23.3036 83.1678Z" fill="white" stroke="white" stroke-width="1.87678" stroke-linecap="round" stroke-linejoin="round"/>
<path fill-rule="evenodd" clip-rule="evenodd" d="M66.0912 9.0754C64.4528 4.73005 67.0131 -0.480117 70.9681 2.25652C74.923 4.99316 71.9411 18.0608 71.9411 18.0608C71.9411 18.0608 62.7623 20.6553 59.1392 14.9448C55.5161 9.23431 61.9249 8.49924 66.0912 9.0754Z" fill="white" stroke="white" stroke-width="1.87678" stroke-linecap="round" stroke-linejoin="round"/>
</svg>
