<svg width="21" height="20" viewBox="0 0 21 20" fill="none" xmlns="http://www.w3.org/2000/svg">
<g opacity="0.654689">
<path fill-rule="evenodd" clip-rule="evenodd" d="M15.5127 4.03857C15.6469 4.03857 15.7607 4.13726 15.7797 4.27012C15.8693 4.89726 16.362 5.39002 16.9892 5.47961C17.122 5.49859 17.2207 5.61238 17.2207 5.74659C17.2207 5.88079 17.122 5.99458 16.9892 6.01357C16.362 6.10315 15.8693 6.59591 15.7797 7.22305C15.7607 7.35591 15.6469 7.4546 15.5127 7.4546C15.3785 7.4546 15.2647 7.35591 15.2457 7.22305C15.1561 6.59591 14.6634 6.10315 14.0362 6.01357C13.9034 5.99458 13.8047 5.88079 13.8047 5.74659C13.8047 5.61238 13.9034 5.49859 14.0362 5.47961C14.6634 5.39002 15.1561 4.89726 15.2457 4.27012C15.2647 4.13726 15.3785 4.03857 15.5127 4.03857Z" fill="white"/>
</g>
<g opacity="0.803313">
<path fill-rule="evenodd" clip-rule="evenodd" d="M7.97697 4.5579C7.9068 4.17197 7.35348 4.17195 7.2833 4.5579L7.19015 5.07025C6.94939 6.39443 5.91309 7.43073 4.58891 7.67148L4.07657 7.76464C3.69063 7.83481 3.69061 8.38813 4.07657 8.4583L4.58891 8.55146C5.91309 8.79222 6.94939 9.82851 7.19015 11.1527L7.2833 11.6651C7.35348 12.051 7.9068 12.051 7.97697 11.6651L8.07013 11.1527C8.31088 9.82851 9.34718 8.79222 10.6714 8.55146L11.1837 8.4583C11.5696 8.38813 11.5697 7.83481 11.1837 7.76464L10.6714 7.67148C9.34718 7.43073 8.31088 6.39443 8.07013 5.07025L7.97697 4.5579Z" fill="white"/>
</g>
<g opacity="0.717652">
<path fill-rule="evenodd" clip-rule="evenodd" d="M13.5183 11.3612C13.4265 10.9699 12.8694 10.9699 12.7776 11.3612C12.7751 11.372 12.7723 11.3874 12.7716 11.3916L12.7714 11.3926C12.7602 11.4543 12.7554 11.4804 12.7507 11.5035C12.5725 12.374 11.8922 13.0543 11.0217 13.2325C10.9986 13.2372 10.9726 13.242 10.9108 13.2532L10.9098 13.2534C10.9056 13.2541 10.8902 13.2569 10.8794 13.2594C10.4881 13.3512 10.4881 13.9082 10.8794 14.0001C10.8913 14.0028 10.9088 14.0059 10.9108 14.0063C10.9726 14.0175 10.9986 14.0222 11.0217 14.027C11.8922 14.2052 12.5725 14.8854 12.7507 15.7559C12.7554 15.7791 12.7602 15.8051 12.7714 15.8669C12.7718 15.8689 12.7748 15.8864 12.7776 15.8982C12.8694 16.2896 13.4265 16.2896 13.5183 15.8982C13.5208 15.8875 13.5236 15.8721 13.5243 15.8678L13.5245 15.8669C13.5357 15.8051 13.5405 15.7791 13.5452 15.7559C13.7234 14.8854 14.4037 14.2052 15.2742 14.027C15.2973 14.0222 15.3233 14.0175 15.3851 14.0063L15.3861 14.0061C15.3903 14.0053 15.4057 14.0026 15.4165 14.0001C15.8078 13.9082 15.8078 13.3512 15.4165 13.2594C15.4057 13.2569 15.3903 13.2541 15.3861 13.2534L15.3851 13.2532C15.3233 13.242 15.2973 13.2372 15.2742 13.2325C14.4037 13.0543 13.7234 12.374 13.5452 11.5035C13.5405 11.4804 13.5357 11.4543 13.5245 11.3926L13.5243 11.3916C13.5236 11.3874 13.5208 11.372 13.5183 11.3612Z" fill="white"/>
</g>
</svg>
