<svg width="34" height="25" viewBox="0 0 34 25" fill="none" xmlns="http://www.w3.org/2000/svg">
<path d="M31.0994 2.50781H3.61548C3.09482 2.50781 2.59549 2.70097 2.22733 3.04478C1.85917 3.3886 1.65234 3.85492 1.65234 4.34115V22.6745C1.65234 23.1607 1.85917 23.627 2.22733 23.9708C2.59549 24.3147 3.09482 24.5078 3.61548 24.5078H31.0994C31.62 24.5078 32.1194 24.3147 32.4875 23.9708C32.8557 23.627 33.0625 23.1607 33.0625 22.6745V4.34115C33.0625 3.85492 32.8557 3.3886 32.4875 3.04478C32.1194 2.70097 31.62 2.50781 31.0994 2.50781ZM29.5878 22.6745H5.24488L12.1159 16.0378L10.7024 14.7636L3.61548 21.6111V5.73448L15.8164 17.0736C16.1842 17.4151 16.6817 17.6068 17.2004 17.6068C17.719 17.6068 18.2166 17.4151 18.5844 17.0736L31.0994 5.45031V21.492L23.875 14.7453L22.491 16.0378L29.5878 22.6745ZM4.90133 4.34115H29.5092L17.2004 15.772L4.90133 4.34115Z" fill="#93989A"/>
</svg>
