<svg width="14" height="13" viewBox="0 0 14 13" fill="none" xmlns="http://www.w3.org/2000/svg">
<path d="M13.4016 6.49961C13.4016 4.80222 12.7273 3.17436 11.527 1.97413C10.3268 0.773893 8.69895 0.0996094 7.00156 0.0996094C5.30418 0.0996094 3.67631 0.773893 2.47608 1.97413C1.27585 3.17436 0.601563 4.80222 0.601562 6.49961C0.601563 8.19699 1.27585 9.82486 2.47608 11.0251C3.67631 12.2253 5.30418 12.8996 7.00156 12.8996C8.69895 12.8996 10.3268 12.2253 11.527 11.0251C12.7273 9.82486 13.4016 8.19699 13.4016 6.49961ZM1.40156 6.49961C1.40156 5.76421 1.54641 5.03601 1.82784 4.35658C2.10926 3.67716 2.52176 3.05982 3.04176 2.53981C3.56177 2.0198 4.17911 1.60731 4.85854 1.32588C5.53796 1.04446 6.26616 0.899609 7.00156 0.899609C7.73697 0.899609 8.46517 1.04446 9.14459 1.32588C9.82401 1.60731 10.4414 2.0198 10.9614 2.53981C11.4814 3.05982 11.8939 3.67716 12.1753 4.35658C12.4567 5.03601 12.6016 5.76421 12.6016 6.49961C12.6016 7.98482 12.0116 9.4092 10.9614 10.4594C9.91116 11.5096 8.48677 12.0996 7.00156 12.0996C5.51635 12.0996 4.09197 11.5096 3.04176 10.4594C1.99156 9.4092 1.40156 7.98482 1.40156 6.49961ZM9.80156 5.29961C9.80156 5.08744 9.71728 4.88395 9.56725 4.73392C9.41722 4.5839 9.21374 4.49961 9.00156 4.49961C8.78939 4.49961 8.58591 4.5839 8.43588 4.73392C8.28585 4.88395 8.20156 5.08744 8.20156 5.29961C8.20156 5.51178 8.28585 5.71527 8.43588 5.86529C8.58591 6.01532 8.78939 6.09961 9.00156 6.09961C9.21374 6.09961 9.41722 6.01532 9.56725 5.86529C9.71728 5.71527 9.80156 5.51178 9.80156 5.29961ZM5.80156 5.29961C5.80156 5.08744 5.71728 4.88395 5.56725 4.73392C5.41722 4.5839 5.21374 4.49961 5.00156 4.49961C4.78939 4.49961 4.58591 4.5839 4.43588 4.73392C4.28585 4.88395 4.20156 5.08744 4.20156 5.29961C4.20156 5.51178 4.28585 5.71527 4.43588 5.86529C4.58591 6.01532 4.78939 6.09961 5.00156 6.09961C5.21374 6.09961 5.41722 6.01532 5.56725 5.86529C5.71728 5.71527 5.80156 5.51178 5.80156 5.29961ZM4.51276 8.51161C4.47972 8.47074 4.43896 8.43678 4.39279 8.41167C4.34663 8.38656 4.29597 8.37078 4.24371 8.36525C4.19145 8.35972 4.13861 8.36453 4.08821 8.37942C4.0378 8.3943 3.99083 8.41897 3.94996 8.45201C3.9091 8.48505 3.87514 8.52582 3.85002 8.57198C3.82491 8.61815 3.80914 8.66881 3.8036 8.72107C3.79807 8.77333 3.80288 8.82617 3.81777 8.87657C3.83265 8.92697 3.85732 8.97394 3.89036 9.01481C4.26543 9.47861 4.73948 9.85266 5.2778 10.1096C5.81612 10.3665 6.40508 10.4997 7.00156 10.4996C8.25756 10.4996 9.37996 9.91961 10.1128 9.01481C10.1459 8.97394 10.1706 8.92696 10.1855 8.87654C10.2004 8.82612 10.2053 8.77325 10.1998 8.72095C10.1943 8.66865 10.1786 8.61795 10.1535 8.57173C10.1284 8.52552 10.0944 8.4847 10.0536 8.45161C10.0127 8.41852 9.96571 8.3938 9.91529 8.37886C9.86487 8.36393 9.812 8.35907 9.7597 8.36457C9.7074 8.37006 9.6567 8.38581 9.61049 8.4109C9.56427 8.43599 9.52346 8.46994 9.49036 8.51081C9.19042 8.88201 8.81125 9.18142 8.38062 9.38711C7.94999 9.59281 7.4788 9.69958 7.00156 9.69961C6.52439 9.69968 6.05324 9.59303 5.62262 9.38748C5.19199 9.18192 4.81278 8.88266 4.51276 8.51161Z" fill="white"/>
</svg>
