<svg width="26" height="27" viewBox="0 0 26 27" fill="none" xmlns="http://www.w3.org/2000/svg">
<path d="M12.9974 24.3337C11.4988 24.3337 10.0905 24.0491 8.7724 23.48C7.45434 22.9109 6.30781 22.1392 5.33281 21.1649C4.35781 20.1906 3.58612 19.0441 3.01773 17.7253C2.44934 16.4066 2.16478 14.9982 2.16406 13.5003C2.16406 11.4781 2.67431 9.61369 3.69481 7.90708C4.71531 6.20047 6.1009 4.87808 7.85156 3.93991C8.1224 3.79547 8.40695 3.77741 8.70523 3.88575C9.00351 3.99408 9.21548 4.19269 9.34115 4.48158C9.44948 4.75241 9.44948 5.02794 9.34115 5.30816C9.23281 5.58838 9.05226 5.80036 8.79948 5.94408C7.44531 6.70241 6.36198 7.75433 5.54948 9.09983C4.73698 10.4453 4.33073 11.9122 4.33073 13.5003C4.33073 15.9198 5.17031 17.9691 6.84948 19.6482C8.52865 21.3274 10.578 22.167 12.9974 22.167C15.4168 22.167 17.4661 21.3274 19.1453 19.6482C20.8245 17.9691 21.6641 15.9198 21.6641 13.5003C21.6641 11.9114 21.2578 10.4446 20.4453 9.09983C19.6328 7.75505 18.5495 6.70313 17.1953 5.94408C16.9425 5.79963 16.762 5.58766 16.6536 5.30816C16.5453 5.02866 16.5453 4.75313 16.6536 4.48158C16.762 4.19269 16.9563 3.98505 17.2365 3.85866C17.5167 3.73227 17.7828 3.7413 18.0349 3.88575C19.8043 4.80658 21.2127 6.12463 22.2599 7.83991C23.3071 9.55519 23.8307 11.442 23.8307 13.5003C23.8307 14.9989 23.5462 16.4073 22.9771 17.7253C22.4079 19.0434 21.6363 20.1899 20.662 21.1649C19.6877 22.1399 18.5412 22.912 17.2224 23.4811C15.9036 24.0502 14.4953 24.3344 12.9974 24.3337ZM11.9141 13.6899V3.75033C11.9141 3.44338 12.0181 3.18627 12.2261 2.979C12.4341 2.77172 12.6912 2.66772 12.9974 2.667C13.3036 2.66627 13.5611 2.77027 13.7698 2.979C13.9785 3.18772 14.0822 3.44483 14.0807 3.75033V13.6899L16.1391 11.6587C16.3377 11.4601 16.5861 11.3561 16.8844 11.3467C17.1827 11.3373 17.4398 11.4413 17.6557 11.6587C17.8543 11.8573 17.9536 12.1101 17.9536 12.417C17.9536 12.7239 17.8543 12.9767 17.6557 13.1753L13.7557 17.0753C13.5391 17.292 13.2863 17.4003 12.9974 17.4003C12.7085 17.4003 12.4557 17.292 12.2391 17.0753L8.33906 13.1753C8.14045 12.9767 8.03645 12.7286 8.02706 12.4311C8.01767 12.1335 8.12167 11.8761 8.33906 11.6587C8.53767 11.4601 8.79045 11.3607 9.09739 11.3607C9.40434 11.3607 9.65712 11.4601 9.85573 11.6587L11.9141 13.6899Z" fill="white"/>
</svg>
