<svg width="22" height="22" viewBox="0 0 22 22" fill="none" xmlns="http://www.w3.org/2000/svg">
<path d="M11.0013 0.333374C14.0206 0.333374 16.7029 1.69512 18.6128 3.38079C19.5716 4.22687 20.3613 5.17696 20.9181 6.12271C21.4652 7.05112 21.8346 8.05754 21.8346 9.00004C21.8346 9.94254 21.4663 10.949 20.9181 11.8774C20.3613 12.8231 19.5716 13.7732 18.6128 14.6193C16.7029 16.305 14.0195 17.6667 11.0013 17.6667C7.98205 17.6667 5.29972 16.305 3.3898 14.6193C2.43105 13.7732 1.6413 12.8231 1.08447 11.8774C0.536302 10.949 0.167969 9.94254 0.167969 9.00004C0.167969 8.05754 0.536302 7.05112 1.08447 6.12271C1.6413 5.17696 2.43105 4.22687 3.3898 3.38079C5.29972 1.69512 7.98314 0.333374 11.0013 0.333374ZM11.0013 2.50004C8.6353 2.50004 6.44264 3.57579 4.82414 5.00471C4.01814 5.71537 3.38114 6.49212 2.95105 7.22229C2.51122 7.96979 2.33464 8.58837 2.33464 9.00004C2.33464 9.41171 2.51122 10.0303 2.95105 10.7778C3.38114 11.508 4.01814 12.2836 4.82414 12.9954C6.44264 14.4243 8.6353 15.5 11.0013 15.5C13.3673 15.5 15.56 14.4243 17.1785 12.9954C17.9845 12.2836 18.6215 11.508 19.0516 10.7778C19.4914 10.0303 19.668 9.41171 19.668 9.00004C19.668 8.58837 19.4914 7.96979 19.0516 7.22229C18.6215 6.49212 17.9845 5.71646 17.1785 5.00471C15.56 3.57579 13.3673 2.50004 11.0013 2.50004ZM11.0013 5.75004C11.0966 5.75004 11.1909 5.75401 11.2841 5.76196C11.0488 6.17455 10.9557 6.65299 11.019 7.12369C11.0823 7.59438 11.2985 8.03124 11.6343 8.36706C11.9701 8.70288 12.407 8.91906 12.8777 8.98234C13.3483 9.04562 13.8268 8.9525 14.2394 8.71729C14.2964 9.36964 14.1549 10.024 13.8337 10.5946C13.5124 11.1652 13.0262 11.6254 12.4389 11.915C11.8516 12.2046 11.1905 12.31 10.5422 12.2174C9.89396 12.1248 9.28879 11.8386 8.806 11.3962C8.32322 10.9538 7.98533 10.3758 7.83662 9.7381C7.68791 9.10038 7.73532 8.4326 7.97262 7.82228C8.20992 7.21196 8.62606 6.68756 9.1665 6.31779C9.70693 5.94801 10.3465 5.75012 11.0013 5.75004Z" fill="white"/>
</svg>
