<svg width="29" height="30" viewBox="0 0 29 30" fill="none" xmlns="http://www.w3.org/2000/svg">
<path d="M29 15C29 6.99123 22.5088 0.5 14.5 0.5C6.49123 0.5 0 6.99123 0 15C0 22.2381 5.29945 28.2367 12.2356 29.3252V19.1951H8.55699V15H12.2356V11.806C12.2356 8.17507 14.3967 6.16493 17.7099 6.16493C19.2989 6.16493 20.9594 6.45096 20.9594 6.45096V10.0184H19.1321C17.3285 10.0184 16.7723 11.1386 16.7723 12.2827V15H20.7926L20.149 19.1951H16.7723V29.3252C23.7005 28.2367 29 22.2381 29 15Z" fill="#1877F2"/>
<path d="M20.1409 19.1951L20.7844 15H16.7642V12.2827C16.7642 11.1386 17.3283 10.0183 19.1239 10.0183H20.9513V6.45094C20.9513 6.45094 19.2907 6.16492 17.7017 6.16492C14.3886 6.16492 12.2275 8.17505 12.2275 11.806V15H8.54883V19.1951H12.2275V29.3252C12.9664 29.4444 13.7212 29.5 14.4918 29.5C15.2625 29.5 16.0173 29.4364 16.7562 29.3252V19.1951H20.1409Z" fill="#1D1F20"/>
</svg>
