<svg width="22" height="20" viewBox="0 0 22 20" fill="none" xmlns="http://www.w3.org/2000/svg">
<path d="M20.0957 10H7.7407M3.3797 10H1.5957M3.3797 10C3.3797 9.42184 3.60938 8.86735 4.01821 8.45852C4.42704 8.04969 4.98153 7.82001 5.5597 7.82001C6.13788 7.82001 6.69237 8.04969 7.1012 8.45852C7.51003 8.86735 7.7397 9.42184 7.7397 10C7.7397 10.5782 7.51003 11.1327 7.1012 11.5415C6.69237 11.9503 6.13788 12.18 5.5597 12.18C4.98153 12.18 4.42704 11.9503 4.01821 11.5415C3.60938 11.1327 3.3797 10.5782 3.3797 10ZM20.0957 16.607H14.3477M14.3477 16.607C14.3477 17.1853 14.1175 17.7404 13.7085 18.1494C13.2996 18.5583 12.745 18.788 12.1667 18.788C11.5885 18.788 11.034 18.5573 10.6252 18.1485C10.2164 17.7397 9.9867 17.1852 9.9867 16.607M14.3477 16.607C14.3477 16.0287 14.1175 15.4746 13.7085 15.0657C13.2996 14.6567 12.745 14.427 12.1667 14.427C11.5885 14.427 11.034 14.6567 10.6252 15.0655C10.2164 15.4743 9.9867 16.0288 9.9867 16.607M9.9867 16.607H1.5957M20.0957 3.39301H16.9907M12.6297 3.39301H1.5957M12.6297 3.39301C12.6297 2.81484 12.8594 2.26035 13.2682 1.85152C13.677 1.44269 14.2315 1.21301 14.8097 1.21301C15.096 1.21301 15.3795 1.2694 15.644 1.37896C15.9084 1.48851 16.1488 1.64909 16.3512 1.85152C16.5536 2.05395 16.7142 2.29427 16.8238 2.55876C16.9333 2.82325 16.9897 3.10673 16.9897 3.39301C16.9897 3.67929 16.9333 3.96277 16.8238 4.22726C16.7142 4.49175 16.5536 4.73207 16.3512 4.93451C16.1488 5.13694 15.9084 5.29751 15.644 5.40707C15.3795 5.51663 15.096 5.57301 14.8097 5.57301C14.2315 5.57301 13.677 5.34333 13.2682 4.93451C12.8594 4.52568 12.6297 3.97118 12.6297 3.39301Z" stroke="#93989A" stroke-width="2" stroke-miterlimit="10" stroke-linecap="round"/>
</svg>
