<svg width="73" height="72" viewBox="0 0 73 72" fill="none" xmlns="http://www.w3.org/2000/svg">
<path d="M36.5 4.5L43.55 9.9L52.25 8.7L55.55 16.95L63.8 20.25L62.6 28.95L68 36L62.6 43.05L63.8 51.75L55.55 55.05L52.25 63.3L43.55 62.1L36.5 67.5L29.45 62.1L20.75 63.3L17.45 55.05L9.2 51.75L10.4 43.05L5 36L10.4 28.95L9.2 20.25L17.45 16.95L20.75 8.7L29.45 9.9L36.5 4.5Z" fill="#8BC34A"/>
<path d="M52.4004 21.9004L32.0004 42.3004L23.6004 33.9004L19.4004 38.1004L32.0004 50.7004L56.6004 26.1004L52.4004 21.9004Z" fill="#CCFF90"/>
</svg>
