<svg width="15" height="16" viewBox="0 0 15 16" fill="none" xmlns="http://www.w3.org/2000/svg">
<path d="M11.5021 5.17219L11.8382 4.83529C12.1059 4.56753 12.469 4.41706 12.8476 4.41699C13.2262 4.41692 13.5893 4.56726 13.8571 4.83493C14.1249 5.1026 14.2753 5.46568 14.2754 5.84428C14.2755 6.22289 14.1251 6.58602 13.8575 6.85379L13.5213 7.19069M11.5021 5.17219C11.5021 5.17219 11.5442 5.88665 12.1751 6.51761C12.8061 7.14858 13.5213 7.19069 13.5213 7.19069M11.5021 5.17219L8.40897 8.26528C8.1984 8.47439 8.09385 8.57968 8.00381 8.69512C7.89732 8.83162 7.80681 8.97829 7.73226 9.13512C7.66909 9.26727 7.62262 9.4074 7.52896 9.6884L7.22909 10.5887L7.1318 10.8799M13.5213 7.19069L10.4282 10.2838C10.2176 10.4943 10.1131 10.5989 9.99762 10.6889C9.86112 10.7954 9.71445 10.8859 9.55762 10.9605C9.42547 11.0237 9.28534 11.0701 9.00435 11.1638L8.10401 11.4637L7.81286 11.561M7.1318 10.8799L7.03523 11.1718C7.01273 11.2395 7.00953 11.3122 7.02597 11.3817C7.04242 11.4511 7.07786 11.5147 7.12834 11.5651C7.17882 11.6156 7.24234 11.6511 7.31181 11.6675C7.38128 11.6839 7.45395 11.6807 7.5217 11.6582L7.81286 11.561M7.1318 10.8799L7.81286 11.561" stroke="#93989A" stroke-width="0.726078"/>
<path d="M4.11476 8.77396H5.92996M4.11476 5.86965H8.83427M4.11476 11.6783H5.20388M12.7028 1.63807C11.8526 0.787109 10.4832 0.787109 7.74515 0.787109H6.293C3.55496 0.787109 2.18557 0.787109 1.33534 1.63807C0.485101 2.48904 0.484375 3.85769 0.484375 6.59573V9.50004C0.484375 12.2381 0.484375 13.6075 1.33534 14.4577C2.1863 15.3079 3.55496 15.3087 6.293 15.3087H7.74515C10.4832 15.3087 11.8526 15.3087 12.7028 14.4577C13.3882 13.773 13.5211 12.7529 13.5472 10.9522" stroke="#93989A" stroke-width="0.726078" stroke-linecap="round"/>
</svg>
