<svg width="12" height="18" viewBox="0 0 12 18" fill="none" xmlns="http://www.w3.org/2000/svg">
<g clip-path="url(#clip0_67_974)">
<g clip-path="url(#clip1_67_974)">
<g clip-path="url(#clip2_67_974)">
<path opacity="0.7" d="M6.94045 6.88181H10.7404L10.3182 8.5707H6.94045V16.1707H5.25156V8.5707H1.87378V6.88181H5.25156V5.30101C5.25156 3.79537 5.40862 3.24901 5.70249 2.69844C5.99045 2.15445 6.4353 1.7096 6.97929 1.42164C7.52987 1.12777 8.07622 0.970703 9.58187 0.970703C10.0227 0.970703 10.4094 1.01293 10.7404 1.09737V2.65959H9.58187C8.46382 2.65959 8.12351 2.72546 7.77644 2.91124C7.51973 3.04804 7.32889 3.23888 7.19209 3.49559C7.00631 3.84266 6.94045 4.18297 6.94045 5.30101V6.88181Z" fill="white" stroke="white" stroke-width="0.8"/>
</g>
</g>
</g>
<defs>
<clipPath id="clip0_67_974">
<rect width="11" height="17" fill="white" transform="translate(0.514404 0.5)"/>
</clipPath>
<clipPath id="clip1_67_974">
<rect width="11" height="17" fill="white" transform="translate(0.514404 0.5)"/>
</clipPath>
<clipPath id="clip2_67_974">
<rect width="11" height="17" fill="white" transform="translate(0.514404 0.5)"/>
</clipPath>
</defs>
</svg>
