<svg width="17" height="12" viewBox="0 0 17 12" fill="none" xmlns="http://www.w3.org/2000/svg">
<g clip-path="url(#clip0_67_980)">
<g clip-path="url(#clip1_67_980)">
<path opacity="0.7" d="M15.0474 3.54979C15.0474 3.54979 14.9071 2.55643 14.4753 2.12026C13.9286 1.5462 13.3173 1.54338 13.037 1.50961C11.0295 1.36328 8.0153 1.36328 8.0153 1.36328H8.00969C8.00969 1.36328 4.99558 1.36328 2.98805 1.50961C2.70767 1.54338 2.09643 1.5462 1.54969 2.12026C1.1179 2.55643 0.980515 3.54979 0.980515 3.54979C0.980515 3.54979 0.834717 4.71761 0.834717 5.88262V6.97446C0.834717 8.13948 0.977711 9.3073 0.977711 9.3073C0.977711 9.3073 1.1179 10.3006 1.54689 10.7368C2.09363 11.3109 2.81141 11.2912 3.13105 11.3531C4.28061 11.4628 8.01249 11.4966 8.01249 11.4966C8.01249 11.4966 11.0295 11.491 13.037 11.3475C13.3173 11.3137 13.9286 11.3109 14.4753 10.7368C14.9071 10.3006 15.0474 9.3073 15.0474 9.3073C15.0474 9.3073 15.1903 8.14229 15.1903 6.97446V5.88262C15.1903 4.71761 15.0474 3.54979 15.0474 3.54979ZM6.52928 8.29987V4.25048L10.407 6.28221L6.52928 8.29987Z" fill="white"/>
</g>
</g>
<defs>
<clipPath id="clip0_67_980">
<rect width="16" height="11" fill="white" transform="translate(0.0144043 0.5)"/>
</clipPath>
<clipPath id="clip1_67_980">
<rect width="16" height="11" fill="white" transform="translate(0.0144043 0.5)"/>
</clipPath>
</defs>
</svg>
