<svg width="18" height="16" viewBox="0 0 18 16" fill="none" xmlns="http://www.w3.org/2000/svg">
<g clip-path="url(#clip0_67_984)">
<g clip-path="url(#clip1_67_984)">
<path opacity="0.7" d="M13.3316 3.07108C13.1484 3.07108 12.9693 3.1254 12.817 3.22719C12.6647 3.32896 12.5459 3.47362 12.4758 3.64287C12.4057 3.81212 12.3874 3.99836 12.4231 4.17803C12.4588 4.35771 12.547 4.52275 12.6766 4.65229C12.8062 4.78182 12.9712 4.87005 13.1509 4.90579C13.3305 4.94152 13.5168 4.92318 13.686 4.85307C13.8553 4.78297 13.9999 4.66425 14.1017 4.51193C14.2035 4.35961 14.2578 4.18052 14.2578 3.99733C14.2578 3.75167 14.1603 3.51608 13.9865 3.34237C13.8128 3.16867 13.5772 3.07108 13.3316 3.07108ZM16.8822 4.93902C16.8672 4.29859 16.7473 3.66496 16.5271 3.06336C16.3309 2.54863 16.0254 2.08253 15.6318 1.69714C15.2495 1.3015 14.7824 0.997956 14.2655 0.809485C13.6655 0.582678 13.0312 0.459987 12.3899 0.446703C11.5717 0.400391 11.3093 0.400391 9.20972 0.400391C7.11022 0.400391 6.84778 0.400391 6.02959 0.446703C5.38828 0.459987 4.75395 0.582678 4.15393 0.809485C3.63808 0.999866 3.17129 1.30315 2.78772 1.69714C2.39207 2.07936 2.08853 2.54655 1.90006 3.06336C1.67325 3.66338 1.55056 4.2977 1.53728 4.93902C1.49097 5.75721 1.49097 6.01965 1.49097 8.11914C1.49097 10.2187 1.49097 10.4811 1.53728 11.2993C1.55056 11.9406 1.67325 12.575 1.90006 13.175C2.08853 13.6918 2.39207 14.159 2.78772 14.5412C3.17129 14.9352 3.63808 15.2384 4.15393 15.4288C4.75395 15.6557 5.38828 15.7783 6.02959 15.7916C6.84778 15.8379 7.11022 15.8379 9.20972 15.8379C11.3093 15.8379 11.5717 15.8379 12.3899 15.7916C13.0312 15.7783 13.6655 15.6557 14.2655 15.4288C14.7824 15.2404 15.2495 14.9368 15.6318 14.5412C16.0272 14.1572 16.3329 13.6907 16.5271 13.175C16.7473 12.5733 16.8672 11.9398 16.8822 11.2993C16.8822 10.4811 16.9285 10.2187 16.9285 8.11914C16.9285 6.01965 16.9285 5.75721 16.8822 4.93902ZM15.4928 11.2067C15.4872 11.6967 15.3985 12.1821 15.2304 12.6424C15.1071 12.9783 14.9092 13.2818 14.6515 13.53C14.4011 13.7852 14.0982 13.9827 13.7638 14.1089C13.3036 14.277 12.8181 14.3657 12.3281 14.3714C11.5563 14.41 11.2707 14.4177 9.24059 14.4177C7.21056 14.4177 6.92497 14.4177 6.15309 14.3714C5.64434 14.3809 5.13777 14.3025 4.65565 14.1398C4.33593 14.0072 4.04692 13.8101 3.80659 13.5609C3.5504 13.313 3.35492 13.0092 3.2354 12.6732C3.04695 12.2064 2.94243 11.7099 2.92665 11.2067C2.92665 10.4348 2.88034 10.1492 2.88034 8.11914C2.88034 6.08911 2.88034 5.80352 2.92665 5.03165C2.93011 4.53074 3.02155 4.03434 3.19681 3.56508C3.3327 3.23928 3.54127 2.94886 3.80659 2.71602C4.0411 2.45063 4.33092 2.23985 4.65565 2.09852C5.12615 1.92874 5.62204 1.84 6.12222 1.83608C6.89409 1.83608 7.17968 1.78977 9.20972 1.78977C11.2398 1.78977 11.5254 1.78977 12.2973 1.83608C12.7873 1.8417 13.2727 1.93044 13.733 2.09852C14.0837 2.2287 14.3985 2.44035 14.6515 2.71602C14.9045 2.95312 15.1021 3.243 15.2304 3.56508C15.402 4.0351 15.4908 4.5313 15.4928 5.03165C15.5314 5.80352 15.5391 6.08911 15.5391 8.11914C15.5391 10.1492 15.5314 10.4348 15.4928 11.2067ZM9.20972 4.15943C8.42689 4.16095 7.66208 4.39448 7.01192 4.8305C6.36176 5.26653 5.85544 5.88549 5.55693 6.60916C5.25841 7.33284 5.18108 8.12877 5.33475 8.89637C5.4884 9.66397 5.86614 10.3688 6.42022 10.9218C6.9743 11.4749 7.67987 11.8513 8.44776 12.0034C9.21566 12.1556 10.0114 12.0766 10.7346 11.7767C11.4577 11.4768 12.0757 10.9693 12.5104 10.3183C12.9451 9.66724 13.1772 8.90197 13.1772 8.11914C13.1782 7.59821 13.0762 7.08222 12.8771 6.60084C12.6781 6.11945 12.3857 5.68219 12.017 5.31419C11.6483 4.94619 11.2104 4.65472 10.7287 4.45655C10.2468 4.25837 9.73065 4.15739 9.20972 4.15943ZM9.20972 10.6895C8.70135 10.6895 8.20441 10.5388 7.78171 10.2564C7.35902 9.97388 7.02957 9.57244 6.83503 9.10277C6.64048 8.6331 6.58958 8.11629 6.68876 7.61769C6.78794 7.11909 7.03274 6.6611 7.39221 6.30164C7.75167 5.94217 8.20966 5.69737 8.70827 5.59819C9.20687 5.49901 9.72367 5.54991 10.1933 5.74446C10.6631 5.939 11.0645 6.26845 11.3469 6.69114C11.6293 7.11383 11.7801 7.61078 11.7801 8.11914C11.7801 8.45669 11.7136 8.79092 11.5845 9.10277C11.4553 9.41462 11.2659 9.69798 11.0273 9.93665C10.7886 10.1754 10.5052 10.3647 10.1933 10.4939C9.88149 10.623 9.54726 10.6895 9.20972 10.6895Z" fill="white"/>
</g>
</g>
<defs>
<clipPath id="clip0_67_984">
<rect width="17" height="16" fill="white" transform="translate(0.514404)"/>
</clipPath>
<clipPath id="clip1_67_984">
<rect width="17" height="16" fill="white" transform="translate(0.514404)"/>
</clipPath>
</defs>
</svg>
