<svg width="53" height="53" viewBox="0 0 53 53" fill="none" xmlns="http://www.w3.org/2000/svg">
<path d="M10.4 20.5C11.1683 20.5 11.929 20.3487 12.6387 20.0547C13.3485 19.7608 13.9934 19.3298 14.5366 18.7866C15.0798 18.2434 15.5108 17.5985 15.8047 16.8887C16.0987 16.179 16.25 15.4183 16.25 14.65C16.25 13.8818 16.0987 13.1211 15.8047 12.4114C15.5108 11.7016 15.0798 11.0567 14.5366 10.5135C13.9934 9.97025 13.3485 9.53934 12.6387 9.24535C11.929 8.95136 11.1683 8.80005 10.4 8.80005C8.84853 8.80005 7.36056 9.41639 6.26347 10.5135C5.16639 11.6106 4.55005 13.0985 4.55005 14.65C4.55005 16.2016 5.16639 17.6895 6.26347 18.7866C7.36056 19.8837 8.84853 20.5 10.4 20.5ZM10.4 17.9C9.53809 17.9 8.71144 17.5576 8.10195 16.9481C7.49246 16.3387 7.15005 15.512 7.15005 14.65C7.15005 13.7881 7.49246 12.9614 8.10195 12.352C8.71144 11.7425 9.53809 11.4 10.4 11.4C11.262 11.4 12.0887 11.7425 12.6981 12.352C13.3076 12.9614 13.65 13.7881 13.65 14.65C13.65 15.512 13.3076 16.3387 12.6981 16.9481C12.0887 17.5576 11.262 17.9 10.4 17.9ZM1.30005 24.4C1.30005 23.7105 1.57398 23.0492 2.06157 22.5616C2.54917 22.074 3.21049 21.8 3.90005 21.8H16.9C17.5896 21.8 18.2509 22.074 18.7385 22.5616C19.2261 23.0492 19.5 23.7105 19.5 24.4V36.1C19.5 37.2951 19.2647 38.4784 18.8074 39.5825C18.35 40.6865 17.6797 41.6897 16.8347 42.5347C15.9897 43.3797 14.9865 44.05 13.8825 44.5074C12.7784 44.9647 11.5951 45.2 10.4 45.2C9.20502 45.2 8.02169 44.9647 6.91763 44.5074C5.81357 44.05 4.81039 43.3797 3.96538 42.5347C3.12036 41.6897 2.45006 40.6865 1.99274 39.5825C1.53543 38.4784 1.30005 37.2951 1.30005 36.1V24.4ZM3.90005 24.4V36.1C3.90005 37.824 4.58487 39.4773 5.80385 40.6962C7.02284 41.9152 8.67614 42.6 10.4 42.6C12.124 42.6 13.7773 41.9152 14.9962 40.6962C16.2152 39.4773 16.9 37.824 16.9 36.1V24.4H3.90005ZM18.5276 16.9718C18.2996 17.7731 17.9526 18.5357 17.498 19.2338C18.5718 19.3586 19.5442 19.8059 20.3164 20.4818C20.4742 20.4922 20.6354 20.4983 20.8 20.5C21.7218 20.5 22.6304 20.2821 23.452 19.8642C24.2735 19.4463 24.9847 18.8402 25.5275 18.0953C26.0703 17.3503 26.4295 16.4877 26.5756 15.5776C26.7218 14.6675 26.6508 13.7358 26.3685 12.8584C26.0862 11.981 25.6006 11.1826 24.9512 10.5285C24.3018 9.8744 23.507 9.38299 22.6317 9.09433C21.7563 8.80567 20.8251 8.72794 19.914 8.86747C19.0029 9.007 18.1377 9.35985 17.3888 9.89725C17.888 10.633 18.2754 11.452 18.5276 12.3282C18.985 11.8808 19.5641 11.5784 20.1926 11.4587C20.8211 11.339 21.4709 11.4075 22.0606 11.6556C22.6503 11.9036 23.1537 12.3202 23.5077 12.8531C23.8616 13.3861 24.0505 14.0116 24.0505 14.6513C24.0505 15.2911 23.8616 15.9166 23.5077 16.4496C23.1537 16.9825 22.6503 17.3991 22.0606 17.6471C21.4709 17.8952 20.8211 17.9637 20.1926 17.844C19.5641 17.7243 18.985 17.4193 18.5276 16.9718ZM18.1974 44.8256C19.5562 45.2312 20.991 45.3136 22.3873 45.0663C23.7836 44.8189 25.1027 44.2487 26.2395 43.4011C27.3763 42.5535 28.2993 41.4519 28.9349 40.1843C29.5704 38.9167 29.9009 37.5181 29.9 36.1V24.4C29.9 23.7105 29.6261 23.0492 29.1385 22.5616C28.6509 22.074 27.9896 21.8 27.3 21.8H21.4058C21.8478 22.5644 22.1026 23.4536 22.1026 24.4H27.3026V36.1C27.3028 37.0086 27.1126 37.9071 26.7441 38.7375C26.3757 39.568 25.8372 40.312 25.1635 40.9215C24.4898 41.531 23.6958 41.9925 22.8327 42.2763C21.9696 42.56 21.0566 42.6597 20.1526 42.5688C19.5962 43.4043 18.9462 44.1557 18.2027 44.823M28.9328 16.9718C28.7048 17.7731 28.3578 18.5357 27.9032 19.2338C28.977 19.3586 29.9494 19.8059 30.7216 20.4818C30.8794 20.4922 31.0406 20.4983 31.2052 20.5C32.127 20.5 33.0356 20.2821 33.8572 19.8642C34.6787 19.4463 35.3899 18.8402 35.9327 18.0953C36.4755 17.3503 36.8347 16.4877 36.9808 15.5776C37.127 14.6675 37.056 13.7358 36.7737 12.8584C36.4914 11.981 36.0058 11.1826 35.3564 10.5285C34.707 9.8744 33.9122 9.38299 33.0369 9.09433C32.1615 8.80567 31.2303 8.72794 30.3192 8.86747C29.4081 9.007 28.5429 9.35985 27.794 9.89725C28.2932 10.633 28.6806 11.452 28.9328 12.3282C29.3902 11.8808 29.9693 11.5784 30.5978 11.4587C31.2263 11.339 31.8761 11.4075 32.4658 11.6556C33.0555 11.9036 33.5589 12.3202 33.9129 12.8531C34.2668 13.3861 34.4557 14.0116 34.4557 14.6513C34.4557 15.2911 34.2668 15.9166 33.9129 16.4496C33.5589 16.9825 33.0555 17.3991 32.4658 17.6471C31.8761 17.8952 31.2263 17.9637 30.5978 17.844C29.9693 17.7243 29.3902 17.4193 28.9328 16.9718ZM28.6026 44.8256C29.4312 45.0735 30.2978 45.1992 31.2026 45.2026C33.6161 45.2026 35.9307 44.2439 37.6373 42.5373C39.3439 40.8307 40.3026 38.5161 40.3026 36.1026V24.4C40.3026 23.7105 40.0287 23.0492 39.5411 22.5616C39.0535 22.074 38.3922 21.8 37.7026 21.8H31.8084C32.2504 22.5644 32.5052 23.4536 32.5052 24.4H37.7052V36.1C37.7054 37.0086 37.5152 37.9071 37.1467 38.7375C36.7783 39.568 36.2398 40.312 35.5661 40.9215C34.8924 41.531 34.0984 41.9925 33.2353 42.2763C32.3722 42.56 31.4592 42.6597 30.5552 42.5688C29.9988 43.4043 29.3488 44.1557 28.6052 44.823" fill="url(#paint0_linear_522_6487)"/>
<defs>
<linearGradient id="paint0_linear_522_6487" x1="1.30005" y1="27.0029" x2="40.3026" y2="27.0029" gradientUnits="userSpaceOnUse">
<stop stop-color="#7B00D9"/>
<stop offset="1" stop-color="#C398E4"/>
</linearGradient>
</defs>
</svg>
