<svg width="46" height="53" viewBox="0 0 46 53" fill="none" xmlns="http://www.w3.org/2000/svg">
<g clip-path="url(#clip0_522_6502)">
<path d="M19.482 31.7812C19.4626 31.8393 19.3417 31.8344 19.1192 31.7667C18.8968 31.699 18.5921 31.5878 18.2052 31.433L17.6248 31.1719C16.7736 30.785 15.9321 30.311 15.1003 29.75C14.9648 29.6533 14.5683 29.3486 13.9105 28.8359C13.2528 28.3233 12.8852 28.0476 12.8078 28.0089C11.5117 30.0015 10.2156 31.7522 8.91945 33.2612C7.35249 35.099 6.33686 36.1629 5.87258 36.4531C5.7952 36.4918 5.60658 36.5305 5.30673 36.5692C5.00688 36.6079 4.82793 36.6079 4.7699 36.5692C4.88597 36.4918 5.67912 35.6019 7.14936 33.8996C7.55561 33.4353 8.38262 32.3229 9.63039 30.5625C10.8782 28.8021 11.6375 27.6607 11.9083 27.1384C12.2372 26.558 12.7305 25.6053 13.3882 24.2801C14.0459 22.955 14.3942 22.2054 14.4328 22.0312C14.2781 22.0119 13.2141 22.3311 11.2409 22.9888C11.0861 23.0275 10.8201 23.1001 10.4429 23.2065C10.0657 23.3129 9.73195 23.4048 9.44177 23.4821C9.15159 23.5595 8.98716 23.6079 8.94847 23.6272C8.90978 23.6659 8.89043 23.7675 8.89043 23.9319C8.89043 24.0964 8.88076 24.1882 8.86141 24.2076C8.76469 24.401 8.46484 24.5461 7.96186 24.6429C7.51692 24.7783 7.06231 24.7783 6.59802 24.6429C6.24981 24.5655 5.97897 24.3624 5.78552 24.0335C5.70814 23.9174 5.65978 23.6949 5.64043 23.3661C5.7565 23.3274 5.99348 23.279 6.35137 23.221C6.70926 23.1629 6.9946 23.1049 7.2074 23.0469C8.32942 22.7374 9.34505 22.4278 10.2543 22.1183C12.1888 21.4412 13.1754 21.1027 13.2141 21.1027C13.4075 21.064 13.8235 20.8754 14.4619 20.5368C15.1003 20.1983 15.5258 19.9903 15.7386 19.9129C15.9128 19.8549 16.1207 19.7775 16.3625 19.6808C16.6043 19.5841 16.7446 19.5309 16.7833 19.5212C16.822 19.5115 16.88 19.5164 16.9574 19.5357C16.9961 19.7679 16.9864 20.0871 16.9284 20.4933C16.9284 20.532 16.8075 20.7932 16.5657 21.2768C16.3238 21.7604 16.0675 22.2779 15.7967 22.8292C15.5258 23.3806 15.3614 23.7046 15.3034 23.8013C14.8197 24.7686 14.075 26.0357 13.069 27.6027L14.9261 28.4152C15.1583 28.5312 15.8789 28.8408 17.088 29.3438C18.2971 29.8467 18.95 30.1176 19.0467 30.1562C19.1241 30.1756 19.2256 30.4222 19.3514 30.8962C19.4771 31.3702 19.5206 31.6652 19.482 31.7812ZM13.5333 17.6786C13.5913 17.9688 13.5526 18.2396 13.4172 18.4911C13.1851 18.936 12.7014 19.3036 11.9663 19.5938C11.386 19.8259 10.8056 19.942 10.2253 19.942C9.72228 19.8839 9.24832 19.6324 8.80338 19.1875C8.53255 18.8973 8.35844 18.5007 8.28106 17.9978L8.31008 17.9107C8.36811 17.9688 8.55673 18.0171 8.87592 18.0558C9.19512 18.0945 9.45144 18.0945 9.6449 18.0558C9.83835 18.0171 10.3994 17.8624 11.3279 17.5915C12.0244 17.3594 12.5564 17.224 12.9239 17.1853C13.2528 17.1853 13.4559 17.3497 13.5333 17.6786ZM33.7878 21.4219L35.6159 28.0089L31.5824 26.7902L33.7878 21.4219ZM1.63597 44.6362L21.7744 37.904V7.95759L1.63597 14.7188V44.6362ZM37.6471 35.4375L40.6069 36.3371L35.3547 17.2723L32.4529 16.3728L26.1851 31.9263L29.1449 32.8259L30.4507 29.6339L36.5735 31.5201L37.6471 35.4375ZM23.0511 7.52232L39.6784 12.8616V1.83482L23.0511 7.52232ZM32.0757 45.9129L36.6605 46.2902L35.0936 50.933L33.9328 49.0179C31.418 50.6235 28.7483 51.6682 25.9239 52.1518C24.8019 52.3839 23.9217 52.5 23.2833 52.5H20.8458C19.3175 52.5 17.3878 52.1228 15.0567 51.3683C12.7256 50.6138 10.9507 49.7917 9.73195 48.9018C9.57719 48.7664 9.49981 48.6116 9.49981 48.4375C9.49981 48.2827 9.54817 48.1522 9.6449 48.0458C9.74162 47.9394 9.86737 47.8862 10.0221 47.8862C10.0995 47.8862 10.2736 47.9587 10.5445 48.1038C10.8153 48.2489 11.1103 48.4085 11.4295 48.5826C11.7487 48.7567 11.947 48.8631 12.0244 48.9018C13.4366 49.6176 14.9793 50.2124 16.6527 50.6864C18.3261 51.1603 19.8495 51.3973 21.223 51.3973C23.0608 51.3973 24.6761 51.2571 26.069 50.9766C27.4619 50.6961 28.9805 50.2076 30.6248 49.5112C30.915 49.3757 31.21 49.2258 31.5099 49.0614C31.8097 48.8969 32.1386 48.7132 32.4965 48.51C32.8543 48.3069 33.13 48.1473 33.3235 48.0312L32.0757 45.9129ZM45.0757 14.6027V45.9129L22.6159 38.7746C22.345 38.8906 18.7178 40.1239 11.7342 42.4743C4.75055 44.8248 1.19103 46 1.05561 46C0.804124 46 0.630017 45.8743 0.53329 45.6228C0.53329 45.6034 0.523618 45.5744 0.504272 45.5357V14.2545C0.562308 14.0804 0.600999 13.9836 0.620344 13.9643C0.71707 13.8482 0.910522 13.7418 1.2007 13.6451C3.27064 12.9487 4.71186 12.465 5.52436 12.1942V1.05134L21.7163 6.79688C21.755 6.79688 23.3075 6.26488 26.3737 5.20089C29.4399 4.1369 32.4965 3.08743 35.5433 2.05246C38.5902 1.01749 40.1523 0.5 40.2297 0.5C40.6166 0.5 40.8101 0.703125 40.8101 1.10938V13.2388L45.0757 14.6027Z" fill="url(#paint0_linear_522_6502)"/>
</g>
<defs>
<linearGradient id="paint0_linear_522_6502" x1="0.504272" y1="26.5" x2="45.0757" y2="26.5" gradientUnits="userSpaceOnUse">
<stop stop-color="#7B00D9"/>
<stop offset="1" stop-color="#C398E4"/>
</linearGradient>
<clipPath id="clip0_522_6502">
<rect width="44.58" height="52" fill="white" transform="translate(0.5 0.5)"/>
</clipPath>
</defs>
</svg>
