<svg width="53" height="53" viewBox="0 0 53 53" fill="none" xmlns="http://www.w3.org/2000/svg">
<path d="M40 37.875L37.725 40.15L33.5 35.925V49.25H30.25V35.925L26.025 40.15L23.75 37.875L31.875 29.75L40 37.875Z" fill="url(#paint0_linear_522_6511)"/>
<path d="M19.525 49.25L2.625 39.175C1.65 38.525 1 37.55 1 36.4125V16.5875C1 15.45 1.65 14.3125 2.625 13.825L18.875 4.2375C19.3625 3.9125 19.85 3.75 20.5 3.75C21.15 3.75 21.6375 3.9125 22.125 4.2375L38.375 13.825C39.35 14.475 40 15.45 40 16.5875V26.5H36.75V16.5875L20.5 7L4.25 16.5875V36.4125L21.3125 46.4875L19.525 49.25Z" fill="url(#paint1_linear_522_6511)"/>
<defs>
<linearGradient id="paint0_linear_522_6511" x1="23.75" y1="39.5" x2="40" y2="39.5" gradientUnits="userSpaceOnUse">
<stop stop-color="#7B00D9"/>
<stop offset="1" stop-color="#C398E4"/>
</linearGradient>
<linearGradient id="paint1_linear_522_6511" x1="1" y1="26.5" x2="40" y2="26.5" gradientUnits="userSpaceOnUse">
<stop stop-color="#7B00D9"/>
<stop offset="1" stop-color="#C398E4"/>
</linearGradient>
</defs>
</svg>
