<svg width="53" height="53" viewBox="0 0 53 53" fill="none" xmlns="http://www.w3.org/2000/svg">
<path d="M11.4156 42.4165C11.1079 42.4165 10.8508 42.3132 10.6443 42.1066C10.4377 41.9001 10.3337 41.6422 10.3323 41.3331V39.1665H9.16659C7.94459 39.1665 6.91686 38.7497 6.08342 37.9163C5.24997 37.0828 4.83325 36.0551 4.83325 34.8331V23.9998C4.83325 22.6117 5.29186 21.5428 6.20909 20.7931C7.12486 20.042 8.1107 19.6665 9.16659 19.6665V16.1673C9.16659 14.9453 9.58331 13.9176 10.4168 13.0841C11.2502 12.2507 12.2779 11.8332 13.4999 11.8318H39.4999C40.7219 11.8318 41.7496 12.2485 42.5831 13.082C43.4165 13.9154 43.8333 14.9431 43.8333 16.1651V19.6643C45.0004 19.6643 46.0144 20.0601 46.8753 20.8516C47.7361 21.6432 48.1666 22.6926 48.1666 23.9998V34.8331C48.1666 36.0551 47.7499 37.0828 46.9164 37.9163C46.083 38.7497 45.0553 39.1665 43.8333 39.1665H42.6676V41.3331C42.6676 41.6408 42.578 41.8979 42.3989 42.1045C42.2198 42.311 41.9764 42.415 41.6688 42.4165C41.3611 42.4179 41.1033 42.3139 40.8953 42.1045C40.6873 41.895 40.5833 41.6379 40.5833 41.3331V39.1665H12.5011V41.3331C12.5011 41.6422 12.3964 41.9001 12.1869 42.1066C11.9789 42.3132 11.7218 42.4165 11.4156 42.4165ZM9.16659 36.9998H43.8333C44.4471 36.9998 44.9621 36.7925 45.3781 36.378C45.7941 35.9634 46.0014 35.4485 45.9999 34.8331V23.9998C45.9999 23.3859 45.7919 22.8717 45.3759 22.4571C44.9599 22.0426 44.4457 21.8346 43.8333 21.8331C43.2208 21.8317 42.7066 22.0397 42.2906 22.4571C41.8746 22.8746 41.6666 23.3888 41.6666 23.9998V31.5831H11.3333V23.9998C11.3333 23.3859 11.1253 22.8717 10.7093 22.4571C10.2933 22.0426 9.77903 21.8346 9.16659 21.8331C8.55414 21.8317 8.03992 22.0397 7.62392 22.4571C7.20792 22.8746 6.99992 23.3888 6.99992 23.9998V34.8331C6.99992 35.447 7.20792 35.962 7.62392 36.378C8.03992 36.794 8.55414 37.0012 9.16659 36.9998ZM13.4999 29.4165H39.4999V23.9998C39.4999 23.2198 39.6985 22.5019 40.0958 21.8461C40.493 21.1903 41.0166 20.6805 41.6666 20.3165V16.1673C41.6666 15.5534 41.4586 15.0385 41.0426 14.6225C40.6266 14.2065 40.1124 13.9992 39.4999 14.0006H13.4999C12.886 14.0006 12.3718 14.2079 11.9573 14.6225C11.5427 15.037 11.3347 15.552 11.3333 16.1673V20.3165C11.9833 20.6805 12.5069 21.1903 12.9041 21.8461C13.3013 22.5019 13.4999 23.2198 13.4999 23.9998V29.4165Z" fill="url(#paint0_linear_522_6522)"/>
<defs>
<linearGradient id="paint0_linear_522_6522" x1="4.83325" y1="27.1241" x2="48.1666" y2="27.1241" gradientUnits="userSpaceOnUse">
<stop stop-color="#7B00D9"/>
<stop offset="1" stop-color="#C398E4"/>
</linearGradient>
</defs>
</svg>
