<svg width="27" height="28" viewBox="0 0 27 28" fill="none" xmlns="http://www.w3.org/2000/svg">
<path d="M26.9997 14.3061C26.9997 13.1735 26.9078 12.347 26.7089 11.4899H13.7754V16.602H21.3671C21.2141 17.8724 20.3875 19.7857 18.5508 21.0713L18.525 21.2424L22.6144 24.4104L22.8977 24.4387C25.4996 22.0356 26.9997 18.4999 26.9997 14.3061Z" fill="#4285F4"/>
<path d="M13.7757 27.7753C17.495 27.7753 20.6173 26.5508 22.898 24.4387L18.5511 21.0713C17.3879 21.8825 15.8266 22.4488 13.7757 22.4488C10.1329 22.4488 7.04115 20.0459 5.93902 16.7245L5.77748 16.7382L1.52533 20.029L1.46973 20.1836C3.73498 24.6835 8.38798 27.7753 13.7757 27.7753Z" fill="#34A853"/>
<path d="M5.93863 16.7245C5.64782 15.8673 5.47952 14.9489 5.47952 14C5.47952 13.051 5.64782 12.1327 5.92333 11.2755L5.91563 11.093L1.6102 7.74936L1.46933 7.81636C0.535712 9.68371 0 11.7807 0 14C0 16.2194 0.535712 18.3162 1.46933 20.1835L5.93863 16.7245Z" fill="#FBBC05"/>
<path d="M13.7757 5.55112C16.3624 5.55112 18.1072 6.66844 19.1021 7.60217L22.9898 3.80628C20.6022 1.58693 17.495 0.224701 13.7757 0.224701C8.38798 0.224701 3.73498 3.31647 1.46973 7.81637L5.92373 11.2755C7.04116 7.95417 10.1329 5.55112 13.7757 5.55112Z" fill="#EB4335"/>
</svg>
