<svg width="81" height="80" viewBox="0 0 81 80" fill="none" xmlns="http://www.w3.org/2000/svg">
<rect x="0.5" width="80" height="80" rx="40" fill="#303234"/>
<path d="M32.6426 20.3572V26.2503" stroke="white" stroke-width="2" stroke-miterlimit="10" stroke-linecap="round" stroke-linejoin="round"/>
<path d="M48.3574 20.3572V26.2503" stroke="white" stroke-width="2" stroke-miterlimit="10" stroke-linecap="round" stroke-linejoin="round"/>
<path d="M23.8029 34.2842H57.1971" stroke="white" stroke-width="2" stroke-miterlimit="10" stroke-linecap="round" stroke-linejoin="round"/>
<path d="M58.1793 33.1255V49.8226C58.1793 55.7157 55.2328 59.6445 48.3575 59.6445H32.6426C25.7673 59.6445 22.8207 55.7157 22.8207 49.8226V33.1255C22.8207 27.2324 25.7673 23.3037 32.6426 23.3037H48.3575C55.2328 23.3037 58.1793 27.2324 58.1793 33.1255Z" stroke="white" stroke-width="2" stroke-miterlimit="10" stroke-linecap="round" stroke-linejoin="round"/>
<path d="M47.7577 43.3398H47.7754" stroke="white" stroke-width="2" stroke-linecap="round" stroke-linejoin="round"/>
<path d="M47.7577 49.2329H47.7754" stroke="white" stroke-width="2" stroke-linecap="round" stroke-linejoin="round"/>
<path d="M40.4912 43.3398H40.5088" stroke="white" stroke-width="2" stroke-linecap="round" stroke-linejoin="round"/>
<path d="M40.4912 49.2329H40.5088" stroke="white" stroke-width="2" stroke-linecap="round" stroke-linejoin="round"/>
<path d="M33.2206 43.3398H33.2382" stroke="white" stroke-width="2" stroke-linecap="round" stroke-linejoin="round"/>
<path d="M33.2206 49.2329H33.2382" stroke="white" stroke-width="2" stroke-linecap="round" stroke-linejoin="round"/>
</svg>
