<svg width="1249" height="699" viewBox="0 0 1249 699" fill="none" xmlns="http://www.w3.org/2000/svg">
<g clip-path="url(#clip0_7_1046)">
<rect width="1249" height="699" rx="16" fill="white"/>
<g filter="url(#filter0_f_7_1046)">
<ellipse cx="1569.56" cy="973.081" rx="992.337" ry="997.227" fill="#7B00D9" fill-opacity="0.32"/>
</g>
<g filter="url(#filter1_f_7_1046)">
<path d="M1100.38 6.08769C1214.79 -117.904 1315.07 -320.64 1318.35 -489.704C1328.81 -1028.07 121.9 -579.827 -149.247 -115.391C-379.999 279.854 -625.15 1075.06 -171.881 1125.13C115.562 1156.88 431.637 1073.95 564.848 816.017C643.912 662.93 623.72 405.578 731.608 271.438C816.003 166.507 1009.09 105.019 1100.38 6.08769Z" fill="#3ECE23" fill-opacity="0.7"/>
</g>
<path d="M1179.15 81C1178.64 81 1178.15 80.7964 1177.79 80.4341C1177.42 80.0717 1177.22 79.5802 1177.22 79.0677V72.4924H1170.68C1170.17 72.4924 1169.67 72.2878 1169.31 71.9237C1168.94 71.5595 1168.74 71.0657 1168.74 70.5507V69.7065C1168.74 69.194 1168.94 68.7025 1169.3 68.3401C1169.67 67.9778 1170.16 67.7742 1170.67 67.7742H1177.22V61.2176C1177.22 60.7026 1177.42 60.2087 1177.79 59.8446C1178.15 59.4805 1178.65 59.2759 1179.16 59.2759H1180C1180.52 59.2759 1181.01 59.4805 1181.37 59.8446C1181.74 60.2087 1181.94 60.7026 1181.94 61.2176V67.7742H1188.52C1189.03 67.7742 1189.52 67.9778 1189.89 68.3401C1190.25 68.7025 1190.45 69.194 1190.45 69.7065V70.5507C1190.45 71.0657 1190.25 71.5595 1189.88 71.9237C1189.52 72.2878 1189.02 72.4924 1188.51 72.4924H1181.94V79.0668C1181.94 79.5793 1181.74 80.0708 1181.38 80.4332C1181.01 80.7955 1180.52 80.9991 1180.01 80.9991L1179.15 81ZM1204.14 70.5319C1203.88 70.5319 1203.63 70.482 1203.4 70.3849C1203.16 70.2877 1202.95 70.1454 1202.77 69.966C1202.59 69.7865 1202.45 69.5735 1202.35 69.3391C1202.25 69.1046 1202.2 68.8534 1202.2 68.5997V62.0337H1195.63C1195.37 62.0337 1195.12 61.9834 1194.89 61.8858C1194.65 61.7883 1194.44 61.6453 1194.25 61.465C1194.07 61.2847 1193.93 61.0706 1193.83 60.8351C1193.74 60.5995 1193.69 60.347 1193.69 60.092V59.2478C1193.69 58.7353 1193.89 58.2438 1194.25 57.8815C1194.61 57.5191 1195.11 57.3155 1195.62 57.3155H1202.2V50.7683C1202.2 50.256 1202.41 49.7646 1202.77 49.4023C1203.13 49.0399 1203.62 48.8362 1204.14 48.836H1204.99C1205.51 48.836 1206 49.0396 1206.36 49.402C1206.72 49.7643 1206.93 50.2558 1206.93 50.7683V57.3155H1213.5C1214.02 57.3155 1214.51 57.5191 1214.87 57.8815C1215.23 58.2438 1215.44 58.7353 1215.44 59.2478V60.092C1215.44 60.347 1215.39 60.5995 1215.29 60.8351C1215.19 61.0706 1215.05 61.2847 1214.87 61.465C1214.69 61.6453 1214.47 61.7883 1214.24 61.8858C1214 61.9834 1213.75 62.0337 1213.49 62.0337H1206.93V68.5997C1206.93 69.1121 1206.73 69.6036 1206.36 69.966C1206 70.3284 1205.51 70.5319 1204.99 70.5319H1204.14ZM1187.24 56.8465C1186.99 56.8466 1186.73 56.7965 1186.5 56.699C1186.26 56.6014 1186.05 56.4584 1185.87 56.2781C1185.69 56.0978 1185.54 55.8837 1185.44 55.6481C1185.35 55.4124 1185.3 55.1599 1185.3 54.9049V48.367H1178.71C1178.2 48.367 1177.71 48.1634 1177.34 47.8011C1176.98 47.4387 1176.78 46.9472 1176.78 46.4347V45.5905C1176.78 45.3355 1176.83 45.0831 1176.93 44.8475C1177.02 44.6119 1177.17 44.3979 1177.35 44.2176C1177.53 44.0373 1177.74 43.8942 1177.98 43.7966C1178.21 43.6991 1178.47 43.6489 1178.72 43.6489H1185.3V37.0829C1185.3 36.5706 1185.5 36.0792 1185.86 35.7169C1186.23 35.3545 1186.72 35.1509 1187.23 35.1506H1188.09C1188.6 35.1506 1189.09 35.3542 1189.45 35.7165C1189.82 36.0789 1190.02 36.5704 1190.02 37.0829V43.6489H1196.55C1196.8 43.6489 1197.06 43.6991 1197.29 43.7966C1197.53 43.8942 1197.74 44.0373 1197.92 44.2176C1198.1 44.3979 1198.25 44.6119 1198.35 44.8475C1198.44 45.0831 1198.49 45.3355 1198.49 45.5905V46.4347C1198.49 46.9472 1198.29 47.4387 1197.93 47.8011C1197.56 48.1634 1197.07 48.367 1196.56 48.367H1190.02V54.9049C1190.02 55.1599 1189.97 55.4123 1189.87 55.6479C1189.78 55.8835 1189.63 56.0975 1189.45 56.2778C1189.27 56.4581 1189.06 56.6011 1188.82 56.6987C1188.59 56.7963 1188.33 56.8465 1188.08 56.8465H1187.24Z" fill="white"/>
</g>
<defs>
<filter id="filter0_f_7_1046" x="177.227" y="-424.146" width="2784.67" height="2794.45" filterUnits="userSpaceOnUse" color-interpolation-filters="sRGB">
<feFlood flood-opacity="0" result="BackgroundImageFix"/>
<feBlend mode="normal" in="SourceGraphic" in2="BackgroundImageFix" result="shape"/>
<feGaussianBlur stdDeviation="200" result="effect1_foregroundBlur_7_1046"/>
</filter>
<filter id="filter1_f_7_1046" x="-826.317" y="-1135.29" width="2544.73" height="2666.86" filterUnits="userSpaceOnUse" color-interpolation-filters="sRGB">
<feFlood flood-opacity="0" result="BackgroundImageFix"/>
<feBlend mode="normal" in="SourceGraphic" in2="BackgroundImageFix" result="shape"/>
<feGaussianBlur stdDeviation="200" result="effect1_foregroundBlur_7_1046"/>
</filter>
<clipPath id="clip0_7_1046">
<rect width="1249" height="699" rx="16" fill="white"/>
</clipPath>
</defs>
</svg>
