<svg width="102" height="96" viewBox="0 0 102 96" fill="none" xmlns="http://www.w3.org/2000/svg">
<path d="M51.0821 0.412567L62.3766 8.00964L76.1619 6.78807L81.9395 18.725L94.5217 24.2063L93.2341 37.2846L101.242 48L93.2341 58.7154L94.5217 71.7937L81.9395 77.275L76.1619 89.2119L62.3766 87.9903L51.0821 95.5874L39.7875 87.9903L26.0022 89.2119L20.2247 77.275L7.64246 71.7937L8.93006 58.7154L0.922333 48L8.93006 37.2846L7.64246 24.2063L20.2247 18.725L26.0022 6.78807L39.7875 8.00964L51.0821 0.412567Z" fill="#3ECE23" fill-opacity="0.3"/>
<path d="M40.4082 56.7174H61.7559M61.7559 56.7174V35.3698M61.7559 56.7174L40.4082 35.3698" stroke="#303234" stroke-width="2.62397"/>
</svg>
