<svg width="385" height="648" viewBox="0 0 385 648" fill="none" xmlns="http://www.w3.org/2000/svg">
<path d="M0.819 511.22C2.6186 511.22 4.41281 511.2 6.20164 511.161" stroke="#7B00D9" stroke-width="1.019" stroke-miterlimit="10"/>
<path d="M16.8645 510.686C140.699 502.432 238.59 399.33 238.59 273.355C238.59 145.578 137.879 41.3341 11.5357 35.7267" stroke="white" stroke-width="1.019" stroke-miterlimit="10" stroke-dasharray="5.95 5.95"/>
<path d="M6.20158 35.549C4.41275 35.5095 2.61853 35.4897 0.818939 35.4897" stroke="#7B00D9" stroke-width="1.019" stroke-miterlimit="10"/>
<path d="M188.485 118.69L184.763 122.581" stroke="#7B00D9" stroke-width="1.019" stroke-miterlimit="10"/>
<path d="M232.283 185.93L227.096 187.365" stroke="#7B00D9" stroke-width="1.019" stroke-miterlimit="10"/>
<path d="M357.703 455.627L215.751 398.873" stroke="white" stroke-width="1.019" stroke-miterlimit="10" stroke-dasharray="5.9 5.9"/>
<g opacity="0.15">
<path d="M213.656 412.11C221.336 412.11 227.562 405.882 227.562 398.199C227.562 390.517 221.336 384.289 213.656 384.289C205.977 384.289 199.751 390.517 199.751 398.199C199.751 405.882 205.977 412.11 213.656 412.11Z" fill="white"/>
<path d="M213.656 412.11C221.336 412.11 227.562 405.882 227.562 398.199C227.562 390.517 221.336 384.289 213.656 384.289C205.977 384.289 199.751 390.517 199.751 398.199C199.751 405.882 205.977 412.11 213.656 412.11Z" stroke="white" stroke-width="4" stroke-miterlimit="10"/>
</g>
<path d="M208.274 406.725C215.953 406.725 222.179 400.497 222.179 392.814C222.179 385.132 215.953 378.904 208.274 378.904C200.594 378.904 194.369 385.132 194.369 392.814C194.369 400.497 200.594 406.725 208.274 406.725Z" fill="#3ECE23"/>
<path d="M208.274 406.725C215.953 406.725 222.179 400.497 222.179 392.814C222.179 385.132 215.953 378.904 208.274 378.904C200.594 378.904 194.369 385.132 194.369 392.814C194.369 400.497 200.594 406.725 208.274 406.725Z" stroke="white" stroke-width="4" stroke-miterlimit="10"/>
<path d="M274.703 619.627L141.179 488.355" stroke="white" stroke-width="1.019" stroke-miterlimit="10" stroke-dasharray="5.9 5.9"/>
<g opacity="0.15">
<path d="M132.656 495.11C140.336 495.11 146.562 488.882 146.562 481.199C146.562 473.517 140.336 467.289 132.656 467.289C124.977 467.289 118.751 473.517 118.751 481.199C118.751 488.882 124.977 495.11 132.656 495.11Z" fill="white"/>
<path d="M132.656 495.11C140.336 495.11 146.562 488.882 146.562 481.199C146.562 473.517 140.336 467.289 132.656 467.289C124.977 467.289 118.751 473.517 118.751 481.199C118.751 488.882 124.977 495.11 132.656 495.11Z" stroke="white" stroke-width="4" stroke-miterlimit="10"/>
</g>
<path d="M127.274 489.725C134.953 489.725 141.179 483.497 141.179 475.814C141.179 468.132 134.953 461.904 127.274 461.904C119.594 461.904 113.369 468.132 113.369 475.814C113.369 483.497 119.594 489.725 127.274 489.725Z" fill="#3ECE23"/>
<path d="M127.274 489.725C134.953 489.725 141.179 483.497 141.179 475.814C141.179 468.132 134.953 461.904 127.274 461.904C119.594 461.904 113.369 468.132 113.369 475.814C113.369 483.497 119.594 489.725 127.274 489.725Z" stroke="white" stroke-width="4" stroke-miterlimit="10"/>
<path d="M384.386 308.712L379.003 308.701" stroke="white" stroke-width="1.019" stroke-miterlimit="10"/>
<path d="M370.186 308.701L249.098 308.27" stroke="white" stroke-width="1.019" stroke-miterlimit="10" stroke-dasharray="5.87 5.87"/>
<g opacity="0.15">
<path d="M238.656 323.012C246.336 323.012 252.561 316.784 252.561 309.101C252.561 301.419 246.336 295.191 238.656 295.191C230.977 295.191 224.751 301.419 224.751 309.101C224.751 316.784 230.977 323.012 238.656 323.012Z" fill="white"/>
<path d="M238.656 323.012C246.336 323.012 252.561 316.784 252.561 309.101C252.561 301.419 246.336 295.191 238.656 295.191C230.977 295.191 224.751 301.419 224.751 309.101C224.751 316.784 230.977 323.012 238.656 323.012Z" stroke="white" stroke-width="4" stroke-miterlimit="10"/>
</g>
<path d="M233.274 317.627C240.953 317.627 247.179 311.399 247.179 303.717C247.179 296.034 240.953 289.806 233.274 289.806C225.594 289.806 219.369 296.034 219.369 303.717C219.369 311.399 225.594 317.627 233.274 317.627Z" fill="#3ECE23"/>
<path d="M233.274 317.627C240.953 317.627 247.179 311.399 247.179 303.717C247.179 296.034 240.953 289.806 233.274 289.806C225.594 289.806 219.369 296.034 219.369 303.717C219.369 311.399 225.594 317.627 233.274 317.627Z" stroke="white" stroke-width="4" stroke-miterlimit="10"/>
<path d="M368.669 146.217L363.521 147.792" stroke="#3ECE23" stroke-width="1.019" stroke-miterlimit="10"/>
<path d="M356.346 150.82L239.632 186.569" stroke="white" stroke-width="1.019" stroke-miterlimit="10" stroke-dasharray="5.92 5.92"/>
<g opacity="0.15">
<path d="M229.656 209.374C237.336 209.374 243.561 203.146 243.561 195.463C243.561 187.781 237.336 181.553 229.656 181.553C221.977 181.553 215.751 187.781 215.751 195.463C215.751 203.146 221.977 209.374 229.656 209.374Z" fill="white"/>
<path d="M229.656 209.374C237.336 209.374 243.561 203.146 243.561 195.463C243.561 187.781 237.336 181.553 229.656 181.553C221.977 181.553 215.751 187.781 215.751 195.463C215.751 203.146 221.977 209.374 229.656 209.374Z" stroke="white" stroke-width="4" stroke-miterlimit="10"/>
</g>
<path d="M224.274 203.989C231.953 203.989 238.179 197.761 238.179 190.079C238.179 182.396 231.953 176.168 224.274 176.168C216.594 176.168 210.369 182.396 210.369 190.079C210.369 197.761 216.594 203.989 224.274 203.989Z" fill="#3ECE23"/>
<path d="M224.274 203.989C231.953 203.989 238.179 197.761 238.179 190.079C238.179 182.396 231.953 176.168 224.274 176.168C216.594 176.168 210.369 182.396 210.369 190.079C210.369 197.761 216.594 203.989 224.274 203.989Z" stroke="white" stroke-width="4" stroke-miterlimit="10"/>
<path d="M275.445 0.373535L271.724 4.26493" stroke="#3ECE23" stroke-width="1.019" stroke-miterlimit="10"/>
<path d="M264.707 11.604L183.992 96.0192" stroke="white" stroke-width="1.019" stroke-miterlimit="10" stroke-dasharray="5.66 5.66"/>
<g opacity="0.15">
<path d="M182.146 122.877C189.826 122.877 196.051 116.649 196.051 108.967C196.051 101.284 189.826 95.0559 182.146 95.0559C174.466 95.0559 168.241 101.284 168.241 108.967C168.241 116.649 174.466 122.877 182.146 122.877Z" fill="white"/>
<path d="M182.146 122.877C189.826 122.877 196.051 116.649 196.051 108.967C196.051 101.284 189.826 95.0559 182.146 95.0559C174.466 95.0559 168.241 101.284 168.241 108.967C168.241 116.649 174.466 122.877 182.146 122.877Z" stroke="white" stroke-width="4" stroke-miterlimit="10"/>
</g>
<path d="M176.763 117.492C184.443 117.492 190.669 111.264 190.669 103.582C190.669 95.8992 184.443 89.6711 176.763 89.6711C169.084 89.6711 162.858 95.8992 162.858 103.582C162.858 111.264 169.084 117.492 176.763 117.492Z" fill="#3ECE23"/>
<path d="M176.763 117.492C184.443 117.492 190.669 111.264 190.669 103.582C190.669 95.8992 184.443 89.6711 176.763 89.6711C169.084 89.6711 162.858 95.8992 162.858 103.582C162.858 111.264 169.084 117.492 176.763 117.492Z" stroke="white" stroke-width="4" stroke-miterlimit="10"/>
</svg>
