<svg width="21" height="20" viewBox="0 0 21 20" fill="none" xmlns="http://www.w3.org/2000/svg">
<path d="M15.2904 15.0003C17.1313 15.0003 18.6237 12.0156 18.6237 8.33366C18.6237 4.65176 17.1313 1.66699 15.2904 1.66699C13.4494 1.66699 11.957 4.65176 11.957 8.33366C11.957 12.0156 13.4494 15.0003 15.2904 15.0003Z" stroke="white" stroke-width="1.25" stroke-linecap="round" stroke-linejoin="round"/>
<path d="M15.2904 1.66699C12.7045 1.66699 7.34453 3.64866 4.2662 4.87866C2.8562 5.44199 1.95703 6.81533 1.95703 8.33366C1.95703 9.85199 2.85703 11.2253 4.2662 11.7887C7.34453 13.0187 12.7045 15.0003 15.2904 15.0003M9.45703 18.3337L7.83786 17.442C6.97343 16.9636 6.27225 16.2371 5.82483 15.3562C5.37742 14.4753 5.20431 13.4806 5.32786 12.5003" stroke="white" stroke-width="1.25" stroke-linecap="round" stroke-linejoin="round"/>
</svg>
