<svg width="21" height="20" viewBox="0 0 21 20" fill="none" xmlns="http://www.w3.org/2000/svg">
<path d="M6.12109 14.9997V13.333M10.2878 14.9997V12.4997M14.4544 14.9997V10.833M2.37109 9.99967C2.37109 6.26801 2.37109 4.40134 3.53026 3.24217C4.68943 2.08301 6.55526 2.08301 10.2878 2.08301C14.0194 2.08301 15.8861 2.08301 17.0453 3.24217C18.2044 4.40134 18.2044 6.26717 18.2044 9.99967C18.2044 13.7313 18.2044 15.598 17.0453 16.7572C15.8861 17.9163 14.0203 17.9163 10.2878 17.9163C6.55609 17.9163 4.68943 17.9163 3.53026 16.7572C2.37109 15.598 2.37109 13.7322 2.37109 9.99967Z" stroke="white" stroke-width="1.25" stroke-linecap="round" stroke-linejoin="round"/>
<path d="M5.28125 9.57124C7.07708 9.63124 11.1496 9.36041 13.4663 5.68374M11.9479 5.23957L13.5112 4.98791C13.7012 4.96374 13.9812 5.11457 14.0504 5.29374L14.4629 6.65874" stroke="white" stroke-width="1.25" stroke-linecap="round" stroke-linejoin="round"/>
</svg>
