<svg width="26" height="26" viewBox="0 0 26 26" fill="none" xmlns="http://www.w3.org/2000/svg">
<path d="M8.66602 13.0001H17.3327M9.74935 8.66675H6.49935C5.35008 8.66675 4.24788 9.12329 3.43522 9.93595C2.62256 10.7486 2.16602 11.8508 2.16602 13.0001C2.16602 14.1494 2.62256 15.2516 3.43522 16.0642C4.24788 16.8769 5.35008 17.3334 6.49935 17.3334H9.74935M16.2493 8.66675H19.4993C20.6486 8.66675 21.7508 9.12329 22.5635 9.93595C23.3761 10.7486 23.8327 11.8508 23.8327 13.0001C23.8327 14.1494 23.3761 15.2516 22.5635 16.0642C21.7508 16.8769 20.6486 17.3334 19.4993 17.3334H16.2493" stroke="white" stroke-width="2.2" stroke-linecap="round" stroke-linejoin="round"/>
</svg>
