<svg width="24" height="20" viewBox="0 0 24 20" fill="none" xmlns="http://www.w3.org/2000/svg">
<path d="M11.2 14H12.8V9.2H11.2V14ZM12 7.6C12.2267 7.6 12.4168 7.5232 12.5704 7.3696C12.724 7.216 12.8005 7.02613 12.8 6.8C12.7995 6.57387 12.7227 6.384 12.5696 6.2304C12.4165 6.0768 12.2267 6 12 6C11.7733 6 11.5835 6.0768 11.4304 6.2304C11.2773 6.384 11.2005 6.57387 11.2 6.8C11.1995 7.02613 11.2763 7.21627 11.4304 7.3704C11.5845 7.52453 11.7744 7.60107 12 7.6ZM12 18C10.8933 18 9.85333 17.7899 8.88 17.3696C7.90667 16.9493 7.06 16.3795 6.34 15.66C5.62 14.9405 5.05013 14.0939 4.6304 13.12C4.21067 12.1461 4.00053 11.1061 4 10C3.99947 8.89386 4.2096 7.85387 4.6304 6.88C5.0512 5.90613 5.62107 5.05947 6.34 4.34C7.05893 3.62053 7.9056 3.05067 8.88 2.6304C9.8544 2.21013 10.8944 2 12 2C13.1056 2 14.1456 2.21013 15.12 2.6304C16.0944 3.05067 16.9411 3.62053 17.66 4.34C18.3789 5.05947 18.9491 5.90613 19.3704 6.88C19.7917 7.85387 20.0016 8.89386 20 10C19.9984 11.1061 19.7883 12.1461 19.3696 13.12C18.9509 14.0939 18.3811 14.9405 17.66 15.66C16.9389 16.3795 16.0923 16.9496 15.12 17.3704C14.1477 17.7912 13.1077 18.0011 12 18ZM12 16.4C13.7867 16.4 15.3 15.78 16.54 14.54C17.78 13.3 18.4 11.7867 18.4 10C18.4 8.21333 17.78 6.7 16.54 5.46C15.3 4.22 13.7867 3.6 12 3.6C10.2133 3.6 8.7 4.22 7.46 5.46C6.22 6.7 5.6 8.21333 5.6 10C5.6 11.7867 6.22 13.3 7.46 14.54C8.7 15.78 10.2133 16.4 12 16.4Z" fill="#3ECE23"/>
</svg>
