<svg width="18" height="18" viewBox="0 0 18 18" fill="none" xmlns="http://www.w3.org/2000/svg">
<path d="M8.16797 13.167H9.83464V8.16699H8.16797V13.167ZM9.0013 6.50033C9.23741 6.50033 9.43547 6.42033 9.59547 6.26033C9.75547 6.10033 9.83519 5.90255 9.83464 5.66699C9.83408 5.43144 9.75408 5.23366 9.59464 5.07366C9.43519 4.91366 9.23741 4.83366 9.0013 4.83366C8.76519 4.83366 8.56741 4.91366 8.40797 5.07366C8.24853 5.23366 8.16852 5.43144 8.16797 5.66699C8.16741 5.90255 8.24741 6.1006 8.40797 6.26116C8.56852 6.42171 8.7663 6.50144 9.0013 6.50033ZM9.0013 17.3337C7.84853 17.3337 6.76519 17.1148 5.7513 16.677C4.73741 16.2392 3.85547 15.6456 3.10547 14.8962C2.35547 14.1467 1.76186 13.2648 1.32464 12.2503C0.887414 11.2359 0.668525 10.1525 0.66797 9.00033C0.667414 7.8481 0.886303 6.76477 1.32464 5.75033C1.76297 4.73588 2.35658 3.85394 3.10547 3.10449C3.85436 2.35505 4.7363 1.76144 5.7513 1.32366C6.7663 0.885881 7.84964 0.666992 9.0013 0.666992C10.153 0.666992 11.2363 0.885881 12.2513 1.32366C13.2663 1.76144 14.1482 2.35505 14.8971 3.10449C15.646 3.85394 16.2399 4.73588 16.6788 5.75033C17.1177 6.76477 17.3363 7.8481 17.3346 9.00033C17.333 10.1525 17.1141 11.2359 16.678 12.2503C16.2419 13.2648 15.6482 14.1467 14.8971 14.8962C14.146 15.6456 13.2641 16.2395 12.2513 16.6778C11.2385 17.1162 10.1552 17.3348 9.0013 17.3337ZM9.0013 15.667C10.8624 15.667 12.4388 15.0212 13.7305 13.7295C15.0221 12.4378 15.668 10.8614 15.668 9.00033C15.668 7.13921 15.0221 5.56283 13.7305 4.27116C12.4388 2.97949 10.8624 2.33366 9.0013 2.33366C7.14019 2.33366 5.5638 2.97949 4.27214 4.27116C2.98047 5.56283 2.33464 7.13921 2.33464 9.00033C2.33464 10.8614 2.98047 12.4378 4.27214 13.7295C5.5638 15.0212 7.14019 15.667 9.0013 15.667Z" fill="white"/>
</svg>
