<svg width="25" height="25" viewBox="0 0 25 25" fill="none" xmlns="http://www.w3.org/2000/svg">
<path d="M17.3296 2.52314C18.6529 2.52709 19.9208 3.05451 20.8565 3.9902C21.7922 4.92589 22.3196 6.19383 22.3236 7.51709V17.5039C22.3196 18.8272 21.7922 20.0951 20.8565 21.0308C19.9208 21.9665 18.6529 22.4939 17.3296 22.4979H7.34278C6.01951 22.4939 4.75158 21.9665 3.81588 21.0308C2.88019 20.0951 2.35278 18.8272 2.34882 17.5039V7.51709C2.35278 6.19383 2.88019 4.92589 3.81588 3.9902C4.75158 3.05451 6.01951 2.52709 7.34278 2.52314H17.3296ZM17.3296 0.525879H7.34278C3.49753 0.525879 0.351562 3.67185 0.351562 7.51709V17.5039C0.351562 21.3492 3.49753 24.4951 7.34278 24.4951H17.3296C21.1749 24.4951 24.3208 21.3492 24.3208 17.5039V7.51709C24.3208 3.67185 21.1749 0.525879 17.3296 0.525879Z" fill="#93989A"/>
<path d="M18.8276 7.51813C18.5313 7.51813 18.2416 7.43027 17.9953 7.26566C17.7489 7.10105 17.5569 6.86708 17.4435 6.59334C17.3301 6.3196 17.3005 6.01839 17.3583 5.72779C17.4161 5.43719 17.5588 5.17026 17.7683 4.96075C17.9778 4.75124 18.2447 4.60856 18.5353 4.55076C18.8259 4.49295 19.1271 4.52262 19.4009 4.63601C19.6746 4.74939 19.9086 4.94141 20.0732 5.18776C20.2378 5.43412 20.3256 5.72376 20.3256 6.02005C20.3261 6.2169 20.2876 6.4119 20.2125 6.59384C20.1373 6.77579 20.027 6.9411 19.8878 7.0803C19.7486 7.21949 19.5833 7.32982 19.4014 7.40496C19.2194 7.48009 19.0244 7.51855 18.8276 7.51813ZM12.3361 8.51649C13.1262 8.51649 13.8986 8.7508 14.5556 9.18978C15.2126 9.62877 15.7246 10.2527 16.027 10.9827C16.3294 11.7127 16.4085 12.516 16.2544 13.2909C16.1002 14.0659 15.7197 14.7778 15.161 15.3365C14.6023 15.8952 13.8904 16.2757 13.1155 16.4298C12.3405 16.584 11.5372 16.5049 10.8072 16.2025C10.0772 15.9001 9.45328 15.3881 9.0143 14.7311C8.57532 14.0741 8.34101 13.3017 8.34101 12.5116C8.34215 11.4523 8.76342 10.4368 9.51239 9.68787C10.2614 8.9389 11.2769 8.51763 12.3361 8.51649ZM12.3361 6.51923C11.1509 6.51923 9.99235 6.87068 9.00692 7.52912C8.02148 8.18757 7.25343 9.12344 6.79989 10.2184C6.34635 11.3133 6.22768 12.5182 6.45889 13.6806C6.69011 14.843 7.26082 15.9107 8.09886 16.7488C8.9369 17.5868 10.0046 18.1575 11.167 18.3887C12.3294 18.6199 13.5343 18.5013 14.6292 18.0477C15.7242 17.5942 16.6601 16.8261 17.3185 15.8407C17.9769 14.8553 18.3284 13.6967 18.3284 12.5116C18.3284 10.9223 17.6971 9.39812 16.5733 8.27434C15.4495 7.15057 13.9253 6.51923 12.3361 6.51923Z" fill="#93989A"/>
</svg>
