<svg width="13" height="13" viewBox="0 0 13 13" fill="none" xmlns="http://www.w3.org/2000/svg">
<g clip-path="url(#clip0_2336_11263)">
<path d="M2.08267 8.36328V4.36328C2.08267 3.42028 2.08267 2.94928 2.37567 2.65628C2.66867 2.36328 3.13967 2.36328 4.08267 2.36328H4.58267M10.0827 8.36328V6.61328M9.83267 2.93628L9.86417 2.91378C10.3932 2.53178 10.6577 2.34078 10.8702 2.43328C11.0827 2.52578 11.0827 2.83078 11.0827 3.44228V3.78428C11.0827 4.39578 11.0827 4.70128 10.8702 4.79328C10.6577 4.88578 10.3932 4.69478 9.86417 4.31328L9.83267 4.29028M1.83167 8.87078L2.09267 8.36328H10.0587L10.3337 8.87078C11.0552 10.2018 11.2352 10.8673 10.9607 11.3653C10.6862 11.8633 9.95967 11.8633 8.50567 11.8633H3.65967C2.20517 11.8633 1.47817 11.8633 1.20417 11.3653C0.929665 10.8673 1.10967 10.2018 1.83167 8.87078ZM7.83267 5.36328H8.08267C8.90767 5.36328 9.32017 5.36328 9.57617 5.13928C9.83267 4.91478 9.83267 4.55428 9.83267 3.83228V3.39478C9.83267 2.67278 9.83267 2.31178 9.57617 2.08728C9.32017 1.86328 8.90767 1.86328 8.08267 1.86328H7.83267C7.00767 1.86328 6.59517 1.86328 6.33917 2.08728C6.08267 2.31178 6.08267 2.67228 6.08267 3.39478V3.83228C6.08267 4.55378 6.08267 4.91478 6.33917 5.13928C6.59517 5.36328 7.00767 5.36328 7.83267 5.36328Z" stroke="#93989A" stroke-linecap="round" stroke-linejoin="round"/>
</g>
<defs>
<clipPath id="clip0_2336_11263">
<rect width="12" height="12" fill="white" transform="translate(0.0820312 0.863281)"/>
</clipPath>
</defs>
</svg>
