<svg width="28" height="28" viewBox="0 0 28 28" fill="none" xmlns="http://www.w3.org/2000/svg">
<g clip-path="url(#clip0_652_2154)">
<path d="M23.5053 23.5055H19.5047V17.2404C19.5047 15.7464 19.478 13.8232 17.424 13.8232C15.3404 13.8232 15.0216 15.451 15.0216 17.1316V23.5051H11.0211V10.6215H14.8616V12.3822H14.9154C15.2997 11.725 15.8551 11.1844 16.5224 10.8179C17.1897 10.4514 17.9439 10.2727 18.7046 10.3009C22.7594 10.3009 23.507 12.968 23.507 16.4377L23.5053 23.5055ZM6.50708 8.86045C5.22489 8.86066 4.18529 7.82137 4.18508 6.53919C4.18487 5.25701 5.22405 4.2174 6.50623 4.21719C7.78842 4.21687 8.82802 5.25616 8.82823 6.53835C8.82835 7.15408 8.58386 7.74464 8.14856 8.18011C7.71327 8.61559 7.12281 8.86031 6.50708 8.86045ZM8.5074 23.5056H4.50264V10.6215H8.50729V23.5055L8.5074 23.5056ZM25.4997 0.501843H2.49241C1.40503 0.489609 0.513289 1.36068 0.5 2.44806V25.5513C0.512867 26.6392 1.4045 27.5111 2.4923 27.4997H25.4997C26.5898 27.5132 27.4849 26.6413 27.5 25.5513V2.44626C27.4845 1.35677 26.5893 0.485812 25.4997 0.50005" fill="#0A66C2"/>
</g>
<defs>
<clipPath id="clip0_652_2154">
<rect width="27" height="27" fill="white" transform="translate(0.5 0.5)"/>
</clipPath>
</defs>
</svg>
