<svg width="17" height="17" viewBox="0 0 17 17" fill="none" xmlns="http://www.w3.org/2000/svg">
<path d="M8.48958 12.0876C8.13596 12.0876 7.79682 11.9471 7.54677 11.697C7.29673 11.447 7.15625 11.1079 7.15625 10.7542C7.15625 10.0142 7.74958 9.4209 8.48958 9.4209C8.84321 9.4209 9.18234 9.56137 9.43239 9.81142C9.68244 10.0615 9.82292 10.4006 9.82292 10.7542C9.82292 11.1079 9.68244 11.447 9.43239 11.697C9.18234 11.9471 8.84321 12.0876 8.48958 12.0876ZM12.4896 14.0876V7.4209H4.48958V14.0876H12.4896ZM12.4896 6.08757C12.8432 6.08757 13.1823 6.22804 13.4324 6.47809C13.6824 6.72814 13.8229 7.06728 13.8229 7.4209V14.0876C13.8229 14.4412 13.6824 14.7803 13.4324 15.0304C13.1823 15.2804 12.8432 15.4209 12.4896 15.4209H4.48958C4.13596 15.4209 3.79682 15.2804 3.54677 15.0304C3.29673 14.7803 3.15625 14.4412 3.15625 14.0876V7.4209C3.15625 6.6809 3.74958 6.08757 4.48958 6.08757H5.15625V4.75423C5.15625 3.87018 5.50744 3.02233 6.13256 2.39721C6.75768 1.77209 7.60553 1.4209 8.48958 1.4209C8.92732 1.4209 9.36078 1.50712 9.76519 1.67463C10.1696 1.84215 10.5371 2.08768 10.8466 2.39721C11.1561 2.70674 11.4017 3.0742 11.5692 3.47862C11.7367 3.88304 11.8229 4.31649 11.8229 4.75423V6.08757H12.4896ZM8.48958 2.75423C7.95915 2.75423 7.45044 2.96495 7.07537 3.34002C6.7003 3.71509 6.48958 4.2238 6.48958 4.75423V6.08757H10.4896V4.75423C10.4896 4.2238 10.2789 3.71509 9.9038 3.34002C9.52872 2.96495 9.02002 2.75423 8.48958 2.75423Z" fill="#939A96"/>
</svg>
