<svg width="25" height="25" viewBox="0 0 25 25" fill="none" xmlns="http://www.w3.org/2000/svg">
<g clip-path="url(#clip0_2011_8488)">
<path d="M0.482943 12.3634C0.482288 14.4497 1.03132 16.4864 2.07511 18.2817L0.382812 24.4159L6.70611 22.7699C8.44838 23.713 10.41 24.2102 12.4061 24.211H12.4112C18.985 24.211 24.3365 18.8998 24.3393 12.3728C24.3404 9.20963 23.1007 6.23512 20.8488 3.99752C18.5966 1.7602 15.602 0.52718 12.4112 0.525879C5.83628 0.525879 0.485563 5.83628 0.482943 12.3634ZM4.2487 17.9725L4.01259 17.6005C3.02008 16.0337 2.49622 14.2232 2.49697 12.3641C2.49903 6.93896 6.94633 2.52518 12.415 2.52518C15.0633 2.52629 17.5521 3.55121 19.4241 5.41078C21.296 7.27053 22.326 9.74271 22.3254 12.3721C22.3229 17.7972 17.8755 22.2116 12.4112 22.2116H12.4073C10.628 22.2106 8.88306 21.7363 7.36126 20.8398L6.99911 20.6266L3.24673 21.6033L4.2487 17.9725Z" fill="#93989A"/>
<path d="M9.43128 7.41462C9.208 6.92195 8.97302 6.91201 8.76069 6.90337C8.58681 6.89594 8.38805 6.89649 8.18947 6.89649C7.99071 6.89649 7.66777 6.97072 7.39479 7.26662C7.12154 7.5628 6.35156 8.27854 6.35156 9.73425C6.35156 11.19 7.41959 12.5969 7.56848 12.7945C7.71755 12.9917 9.63032 16.0747 12.6597 17.2607C15.1774 18.2463 15.6897 18.0503 16.2361 18.0009C16.7826 17.9516 17.9996 17.2853 18.2478 16.5944C18.4963 15.9036 18.4963 15.3114 18.4218 15.1876C18.3473 15.0643 18.1485 14.9903 17.8505 14.8424C17.5524 14.6945 16.0871 13.9786 15.8139 13.8798C15.5406 13.7812 15.342 13.7319 15.1432 14.0282C14.9445 14.324 14.3737 14.9903 14.1997 15.1876C14.026 15.3854 13.852 15.41 13.554 15.262C13.2558 15.1136 12.296 14.8015 11.1572 13.7936C10.2712 13.0093 9.673 12.0408 9.49913 11.7445C9.32525 11.4487 9.4805 11.2884 9.62995 11.1409C9.76386 11.0083 9.9281 10.7954 10.0773 10.6227C10.2259 10.4499 10.2755 10.3266 10.3748 10.1293C10.4743 9.93177 10.4245 9.75896 10.3501 9.61097C10.2755 9.46297 9.6963 7.99964 9.43128 7.41462Z" fill="#93989A"/>
</g>
<defs>
<clipPath id="clip0_2011_8488">
<rect width="23.9693" height="23.9693" fill="white" transform="translate(0.378906 0.525879)"/>
</clipPath>
</defs>
</svg>
