<svg width="70" height="48" viewBox="0 0 70 48" fill="none" xmlns="http://www.w3.org/2000/svg">
<rect x="0.5" y="0.493164" width="69" height="47" rx="5.5" fill="#93989A" stroke="#D9D9D9"/>
<path fill-rule="evenodd" clip-rule="evenodd" d="M35.5 34.307C33.1169 36.3636 30.0255 37.6051 26.6475 37.6051C19.1102 37.6051 13 31.424 13 23.7991C13 16.1743 19.1102 9.99316 26.6475 9.99316C30.0255 9.99316 33.1169 11.2347 35.5 13.2912C37.8831 11.2347 40.9745 9.99316 44.3525 9.99316C51.8898 9.99316 58 16.1743 58 23.7991C58 31.424 51.8898 37.6051 44.3525 37.6051C40.9745 37.6051 37.8831 36.3636 35.5 34.307Z" fill="#ED0006"/>
<path fill-rule="evenodd" clip-rule="evenodd" d="M35.5 34.307C38.4344 31.7748 40.2951 28.0068 40.2951 23.7991C40.2951 19.5915 38.4344 15.8235 35.5 13.2912C37.8831 11.2347 40.9745 9.99316 44.3525 9.99316C51.8898 9.99316 58 16.1743 58 23.7991C58 31.424 51.8898 37.6051 44.3525 37.6051C40.9745 37.6051 37.8831 36.3636 35.5 34.307Z" fill="#F9A000"/>
<path fill-rule="evenodd" clip-rule="evenodd" d="M35.4981 13.291C38.4325 15.8233 40.2932 19.5913 40.2932 23.7989C40.2932 28.0065 38.4325 31.7745 35.4981 34.3067C32.5638 31.7745 30.7031 28.0065 30.7031 23.7989C30.7031 19.5913 32.5638 15.8233 35.4981 13.291Z" fill="#FF5E00"/>
</svg>
