<svg width="27" height="26" viewBox="0 0 27 26" fill="none" xmlns="http://www.w3.org/2000/svg">
<path d="M13.5013 21.6666C15.7998 21.6666 18.0042 20.7535 19.6296 19.1282C21.2549 17.5029 22.168 15.2985 22.168 13C22.168 10.7014 21.2549 8.49702 19.6296 6.8717C18.0042 5.24639 15.7998 4.33329 13.5013 4.33329C11.2028 4.33329 8.99836 5.24639 7.37304 6.8717C5.74773 8.49702 4.83464 10.7014 4.83464 13C4.83464 15.2985 5.74773 17.5029 7.37304 19.1282C8.99836 20.7535 11.2028 21.6666 13.5013 21.6666ZM13.5013 2.16663C14.924 2.16663 16.3327 2.44684 17.647 2.99126C18.9614 3.53569 20.1557 4.33367 21.1616 5.33964C22.1676 6.3456 22.9656 7.53986 23.51 8.85422C24.0544 10.1686 24.3346 11.5773 24.3346 13C24.3346 15.8731 23.1933 18.6286 21.1616 20.6603C19.13 22.6919 16.3745 23.8333 13.5013 23.8333C7.51047 23.8333 2.66797 18.9583 2.66797 13C2.66797 10.1268 3.80933 7.37128 5.84098 5.33964C7.87262 3.30799 10.6281 2.16663 13.5013 2.16663ZM14.043 7.58329V13.2708L18.918 16.1633L18.1055 17.4958L12.418 14.0833V7.58329H14.043Z" fill="#93989A"/>
</svg>
