<svg width="22" height="23" viewBox="0 0 22 23" fill="none" xmlns="http://www.w3.org/2000/svg">
<path d="M11.0013 9.00623C10.272 9.00623 9.57248 9.29596 9.05676 9.81168C8.54103 10.3274 8.2513 11.0269 8.2513 11.7562C8.2513 12.4856 8.54103 13.185 9.05676 13.7008C9.57248 14.2165 10.272 14.5062 11.0013 14.5062C11.7306 14.5062 12.4301 14.2165 12.9458 13.7008C13.4616 13.185 13.7513 12.4856 13.7513 11.7562C13.7513 11.0269 13.4616 10.3274 12.9458 9.81168C12.4301 9.29596 11.7306 9.00623 11.0013 9.00623ZM11.0013 16.3396C9.78573 16.3396 8.61994 15.8567 7.7604 14.9971C6.90085 14.1376 6.41797 12.9718 6.41797 11.7562C6.41797 10.5406 6.90085 9.37486 7.7604 8.51532C8.61994 7.65578 9.78573 7.17289 11.0013 7.17289C12.2169 7.17289 13.3827 7.65578 14.2422 8.51532C15.1017 9.37486 15.5846 10.5406 15.5846 11.7562C15.5846 12.9718 15.1017 14.1376 14.2422 14.9971C13.3827 15.8567 12.2169 16.3396 11.0013 16.3396ZM11.0013 4.88123C6.41797 4.88123 2.5038 7.73206 0.917969 11.7562C2.5038 15.7804 6.41797 18.6312 11.0013 18.6312C15.5846 18.6312 19.4988 15.7804 21.0846 11.7562C19.4988 7.73206 15.5846 4.88123 11.0013 4.88123Z" fill="#93989A"/>
</svg>
