<svg width="76" height="76" viewBox="0 0 76 76" fill="none" xmlns="http://www.w3.org/2000/svg">
<path d="M54.5744 30.3269L64.5182 40.2707C66.1317 41.8628 67.4144 43.7583 68.2924 45.8482C69.1704 47.938 69.6263 50.1809 69.6339 52.4477C69.6414 54.7144 69.2006 56.9603 68.3366 59.056C67.4727 61.1517 66.2027 63.0558 64.5998 64.6586C62.997 66.2615 61.0929 67.5315 58.9972 68.3954C56.9015 69.2594 54.6556 69.7002 52.3889 69.6926C50.1221 69.6851 47.8792 69.2291 45.7894 68.3512C43.6995 67.4732 41.804 66.1905 40.2119 64.5769L36.8994 61.2644C36.4515 60.8322 36.0942 60.3152 35.8482 59.7434C35.6023 59.1716 35.4727 58.5566 35.467 57.9342C35.4613 57.3118 35.5796 56.6945 35.815 56.1183C36.0504 55.5421 36.3983 55.0186 36.8382 54.5783C37.2781 54.1379 37.8013 53.7896 38.3772 53.5537C38.9532 53.3177 39.5704 53.1988 40.1928 53.2039C40.8152 53.209 41.4304 53.3381 42.0024 53.5834C42.5744 53.8288 43.0918 54.1857 43.5244 54.6332L46.8432 57.9488C48.3107 59.4031 50.2945 60.2169 52.3606 60.2121C54.4267 60.2073 56.4067 59.3843 57.8675 57.9231C59.3282 56.462 60.1507 54.4817 60.1549 52.4156C60.1591 50.3496 59.3448 48.3659 57.89 46.8988L47.9463 36.9551C46.8715 35.8798 45.5064 35.1415 44.0182 34.8307C42.53 34.5198 40.9835 34.6499 39.5681 35.2051C39.064 35.4051 38.5911 35.6092 38.1494 35.8176L36.6994 36.4957C34.7619 37.3707 33.2713 37.7457 31.3744 35.8519C28.6494 33.1269 29.3556 30.6113 32.6775 28.3207C35.9866 26.0437 39.9887 24.9976 43.9888 25.3641C47.9888 25.7306 51.7342 27.4865 54.5744 30.3269ZM35.7931 11.5457L39.1056 14.8582C39.9599 15.7419 40.433 16.9257 40.4229 18.1548C40.4128 19.3838 39.9204 20.5597 39.0517 21.4293C38.183 22.2988 37.0075 22.7923 35.7785 22.8036C34.5494 22.8148 33.3651 22.3429 32.4806 21.4894L29.165 18.1769C28.4446 17.4306 27.5827 16.8351 26.6296 16.4254C25.6766 16.0157 24.6515 15.7999 23.6141 15.7906C22.5768 15.7813 21.548 15.9787 20.5878 16.3712C19.6275 16.7638 18.7551 17.3436 18.0214 18.077C17.2876 18.8103 16.7073 19.6824 16.3142 20.6424C15.9211 21.6024 15.7231 22.6311 15.7318 23.6685C15.7406 24.7058 15.9558 25.731 16.365 26.6843C16.7741 27.6376 17.3691 28.4998 18.115 29.2207L28.0588 39.1644C29.1335 40.2397 30.4987 40.978 31.9869 41.2888C33.475 41.5997 35.0216 41.4696 36.4369 40.9144C36.9411 40.7144 37.414 40.5103 37.8556 40.3019L39.3056 39.6238C41.2431 38.7488 42.7369 38.3738 44.6306 40.2676C47.3557 42.9926 46.6494 45.5082 43.3275 47.7988C40.0184 50.0758 36.0163 51.1219 32.0163 50.7554C28.0162 50.3889 24.2709 48.633 21.4306 45.7926L11.4869 35.8488C9.87334 34.2567 8.59064 32.3612 7.71267 30.2713C6.83469 28.1815 6.37878 25.9386 6.37119 23.6718C6.3636 21.4051 6.80447 19.1592 7.66842 17.0635C8.53237 14.9678 9.80234 13.0637 11.4052 11.4609C13.0081 9.858 14.9121 8.58803 17.0078 7.72408C19.1035 6.86013 21.3494 6.41926 23.6162 6.42685C25.8829 6.43445 28.1258 6.89036 30.2157 7.76833C32.3055 8.64631 34.2011 9.93213 35.7931 11.5457Z" fill="#A3A4A4"/>
</svg>
