<svg width="42" height="42" viewBox="0 0 42 42" fill="none" xmlns="http://www.w3.org/2000/svg">
<rect width="42" height="42" rx="21" fill="#3ECE23"/>
<path d="M23.2498 25.5V26.0625C23.2498 26.6592 23.0128 27.2315 22.5908 27.6535C22.1688 28.0754 21.5965 28.3125 20.9998 28.3125C20.4031 28.3125 19.8308 28.0754 19.4088 27.6535C18.9869 27.2315 18.7498 26.6592 18.7498 26.0625V25.5M27.0354 24.355C26.1326 23.25 25.4952 22.6875 25.4952 19.6412C25.4952 16.8516 24.0707 15.8577 22.8982 15.375C22.7425 15.311 22.5959 15.1641 22.5484 15.0041C22.3428 14.3041 21.7662 13.6875 20.9998 13.6875C20.2334 13.6875 19.6565 14.3045 19.4529 15.0048C19.4055 15.1665 19.2589 15.311 19.1031 15.375C17.9293 15.8584 16.5061 16.8488 16.5061 19.6412C16.5044 22.6875 15.867 23.25 14.9642 24.355C14.5901 24.8127 14.9178 25.5 15.572 25.5H26.4311C27.0818 25.5 27.4074 24.8106 27.0354 24.355Z" stroke="white" stroke-linecap="round" stroke-linejoin="round"/>
</svg>
