<svg width="12" height="17" viewBox="0 0 12 17" fill="none" xmlns="http://www.w3.org/2000/svg">
<path d="M5.99877 5.24989C5.99877 5.05098 6.07779 4.86021 6.21844 4.71956C6.35909 4.57891 6.54986 4.49989 6.74877 4.49989H10.7488C10.897 4.50002 11.0419 4.54408 11.1651 4.6265C11.2883 4.70892 11.3843 4.826 11.4411 4.96297C11.4978 5.09993 11.5126 5.25063 11.4837 5.39603C11.4549 5.54142 11.3835 5.675 11.2788 5.77989L9.38877 7.67189C9.70077 7.74789 9.99277 7.85189 10.2558 7.99089C10.9978 8.38189 11.4998 9.05389 11.4998 9.99589C11.4998 10.6489 11.2688 11.2039 10.8708 11.6229C10.4848 12.0309 9.97677 12.2759 9.46277 12.3999C8.45277 12.6429 7.23777 12.4629 6.33877 11.8729C6.18504 11.7586 6.08077 11.59 6.04728 11.4014C6.01379 11.2128 6.05362 11.0186 6.15862 10.8584C6.26363 10.6982 6.42586 10.5842 6.61215 10.5397C6.79843 10.4952 6.99469 10.5235 7.16077 10.6189C7.69477 10.9689 8.48077 11.0929 9.11177 10.9409C9.41777 10.8679 9.64177 10.7399 9.78177 10.5919C9.91077 10.4559 9.99977 10.2719 9.99977 9.99589C9.99977 9.68789 9.87677 9.48689 9.55577 9.31789C9.18277 9.12089 8.57577 8.99989 7.74977 8.99989C7.60153 8.99976 7.45665 8.9557 7.33344 8.87328C7.21022 8.79086 7.11419 8.67378 7.05748 8.53681C7.00077 8.39985 6.98592 8.24915 7.01481 8.10375C7.04369 7.95835 7.11501 7.82478 7.21977 7.71989L8.93977 5.99989H6.74877C6.54986 5.99989 6.35909 5.92087 6.21844 5.78022C6.07779 5.63957 5.99877 5.4488 5.99877 5.24989ZM2.41177 11.0129C2.06177 10.9629 1.64177 11.1259 1.42877 11.5849C1.3886 11.6763 1.33061 11.7587 1.25817 11.8274C1.18574 11.896 1.10033 11.9495 1.00695 11.9848C0.913572 12.02 0.814099 12.0362 0.714362 12.0325C0.614625 12.0288 0.516629 12.0053 0.426119 11.9632C0.335609 11.9211 0.254403 11.8614 0.187262 11.7876C0.120121 11.7137 0.0683945 11.6272 0.0351135 11.5331C0.00183248 11.4391 -0.0123333 11.3393 -0.00655398 11.2396C-0.000774622 11.14 0.0248336 11.0425 0.0687703 10.9529C0.57677 9.85889 1.65777 9.38789 2.62677 9.52789C3.62677 9.67289 4.49877 10.4729 4.49877 11.7499C4.49877 13.1829 3.41077 13.9419 2.70877 14.4309C2.40077 14.6469 2.13777 14.8279 1.93677 15.0039H3.99877C4.19768 15.0039 4.38845 15.0829 4.5291 15.2236C4.66975 15.3642 4.74877 15.555 4.74877 15.7539C4.74877 15.9528 4.66975 16.1436 4.5291 16.2842C4.38845 16.4249 4.19768 16.5039 3.99877 16.5039H0.74877C0.549858 16.5039 0.359092 16.4249 0.21844 16.2842C0.0777879 16.1436 -0.00122962 15.9528 -0.00122962 15.7539C-0.00122962 15.0639 0.29877 14.5429 0.66877 14.1439C1.01677 13.7719 1.46877 13.4679 1.81877 13.2239C2.61877 12.6639 2.99877 12.3199 2.99877 11.7499C2.99877 11.2769 2.73177 11.0599 2.41177 11.0129ZM2.60277 0.588889C2.7224 0.652937 2.82241 0.748241 2.89215 0.864646C2.96188 0.98105 2.99873 1.11419 2.99877 1.24989V6.01989H3.70977C3.90868 6.01989 4.09945 6.09891 4.2401 6.23956C4.38075 6.38021 4.45977 6.57098 4.45977 6.76989C4.45977 6.9688 4.38075 7.15957 4.2401 7.30022C4.09945 7.44087 3.90868 7.51989 3.70977 7.51989H0.75777C0.558858 7.51989 0.368093 7.44087 0.22744 7.30022C0.086788 7.15957 0.00777044 6.9688 0.00777044 6.76989C0.00777044 6.57098 0.086788 6.38021 0.22744 6.23956C0.368093 6.09891 0.558858 6.01989 0.75777 6.01989H1.49877V2.64989L1.16477 2.87289C0.999259 2.98062 0.797937 3.01872 0.604504 2.97893C0.411071 2.93914 0.241138 2.82466 0.131594 2.66034C0.0220494 2.49602 -0.018266 2.29513 0.0193986 2.10127C0.0570632 1.90741 0.169668 1.73623 0.33277 1.62489L1.83277 0.624889C1.94575 0.549607 2.07705 0.506404 2.21265 0.499888C2.34826 0.493372 2.48309 0.523787 2.60277 0.587889V0.588889Z" fill="white"/>
</svg>
