<svg width="26" height="26" viewBox="0 0 26 26" fill="none" xmlns="http://www.w3.org/2000/svg">
<g clip-path="url(#clip0_1073_2574)">
<path fill-rule="evenodd" clip-rule="evenodd" d="M12.998 25.9952C9.55023 25.9952 6.24363 24.6256 3.80566 22.1876C1.36769 19.7497 -0.00195312 16.4431 -0.00195312 12.9952C-0.00195312 9.54742 1.36769 6.24082 3.80566 3.80285C6.24363 1.36488 9.55023 -0.00476074 12.998 -0.00476074C16.4459 -0.00476074 19.7525 1.36488 22.1904 3.80285C24.6284 6.24082 25.998 9.54742 25.998 12.9952C25.998 16.4431 24.6284 19.7497 22.1904 22.1876C19.7525 24.6256 16.4459 25.9952 12.998 25.9952ZM12.9997 24.3719C16.0165 24.3719 18.9098 23.1734 21.043 21.0402C23.1762 18.907 24.3747 16.0137 24.3747 12.9969C24.3747 9.98003 23.1762 7.08675 21.043 4.95352C18.9098 2.8203 16.0165 1.62186 12.9997 1.62186C9.98283 1.62186 7.08956 2.8203 4.95633 4.95352C2.82311 7.08675 1.62467 9.98003 1.62467 12.9969C1.62467 16.0137 2.82311 18.907 4.95633 21.0402C7.08956 23.1734 9.98283 24.3719 12.9997 24.3719ZM5.68717 8.12186H20.3122C20.5277 8.12186 20.7343 8.20747 20.8867 8.35984C21.0391 8.51221 21.1247 8.71888 21.1247 8.93436C21.1247 9.14985 21.0391 9.35651 20.8867 9.50889C20.7343 9.66126 20.5277 9.74686 20.3122 9.74686H5.68717C5.47168 9.74686 5.26502 9.66126 5.11265 9.50889C4.96027 9.35651 4.87467 9.14985 4.87467 8.93436C4.87467 8.71888 4.96027 8.51221 5.11265 8.35984C5.26502 8.20747 5.47168 8.12186 5.68717 8.12186ZM8.93717 12.9969H17.0622C17.2777 12.9969 17.4843 13.0825 17.6367 13.2348C17.7891 13.3872 17.8747 13.5939 17.8747 13.8094C17.8747 14.0249 17.7891 14.2315 17.6367 14.3839C17.4843 14.5363 17.2777 14.6219 17.0622 14.6219H8.93717C8.72168 14.6219 8.51502 14.5363 8.36265 14.3839C8.21027 14.2315 8.12467 14.0249 8.12467 13.8094C8.12467 13.5939 8.21027 13.3872 8.36265 13.2348C8.51502 13.0825 8.72168 12.9969 8.93717 12.9969ZM12.1872 17.8719H13.8122C14.0277 17.8719 14.2343 17.9575 14.3867 18.1098C14.5391 18.2622 14.6247 18.4689 14.6247 18.6844C14.6247 18.8999 14.5391 19.1065 14.3867 19.2589C14.2343 19.4113 14.0277 19.4969 13.8122 19.4969H12.1872C11.9717 19.4969 11.765 19.4113 11.6126 19.2589C11.4603 19.1065 11.3747 18.8999 11.3747 18.6844C11.3747 18.4689 11.4603 18.2622 11.6126 18.1098C11.765 17.9575 11.9717 17.8719 12.1872 17.8719Z" fill="white"/>
</g>
<defs>
<clipPath id="clip0_1073_2574">
<rect width="26" height="26" fill="white" transform="translate(0 -0.00317383)"/>
</clipPath>
</defs>
</svg>
