<svg width="21" height="20" viewBox="0 0 21 20" fill="none" xmlns="http://www.w3.org/2000/svg">
<g clip-path="url(#clip0_3322_24365)">
<path fill-rule="evenodd" clip-rule="evenodd" d="M12.4755 0.9375C12.4755 0.68886 12.3767 0.450403 12.2009 0.274587C12.0251 0.098772 11.7867 0 11.538 0C11.2894 0 11.0509 0.098772 10.8751 0.274587C10.6993 0.450403 10.6005 0.68886 10.6005 0.9375V2.8125C10.6005 3.06114 10.6993 3.2996 10.8751 3.47541C11.0509 3.65123 11.2894 3.75 11.538 3.75C11.7867 3.75 12.0251 3.65123 12.2009 3.47541C12.3767 3.2996 12.4755 3.06114 12.4755 2.8125V0.9375ZM17.513 4.1C17.6051 4.01417 17.679 3.91067 17.7302 3.79567C17.7815 3.68067 17.809 3.55653 17.8113 3.43065C17.8135 3.30477 17.7903 3.17974 17.7432 3.063C17.696 2.94627 17.6258 2.84023 17.5368 2.7512C17.4478 2.66218 17.3417 2.592 17.225 2.54485C17.1083 2.4977 16.9832 2.47454 16.8574 2.47676C16.7315 2.47898 16.6073 2.50653 16.4923 2.55777C16.3773 2.60901 16.2738 2.68289 16.188 2.775L14.313 4.65C14.2209 4.73583 14.147 4.83933 14.0958 4.95433C14.0445 5.06933 14.017 5.19347 14.0148 5.31935C14.0126 5.44523 14.0357 5.57026 14.0829 5.687C14.13 5.80373 14.2002 5.90977 14.2892 5.9988C14.3782 6.08782 14.4843 6.158 14.601 6.20515C14.7178 6.2523 14.8428 6.27546 14.9687 6.27324C15.0945 6.27102 15.2187 6.24347 15.3337 6.19223C15.4487 6.14099 15.5522 6.06711 15.638 5.975L17.513 4.1ZM10.6543 5.8075C10.8887 5.57316 11.2066 5.44152 11.538 5.44152C11.8695 5.44152 12.1874 5.57316 12.4218 5.8075L14.4805 7.86625C14.7149 8.10066 14.8465 8.41854 14.8465 8.75C14.8465 9.08146 14.7149 9.39934 14.4805 9.63375L4.49301 19.6213C4.37692 19.7375 4.23906 19.8297 4.08731 19.8926C3.93557 19.9555 3.77291 19.9879 3.60864 19.9879C3.44437 19.9879 3.28171 19.9555 3.12996 19.8926C2.97822 19.8297 2.84036 19.7375 2.72426 19.6213L0.666764 17.5637C0.432425 17.3293 0.300781 17.0115 0.300781 16.68C0.300781 16.3485 0.432425 16.0307 0.666764 15.7963L10.6543 5.8075ZM11.538 7.57625L9.11301 10L10.288 11.175L12.713 8.75L11.538 7.57625ZM2.43426 16.68L7.78801 11.325L8.96301 12.4987L3.60801 17.8525L2.43301 16.6775L2.43426 16.68ZM16.538 8.75C16.538 8.50136 16.6368 8.2629 16.8126 8.08709C16.9884 7.91127 17.2269 7.8125 17.4755 7.8125H19.3505C19.5992 7.8125 19.8376 7.91127 20.0134 8.08709C20.1892 8.2629 20.288 8.50136 20.288 8.75C20.288 8.99864 20.1892 9.2371 20.0134 9.41291C19.8376 9.58873 19.5992 9.6875 19.3505 9.6875H17.4755C17.2269 9.6875 16.9884 9.58873 16.8126 9.41291C16.6368 9.2371 16.538 8.99864 16.538 8.75ZM17.513 14.725C17.6886 14.5492 17.7872 14.3109 17.7872 14.0625C17.7872 13.8141 17.6886 13.5758 17.513 13.4L15.638 11.525C15.4603 11.3594 15.2252 11.2692 14.9824 11.2735C14.7395 11.2778 14.5078 11.3762 14.336 11.548C14.1642 11.7197 14.0658 11.9515 14.0615 12.1943C14.0573 12.4372 14.1474 12.6723 14.313 12.85L16.188 14.725C16.3638 14.9006 16.6021 14.9992 16.8505 14.9992C17.099 14.9992 17.3372 14.9006 17.513 14.725ZM5.56301 4.1C5.39741 3.92228 5.30726 3.68722 5.31155 3.44435C5.31583 3.20147 5.41422 2.96974 5.58599 2.79797C5.75775 2.62621 5.98948 2.52782 6.23236 2.52353C6.47524 2.51925 6.7103 2.6094 6.88801 2.775L8.76301 4.65C8.92861 4.82772 9.01877 5.06278 9.01448 5.30565C9.0102 5.54853 8.91181 5.78026 8.74004 5.95203C8.56828 6.12379 8.33654 6.22218 8.09367 6.22647C7.85079 6.23075 7.61573 6.1406 7.43801 5.975L5.56301 4.1Z" fill="white"/>
</g>
<defs>
<clipPath id="clip0_3322_24365">
<rect width="20" height="20" fill="white" transform="translate(0.289062)"/>
</clipPath>
</defs>
</svg>
