<svg width="17" height="21" viewBox="0 0 17 21" fill="none" xmlns="http://www.w3.org/2000/svg">
<path d="M1.5 11.5C1.5 10.9696 1.71071 10.4609 2.08579 10.0858C2.46086 9.71071 2.96957 9.5 3.5 9.5H13.5C14.0304 9.5 14.5391 9.71071 14.9142 10.0858C15.2893 10.4609 15.5 10.9696 15.5 11.5V17.5C15.5 18.0304 15.2893 18.5391 14.9142 18.9142C14.5391 19.2893 14.0304 19.5 13.5 19.5H3.5C2.96957 19.5 2.46086 19.2893 2.08579 18.9142C1.71071 18.5391 1.5 18.0304 1.5 17.5V11.5Z" stroke="#93989A" stroke-width="1.5" stroke-linecap="round" stroke-linejoin="round"/>
<path d="M4.5 9.5V5.5C4.5 4.43913 4.92143 3.42172 5.67157 2.67157C6.42172 1.92143 7.43913 1.5 8.5 1.5C9.56087 1.5 10.5783 1.92143 11.3284 2.67157C12.0786 3.42172 12.5 4.43913 12.5 5.5V9.5M7.5 14.5C7.5 14.7652 7.60536 15.0196 7.79289 15.2071C7.98043 15.3946 8.23478 15.5 8.5 15.5C8.76522 15.5 9.01957 15.3946 9.20711 15.2071C9.39464 15.0196 9.5 14.7652 9.5 14.5C9.5 14.2348 9.39464 13.9804 9.20711 13.7929C9.01957 13.6054 8.76522 13.5 8.5 13.5C8.23478 13.5 7.98043 13.6054 7.79289 13.7929C7.60536 13.9804 7.5 14.2348 7.5 14.5Z" stroke="#93989A" stroke-width="1.5" stroke-linecap="round" stroke-linejoin="round"/>
</svg>
