<svg width="70" height="48" viewBox="0 0 70 48" fill="none" xmlns="http://www.w3.org/2000/svg">
<rect x="0.5" y="0.493164" width="69" height="47" rx="5.5" fill="#93989A" stroke="#D9D9D9"/>
<path fill-rule="evenodd" clip-rule="evenodd" d="M8 28.9133C8.03662 28.7166 8.07016 28.526 8.10304 28.3391C8.15385 28.0504 8.20309 27.7705 8.25969 27.4907C8.49939 26.2251 8.74077 24.9612 8.98214 23.6972C9.22352 22.4332 9.46489 21.1693 9.7046 19.9036C9.73789 19.7434 9.7845 19.6365 9.94431 19.6098C11.1895 19.4228 12.4413 19.2892 13.6864 19.6031C14.7718 19.8702 15.5309 20.6383 15.6574 21.5399C15.9171 23.3365 14.8717 24.7725 13.3202 25.2867C12.5012 25.5539 11.6689 25.6207 10.8232 25.5405C10.6235 25.5205 10.5636 25.5739 10.5303 25.7676C10.3505 26.7494 10.164 27.7245 9.97095 28.6996C9.95763 28.7798 9.88438 28.9066 9.83777 28.9066C9.38535 28.9166 8.94035 28.9154 8.47782 28.9142H8.47776H8.4777H8.47764H8.47757H8.47751H8.47719H8.47688H8.47656H8.47623H8.47591C8.3196 28.9138 8.16128 28.9133 8 28.9133ZM11.2422 23.9578L11.2423 23.9578H11.2423C11.5027 23.9649 11.7487 23.9715 11.9885 23.9443C12.681 23.8708 13.2336 23.5569 13.5466 22.8957C13.8995 22.1477 13.6465 21.3529 12.9806 21.1192C12.5079 20.9522 12.0218 20.9856 11.5357 21.0524C11.4758 21.0591 11.3959 21.1526 11.3826 21.2127C11.2894 21.7023 11.1963 22.194 11.0996 22.7041C11.0235 23.1056 10.9453 23.5186 10.8632 23.951C10.9934 23.951 11.1194 23.9544 11.2422 23.9578ZM19.8057 27.631C19.7003 27.7409 19.6016 27.8515 19.5052 27.9595L19.5052 27.9595L19.5052 27.9596C19.2968 28.193 19.0989 28.4147 18.8668 28.5927C18.1677 29.1337 17.3686 29.2539 16.563 28.8799C15.7639 28.5126 15.4377 27.798 15.4044 26.9564C15.3311 25.1865 15.9504 23.7239 17.4352 22.7087C18.3674 22.0676 19.4395 21.8739 20.5515 21.934C20.9193 21.9557 21.2843 22.0197 21.6502 22.0839C21.8473 22.1184 22.0446 22.153 22.2427 22.1811C22.4691 22.2145 22.5024 22.3414 22.4625 22.5351C22.409 22.8143 22.355 23.0933 22.301 23.372L22.301 23.3721L22.301 23.3721L22.301 23.3722L22.301 23.3722L22.301 23.3723L22.301 23.3723L22.301 23.3723L22.301 23.3723L22.301 23.3724L22.301 23.3724C22.0993 24.4137 21.8981 25.4525 21.73 26.4956C21.6336 27.0927 21.5952 27.7043 21.5571 28.3099V28.3099C21.5505 28.4155 21.5439 28.521 21.5369 28.6261C21.5236 28.8398 21.4703 28.9267 21.2506 28.92C20.8378 28.9066 20.4249 28.9066 20.0121 28.92C19.799 28.9267 19.7258 28.8465 19.7458 28.6395C19.7648 28.4107 19.777 28.175 19.7897 27.9302C19.7948 27.832 19.8 27.7323 19.8057 27.631ZM20.2718 23.5035C19.6259 23.3232 19.0866 23.4501 18.6338 23.8307C17.7815 24.5521 17.3953 25.4871 17.4685 26.6024C17.4885 26.9431 17.6217 27.2703 17.9813 27.4173C18.3408 27.5642 18.6671 27.4573 18.9467 27.2169C19.1132 27.07 19.273 26.903 19.3929 26.716C19.8625 25.997 19.9908 25.1859 20.1211 24.3621C20.1663 24.0763 20.2118 23.789 20.2718 23.5035ZM29.707 27.2436C30.0733 28.4191 31.0787 29.0736 32.8432 29.0736C34.0551 29.0402 35.2603 28.3523 36.0127 26.9364C36.4122 26.175 36.5587 25.3602 36.5055 24.5053C36.4589 23.6838 36.1326 22.9892 35.4667 22.495C34.7676 21.9741 33.9685 21.8672 33.1162 21.9607C30.2664 22.2813 29.1011 25.3068 29.707 27.2436ZM31.6033 26.2628C31.604 26.2287 31.6047 26.1948 31.6047 26.1617C31.6247 25.3936 31.8112 24.679 32.2706 24.0445C32.477 23.764 32.7367 23.5502 33.0829 23.4701C33.7888 23.3098 34.3681 23.7172 34.4346 24.4853C34.5145 25.427 34.2882 26.2952 33.6955 27.0499C33.4691 27.3304 33.1828 27.5241 32.8166 27.5575C32.1574 27.6176 31.658 27.1701 31.6047 26.4689C31.6003 26.4018 31.6018 26.3318 31.6033 26.2628ZM38.0902 22.1009H39.7815C39.7549 22.4616 39.7283 22.8089 39.695 23.1629C39.7564 23.1055 39.8158 23.0488 39.874 22.9932L39.8746 22.9927L39.8747 22.9926C39.9993 22.8737 40.1186 22.7598 40.241 22.6553C40.9002 22.0809 41.6526 21.8271 42.5249 21.9674C43.244 22.0876 43.7434 22.6152 43.8233 23.3566C43.9101 24.128 43.7659 24.8762 43.6219 25.6229L43.5902 25.7876C43.5319 26.0906 43.4742 26.3936 43.4166 26.6964L43.4163 26.6977L43.4162 26.6986C43.2897 27.3629 43.1635 28.0261 43.0309 28.6862C43.0109 28.7731 42.9111 28.9 42.8445 28.9066C42.2719 28.92 41.6993 28.9133 41.1266 28.9066H41.1266C41.1074 28.9066 41.0882 28.8962 41.059 28.8804C41.0477 28.8743 41.0349 28.8673 41.02 28.8599C41.1266 28.3055 41.2331 27.7445 41.333 27.1835C41.4861 26.3219 41.6326 25.4671 41.7658 24.6055C41.7924 24.4586 41.7791 24.3049 41.7591 24.158C41.7059 23.6437 41.3263 23.41 40.8336 23.5636C40.3542 23.7172 40.0678 24.0912 39.8348 24.5053C39.4885 25.1131 39.3687 25.7876 39.2488 26.4622C39.2188 26.6294 39.1891 26.7963 39.1594 26.9629C39.0576 27.5353 38.9561 28.1054 38.8427 28.6796C38.8227 28.7664 38.7228 28.9 38.6562 28.9066C38.1893 28.9226 37.7181 28.9216 37.2158 28.9205C37.0877 28.9203 36.9577 28.92 36.8251 28.92C37.2646 26.6225 37.6774 24.3717 38.0902 22.1009ZM47.6919 27.5175C46.9861 27.4306 46.5133 26.9364 46.5599 26.2418C46.7071 26.2418 46.8536 26.2441 46.9993 26.2463H46.9993L46.9994 26.2463C47.2887 26.2507 47.575 26.2551 47.8584 26.2418C48.5442 26.2017 49.2167 26.0882 49.8426 25.7743C50.6417 25.3736 51.0145 24.7124 50.9546 23.8508C50.8947 22.9759 50.4219 22.3414 49.5763 22.0876C48.3111 21.7069 47.1459 21.9741 46.1538 22.8223C44.9485 23.8508 44.4958 25.2133 44.6689 26.7694C44.7887 27.8714 45.388 28.6595 46.48 28.94C47.6519 29.2406 48.8039 29.0803 49.9159 28.6261C49.9958 28.5927 50.089 28.4658 50.0823 28.3857C50.0663 28.0598 50.0333 27.7339 50.0003 27.408L50.0003 27.4078C49.992 27.3263 49.9838 27.2449 49.9758 27.1635C49.9539 27.1635 49.9377 27.1624 49.9252 27.1615C49.9072 27.1602 49.8971 27.1595 49.8892 27.1635C49.816 27.1902 49.7427 27.2169 49.6762 27.2436C49.0369 27.4907 48.3777 27.5976 47.6919 27.5175ZM48.7239 24.5588C48.3178 24.7725 47.2657 24.8994 46.753 24.7925C46.8595 23.9042 47.7984 23.2096 48.5908 23.4033C48.8571 23.4701 49.0502 23.6104 49.0968 23.8976C49.1434 24.1781 49.0036 24.4118 48.7239 24.5588ZM53.2119 26.2685C53.152 26.923 53.6181 27.4239 54.3305 27.5174C54.9964 27.5976 55.6356 27.4974 56.2615 27.2703C56.3191 27.2487 56.3748 27.227 56.4359 27.2032L56.4362 27.2031C56.488 27.1829 56.5437 27.1613 56.6078 27.1368C56.6208 27.2782 56.6352 27.4169 56.6495 27.5536L56.6495 27.5537C56.6789 27.8365 56.7075 28.1111 56.721 28.3857C56.7276 28.4658 56.6344 28.5927 56.5612 28.6261C55.4292 29.0936 54.264 29.2539 53.0721 28.9267C52 28.6328 51.4407 27.8514 51.3075 26.7828C51.1411 25.4136 51.494 24.1781 52.4462 23.1629C53.4716 22.0742 54.7301 21.6869 56.1816 22.0876C57.0672 22.3347 57.54 22.9759 57.5933 23.8775C57.6465 24.7591 57.247 25.4203 56.4147 25.8077C55.5757 26.195 54.6835 26.2552 53.7779 26.2752C53.5981 26.2685 53.4117 26.2685 53.2119 26.2685ZM53.7624 24.8265L53.7624 24.8265C54.0578 24.8116 54.3424 24.7973 54.6235 24.7591C54.8899 24.7257 55.1562 24.6456 55.3959 24.532C55.6556 24.4185 55.7821 24.178 55.7422 23.8842C55.7022 23.6037 55.5158 23.4701 55.2561 23.4033C54.4704 23.1896 53.4916 23.9109 53.405 24.8459C53.5261 24.8383 53.6451 24.8324 53.7624 24.8265ZM57.9594 27.5174C57.8729 27.9716 57.793 28.4191 57.7064 28.9133C57.8398 28.9133 57.9712 28.9136 58.1011 28.9139C58.6135 28.9149 59.1021 28.9159 59.5908 28.9C59.6374 28.9 59.7106 28.7731 59.7239 28.6929C59.7919 28.3593 59.8548 28.0241 59.9178 27.689C60.0338 27.0713 60.1498 26.4539 60.2966 25.8478C60.6229 24.4986 61.1755 24.0311 62.4873 23.8575C62.5405 23.8508 62.6271 23.7907 62.6404 23.7439C62.724 23.3601 62.7988 22.9733 62.8765 22.5721C62.9164 22.366 62.957 22.156 63 21.9407C61.7348 21.8071 61.029 22.5418 60.4164 23.4434L60.4263 23.3129C60.4564 22.9142 60.487 22.5084 60.523 22.0809C60.3845 22.0809 60.2487 22.0805 60.1147 22.0801C59.7204 22.0788 59.3426 22.0776 58.9649 22.0876C58.9116 22.0943 58.8117 22.2145 58.8051 22.288C58.663 24.0045 58.3267 25.6834 57.9907 27.3612L57.9594 27.5174Z" fill="black"/>
<path fill-rule="evenodd" clip-rule="evenodd" d="M40.3292 14.0439C40.2618 14.026 40.1944 14.0082 40.127 13.9932C39.9206 13.9932 39.7141 13.9932 39.4944 13.9998C39.4194 14.0149 39.3443 14.0313 39.2686 14.0479C39.1765 14.068 39.0834 14.0884 38.9884 14.1067C37.9696 14.3004 37.0108 14.6544 36.0852 15.1219C34.081 16.1371 32.2832 17.4528 30.6718 19.0089C29.5997 20.0375 28.561 21.1128 27.5555 22.2148C25.791 24.1516 24.2795 26.2821 23.0743 28.6197C22.4551 29.8286 21.8957 31.0641 21.6427 32.4066C21.5961 32.6537 21.676 32.9409 21.7559 33.188C21.7892 33.2882 21.9756 33.3617 22.1022 33.4017C22.1354 33.4151 22.2353 33.2481 22.2819 33.1546C22.2985 33.1184 22.3154 33.0813 22.3327 33.0434C22.6219 32.4099 23.013 31.5532 23.3522 30.9861C24.0713 29.7839 24.6391 28.8535 25.4448 27.7114C26.7365 25.8747 28.2459 24.0727 29.8306 22.4831C31.3288 20.9804 32.8292 19.6367 34.7135 18.6216C35.5792 18.1607 36.4648 17.7066 37.3703 17.3326C38.9351 16.6847 40.5664 16.2439 42.2444 15.9968C42.4242 15.9701 42.6639 15.8298 42.7238 15.6829C42.7771 15.5493 42.6506 15.2955 42.5241 15.1686C42.0114 14.641 41.4121 14.2403 40.6663 14.1201C40.554 14.1034 40.4416 14.0736 40.3292 14.0439ZM25.0852 23.1565C25.4048 22.2882 25.5646 21.3866 25.5846 20.4516C25.5757 20.3514 25.5683 20.2512 25.5609 20.151C25.5461 19.9507 25.5313 19.7503 25.5047 19.5499C25.3249 18.0005 24.6591 16.6847 23.6004 15.556C23.4738 15.4291 23.3007 15.3289 23.1276 15.2688C22.9545 15.202 22.8413 15.3022 22.8546 15.5026C22.8549 15.5068 22.8552 15.5111 22.8556 15.5153C22.8686 15.685 22.882 15.8608 22.9145 16.0302C22.9613 16.2971 23.0078 16.5643 23.0543 16.8317C23.2195 17.7821 23.3852 18.7349 23.5671 19.6835C23.7468 20.6386 23.9466 21.587 24.1597 22.5287C24.2329 22.8292 24.3528 23.1298 24.4993 23.4103C24.6125 23.624 24.7723 23.604 24.9188 23.4103C24.9853 23.3301 25.0519 23.25 25.0852 23.1565Z" fill="#FC461E"/>
</svg>
