<svg width="59" height="40" viewBox="0 0 59 40" fill="none" xmlns="http://www.w3.org/2000/svg">
<rect x="1.01457" y="0.413986" width="57.13" height="38.9147" rx="4.55384" fill="white" stroke="#D9D9D9" stroke-width="0.827972"/>
<path fill-rule="evenodd" clip-rule="evenodd" d="M16.9938 25.2383H14.4178C14.2415 25.2383 14.0916 25.3664 14.0641 25.5404L13.0222 32.146C13.0015 32.2764 13.1025 32.3939 13.2347 32.3939H14.4645C14.6408 32.3939 14.7907 32.2658 14.8182 32.0915L15.0992 30.3098C15.1263 30.1354 15.2766 30.0074 15.4525 30.0074H16.268C17.9649 30.0074 18.9442 29.1862 19.2 27.559C19.3153 26.8472 19.2049 26.2878 18.8715 25.896C18.5054 25.4659 17.8559 25.2383 16.9938 25.2383ZM17.291 27.6509C17.1502 28.5753 16.4439 28.5753 15.761 28.5753H15.3723L15.645 26.8489C15.6612 26.7447 15.7516 26.6678 15.857 26.6678H16.0352C16.5004 26.6678 16.9392 26.6678 17.166 26.9329C17.3011 27.0912 17.3426 27.3262 17.291 27.6509ZM24.6941 27.6213H23.4605C23.3554 27.6213 23.2646 27.6981 23.2484 27.8026L23.1938 28.1475L23.1076 28.0225C22.8405 27.6349 22.2451 27.5054 21.6507 27.5054C20.2874 27.5054 19.1232 28.5378 18.8964 29.9861C18.7786 30.7085 18.9461 31.3993 19.3559 31.8811C19.7319 32.324 20.2698 32.5086 20.9097 32.5086C22.008 32.5086 22.6172 31.8023 22.6172 31.8023L22.5621 32.1452C22.5414 32.2762 22.6423 32.3937 22.7738 32.3937H23.885C24.0617 32.3937 24.2108 32.2656 24.2387 32.0913L24.9054 27.8691C24.9265 27.7393 24.8259 27.6213 24.6941 27.6213ZM22.9746 30.0222C22.8555 30.727 22.2961 31.2 21.5829 31.2C21.2247 31.2 20.9383 31.0852 20.7545 30.8675C20.5722 30.6513 20.5028 30.3435 20.5609 30.0008C20.6721 29.302 21.2409 28.8136 21.9433 28.8136C22.2935 28.8136 22.5784 28.9298 22.7659 29.1495C22.9538 29.3713 23.0284 29.6809 22.9746 30.0222ZM30.0244 27.6211H31.2641C31.4377 27.6211 31.5389 27.8158 31.4403 27.9582L27.3173 33.9095C27.2506 34.0059 27.1406 34.0633 27.0231 34.0633H25.785C25.6107 34.0633 25.5089 33.867 25.6098 33.7242L26.8936 31.9121L25.5282 27.9051C25.481 27.7658 25.5838 27.6211 25.732 27.6211H26.9501C27.1083 27.6211 27.248 27.725 27.2936 27.8765L28.0182 30.2966L29.728 27.7782C29.795 27.6798 29.9062 27.6211 30.0244 27.6211Z" fill="#253B80"/>
<path fill-rule="evenodd" clip-rule="evenodd" d="M43.4645 32.1464L44.5217 25.4199C44.5379 25.3155 44.6283 25.2386 44.7334 25.2383H45.9236C46.0551 25.2383 46.156 25.3561 46.1352 25.4865L45.0927 32.0918C45.0655 32.2661 44.9156 32.3942 44.739 32.3942H43.6761C43.5446 32.3942 43.4437 32.2768 43.4645 32.1464ZM35.3679 25.2386H32.7914C32.6156 25.2386 32.4657 25.3667 32.4381 25.5407L31.3963 32.1464C31.3755 32.2768 31.4764 32.3942 31.6081 32.3942H32.93C33.0529 32.3942 33.158 32.3046 33.1772 32.1826L33.4728 30.3102C33.5 30.1357 33.6503 30.0078 33.8261 30.0078H34.6412C36.3385 30.0078 37.3176 29.1866 37.5736 27.5594C37.6892 26.8475 37.5782 26.2882 37.2449 25.8963C36.879 25.4663 36.2301 25.2386 35.3679 25.2386ZM35.6651 27.6513C35.5246 28.5756 34.8183 28.5756 34.135 28.5756H33.7467L34.0198 26.8493C34.036 26.745 34.1256 26.6681 34.2314 26.6681H34.4096C34.8745 26.6681 35.3137 26.6681 35.5403 26.9333C35.6756 27.0915 35.7167 27.3265 35.6651 27.6513ZM43.0676 27.6216H41.8348C41.7289 27.6216 41.6389 27.6985 41.623 27.8029L41.5685 28.1479L41.4819 28.0229C41.2148 27.6352 40.6197 27.5057 40.0253 27.5057C38.662 27.5057 37.4982 28.5381 37.2714 29.9865C37.1539 30.7088 37.3207 31.3996 37.7305 31.8814C38.1072 32.3243 38.6444 32.5089 39.2843 32.5089C40.3827 32.5089 40.9917 31.8026 40.9917 31.8026L40.9368 32.1455C40.916 32.2766 41.017 32.3941 41.1493 32.3941H42.26C42.4359 32.3941 42.5858 32.2659 42.6133 32.0916L43.2804 27.8695C43.3008 27.7396 43.1999 27.6216 43.0676 27.6216ZM41.3482 30.0226C41.2298 30.7273 40.6697 31.2004 39.9563 31.2004C39.5988 31.2004 39.3119 31.0855 39.128 30.8678C38.9456 30.6517 38.8771 30.3438 38.9345 30.0011C39.0462 29.3023 39.6143 28.8139 40.3168 28.8139C40.6671 28.8139 40.9518 28.9302 41.1395 29.1498C41.3281 29.3717 41.4027 29.6813 41.3482 30.0226Z" fill="#179BD7"/>
<path d="M26.5268 22.8756L26.8435 20.8641L26.1381 20.8477H22.7695L25.1105 6.00408C25.1177 5.95926 25.1414 5.91748 25.1759 5.88781C25.2104 5.85815 25.2547 5.8418 25.3007 5.8418H30.9806C32.8663 5.8418 34.1675 6.23419 34.847 7.00866C35.1654 7.372 35.3683 7.75166 35.4665 8.16948C35.5693 8.60791 35.5712 9.13169 35.4706 9.77054L35.4633 9.81717V10.2265L35.782 10.407C36.0502 10.5493 36.2632 10.7121 36.4267 10.8987C36.6994 11.2093 36.8756 11.6041 36.95 12.0722C37.0269 12.5536 37.0014 13.1264 36.8756 13.775C36.7302 14.521 36.4952 15.1707 36.178 15.7024C35.886 16.1923 35.5142 16.5985 35.0729 16.9135C34.6514 17.2126 34.1506 17.4397 33.5844 17.5851C33.0357 17.7279 32.4103 17.8 31.7242 17.8H31.2821C30.9661 17.8 30.659 17.9139 30.4181 18.118C30.1765 18.3263 30.0165 18.6108 29.9675 18.9221L29.9342 19.1032L29.3747 22.6485L29.3492 22.7787C29.3426 22.82 29.3311 22.8406 29.3142 22.8545C29.299 22.8671 29.2772 22.8756 29.256 22.8756H26.5268Z" fill="#253B80"/>
<path d="M36.0832 9.86426C36.0663 9.97264 36.047 10.0835 36.0252 10.1973C35.276 14.0431 32.7135 15.3716 29.4404 15.3716H27.774C27.3738 15.3716 27.0365 15.6623 26.9741 16.0571L26.1209 21.4683L25.8793 23.002C25.8387 23.2612 26.0386 23.495 26.3001 23.495H29.2558C29.6059 23.495 29.9031 23.2406 29.9581 22.8955L29.9873 22.7453L30.5438 19.2137L30.5796 19.0201C30.6339 18.6737 30.9318 18.4194 31.2818 18.4194H31.7239C34.5875 18.4194 36.8293 17.2568 37.4845 13.8923C37.7582 12.4868 37.6165 11.3133 36.8922 10.488C36.6731 10.2391 36.4012 10.0326 36.0832 9.86426Z" fill="#179BD7"/>
<path d="M35.2992 9.55206C35.1849 9.51875 35.0667 9.48847 34.9455 9.46123C34.8239 9.43459 34.6991 9.41097 34.5708 9.39039C34.1214 9.31772 33.6291 9.2832 33.1017 9.2832H28.6498C28.5402 9.2832 28.4361 9.30802 28.3428 9.35284C28.1375 9.45153 27.985 9.64593 27.948 9.88389L27.0008 15.8824L26.9736 16.0574C27.036 15.6626 27.3733 15.3719 27.7735 15.3719H29.4399C32.713 15.3719 35.2757 14.0427 36.0247 10.1976C36.047 10.0837 36.0658 9.97291 36.0827 9.86453C35.8933 9.764 35.6879 9.67802 35.4669 9.60474C35.4125 9.58657 35.3562 9.56902 35.2992 9.55206Z" fill="#222D65"/>
<path d="M27.9485 9.88373C27.9855 9.64574 28.1382 9.45137 28.3433 9.35327C28.4373 9.30845 28.5408 9.28363 28.6503 9.28363H33.1024C33.6298 9.28363 34.1221 9.31814 34.5713 9.39081C34.6997 9.4114 34.8245 9.43502 34.9462 9.46165C35.0674 9.48892 35.1854 9.51919 35.2999 9.55249C35.3567 9.56945 35.413 9.587 35.4681 9.60457C35.6891 9.67783 35.8945 9.76443 36.0839 9.86435C36.3069 8.44314 36.0822 7.47549 35.3138 6.59927C34.4667 5.63466 32.9376 5.22168 30.9812 5.22168H25.3011C24.9014 5.22168 24.5606 5.51232 24.4988 5.90775L22.133 20.9039C22.0863 21.2006 22.3152 21.4684 22.6143 21.4684H26.1211L27.0015 15.8822L27.9485 9.88373Z" fill="#253B80"/>
</svg>
