<svg width="18" height="18" viewBox="0 0 18 18" fill="none" xmlns="http://www.w3.org/2000/svg">
<path d="M9 15.75C12.7279 15.75 15.75 12.7279 15.75 9C15.75 5.27208 12.7279 2.25 9 2.25C5.27208 2.25 2.25 5.27208 2.25 9C2.25 12.7279 5.27208 15.75 9 15.75Z" stroke="white" stroke-width="1.5" stroke-linecap="round" stroke-linejoin="round"/>
<path d="M4.2375 4.2375L13.7625 13.7625M4.2375 13.7625L13.7625 4.2375M9 2.25C9 4.04021 9.71116 5.7571 10.977 7.02297C12.2429 8.28884 13.9598 9 15.75 9M2.25 9C4.04021 9 5.7571 9.71116 7.02297 10.977C8.28884 12.2429 9 13.9598 9 15.75" stroke="white" stroke-width="1.5" stroke-linecap="round" stroke-linejoin="round"/>
</svg>
