<svg width="18" height="18" viewBox="0 0 18 18" fill="none" xmlns="http://www.w3.org/2000/svg">
<path d="M4.5 15C5.74264 15 6.75 13.9926 6.75 12.75C6.75 11.5074 5.74264 10.5 4.5 10.5C3.25736 10.5 2.25 11.5074 2.25 12.75C2.25 13.9926 3.25736 15 4.5 15Z" stroke="white" stroke-width="1.5" stroke-linecap="round" stroke-linejoin="round"/>
<path d="M12 15C13.2426 15 14.25 13.9926 14.25 12.75C14.25 11.5074 13.2426 10.5 12 10.5C10.7574 10.5 9.75 11.5074 9.75 12.75C9.75 13.9926 10.7574 15 12 15Z" stroke="white" stroke-width="1.5" stroke-linecap="round" stroke-linejoin="round"/>
<path d="M6.75 12.75V3H14.25V12.75M6.75 6H14.25" stroke="white" stroke-width="1.5" stroke-linecap="round" stroke-linejoin="round"/>
</svg>
