<svg width="18" height="18" viewBox="0 0 18 18" fill="none" xmlns="http://www.w3.org/2000/svg">
<path d="M5.34372 8.81499V6.77991" stroke="white" stroke-width="1.1" stroke-linecap="round" stroke-linejoin="round"/>
<path d="M4.3262 7.79749H6.36125" stroke="white" stroke-width="1.1" stroke-linecap="round" stroke-linejoin="round"/>
<path d="M6.44508 5.06394V4.45914C6.44508 4.24126 6.26845 4.06464 6.05058 4.06464H4.6369C4.41903 4.06464 4.2424 4.24126 4.2424 4.45914V5.12319" stroke="white" stroke-width="1.1" stroke-linecap="round" stroke-linejoin="round"/>
<path d="M10.8913 10.3303L12.5988 12.8915C13.1557 13.7269 14.2402 14.0286 15.1485 13.601C15.9986 13.2008 16.4625 12.2706 16.2688 11.3512C15.8997 9.59981 15.6053 7.96654 15.304 6.85777C14.9869 5.69062 13.8477 4.87762 12.5725 4.87762C11.8029 4.87762 11.1057 5.18167 10.5896 5.67397H7.4104C6.89429 5.18167 6.19709 4.87762 5.42755 4.87762C4.15233 4.87762 3.01308 5.69066 2.69598 6.85777C2.3947 7.96654 2.10033 9.59985 1.73125 11.3512C1.53749 12.2706 2.00144 13.2008 2.85153 13.601C3.75982 14.0286 4.84432 13.7269 5.40119 12.8915L7.10872 10.3303H10.8913Z" stroke="white" stroke-width="1.1" stroke-linecap="round" stroke-linejoin="round"/>
<path d="M11.5549 5.06394V4.45914C11.5549 4.24126 11.7315 4.06464 11.9494 4.06464H13.3631C13.581 4.06464 13.7576 4.24126 13.7576 4.45914V5.12319" stroke="white" stroke-width="1.1" stroke-linecap="round" stroke-linejoin="round"/>
<path d="M11.6362 8.07874C11.7916 8.07874 11.9175 7.95282 11.9175 7.79749C11.9175 7.64216 11.7916 7.51624 11.6362 7.51624C11.4809 7.51624 11.355 7.64216 11.355 7.79749C11.355 7.95282 11.4809 8.07874 11.6362 8.07874Z" fill="white"/>
<path d="M13.6738 8.07874C13.8291 8.07874 13.955 7.95282 13.955 7.79749C13.955 7.64216 13.8291 7.51624 13.6738 7.51624C13.5184 7.51624 13.3925 7.64216 13.3925 7.79749C13.3925 7.95282 13.5184 8.07874 13.6738 8.07874Z" fill="white"/>
<path d="M12.6562 7.06116C12.8115 7.06116 12.9375 6.93524 12.9375 6.77991C12.9375 6.62458 12.8115 6.49866 12.6562 6.49866C12.5009 6.49866 12.375 6.62458 12.375 6.77991C12.375 6.93524 12.5009 7.06116 12.6562 7.06116Z" fill="white"/>
<path d="M12.6562 9.10938C12.8188 9.10938 12.9506 8.97758 12.9506 8.815C12.9506 8.65243 12.8188 8.52063 12.6562 8.52063C12.4936 8.52063 12.3618 8.65243 12.3618 8.815C12.3618 8.97758 12.4936 9.10938 12.6562 9.10938Z" fill="white"/>
</svg>
