<svg width="18" height="18" viewBox="0 0 18 18" fill="none" xmlns="http://www.w3.org/2000/svg">
<g clip-path="url(#clip0_522_6359)">
<path fill-rule="evenodd" clip-rule="evenodd" d="M15.1594 4.30313C13.6688 3.85313 11.0813 5.54063 9.05626 5.54063H9.02814C7.00314 5.54063 4.35939 3.82501 2.86876 4.30313C0.703135 4.97813 0.337511 3.65626 0.337511 4.83751C0.337511 4.83751 -0.168739 11.475 3.82501 12.4031C6.07501 12.7125 7.70626 14.0344 9.02814 14.0344H9.05626C10.3781 14.0063 11.5031 12.8531 14.2875 12.375C17.9156 11.8969 17.7188 4.80938 17.7188 4.80938C17.7188 3.65626 17.325 4.97813 15.1594 4.30313Z" stroke="white" stroke-width="1.2"/>
<path fill-rule="evenodd" clip-rule="evenodd" d="M6.89062 8.10005C6.49688 7.76255 6.32813 7.65005 5.68125 7.42505C4.275 6.9188 2.25 7.08755 2.25 7.08755C2.25 7.08755 3.00938 9.33755 4.3875 9.8438C5.25938 10.1532 6.10312 10.2094 6.69375 10.0125C7.05937 9.90005 7.3125 10.0969 7.50938 10.1813C7.67813 10.2375 7.67812 8.77505 6.89062 8.10005Z" stroke="white" stroke-width="1.2"/>
<path fill-rule="evenodd" clip-rule="evenodd" d="M11.0813 8.10005C11.475 7.76255 11.6438 7.65005 12.2906 7.42505C13.6969 6.9188 15.7219 7.08755 15.7219 7.08755C15.7219 7.08755 14.9906 9.33755 13.5844 9.8438C12.7125 10.1532 11.8688 10.2094 11.2781 10.0125C10.9125 9.90005 10.6594 10.0969 10.4625 10.1813C10.2938 10.2375 10.2938 8.77505 11.0813 8.10005Z" stroke="white" stroke-width="1.2"/>
</g>
<defs>
<clipPath id="clip0_522_6359">
<rect width="18" height="18" fill="white"/>
</clipPath>
</defs>
</svg>
