<svg width="18" height="18" viewBox="0 0 18 18" fill="none" xmlns="http://www.w3.org/2000/svg">
<g clip-path="url(#clip0_522_6367)">
<path d="M11.7347 0H1.94594V18H16.054V4.31937L11.7347 0ZM12.1622 2.49145L13.5626 3.8919H12.1622V2.49145ZM14.5946 16.5406H3.40541V1.45944H10.7027V5.35134H14.5946L14.5946 16.5406Z" fill="white"/>
<path d="M12.3551 7.4568C11.4953 6.59695 10.0962 6.59688 9.23628 7.4568L9.00695 7.68613L8.77763 7.4568C7.91767 6.59688 6.51863 6.59695 5.65878 7.4568C4.77745 8.33814 4.80185 9.71872 5.65878 10.5757L9.00699 13.9239L12.3552 10.5757C13.2121 9.71872 13.2365 8.33807 12.3551 7.4568ZM11.3232 9.54368L9.00695 11.8599L6.69076 9.54368C6.39994 9.2528 6.39994 8.77959 6.69076 8.48875C6.97144 8.20806 7.43702 8.18007 7.74569 8.48875L9.00699 9.75012L10.2683 8.48875C10.5769 8.18007 11.0425 8.20806 11.3232 8.48875C11.614 8.77959 11.614 9.25287 11.3232 9.54368Z" fill="white"/>
</g>
<defs>
<clipPath id="clip0_522_6367">
<rect width="18" height="18" fill="white"/>
</clipPath>
</defs>
</svg>
