<svg width="21" height="20" viewBox="0 0 21 20" fill="none" xmlns="http://www.w3.org/2000/svg">
<path fill-rule="evenodd" clip-rule="evenodd" d="M5.5 9C6.03043 9 6.53914 8.78929 6.91421 8.41421C7.28929 8.03914 7.5 7.53043 7.5 7C7.5 6.46957 7.28929 5.96086 6.91421 5.58579C6.53914 5.21071 6.03043 5 5.5 5C4.96957 5 4.46086 5.21071 4.08579 5.58579C3.71071 5.96086 3.5 6.46957 3.5 7C3.5 7.53043 3.71071 8.03914 4.08579 8.41421C4.46086 8.78929 4.96957 9 5.5 9ZM5.5 10C5.89397 10 6.28407 9.9224 6.64805 9.77164C7.01203 9.62087 7.34274 9.3999 7.62132 9.12132C7.8999 8.84274 8.12087 8.51203 8.27164 8.14805C8.4224 7.78407 8.5 7.39397 8.5 7C8.5 6.60603 8.4224 6.21593 8.27164 5.85195C8.12087 5.48797 7.8999 5.15726 7.62132 4.87868C7.34274 4.6001 7.01203 4.37913 6.64805 4.22836C6.28407 4.0776 5.89397 4 5.5 4C4.70435 4 3.94129 4.31607 3.37868 4.87868C2.81607 5.44129 2.5 6.20435 2.5 7C2.5 7.79565 2.81607 8.55871 3.37868 9.12132C3.94129 9.68393 4.70435 10 5.5 10Z" fill="white"/>
<path fill-rule="evenodd" clip-rule="evenodd" d="M4.354 8.89611C4.40056 8.94256 4.43751 8.99773 4.46271 9.05848C4.48792 9.11922 4.50089 9.18435 4.50089 9.25011C4.50089 9.31588 4.48792 9.381 4.46271 9.44175C4.43751 9.50249 4.40056 9.55767 4.354 9.60411L4.016 9.94111C3.36554 10.5918 3.00009 11.4741 3 12.3941V14.2501C3 14.3827 2.94732 14.5099 2.85355 14.6037C2.75979 14.6974 2.63261 14.7501 2.5 14.7501C2.36739 14.7501 2.24021 14.6974 2.14645 14.6037C2.05268 14.5099 2 14.3827 2 14.2501V12.3941C2.00014 11.2089 2.47099 10.0723 3.309 9.23411L3.646 8.89611C3.69245 8.84955 3.74762 8.81261 3.80837 8.7874C3.86911 8.76219 3.93423 8.74922 4 8.74922C4.06577 8.74922 4.13089 8.76219 4.19163 8.7874C4.25238 8.81261 4.30755 8.84955 4.354 8.89611ZM16.146 8.59611C16.0994 8.64256 16.0625 8.69773 16.0373 8.75848C16.0121 8.81922 15.9991 8.88435 15.9991 8.95011C15.9991 9.01588 16.0121 9.081 16.0373 9.14175C16.0625 9.20249 16.0994 9.25767 16.146 9.30411L16.484 9.64111C17.1345 10.2918 17.4999 11.1741 17.5 12.0941V14.2501C17.5 14.3827 17.5527 14.5099 17.6464 14.6037C17.7402 14.6974 17.8674 14.7501 18 14.7501C18.1326 14.7501 18.2598 14.6974 18.3536 14.6037C18.4473 14.5099 18.5 14.3827 18.5 14.2501V12.0941C18.4999 10.9089 18.029 9.77225 17.191 8.93411L16.854 8.59611C16.8076 8.54955 16.7524 8.51261 16.6916 8.4874C16.6309 8.46219 16.5658 8.44922 16.5 8.44922C16.4342 8.44922 16.3691 8.46219 16.3084 8.4874C16.2476 8.51261 16.1924 8.54955 16.146 8.59611Z" fill="white"/>
<path fill-rule="evenodd" clip-rule="evenodd" d="M14.5 9C13.9696 9 13.4609 8.78929 13.0858 8.41421C12.7107 8.03914 12.5 7.53043 12.5 7C12.5 6.46957 12.7107 5.96086 13.0858 5.58579C13.4609 5.21071 13.9696 5 14.5 5C15.0304 5 15.5391 5.21071 15.9142 5.58579C16.2893 5.96086 16.5 6.46957 16.5 7C16.5 7.53043 16.2893 8.03914 15.9142 8.41421C15.5391 8.78929 15.0304 9 14.5 9ZM14.5 10C14.106 10 13.7159 9.9224 13.3519 9.77164C12.988 9.62087 12.6573 9.3999 12.3787 9.12132C12.1001 8.84274 11.8791 8.51203 11.7284 8.14805C11.5776 7.78407 11.5 7.39397 11.5 7C11.5 6.60603 11.5776 6.21593 11.7284 5.85195C11.8791 5.48797 12.1001 5.15726 12.3787 4.87868C12.6573 4.6001 12.988 4.37913 13.3519 4.22836C13.7159 4.0776 14.106 4 14.5 4C15.2956 4 16.0587 4.31607 16.6213 4.87868C17.1839 5.44129 17.5 6.20435 17.5 7C17.5 7.79565 17.1839 8.55871 16.6213 9.12132C16.0587 9.68393 15.2956 10 14.5 10ZM10 13.25C9.33696 13.25 8.70107 13.5134 8.23223 13.9822C7.76339 14.4511 7.5 15.087 7.5 15.75V17.05C7.5 17.1826 7.44732 17.3098 7.35355 17.4036C7.25979 17.4973 7.13261 17.55 7 17.55C6.86739 17.55 6.74021 17.4973 6.64645 17.4036C6.55268 17.3098 6.5 17.1826 6.5 17.05V15.75C6.5 14.8217 6.86875 13.9315 7.52513 13.2751C8.1815 12.6187 9.07174 12.25 10 12.25C10.9283 12.25 11.8185 12.6187 12.4749 13.2751C13.1313 13.9315 13.5 14.8217 13.5 15.75V17.05C13.5 17.1826 13.4473 17.3098 13.3536 17.4036C13.2598 17.4973 13.1326 17.55 13 17.55C12.8674 17.55 12.7402 17.4973 12.6464 17.4036C12.5527 17.3098 12.5 17.1826 12.5 17.05V15.75C12.5 15.4217 12.4353 15.0966 12.3097 14.7933C12.1841 14.49 11.9999 14.2144 11.7678 13.9822C11.5356 13.7501 11.26 13.5659 10.9567 13.4403C10.6534 13.3147 10.3283 13.25 10 13.25Z" fill="white"/>
<path fill-rule="evenodd" clip-rule="evenodd" d="M10 11.75C10.5304 11.75 11.0391 11.5393 11.4142 11.1642C11.7893 10.7891 12 10.2804 12 9.75C12 9.21957 11.7893 8.71086 11.4142 8.33579C11.0391 7.96071 10.5304 7.75 10 7.75C9.46957 7.75 8.96086 7.96071 8.58579 8.33579C8.21071 8.71086 8 9.21957 8 9.75C8 10.2804 8.21071 10.7891 8.58579 11.1642C8.96086 11.5393 9.46957 11.75 10 11.75ZM10 12.75C10.7956 12.75 11.5587 12.4339 12.1213 11.8713C12.6839 11.3087 13 10.5456 13 9.75C13 8.95435 12.6839 8.19129 12.1213 7.62868C11.5587 7.06607 10.7956 6.75 10 6.75C9.20435 6.75 8.44129 7.06607 7.87868 7.62868C7.31607 8.19129 7 8.95435 7 9.75C7 10.5456 7.31607 11.3087 7.87868 11.8713C8.44129 12.4339 9.20435 12.75 10 12.75Z" fill="white"/>
</svg>
