<svg width="32" height="33" viewBox="0 0 32 33" fill="none" xmlns="http://www.w3.org/2000/svg">
<path d="M28.07 13.2526C26.6787 12.4951 24.8088 11.9501 22.75 11.6939V10.7764C22.75 9.26137 21.5525 7.88887 19.375 6.91012C17.395 6.01762 14.775 5.52637 12 5.52637C9.225 5.52637 6.605 6.01762 4.625 6.91012C2.4475 7.88887 1.25 9.26137 1.25 10.7764V15.7764C1.25 17.2914 2.4475 18.6639 4.625 19.6426C5.93625 20.2326 7.52625 20.6426 9.25 20.8589V21.7764C9.25 23.2914 10.4475 24.6639 12.625 25.6426C14.605 26.5351 17.225 27.0264 20 27.0264C22.775 27.0264 25.395 26.5351 27.375 25.6426C29.5487 24.6639 30.75 23.2914 30.75 21.7764V16.7764C30.75 15.4451 29.7987 14.1939 28.07 13.2526ZM27.3525 14.5701C28.5763 15.2364 29.25 16.0264 29.25 16.7764C29.25 18.5501 25.4513 20.5264 20 20.5264C19.1136 20.5269 18.228 20.4709 17.3487 20.3589C18.0417 20.1729 18.7191 19.9334 19.375 19.6426C21.5487 18.6639 22.75 17.2914 22.75 15.7764V13.2051C24.55 13.4464 26.1625 13.9214 27.3525 14.5701ZM13.52 19.4739C13.03 19.5076 12.52 19.5264 12 19.5264C11.3375 19.5264 10.7 19.4964 10.09 19.4426C10.0746 19.4412 10.0591 19.4412 10.0437 19.4426C9.59625 19.4014 9.16875 19.3464 8.75 19.2801V15.7914C9.82613 15.949 10.9124 16.0276 12 16.0264C13.0876 16.0276 14.1739 15.949 15.25 15.7914V19.2764C14.7075 19.3626 14.1362 19.4289 13.5387 19.4714L13.52 19.4739ZM21.25 13.5126V15.7764C21.25 16.9689 19.5312 18.2514 16.75 18.9651V15.5076C17.6508 15.3043 18.5298 15.0146 19.375 14.6426C20.0473 14.3507 20.6778 13.9707 21.25 13.5126ZM12 7.02637C17.4513 7.02637 21.25 9.00262 21.25 10.7764C21.25 12.5501 17.4513 14.5264 12 14.5264C6.54875 14.5264 2.75 12.5501 2.75 10.7764C2.75 9.00262 6.54875 7.02637 12 7.02637ZM2.75 15.7764V13.5126C3.32248 13.9689 3.95299 14.3472 4.625 14.6376C5.47019 15.0096 6.34925 15.2993 7.25 15.5026V18.9601C4.46875 18.2514 2.75 16.9689 2.75 15.7764ZM10.75 21.7764V20.9914C11.1625 21.0139 11.5787 21.0264 12 21.0264C12.4925 21.0264 12.9783 21.011 13.4575 20.9801C14.0438 21.1917 14.6424 21.3674 15.25 21.5064V24.9651C12.4688 24.2514 10.75 22.9689 10.75 21.7764ZM16.75 25.2764V21.7889C17.8261 21.9474 18.9123 22.0267 20 22.0264C21.0876 22.0276 22.1739 21.949 23.25 21.7914V25.2764C21.0962 25.6097 18.9038 25.6097 16.75 25.2764ZM24.75 24.9651V21.5076C25.6508 21.3043 26.5298 21.0146 27.375 20.6426C28.047 20.3522 28.6775 19.9739 29.25 19.5176V21.7764C29.25 22.9689 27.5312 24.2514 24.75 24.9651Z" fill="white"/>
</svg>
