<svg width="27" height="26" viewBox="0 0 27 26" fill="none" xmlns="http://www.w3.org/2000/svg">
<g clip-path="url(#clip0_2227_9603)">
<path d="M16.2241 8.12194C16.2241 7.90645 16.3097 7.69979 16.462 7.54742C16.6144 7.39504 16.8211 7.30944 17.0366 7.30944H25.9741C26.1896 7.30944 26.3962 7.39504 26.5486 7.54742C26.701 7.69979 26.7866 7.90645 26.7866 8.12194C26.7866 8.33743 26.701 8.54409 26.5486 8.69646C26.3962 8.84884 26.1896 8.93444 25.9741 8.93444H17.0366C16.8211 8.93444 16.6144 8.84884 16.462 8.69646C16.3097 8.54409 16.2241 8.33743 16.2241 8.12194ZM25.9741 12.1844H17.0366C16.8211 12.1844 16.6144 12.27 16.462 12.4224C16.3097 12.5748 16.2241 12.7815 16.2241 12.9969C16.2241 13.2124 16.3097 13.4191 16.462 13.5715C16.6144 13.7238 16.8211 13.8094 17.0366 13.8094H25.9741C26.1896 13.8094 26.3962 13.7238 26.5486 13.5715C26.701 13.4191 26.7866 13.2124 26.7866 12.9969C26.7866 12.7815 26.701 12.5748 26.5486 12.4224C26.3962 12.27 26.1896 12.1844 25.9741 12.1844ZM25.9741 17.0594H19.4741C19.2586 17.0594 19.0519 17.145 18.8995 17.2974C18.7472 17.4498 18.6616 17.6565 18.6616 17.8719C18.6616 18.0874 18.7472 18.2941 18.8995 18.4465C19.0519 18.5988 19.2586 18.6844 19.4741 18.6844H25.9741C26.1896 18.6844 26.3962 18.5988 26.5486 18.4465C26.701 18.2941 26.7866 18.0874 26.7866 17.8719C26.7866 17.6565 26.701 17.4498 26.5486 17.2974C26.3962 17.145 26.1896 17.0594 25.9741 17.0594ZM16.1987 19.2938C16.2252 19.3972 16.2312 19.5048 16.2162 19.6104C16.2011 19.7161 16.1654 19.8178 16.1111 19.9096C16.0568 20.0015 15.9849 20.0817 15.8995 20.1458C15.8142 20.2099 15.7171 20.2565 15.6137 20.283C15.5474 20.3008 15.4791 20.3097 15.4106 20.3094C15.2304 20.3095 15.0552 20.2497 14.9128 20.1394C14.7703 20.0291 14.6685 19.8745 14.6234 19.7001C13.9978 17.2687 11.542 15.4344 8.91056 15.4344C6.27907 15.4344 3.82329 17.2676 3.19766 19.7001C3.14379 19.9088 3.0092 20.0876 2.82349 20.1971C2.63779 20.3067 2.41618 20.3379 2.20743 20.284C1.99868 20.2302 1.81987 20.0956 1.71035 19.9099C1.60084 19.7242 1.56957 19.5026 1.62345 19.2938C2.19118 17.0889 3.84157 15.3034 5.93579 14.4188C5.12942 13.7977 4.53767 12.9398 4.24354 11.9654C3.94941 10.991 3.96765 9.94894 4.2957 8.98541C4.62376 8.02189 5.24517 7.18521 6.07278 6.59272C6.9004 6.00023 7.89272 5.68164 8.91056 5.68164C9.9284 5.68164 10.9207 6.00023 11.7483 6.59272C12.5759 7.18521 13.1974 8.02189 13.5254 8.98541C13.8535 9.94894 13.8717 10.991 13.5776 11.9654C13.2834 12.9398 12.6917 13.7977 11.8853 14.4188C13.9806 15.3034 15.6309 17.0889 16.1987 19.2938ZM8.91157 13.8094C9.55436 13.8094 10.1827 13.6188 10.7172 13.2617C11.2516 12.9046 11.6682 12.397 11.9142 11.8032C12.1602 11.2093 12.2245 10.5558 12.0991 9.9254C11.9737 9.29496 11.6642 8.71586 11.2097 8.26134C10.7551 7.80682 10.1761 7.49729 9.54561 7.37189C8.91518 7.24649 8.26171 7.31085 7.66785 7.55683C7.07399 7.80282 6.56641 8.21938 6.20929 8.75384C5.85218 9.2883 5.66157 9.91665 5.66157 10.5594C5.66157 11.4214 6.00398 12.248 6.61347 12.8575C7.22297 13.467 8.04962 13.8094 8.91157 13.8094Z" fill="white"/>
</g>
<defs>
<clipPath id="clip0_2227_9603">
<rect width="26" height="26" fill="white" transform="translate(0.787109 -0.00292969)"/>
</clipPath>
</defs>
</svg>
