<svg width="22" height="22" viewBox="0 0 22 22" fill="none" xmlns="http://www.w3.org/2000/svg">
<path d="M19.4431 18.2188C18.1937 15.956 16.2685 14.3335 14.0216 13.5644C15.133 12.8713 15.9965 11.8151 16.4795 10.5581C16.9624 9.30111 17.0382 7.91278 16.6951 6.60632C16.352 5.29986 15.609 4.14751 14.5802 3.32623C13.5515 2.50495 12.2938 2.06016 11.0004 2.06016C9.70701 2.06016 8.44935 2.50495 7.4206 3.32623C6.39184 4.14751 5.64886 5.29986 5.30576 6.60632C4.96266 7.91278 5.03841 9.30111 5.52138 10.5581C6.00434 11.8151 6.86782 12.8713 7.97921 13.5644C5.73237 14.3327 3.8071 15.9552 2.55776 18.2188C2.51195 18.297 2.48156 18.3841 2.46839 18.4749C2.45522 18.5656 2.45954 18.6582 2.48108 18.7472C2.50263 18.8362 2.54098 18.9198 2.59385 18.993C2.64673 19.0662 2.71306 19.1276 2.78895 19.1735C2.86483 19.2194 2.94873 19.249 3.03568 19.2604C3.12264 19.2718 3.2109 19.2648 3.29524 19.2399C3.37959 19.215 3.45832 19.1726 3.52679 19.1153C3.59526 19.058 3.65208 18.9869 3.6939 18.9062C5.23937 16.1081 7.97101 14.4375 11.0004 14.4375C14.0298 14.4375 16.7615 16.1081 18.3069 18.9062C18.3488 18.9869 18.4056 19.058 18.4741 19.1153C18.5425 19.1726 18.6212 19.215 18.7056 19.2399C18.7899 19.2648 18.8782 19.2718 18.9652 19.2604C19.0521 19.249 19.136 19.2194 19.2119 19.1735C19.2878 19.1276 19.3541 19.0662 19.407 18.993C19.4599 18.9198 19.4982 18.8362 19.5198 18.7472C19.5413 18.6582 19.5456 18.5656 19.5324 18.4749C19.5193 18.3841 19.4889 18.297 19.4431 18.2188ZM6.40667 8.25C6.40667 7.29818 6.67609 6.36773 7.18086 5.57632C7.68562 4.78491 8.40307 4.16808 9.24247 3.80383C10.0819 3.43958 11.0055 3.34428 11.8966 3.52997C12.7877 3.71566 13.6062 4.17401 14.2487 4.84705C14.8911 5.52009 15.3287 6.37759 15.5059 7.31113C15.6832 8.24466 15.5922 9.21229 15.2445 10.0917C14.8968 10.971 14.308 11.7226 13.5526 12.2514C12.7971 12.7803 11.909 13.0625 11.0004 13.0625C9.78248 13.0611 8.6148 12.5537 7.75359 11.6514C6.89237 10.7492 6.40797 9.52594 6.40667 8.25Z" fill="#93989A"/>
</svg>
