
<svg width="180" height="53" viewBox="0 0 180 53" fill="none" xmlns="http://www.w3.org/2000/svg">
<path d="M173.333 52.3047H6.66667C3.00167 52.3047 0 49.3781 0 45.8047V6.80469C0 3.23132 3.00167 0.30469 6.66667 0.30469H173.333C176.998 0.30469 180 3.23132 180 6.80469V45.8047C180 49.3781 176.998 52.3047 173.333 52.3047Z" fill="black"/>
<path d="M173.333 1.34631C176.42 1.34631 178.932 3.79519 178.932 6.80469V45.8047C178.932 48.8142 176.42 51.2631 173.333 51.2631H6.66667C3.58 51.2631 1.06833 48.8142 1.06833 45.8047V6.80469C1.06833 3.79519 3.58 1.34631 6.66667 1.34631H173.333ZM173.333 0.30469H6.66667C3.00167 0.30469 0 3.23132 0 6.80469V45.8047C0 49.3781 3.00167 52.3047 6.66667 52.3047H173.333C176.998 52.3047 180 49.3781 180 45.8047V6.80469C180 3.23132 176.998 0.30469 173.333 0.30469Z" fill="#93989A"/>
<path d="M12.9134 10.1051C12.5217 10.5049 12.295 11.1273 12.295 11.9333V40.6828C12.295 41.4888 12.5217 42.1111 12.9134 42.5109L13.01 42.5986L29.5334 26.4949V26.1146L13.01 10.0109L12.9134 10.1051Z" fill="white"/>
<path d="M37.035 31.8652L31.5333 26.4946V26.1144L37.0417 20.7437L37.165 20.8136L43.6883 24.4325C45.55 25.4595 45.55 27.1495 43.6883 28.183L37.165 31.7954L37.035 31.8652Z" fill="white"/>
<path d="M36.165 32.7954L30.5333 27.3045L13.9133 43.5107C14.5317 44.1444 15.54 44.2208 16.6867 43.587L36.165 32.7954Z" fill="white"/>
<path d="M36.165 19.8138L16.6867 9.02219C15.54 8.39494 14.5317 8.47132 13.9133 9.10507L30.5333 25.3047L36.165 19.8138Z" fill="white"/>
<path d="M63.2233 13.6219C63.2233 14.7074 62.89 15.5767 62.2333 16.2251C61.4783 16.9937 60.495 17.3805 59.29 17.3805C58.1383 17.3805 57.155 16.9872 56.3483 16.2121C55.54 15.4256 55.1367 14.4604 55.1367 13.305C55.1367 12.1496 55.54 11.1844 56.3483 10.4044C57.155 9.62274 58.1383 9.22949 59.29 9.22949C59.8633 9.22949 60.41 9.34487 60.9317 9.55937C61.4517 9.77549 61.875 10.068 62.1817 10.4287L61.485 11.1145C60.95 10.4986 60.2217 10.1947 59.29 10.1947C58.45 10.1947 57.7217 10.4807 57.1033 11.0576C56.4917 11.6361 56.185 12.3852 56.185 13.305C56.185 14.2247 56.4917 14.9804 57.1033 15.5589C57.7217 16.1292 58.45 16.4217 59.29 16.4217C60.1817 16.4217 60.9317 16.1292 61.5233 15.5524C61.9133 15.1705 62.135 14.644 62.1933 13.9712H59.29V13.032H63.1633C63.21 13.2351 63.2233 13.4317 63.2233 13.6219Z" fill="white" stroke="white" stroke-width="0.16" stroke-miterlimit="10"/>
<path d="M69.3683 10.3653H65.73V12.8353H69.01V13.7746H65.73V16.2446H69.3683V17.2017H64.7V9.4082H69.3683V10.3653Z" fill="white" stroke="white" stroke-width="0.16" stroke-miterlimit="10"/>
<path d="M73.705 17.2017H72.675V10.3653H70.4433V9.4082H75.9383V10.3653H73.705V17.2017Z" fill="white" stroke="white" stroke-width="0.16" stroke-miterlimit="10"/>
<path d="M79.915 17.2017V9.4082H80.9434V17.2017H79.915Z" fill="white" stroke="white" stroke-width="0.16" stroke-miterlimit="10"/>
<path d="M85.5016 17.2017H84.48V10.3653H82.24V9.4082H87.7416V10.3653H85.5016V17.2017Z" fill="white" stroke="white" stroke-width="0.16" stroke-miterlimit="10"/>
<path d="M98.145 16.1991C97.3566 16.9872 96.38 17.3805 95.215 17.3805C94.0433 17.3805 93.0666 16.9872 92.2783 16.1991C91.4916 15.4126 91.1 14.4474 91.1 13.305C91.1 12.1626 91.4916 11.1974 92.2783 10.4109C93.0666 9.62274 94.0433 9.22949 95.215 9.22949C96.3733 9.22949 97.35 9.62274 98.1383 10.4174C98.9317 11.2104 99.3233 12.1691 99.3233 13.305C99.3233 14.4474 98.9316 15.4126 98.145 16.1991ZM93.04 15.5459C93.6333 16.1292 94.355 16.4217 95.215 16.4217C96.0683 16.4217 96.7966 16.1292 97.3833 15.5459C97.975 14.9625 98.275 14.2134 98.275 13.305C98.275 12.3966 97.975 11.6475 97.3833 11.0641C96.7966 10.4807 96.0683 10.1882 95.215 10.1882C94.355 10.1882 93.6333 10.4807 93.04 11.0641C92.4483 11.6475 92.1483 12.3966 92.1483 13.305C92.1483 14.2134 92.4483 14.9625 93.04 15.5459Z" fill="white" stroke="white" stroke-width="0.16" stroke-miterlimit="10"/>
<path d="M100.768 17.2017V9.4082H102.018L105.905 15.4695H105.95L105.905 13.9712V9.4082H106.933V17.2017H105.86L101.79 10.8415H101.745L101.79 12.3462V17.2017H100.768Z" fill="white" stroke="white" stroke-width="0.16" stroke-miterlimit="10"/>
<path d="M90.8466 28.583C87.715 28.583 85.1566 30.9067 85.1566 34.1128C85.1566 37.293 87.715 39.6411 90.8466 39.6411C93.985 39.6411 96.5433 37.293 96.5433 34.1128C96.5433 30.9067 93.985 28.583 90.8466 28.583ZM90.8466 37.4636C89.1283 37.4636 87.65 36.0807 87.65 34.1128C87.65 32.119 89.1283 30.7605 90.8466 30.7605C92.565 30.7605 94.05 32.119 94.05 34.1128C94.05 36.0807 92.565 37.4636 90.8466 37.4636ZM78.4316 28.583C75.2933 28.583 72.7416 30.9067 72.7416 34.1128C72.7416 37.293 75.2933 39.6411 78.4316 39.6411C81.5683 39.6411 84.1216 37.293 84.1216 34.1128C84.1216 30.9067 81.5683 28.583 78.4316 28.583ZM78.4316 37.4636C76.7116 37.4636 75.2283 36.0807 75.2283 34.1128C75.2283 32.119 76.7116 30.7605 78.4316 30.7605C80.15 30.7605 81.6283 32.119 81.6283 34.1128C81.6283 36.0807 80.15 37.4636 78.4316 37.4636ZM63.6583 30.2778V32.6276H69.4133C69.245 33.9406 68.795 34.9058 68.105 35.5786C67.265 36.3911 65.9566 37.293 63.6583 37.293C60.1166 37.293 57.3433 34.5061 57.3433 31.053C57.3433 27.5998 60.1166 24.813 63.6583 24.813C65.5733 24.813 66.9666 25.5426 67.995 26.4883L69.6933 24.8325C68.255 23.4935 66.3416 22.4648 63.6583 22.4648C58.8016 22.4648 54.72 26.3177 54.72 31.053C54.72 35.7882 58.8016 39.6411 63.6583 39.6411C66.2833 39.6411 68.255 38.8026 69.805 37.2296C71.3933 35.681 71.8883 33.5035 71.8883 31.7452C71.8883 31.1992 71.8416 30.6971 71.7583 30.2778H63.6583ZM124.068 32.0995C123.6 30.8628 122.155 28.583 119.212 28.583C116.295 28.583 113.867 30.8238 113.867 34.1128C113.867 37.2101 116.27 39.6411 119.492 39.6411C122.097 39.6411 123.6 38.0925 124.218 37.1906L122.285 35.9345C121.64 36.8542 120.762 37.4636 119.492 37.4636C118.23 37.4636 117.325 36.8997 116.745 35.7882L124.33 32.7283L124.068 32.0995ZM116.335 33.9406C116.27 31.8086 118.033 30.7166 119.297 30.7166C120.287 30.7166 121.127 31.1992 121.407 31.8898L116.335 33.9406ZM110.17 39.3047H112.663V23.0547H110.17V39.3047ZM106.087 29.8147H106.003C105.443 29.168 104.375 28.583 103.022 28.583C100.182 28.583 97.585 31.014 97.585 34.1307C97.585 37.2296 100.182 39.6411 103.022 39.6411C104.375 39.6411 105.443 39.0512 106.003 38.385H106.087V39.178C106.087 41.2921 104.928 42.428 103.06 42.428C101.537 42.428 100.592 41.3555 100.202 40.4536L98.0333 41.336C98.6583 42.8017 100.313 44.6055 103.06 44.6055C105.983 44.6055 108.45 42.9285 108.45 38.8481V28.9193H106.087V29.8147ZM103.235 37.4636C101.517 37.4636 100.078 36.0612 100.078 34.1307C100.078 32.1823 101.517 30.7605 103.235 30.7605C104.928 30.7605 106.263 32.1823 106.263 34.1307C106.263 36.0612 104.928 37.4636 103.235 37.4636ZM135.742 23.0547H129.778V39.3047H132.265V33.1476H135.742C138.503 33.1476 141.212 31.1992 141.212 28.1003C141.212 25.0031 138.497 23.0547 135.742 23.0547ZM135.807 30.8872H132.265V25.3151H135.807C137.663 25.3151 138.723 26.8182 138.723 28.1003C138.723 29.3581 137.663 30.8872 135.807 30.8872ZM151.178 28.5521C149.382 28.5521 147.513 29.3256 146.745 31.04L148.952 31.9418C149.427 31.04 150.3 30.7475 151.223 30.7475C152.513 30.7475 153.822 31.5031 153.842 32.8372V33.0078C153.392 32.7543 152.428 32.379 151.243 32.379C148.867 32.379 146.445 33.6546 146.445 36.0352C146.445 38.2127 148.392 39.6151 150.58 39.6151C152.253 39.6151 153.177 38.879 153.757 38.0226H153.842V39.2787H156.243V33.0452C156.243 30.1641 154.037 28.5521 151.178 28.5521ZM150.878 37.4571C150.065 37.4571 148.932 37.0638 148.932 36.0807C148.932 34.823 150.345 34.3403 151.568 34.3403C152.663 34.3403 153.177 34.576 153.842 34.8863C153.647 36.3911 152.318 37.4571 150.878 37.4571ZM164.993 28.908L162.135 35.9523H162.05L159.095 28.908H156.413L160.853 38.7522L158.32 44.2301H160.918L167.76 28.908H164.993ZM142.578 39.3047H145.072V23.0547H142.578V39.3047Z" fill="white"/>
</svg>
