<svg width="22" height="22" viewBox="0 0 22 22" fill="none" xmlns="http://www.w3.org/2000/svg">
<g clip-path="url(#clip0_1461_6543)">
<path d="M22 11C22 11.9355 21.2422 12.6928 20.3077 12.6928H12.6923V20.3082C12.6923 21.2438 11.9345 22 11 22C10.0655 22 9.30769 21.2438 9.30769 20.3082V12.6928H1.69231C0.757837 12.6928 0 11.9355 0 11C0 10.0645 0.757837 9.30822 1.69231 9.30822H9.30769V1.69284C9.30769 0.757308 10.0655 0 11 0C11.9345 0 12.6923 0.757308 12.6923 1.69284V9.30822H20.3077C21.2437 9.30769 22 10.0639 22 11Z" fill="#3ECE23"/>
</g>
<defs>
<clipPath id="clip0_1461_6543">
<rect width="22" height="22" fill="white"/>
</clipPath>
</defs>
</svg>
