<svg width="48" height="46" viewBox="0 0 48 46" fill="none" xmlns="http://www.w3.org/2000/svg">
<path d="M11.1542 46C10.641 46 10.1489 45.7964 9.786 45.4341C9.42315 45.0717 9.21933 44.5802 9.21933 44.0677V37.4924H2.68221C2.16657 37.4924 1.67207 37.2878 1.30746 36.9237C0.942849 36.5595 0.738037 36.0657 0.738037 35.5507V34.7065C0.738037 34.194 0.941859 33.7025 1.30471 33.3401C1.66756 32.9778 2.15972 32.7742 2.67287 32.7742H9.21933V26.2176C9.21933 25.7026 9.42414 25.2087 9.78875 24.8446C10.1534 24.4805 10.6479 24.2759 11.1636 24.2759H11.9995C12.5151 24.2759 13.0096 24.4805 13.3742 24.8446C13.7389 25.2087 13.9437 25.7026 13.9437 26.2176V32.7742H20.5184C21.0315 32.7742 21.5236 32.9778 21.8865 33.3401C22.2493 33.7025 22.4532 34.194 22.4532 34.7065V35.5507C22.4532 36.0657 22.2483 36.5595 21.8837 36.9237C21.5191 37.2878 21.0246 37.4924 20.509 37.4924H13.9437V44.0668C13.9437 44.5793 13.7398 45.0708 13.377 45.4332C13.0141 45.7955 12.522 45.9991 12.0089 45.9991L11.1542 46ZM36.1379 35.5319C35.8838 35.5319 35.6323 35.482 35.3976 35.3849C35.1629 35.2877 34.9497 35.1454 34.7701 34.966C34.5905 34.7865 34.4481 34.5735 34.3509 34.3391C34.2538 34.1046 34.2039 33.8534 34.204 33.5997V27.0337H27.6293C27.374 27.0337 27.1212 26.9834 26.8853 26.8858C26.6494 26.7883 26.4351 26.6453 26.2545 26.465C26.074 26.2847 25.9308 26.0706 25.8331 25.8351C25.7354 25.5995 25.6851 25.347 25.6851 25.092V24.2478C25.6851 23.7353 25.8889 23.2438 26.2518 22.8815C26.6146 22.5191 27.1068 22.3155 27.6199 22.3155H34.204V15.7683C34.204 15.256 34.4077 14.7646 34.7703 14.4023C35.133 14.0399 35.6249 13.8362 36.1379 13.836H36.9935C37.5067 13.836 37.9988 14.0396 38.3617 14.402C38.7245 14.7643 38.9283 15.2558 38.9283 15.7683V22.3155H45.503C46.0162 22.3155 46.5083 22.5191 46.8711 22.8815C47.234 23.2438 47.4378 23.7353 47.4378 24.2478V25.092C47.4378 25.347 47.3875 25.5995 47.2898 25.8351C47.1921 26.0706 47.0489 26.2847 46.8684 26.465C46.6878 26.6453 46.4735 26.7883 46.2377 26.8858C46.0018 26.9834 45.749 27.0337 45.4937 27.0337H38.9293V33.5997C38.9293 34.1121 38.7254 34.6036 38.3626 34.966C37.9997 35.3284 37.5076 35.5319 36.9945 35.5319H36.1379ZM19.241 21.8465C18.9856 21.8466 18.7328 21.7965 18.4968 21.699C18.2609 21.6014 18.0465 21.4584 17.8659 21.2781C17.6854 21.0978 17.5422 20.8837 17.4445 20.6481C17.3469 20.4124 17.2966 20.1599 17.2968 19.9049V13.367H10.7127C10.1996 13.367 9.70744 13.1634 9.34459 12.8011C8.98173 12.4387 8.77791 11.9472 8.77791 11.4347V10.5905C8.77791 10.3355 8.82817 10.0831 8.92587 9.84749C9.02358 9.61192 9.1668 9.39786 9.34734 9.21756C9.52787 9.03726 9.74222 8.89422 9.9781 8.79665C10.214 8.69907 10.4668 8.64888 10.7221 8.64888H17.2968V2.08288C17.2968 1.57057 17.5005 1.07922 17.8631 0.716874C18.2258 0.354528 18.7177 0.150853 19.2307 0.150604H20.0863C20.5995 0.150604 21.0916 0.354157 21.4545 0.71653C21.8173 1.0789 22.0211 1.57041 22.0211 2.08288V8.64888H28.5489C28.8042 8.64888 29.057 8.69907 29.2928 8.79665C29.5287 8.89422 29.7431 9.03726 29.9236 9.21756C30.1041 9.39786 30.2474 9.61192 30.3451 9.84749C30.4428 10.0831 30.4931 10.3355 30.4931 10.5905V11.4347C30.4931 11.9472 30.2892 12.4387 29.9264 12.8011C29.5635 13.1634 29.0714 13.367 28.5583 13.367H22.0211V19.9049C22.0211 20.1599 21.9708 20.4123 21.8731 20.6479C21.7754 20.8835 21.6323 21.0975 21.4517 21.2778C21.2712 21.4581 21.0568 21.6011 20.821 21.6987C20.5851 21.7963 20.3322 21.8465 20.0769 21.8465H19.241Z" fill="white"/>
</svg>
