<svg width="165" height="165" viewBox="0 0 165 165" fill="none" xmlns="http://www.w3.org/2000/svg">
<rect x="0.5" y="0.891602" width="164.002" height="164.002" rx="82.001" fill="#303234" fill-opacity="0.53"/>
<g clip-path="url(#clip0_2919_24875)">
<path d="M114.875 110.643C114.875 110.643 119.5 110.643 119.5 106.018C119.5 101.393 114.875 87.5176 96.375 87.5176C77.875 87.5176 73.25 101.393 73.25 106.018C73.25 110.643 77.875 110.643 77.875 110.643H114.875ZM77.9767 106.018L77.875 105.999C77.8796 104.778 78.6474 101.235 81.39 98.0441C83.943 95.0517 88.4292 92.1426 96.375 92.1426C104.316 92.1426 108.802 95.0563 111.36 98.0441C114.103 101.235 114.866 104.783 114.875 105.999L114.838 106.008L114.773 106.018H77.9767ZM96.375 78.2676C98.8283 78.2676 101.181 77.293 102.916 75.5583C104.65 73.8236 105.625 71.4708 105.625 69.0176C105.625 66.5643 104.65 64.2116 102.916 62.4768C101.181 60.7421 98.8283 59.7676 96.375 59.7676C93.9217 59.7676 91.569 60.7421 89.8343 62.4768C88.0996 64.2116 87.125 66.5643 87.125 69.0176C87.125 71.4708 88.0996 73.8236 89.8343 75.5583C91.569 77.293 93.9217 78.2676 96.375 78.2676ZM110.25 69.0176C110.25 70.8397 109.891 72.6439 109.194 74.3273C108.497 76.0107 107.475 77.5403 106.186 78.8287C104.898 80.1171 103.368 81.1391 101.685 81.8364C100.001 82.5337 98.1971 82.8926 96.375 82.8926C94.5529 82.8926 92.7487 82.5337 91.0653 81.8364C89.3819 81.1391 87.8523 80.1171 86.5639 78.8287C85.2755 77.5403 84.2535 76.0107 83.5562 74.3273C82.8589 72.6439 82.5 70.8397 82.5 69.0176C82.5 65.3377 83.9618 61.8085 86.5639 59.2065C89.166 56.6044 92.6951 55.1426 96.375 55.1426C100.055 55.1426 103.584 56.6044 106.186 59.2065C108.788 61.8085 110.25 65.3377 110.25 69.0176ZM77.579 88.8126C75.7279 88.234 73.8212 87.8512 71.8902 87.6702C70.8051 87.5644 69.7153 87.5134 68.625 87.5176C50.125 87.5176 45.5 101.393 45.5 106.018C45.5 109.101 47.0417 110.643 50.125 110.643H69.624C68.9387 109.199 68.5968 107.616 68.625 106.018C68.625 101.346 70.3686 96.5733 73.6663 92.5866C74.7901 91.2268 76.099 89.955 77.579 88.8126ZM68.255 92.1426C65.5194 96.2563 64.0409 101.078 64 106.018H50.125C50.125 104.815 50.8835 101.254 53.64 98.0441C56.1606 95.1026 60.5405 92.2351 68.255 92.1472V92.1426ZM52.4375 71.3301C52.4375 67.6502 53.8993 64.121 56.5014 61.519C59.1035 58.9169 62.6326 57.4551 66.3125 57.4551C69.9924 57.4551 73.5215 58.9169 76.1236 61.519C78.7257 64.121 80.1875 67.6502 80.1875 71.3301C80.1875 75.01 78.7257 78.5391 76.1236 81.1412C73.5215 83.7433 69.9924 85.2051 66.3125 85.2051C62.6326 85.2051 59.1035 83.7433 56.5014 81.1412C53.8993 78.5391 52.4375 75.01 52.4375 71.3301ZM66.3125 62.0801C63.8592 62.0801 61.5065 63.0546 59.7718 64.7893C58.0371 66.5241 57.0625 68.8768 57.0625 71.3301C57.0625 73.7833 58.0371 76.1361 59.7718 77.8708C61.5065 79.6055 63.8592 80.5801 66.3125 80.5801C68.7658 80.5801 71.1185 79.6055 72.8532 77.8708C74.5879 76.1361 75.5625 73.7833 75.5625 71.3301C75.5625 68.8768 74.5879 66.5241 72.8532 64.7893C71.1185 63.0546 68.7658 62.0801 66.3125 62.0801Z" fill="white"/>
</g>
<defs>
<clipPath id="clip0_2919_24875">
<rect width="74" height="74" fill="white" transform="translate(45.5 45.8926)"/>
</clipPath>
</defs>
</svg>
