<svg width="16" height="17" viewBox="0 0 16 17" fill="none" xmlns="http://www.w3.org/2000/svg">
<path d="M5.75781 6.13014C5.97919 5.64692 6.35541 5.25134 6.82692 5.00601C7.29843 4.76068 7.83829 4.67961 8.36106 4.77564C8.71912 4.8306 9.05931 4.96874 9.35433 5.17896C9.64934 5.38919 9.89097 5.66564 10.0598 5.98614C10.1814 6.24254 10.2473 6.52177 10.2533 6.80548C10.2593 7.08918 10.2052 7.37095 10.0946 7.63226C9.98394 7.89356 9.81926 8.12851 9.61136 8.32165C9.40346 8.51479 9.15705 8.66175 8.88831 8.75289C8.61435 8.85693 8.3773 9.03971 8.207 9.2782C8.03671 9.51669 7.94079 9.80024 7.93131 10.0931V10.6466" stroke="white" stroke-width="1.5" stroke-miterlimit="10" stroke-linecap="round"/>
<path d="M7.91016 12.5684H7.91616" stroke="white" stroke-width="2" stroke-linecap="round" stroke-linejoin="round"/>
<path d="M8 15.625C9.88967 15.625 11.7019 14.8743 13.0381 13.5381C14.3743 12.2019 15.125 10.3897 15.125 8.5C15.125 6.61033 14.3743 4.79806 13.0381 3.46186C11.7019 2.12567 9.88967 1.375 8 1.375C6.11033 1.375 4.29806 2.12567 2.96186 3.46186C1.62567 4.79806 0.875 6.61033 0.875 8.5C0.875 10.3897 1.62567 12.2019 2.96186 13.5381C4.29806 14.8743 6.11033 15.625 8 15.625Z" stroke="white" stroke-width="1.5" stroke-linecap="round" stroke-linejoin="round"/>
</svg>
