<svg width="28" height="28" viewBox="0 0 28 28" fill="none" xmlns="http://www.w3.org/2000/svg">
<path d="M13.9974 27.3337C6.6334 27.3337 0.664062 21.3643 0.664062 14.0003C0.664062 6.63633 6.6334 0.666992 13.9974 0.666992C21.3614 0.666992 27.3307 6.63633 27.3307 14.0003C27.3307 21.3643 21.3614 27.3337 13.9974 27.3337ZM13.9974 24.667C16.8264 24.667 19.5395 23.5432 21.5399 21.5428C23.5403 19.5424 24.6641 16.8293 24.6641 14.0003C24.6641 11.1713 23.5403 8.45824 21.5399 6.45785C19.5395 4.45747 16.8264 3.33366 13.9974 3.33366C11.1684 3.33366 8.45531 4.45747 6.45492 6.45785C4.45454 8.45824 3.33073 11.1713 3.33073 14.0003C3.33073 16.8293 4.45454 19.5424 6.45492 21.5428C8.45531 23.5432 11.1684 24.667 13.9974 24.667ZM13.9974 20.667C12.2293 20.667 10.5336 19.9646 9.28335 18.7144C8.03311 17.4641 7.33073 15.7684 7.33073 14.0003C7.33073 12.2322 8.03311 10.5365 9.28335 9.28628C10.5336 8.03604 12.2293 7.33366 13.9974 7.33366C15.7655 7.33366 17.4612 8.03604 18.7114 9.28628C19.9617 10.5365 20.6641 12.2322 20.6641 14.0003C20.6641 15.7684 19.9617 17.4641 18.7114 18.7144C17.4612 19.9646 15.7655 20.667 13.9974 20.667Z" fill="white"/>
</svg>
