<svg width="16" height="16" viewBox="0 0 16 16" fill="none" xmlns="http://www.w3.org/2000/svg">
<path d="M13.8516 13.8506V9.62559C13.8516 9.45319 13.92 9.28786 14.0419 9.16597C14.1638 9.04407 14.3292 8.97559 14.5016 8.97559C14.674 8.97559 14.8393 9.04407 14.9612 9.16597C15.0831 9.28786 15.1516 9.45319 15.1516 9.62559V14.5006C15.1516 14.673 15.0831 14.8383 14.9612 14.9602C14.8393 15.0821 14.674 15.1506 14.5016 15.1506H1.50156C1.32917 15.1506 1.16384 15.0821 1.04194 14.9602C0.920045 14.8383 0.851562 14.673 0.851562 14.5006V1.50059C0.851562 1.3282 0.920045 1.16287 1.04194 1.04097C1.16384 0.919068 1.32917 0.850586 1.50156 0.850586H6.37656C6.54895 0.850586 6.71428 0.919068 6.83618 1.04097C6.95808 1.16287 7.02656 1.3282 7.02656 1.50059C7.02656 1.67298 6.95808 1.83831 6.83618 1.96021C6.71428 2.0821 6.54895 2.15059 6.37656 2.15059H2.15156V13.8506H13.8516Z" fill="white"/>
<path d="M8.46258 8.46063C8.34053 8.58268 8.17499 8.65125 8.00238 8.65125C7.82977 8.65125 7.66424 8.58268 7.54218 8.46063C7.42013 8.33858 7.35156 8.17304 7.35156 8.00043C7.35156 7.82782 7.42013 7.66228 7.54218 7.54023L14.0422 1.04023C14.1026 0.979796 14.1744 0.931857 14.2533 0.89915C14.3323 0.866443 14.4169 0.849609 14.5024 0.849609C14.5879 0.849609 14.6725 0.866443 14.7514 0.89915C14.8304 0.931857 14.9021 0.979796 14.9626 1.04023C15.023 1.10066 15.071 1.17241 15.1037 1.25137C15.1364 1.33033 15.1532 1.41496 15.1532 1.50043C15.1532 1.5859 15.1364 1.67053 15.1037 1.74949C15.071 1.82845 15.023 1.9002 14.9626 1.96063L8.46258 8.46063Z" fill="white"/>
<path d="M15.1516 6.05059C15.1516 6.22298 15.0831 6.38831 14.9612 6.51021C14.8393 6.6321 14.674 6.70059 14.5016 6.70059C14.3292 6.70059 14.1638 6.6321 14.0419 6.51021C13.92 6.38831 13.8516 6.22298 13.8516 6.05059V1.50059C13.8516 1.3282 13.92 1.16287 14.0419 1.04097C14.1638 0.919068 14.3292 0.850586 14.5016 0.850586C14.674 0.850586 14.8393 0.919068 14.9612 1.04097C15.0831 1.16287 15.1516 1.3282 15.1516 1.50059V6.05059Z" fill="white"/>
<path d="M9.95078 2.15059C9.77839 2.15059 9.61306 2.0821 9.49116 1.96021C9.36926 1.83831 9.30078 1.67298 9.30078 1.50059C9.30078 1.3282 9.36926 1.16287 9.49116 1.04097C9.61306 0.919068 9.77839 0.850586 9.95078 0.850586H14.5008C14.6732 0.850586 14.8385 0.919068 14.9604 1.04097C15.0823 1.16287 15.1508 1.3282 15.1508 1.50059C15.1508 1.67298 15.0823 1.83831 14.9604 1.96021C14.8385 2.0821 14.6732 2.15059 14.5008 2.15059H9.95078Z" fill="white"/>
</svg>
