<svg width="21" height="21" viewBox="0 0 21 21" fill="none" xmlns="http://www.w3.org/2000/svg">
<path d="M3.86211 4.85769C3.79487 4.91597 3.74085 4.98794 3.70367 5.06878C3.66648 5.14961 3.64699 5.23746 3.64648 5.32644V18.4514C3.64648 18.6172 3.71233 18.7762 3.82954 18.8934C3.94675 19.0106 4.10572 19.0764 4.27148 19.0764C4.43724 19.0764 4.59622 19.0106 4.71343 18.8934C4.83064 18.7762 4.89648 18.6172 4.89648 18.4514V14.996C6.98945 13.3428 8.79258 14.2343 10.8691 15.2624C12.1504 15.896 13.5301 16.5788 15.0098 16.5788C16.098 16.5788 17.2395 16.2077 18.4332 15.1725C18.5004 15.1143 18.5545 15.0423 18.5916 14.9615C18.6288 14.8806 18.6483 14.7928 18.6488 14.7038V5.32644C18.6485 5.20648 18.6137 5.08913 18.5486 4.98841C18.4834 4.88769 18.3906 4.80785 18.2813 4.75842C18.172 4.709 18.0508 4.69208 17.9321 4.70968C17.8135 4.72728 17.7024 4.77866 17.6121 4.85769C15.4246 6.75066 13.5715 5.83347 11.4238 4.77019C9.19883 3.66707 6.67617 2.41941 3.86211 4.85769ZM17.3965 14.4085C15.3035 16.0616 13.5004 15.1694 11.4238 14.1421C9.4707 13.1772 7.29805 12.1007 4.89648 13.4858V5.62253C6.98945 3.96941 8.79258 4.86082 10.8691 5.88816C12.8223 6.853 14.9957 7.92957 17.3965 6.54441V14.4085Z" fill="white"/>
</svg>
