<svg width="26" height="26" viewBox="0 0 26 26" fill="none" xmlns="http://www.w3.org/2000/svg">
<path d="M6.5 13.1123C6.28451 13.1123 6.07785 13.1979 5.92547 13.3503C5.7731 13.5027 5.6875 13.7094 5.6875 13.9248C5.6875 18.0328 8.94292 21.3955 13 21.3955C17.0571 21.3955 20.3125 18.0328 20.3125 13.9248C20.3125 10.5611 18.1296 7.69676 15.1114 6.76942L16.2164 6.11617C16.402 6.00656 16.5365 5.82771 16.5902 5.61896C16.644 5.4102 16.6126 5.18866 16.503 5.00305C16.3933 4.81744 16.2145 4.68298 16.0057 4.62924C15.797 4.5755 15.5754 4.6069 15.3898 4.71651L12.4053 6.48234C12.2222 6.59047 12.0888 6.76606 12.0337 6.97144C11.9786 7.17681 12.0062 7.3956 12.1106 7.58084L13.8342 10.638C13.8866 10.731 13.9568 10.8127 14.0408 10.8785C14.1248 10.9444 14.221 10.993 14.3238 11.0217C14.4266 11.0504 14.5341 11.0585 14.64 11.0456C14.746 11.0328 14.8484 10.9992 14.9413 10.9468C15.0343 10.8943 15.116 10.8241 15.1819 10.7401C15.2477 10.6561 15.2963 10.5599 15.325 10.4571C15.3537 10.3543 15.3618 10.2469 15.349 10.1409C15.3361 10.0349 15.3025 9.93256 15.2501 9.83959L14.3509 8.24492C16.8296 8.86676 18.6875 11.1602 18.6875 13.9238C18.6875 17.1716 16.1232 19.7705 13 19.7705C9.87675 19.7705 7.3125 17.1716 7.3125 13.9248C7.3125 13.7094 7.2269 13.5027 7.07452 13.3503C6.92215 13.1979 6.71549 13.1123 6.5 13.1123Z" fill="white"/>
</svg>
