<svg width="28" height="28" viewBox="0 0 28 28" fill="none" xmlns="http://www.w3.org/2000/svg">
<rect width="28" height="28" rx="14" fill="url(#paint0_linear_3077_25646)"/>
<path d="M17.8423 6.31686C18.8602 6.3199 19.8356 6.72564 20.5554 7.44545C21.2753 8.16527 21.681 9.14068 21.684 10.1586V17.8414C21.681 18.8594 21.2753 19.8348 20.5554 20.5546C19.8356 21.2744 18.8602 21.6801 17.8423 21.6832H10.1595C9.14153 21.6801 8.16613 21.2744 7.44631 20.5546C6.72649 19.8348 6.32076 18.8594 6.31772 17.8414V10.1586C6.32076 9.14068 6.72649 8.16527 7.44631 7.44545C8.16613 6.72564 9.14153 6.3199 10.1595 6.31686H17.8423ZM17.8423 4.7804H10.1595C7.2014 4.7804 4.78125 7.20055 4.78125 10.1586V17.8414C4.78125 20.7995 7.2014 23.2197 10.1595 23.2197H17.8423C20.8004 23.2197 23.2205 20.7995 23.2205 17.8414V10.1586C23.2205 7.20055 20.8004 4.7804 17.8423 4.7804Z" fill="white"/>
<path d="M18.9943 10.1594C18.7663 10.1594 18.5435 10.0918 18.354 9.96518C18.1645 9.83854 18.0168 9.65855 17.9295 9.44797C17.8423 9.23739 17.8195 9.00567 17.864 8.78211C17.9084 8.55856 18.0182 8.35321 18.1794 8.19204C18.3405 8.03086 18.5459 7.9211 18.7694 7.87664C18.993 7.83217 19.2247 7.85499 19.4353 7.94222C19.6459 8.02944 19.8259 8.17716 19.9525 8.36668C20.0791 8.5562 20.1467 8.77901 20.1467 9.00695C20.147 9.15838 20.1175 9.30839 20.0597 9.44836C20.0019 9.58833 19.917 9.7155 19.8099 9.82258C19.7028 9.92966 19.5756 10.0145 19.4357 10.0723C19.2957 10.1301 19.1457 10.1597 18.9943 10.1594ZM14.0004 10.9274C14.6083 10.9274 15.2025 11.1077 15.7079 11.4454C16.2133 11.7831 16.6072 12.2631 16.8398 12.8247C17.0725 13.3862 17.1333 14.0042 17.0147 14.6004C16.8961 15.1965 16.6034 15.7441 16.1736 16.174C15.7438 16.6038 15.1962 16.8965 14.6 17.0151C14.0038 17.1337 13.3859 17.0728 12.8243 16.8402C12.2627 16.6076 11.7828 16.2136 11.445 15.7082C11.1073 15.2028 10.9271 14.6086 10.9271 14.0008C10.928 13.1859 11.252 12.4047 11.8282 11.8286C12.4044 11.2524 13.1856 10.9283 14.0004 10.9274ZM14.0004 9.39096C13.0887 9.39096 12.1974 9.66132 11.4394 10.1679C10.6813 10.6744 10.0904 11.3943 9.74153 12.2367C9.39262 13.079 9.30133 14.0059 9.4792 14.9001C9.65707 15.7943 10.0961 16.6157 10.7408 17.2604C11.3855 17.9051 12.2069 18.3441 13.1011 18.522C13.9953 18.6999 14.9222 18.6086 15.7645 18.2597C16.6069 17.9108 17.3268 17.3199 17.8334 16.5619C18.3399 15.8038 18.6103 14.9125 18.6103 14.0008C18.6103 12.7782 18.1246 11.6057 17.2601 10.7411C16.3956 9.87664 15.223 9.39096 14.0004 9.39096Z" fill="white"/>
<defs>
<linearGradient id="paint0_linear_3077_25646" x1="14" y1="0" x2="14" y2="28" gradientUnits="userSpaceOnUse">
<stop stop-color="#833AB4"/>
<stop offset="1" stop-color="#FD1D1D"/>
</linearGradient>
</defs>
</svg>
