<svg width="28" height="28" viewBox="0 0 28 28" fill="none" xmlns="http://www.w3.org/2000/svg">
<rect width="28" height="28" rx="14" fill="#0480F4"/>
<g clip-path="url(#clip0_3077_25650)">
<path d="M25.1992 12.0563C25.1992 5.98118 20.2743 1.05627 14.1992 1.05627C8.12413 1.05627 3.19922 5.98118 3.19922 12.0563C3.19922 17.5466 7.22178 22.0975 12.4805 22.9226V15.236H9.6875V12.0563H12.4805V9.63284C12.4805 6.87596 14.1227 5.35315 16.6354 5.35315C17.8388 5.35315 19.0977 5.56799 19.0977 5.56799V8.27502H17.7106C16.3441 8.27502 15.918 9.12297 15.918 9.99292V12.0563H18.9688L18.4811 15.236H15.918V22.9226C21.1767 22.0975 25.1992 17.5467 25.1992 12.0563Z" fill="#0480F4"/>
<path d="M18.0865 16.0216L18.5742 12.8419H15.5234V10.7786C15.5234 9.90853 15.9496 9.06067 17.3161 9.06067H18.7031V6.35364C18.7031 6.35364 17.4443 6.13879 16.2408 6.13879C13.7282 6.13879 12.0859 7.66161 12.0859 10.4185V12.8419H9.29297V16.0216H12.0859V23.7083C12.6545 23.7974 13.2292 23.8421 13.8047 23.8419C14.3802 23.8421 14.9549 23.7974 15.5234 23.7083V16.0216H18.0865Z" fill="white"/>
</g>
<defs>
<clipPath id="clip0_3077_25650">
<rect width="22" height="22" fill="white" transform="translate(3.19922 4.19897)"/>
</clipPath>
</defs>
</svg>
