<svg width="28" height="28" viewBox="0 0 28 28" fill="none" xmlns="http://www.w3.org/2000/svg">
<g clip-path="url(#clip0_3077_25654)">
<path d="M13.832 27.3333C21.2879 27.3333 27.332 21.2891 27.332 13.8333C27.332 6.37741 21.2879 0.333252 13.832 0.333252C6.37619 0.333252 0.332031 6.37741 0.332031 13.8333C0.332031 21.2891 6.37619 27.3333 13.832 27.3333Z" fill="#0077B5"/>
<path fill-rule="evenodd" clip-rule="evenodd" d="M9.95319 8.33228C9.95319 9.05858 9.40019 9.64635 8.5354 9.64635C7.70426 9.64635 7.15121 9.05858 7.16836 8.33228C7.15121 7.57068 7.70421 7 8.55197 7C9.40019 7 9.93662 7.57068 9.95319 8.33228ZM7.23789 19.1445V10.6845H9.86709V19.1439L7.23789 19.1445Z" fill="white"/>
<path fill-rule="evenodd" clip-rule="evenodd" d="M11.9719 13.3845C11.9719 12.3293 11.9371 11.4296 11.9023 10.6857H14.1861L14.3075 11.8447H14.3594C14.7054 11.3083 15.5702 10.4958 16.9715 10.4958C18.7012 10.4958 19.9987 11.6377 19.9987 14.1279V19.1457H17.3694V14.4573C17.3694 13.3668 16.9892 12.6234 16.0377 12.6234C15.3109 12.6234 14.8787 13.125 14.706 13.6091C14.6364 13.7824 14.6022 14.0241 14.6022 14.2669V19.1457H11.9729V13.3845H11.9719Z" fill="white"/>
</g>
<defs>
<clipPath id="clip0_3077_25654">
<rect width="28" height="28" fill="white"/>
</clipPath>
</defs>
</svg>
