<svg width="21" height="20" viewBox="0 0 21 20" fill="none" xmlns="http://www.w3.org/2000/svg">
<g clip-path="url(#clip0_3317_24292)">
<path d="M15.9909 7.7781H15.9198C15.8156 7.77718 15.714 7.74489 15.6284 7.68543C15.5428 7.62598 15.4771 7.54211 15.4398 7.44477C15.4006 7.35077 15.3902 7.24722 15.4099 7.1473C15.4297 7.04738 15.4788 6.95561 15.5509 6.88366L15.6015 6.8331C15.9062 6.52718 16.0773 6.11297 16.0773 5.68116C16.0773 5.24935 15.9062 4.83513 15.6015 4.52921L14.762 3.69033C14.4563 3.38534 14.0422 3.21406 13.6103 3.21406C13.1785 3.21406 12.7644 3.38534 12.4587 3.69033L12.4081 3.74088C12.3336 3.81261 12.2398 3.86104 12.1382 3.88022C12.0366 3.8994 11.9316 3.8885 11.8361 3.84886C11.7406 3.80921 11.6587 3.74255 11.6006 3.65706C11.5424 3.57156 11.5105 3.47094 11.5087 3.36755V3.29588C11.5082 2.86401 11.3365 2.44995 11.0311 2.14457C10.7257 1.83919 10.3117 1.66743 9.87979 1.66699H8.69312C8.26125 1.66743 7.84719 1.83919 7.54181 2.14457C7.23643 2.44995 7.06468 2.86401 7.06424 3.29588V3.36755C7.06153 3.4702 7.02912 3.56986 6.97094 3.65447C6.91276 3.73908 6.8313 3.80502 6.73642 3.84429C6.64154 3.88355 6.53731 3.89448 6.43635 3.87573C6.33539 3.85698 6.24203 3.80937 6.16757 3.73866L6.11979 3.6881C5.81411 3.38312 5.39993 3.21183 4.96812 3.21183C4.53632 3.21183 4.12214 3.38312 3.81646 3.6881L2.97424 4.52699C2.66949 4.83291 2.49838 5.24713 2.49838 5.67894C2.49838 6.11075 2.66949 6.52496 2.97424 6.83088L3.02479 6.88144C3.0976 6.95593 3.14633 7.05058 3.16466 7.15312C3.18299 7.25566 3.17006 7.36134 3.12757 7.45644C3.08945 7.55116 3.02394 7.63236 2.93943 7.68966C2.85491 7.74696 2.75523 7.77775 2.65312 7.7781H2.58201C2.15014 7.77854 1.73608 7.9503 1.4307 8.25568C1.12532 8.56106 0.953566 8.97512 0.953125 9.40699V10.5937C0.953566 11.0255 1.12532 11.4396 1.4307 11.745C1.73608 12.0503 2.15014 12.2221 2.58201 12.2225H2.65312C2.75736 12.2235 2.8589 12.2558 2.94451 12.3152C3.03013 12.3747 3.09585 12.4585 3.13312 12.5559C3.17236 12.6499 3.18275 12.7534 3.16297 12.8533C3.14318 12.9533 3.09411 13.045 3.02201 13.117L2.97146 13.1675C2.66671 13.4735 2.4956 13.8877 2.4956 14.3195C2.4956 14.7513 2.66671 15.1655 2.97146 15.4714L3.81035 16.3098C4.11598 16.6151 4.5303 16.7865 4.96229 16.7865C5.39428 16.7865 5.8086 16.6151 6.11424 16.3098L6.16479 16.2592C6.23932 16.1865 6.33398 16.1378 6.4365 16.1195C6.53902 16.1011 6.64468 16.114 6.73979 16.1564C6.83451 16.1944 6.91574 16.2598 6.97305 16.3442C7.03036 16.4287 7.06115 16.5283 7.06146 16.6303V16.702C7.06131 16.9163 7.10342 17.1285 7.18536 17.3266C7.26731 17.5246 7.38749 17.7045 7.53904 17.8561C7.69058 18.0076 7.87051 18.1278 8.06854 18.2098C8.26657 18.2917 8.47881 18.3338 8.69312 18.3337H9.87979C10.3117 18.3332 10.7257 18.1615 11.0311 17.8561C11.3365 17.5507 11.5082 17.1366 11.5087 16.7048V16.6331C11.5114 16.5305 11.5438 16.4308 11.602 16.3462C11.6602 16.2616 11.7416 16.1956 11.8365 16.1564C11.9314 16.1171 12.0356 16.1062 12.1366 16.1249C12.2375 16.1437 12.3309 16.1913 12.4053 16.262L12.4559 16.3125C12.7616 16.6175 13.1758 16.7888 13.6076 16.7888C14.0394 16.7888 14.4536 16.6175 14.7592 16.3125L15.5987 15.4742C15.9034 15.1683 16.0745 14.7541 16.0745 14.3223C16.0745 13.8905 15.9034 13.4762 15.5987 13.1703L15.5481 13.1198C15.4753 13.0453 15.4266 12.9506 15.4083 12.8481C15.3899 12.7455 15.4029 12.6399 15.4453 12.5448C15.4834 12.4499 15.5489 12.3686 15.6334 12.3112C15.7179 12.2538 15.8176 12.2229 15.9198 12.2225H15.9909C16.4228 12.2221 16.8368 12.0503 17.1422 11.745C17.4476 11.4396 17.6193 11.0255 17.6198 10.5937V9.40699C17.6193 8.97512 17.4476 8.56106 17.1422 8.25568C16.8368 7.9503 16.4228 7.77854 15.9909 7.7781ZM16.5087 10.5937C16.5085 10.7309 16.4539 10.8625 16.3569 10.9596C16.2598 11.0567 16.1282 11.1113 15.9909 11.1114H15.9198C15.5974 11.1142 15.2829 11.2118 15.0156 11.392C14.7483 11.5723 14.54 11.8272 14.4166 12.1251C14.2932 12.4229 14.2602 12.7505 14.3217 13.067C14.3832 13.3835 14.5366 13.6748 14.7626 13.9048L14.8126 13.9553C14.9096 14.0526 14.964 14.1844 14.964 14.3217C14.964 14.4591 14.9096 14.5908 14.8126 14.6881L13.9731 15.5264C13.876 15.6235 13.7443 15.6781 13.607 15.6781C13.4697 15.6781 13.338 15.6235 13.2409 15.5264L13.1909 15.4759C12.9609 15.2501 12.6695 15.0971 12.3531 15.0357C12.0367 14.9743 11.7093 15.0073 11.4115 15.1307C11.1138 15.254 10.8589 15.4623 10.6786 15.7294C10.4983 15.9965 10.4006 16.3108 10.3976 16.6331V16.7048C10.3974 16.842 10.3428 16.9737 10.2458 17.0707C10.1487 17.1678 10.0171 17.2224 9.87979 17.2225H8.69312C8.55585 17.2224 8.42423 17.1678 8.32716 17.0707C8.23009 16.9737 8.17549 16.842 8.17535 16.7048V16.6331C8.17379 16.3102 8.07689 15.9949 7.89681 15.7268C7.71674 15.4588 7.4615 15.2499 7.16314 15.1263C6.86477 15.0028 6.53657 14.9701 6.2197 15.0324C5.90283 15.0947 5.61141 15.2491 5.38201 15.4764L5.33146 15.527C5.23421 15.6238 5.10257 15.6782 4.96535 15.6782C4.82812 15.6782 4.69648 15.6238 4.59924 15.527L3.76035 14.6887C3.66335 14.5914 3.60889 14.4596 3.60889 14.3223C3.60889 14.1849 3.66335 14.0531 3.76035 13.9559L3.8109 13.9053C4.03712 13.6754 4.19062 13.3839 4.25223 13.0673C4.31384 12.7507 4.28085 12.4229 4.15736 12.1249C4.03388 11.8269 3.82537 11.5719 3.55786 11.3917C3.29034 11.2114 2.97568 11.114 2.65312 11.1114H2.58201C2.44474 11.1113 2.31312 11.0567 2.21605 10.9596C2.11898 10.8625 2.06438 10.7309 2.06424 10.5937V9.40699C2.06438 9.26971 2.11898 9.1381 2.21605 9.04103C2.31312 8.94396 2.44474 8.88936 2.58201 8.88921H2.65312C2.97552 8.88647 3.28997 8.78889 3.55728 8.60864C3.82459 8.42839 4.03293 8.17345 4.15633 7.87559C4.27973 7.57773 4.31272 7.25014 4.25119 6.93366C4.18967 6.61718 4.03635 6.32581 3.81035 6.09588L3.76035 6.04532C3.66339 5.94815 3.60894 5.81649 3.60894 5.67921C3.60894 5.54194 3.66339 5.41028 3.76035 5.3131L4.59924 4.47366C4.69634 4.37656 4.82803 4.32202 4.96535 4.32202C5.10266 4.32202 5.23436 4.37656 5.33146 4.47366L5.38146 4.52421C5.61143 4.75011 5.90278 4.90335 6.21921 4.96485C6.53565 5.02635 6.86318 4.9934 7.16103 4.87009C7.45887 4.74679 7.71385 4.53858 7.89421 4.2714C8.07457 4.00423 8.17235 3.68989 8.17535 3.36755V3.29588C8.17549 3.1586 8.23009 3.02699 8.32716 2.92992C8.42423 2.83285 8.55585 2.77825 8.69312 2.7781H9.87979C10.0171 2.77825 10.1487 2.83285 10.2458 2.92992C10.3428 3.02699 10.3974 3.1586 10.3976 3.29588V3.36755C10.4004 3.68989 10.4981 4.00427 10.6784 4.2715C10.8587 4.53873 11.1136 4.74698 11.4114 4.87031C11.7093 4.99364 12.0368 5.02658 12.3533 4.96504C12.6697 4.90349 12.961 4.75018 13.1909 4.52421L13.2415 4.47366C13.3386 4.37656 13.4703 4.32202 13.6076 4.32202C13.7449 4.32202 13.8766 4.37656 13.9737 4.47366L14.8126 5.3131C14.9095 5.41028 14.964 5.54194 14.964 5.67921C14.964 5.81649 14.9095 5.94815 14.8126 6.04532L14.762 6.09588C14.536 6.32585 14.3827 6.61727 14.3211 6.9338C14.2596 7.25033 14.2927 7.57796 14.4161 7.87584C14.5396 8.17372 14.748 8.42866 15.0154 8.60887C15.2828 8.78908 15.5974 8.88658 15.9198 8.88921H15.9909C16.1282 8.88936 16.2598 8.94396 16.3569 9.04103C16.4539 9.1381 16.5085 9.26971 16.5087 9.40699V10.5937Z" fill="white"/>
<path d="M9.28733 6.11133C8.51818 6.11133 7.7663 6.33941 7.12678 6.76672C6.48725 7.19404 5.9888 7.8014 5.69446 8.512C5.40012 9.22261 5.32311 10.0045 5.47316 10.7589C5.62322 11.5133 5.9936 12.2062 6.53747 12.7501C7.08134 13.2939 7.77427 13.6643 8.52864 13.8144C9.28301 13.9644 10.0649 13.8874 10.7755 13.5931C11.4861 13.2987 12.0935 12.8003 12.5208 12.1608C12.9481 11.5212 13.1762 10.7694 13.1762 10.0002C13.175 8.96918 12.7649 7.98071 12.0359 7.25166C11.3068 6.5226 10.3184 6.1125 9.28733 6.11133ZM9.28733 12.778C8.73794 12.778 8.20088 12.6151 7.74408 12.3099C7.28727 12.0046 6.93124 11.5708 6.721 11.0632C6.51075 10.5557 6.45574 9.99714 6.56292 9.4583C6.67011 8.91946 6.93466 8.42451 7.32314 8.03603C7.71162 7.64755 8.20657 7.38299 8.74541 7.27581C9.28425 7.16863 9.84277 7.22364 10.3503 7.43388C10.8579 7.64413 11.2917 8.00016 11.597 8.45697C11.9022 8.91377 12.0651 9.45082 12.0651 10.0002C12.0642 10.7367 11.7713 11.4427 11.2505 11.9634C10.7298 12.4842 10.0238 12.7771 9.28733 12.778Z" fill="white"/>
</g>
<defs>
<clipPath id="clip0_3317_24292">
<rect width="20" height="20" fill="white" transform="translate(0.289062)"/>
</clipPath>
</defs>
</svg>
