<svg width="16" height="17" viewBox="0 0 16 17" fill="none" xmlns="http://www.w3.org/2000/svg">
<path fill-rule="evenodd" clip-rule="evenodd" d="M9.60987 2.86815C9.60993 2.23539 9.83154 1.62262 10.2362 1.13621C10.6409 0.649788 11.2032 0.320426 11.8254 0.205286C12.4476 0.0901451 13.0904 0.196495 13.6424 0.505877C14.1944 0.815258 14.6206 1.30814 14.8471 1.89898C15.0736 2.48981 15.0861 3.1413 14.8823 3.74037C14.6786 4.33944 14.2716 4.84827 13.7318 5.17854C13.1921 5.50881 12.5538 5.63968 11.9276 5.54842C11.3015 5.45717 10.727 5.14956 10.304 4.67898L8.03987 5.91398L5.50654 7.36148C5.86106 7.98474 5.95397 8.72316 5.76487 9.41482L10.304 11.8906C10.7481 11.3972 11.358 11.0841 12.0177 11.0107C12.6775 10.9374 13.3412 11.1089 13.8829 11.4926C14.4245 11.8764 14.8063 12.4458 14.9558 13.0925C15.1053 13.7393 15.0121 14.4185 14.6938 15.001C14.3755 15.5836 13.8544 16.0289 13.2294 16.2525C12.6043 16.4762 11.9189 16.4624 11.3034 16.214C10.6878 15.9655 10.1849 15.4996 9.89022 14.9048C9.59554 14.3099 9.52958 13.6276 9.70487 12.9873L5.1657 10.5123C4.81976 10.8971 4.37085 11.1747 3.87207 11.3123C3.37329 11.45 2.84553 11.4418 2.35123 11.2889C1.85693 11.136 1.41678 10.8447 1.08286 10.4494C0.748937 10.0542 0.535223 9.57154 0.467004 9.05864C0.398785 8.54574 0.478915 8.02403 0.697913 7.55525C0.916911 7.08646 1.26561 6.69022 1.70275 6.41341C2.1399 6.13659 2.64719 5.99079 3.1646 5.99326C3.68201 5.99572 4.18788 6.14635 4.62237 6.42732L7.4307 4.82232L9.70487 3.58148C9.64209 3.34889 9.61015 3.10906 9.60987 2.86815ZM12.3182 1.40982C11.9314 1.40982 11.5605 1.56346 11.287 1.83695C11.0135 2.11044 10.8599 2.48138 10.8599 2.86815C10.8599 3.25492 11.0135 3.62586 11.287 3.89935C11.5605 4.17284 11.9314 4.32648 12.3182 4.32648C12.705 4.32648 13.0759 4.17284 13.3494 3.89935C13.6229 3.62586 13.7765 3.25492 13.7765 2.86815C13.7765 2.48138 13.6229 2.11044 13.3494 1.83695C13.0759 1.56346 12.705 1.40982 12.3182 1.40982ZM3.15154 7.24315C2.76476 7.24315 2.39383 7.39679 2.12034 7.67028C1.84685 7.94378 1.6932 8.31471 1.6932 8.70148C1.6932 9.08826 1.84685 9.45919 2.12034 9.73268C2.39383 10.0062 2.76476 10.1598 3.15154 10.1598C3.53831 10.1598 3.90924 10.0062 4.18273 9.73268C4.45622 9.45919 4.60987 9.08826 4.60987 8.70148C4.60987 8.31471 4.45622 7.94378 4.18273 7.67028C3.90924 7.39679 3.53831 7.24315 3.15154 7.24315ZM10.8599 13.7015C10.8599 13.3147 11.0135 12.9438 11.287 12.6703C11.5605 12.3968 11.9314 12.2431 12.3182 12.2431C12.705 12.2431 13.0759 12.3968 13.3494 12.6703C13.6229 12.9438 13.7765 13.3147 13.7765 13.7015C13.7765 14.0883 13.6229 14.4592 13.3494 14.7327C13.0759 15.0062 12.705 15.1598 12.3182 15.1598C11.9314 15.1598 11.5605 15.0062 11.287 14.7327C11.0135 14.4592 10.8599 14.0883 10.8599 13.7015Z" fill="white"/>
</svg>
