<svg width="72" height="73" viewBox="0 0 72 73" fill="none" xmlns="http://www.w3.org/2000/svg">
<path d="M24.749 61.4248C25.9917 61.4248 26.999 60.4174 26.999 59.1748C26.999 57.9322 25.9917 56.9248 24.749 56.9248C23.5064 56.9248 22.499 57.9322 22.499 59.1748C22.499 60.4174 23.5064 61.4248 24.749 61.4248Z" stroke="white" stroke-width="4.5" stroke-linecap="round" stroke-linejoin="round"/>
<path d="M56.249 61.4248C57.4917 61.4248 58.499 60.4174 58.499 59.1748C58.499 57.9322 57.4917 56.9248 56.249 56.9248C55.0064 56.9248 53.999 57.9322 53.999 59.1748C53.999 60.4174 55.0064 61.4248 56.249 61.4248Z" stroke="white" stroke-width="4.5" stroke-linecap="round" stroke-linejoin="round"/>
<path d="M6.74902 11.9248H15.749L22.499 50.1748H58.499" stroke="white" stroke-width="4.5" stroke-linecap="round" stroke-linejoin="round"/>
<path d="M22.499 41.1748H57.5765C57.8367 41.175 58.0889 41.085 58.2902 40.9201C58.4915 40.7552 58.6294 40.5257 58.6804 40.2706L62.7304 20.0206C62.7631 19.8573 62.7591 19.6888 62.7188 19.5272C62.6784 19.3657 62.6027 19.2151 62.4971 19.0863C62.3915 18.9576 62.2586 18.8539 62.1081 18.7827C61.9575 18.7115 61.793 18.6747 61.6265 18.6748H17.999" stroke="white" stroke-width="4.5" stroke-linecap="round" stroke-linejoin="round"/>
</svg>
