<svg width="21" height="20" viewBox="0 0 21 20" fill="none" xmlns="http://www.w3.org/2000/svg">
<path d="M4.47898 6.191H5.43136M7.33612 6.191H8.2885M10.1933 6.191H11.1456M4.47898 12.8577H5.43136M7.33612 12.8577H8.2885M10.1933 12.8577H11.1456M5.90755 2.36814V2.38147C5.90755 2.88665 6.10823 3.37113 6.46544 3.72834C6.82266 4.08556 7.30714 4.28624 7.81231 4.28624C8.31749 4.28624 8.80197 4.08556 9.15918 3.72834C9.5164 3.37113 9.71708 2.88665 9.71708 2.38147L9.71612 2.36719H12.098C12.3506 2.36719 12.5929 2.46753 12.7715 2.64613C12.9501 2.82474 13.0504 3.06698 13.0504 3.31957V15.7148C13.0504 15.9674 12.9501 16.2096 12.7715 16.3882C12.5929 16.5668 12.3506 16.6672 12.098 16.6672H9.71708C9.71708 16.162 9.5164 15.6775 9.15918 15.3203C8.80197 14.9631 8.31749 14.7624 7.81231 14.7624C7.30714 14.7624 6.82266 14.9631 6.46544 15.3203C6.10823 15.6775 5.90755 16.162 5.90755 16.6672H3.5266C3.27401 16.6672 3.03177 16.5668 2.85316 16.3882C2.67456 16.2096 2.57422 15.9674 2.57422 15.7148V3.31957C2.57422 3.06698 2.67456 2.82474 2.85316 2.64613C3.03177 2.46753 3.27401 2.36719 3.5266 2.36719L5.90755 2.36814Z" stroke="white" stroke-width="1.5" stroke-linecap="round" stroke-linejoin="round"/>
</svg>
