<svg width="56" height="51" viewBox="0 0 56 51" fill="none" xmlns="http://www.w3.org/2000/svg">
<g clip-path="url(#clip0_2919_25514)">
<path opacity="0.4" d="M28 50.5C41.807 50.5 53 39.3072 53 25.5C53 11.6929 41.807 0.5 28 0.5C14.1929 0.5 3 11.6929 3 25.5C3 39.3072 14.1929 50.5 28 50.5Z" fill="#93989A"/>
<path d="M28 12.8246C22.825 12.8246 18.625 17.0246 18.625 22.1995C18.625 27.2745 22.6 31.3995 27.875 31.5495C27.95 31.5495 28.05 31.5495 28.1 31.5495C28.15 31.5495 28.225 31.5495 28.275 31.5495C28.3 31.5495 28.325 31.5495 28.325 31.5495C33.375 31.3745 37.35 27.2745 37.375 22.1995C37.375 17.0246 33.175 12.8246 28 12.8246Z" fill="#93989A"/>
<path d="M44.9547 43.875C40.5047 47.975 34.5547 50.5 28.0047 50.5C21.4547 50.5 15.5047 47.975 11.0547 43.875C11.6547 41.6 13.2797 39.525 15.6547 37.925C22.4797 33.375 33.5797 33.375 40.3547 37.925C42.7547 39.525 44.3547 41.6 44.9547 43.875Z" fill="#93989A"/>
</g>
<defs>
<clipPath id="clip0_2919_25514">
<rect width="56" height="50" fill="white" transform="translate(0 0.5)"/>
</clipPath>
</defs>
</svg>
