<svg width="21" height="20" viewBox="0 0 21 20" fill="none" xmlns="http://www.w3.org/2000/svg">
<path d="M6.68992 6.19002H7.6423M9.54706 6.19002H10.4994M12.4042 6.19002H13.3566M6.68992 12.8567H7.6423M9.54706 12.8567H10.4994M12.4042 12.8567H13.3566M8.11849 2.36716V2.3805C8.11849 2.88567 8.31917 3.37015 8.67638 3.72737C9.03359 4.08458 9.51808 4.28526 10.0233 4.28526C10.5284 4.28526 11.0129 4.08458 11.3701 3.72737C11.7273 3.37015 11.928 2.88567 11.928 2.3805L11.9271 2.36621H14.309C14.5616 2.36621 14.8038 2.46655 14.9824 2.64516C15.161 2.82376 15.2613 3.066 15.2613 3.31859V15.7138C15.2613 15.9664 15.161 16.2087 14.9824 16.3873C14.8038 16.5659 14.5616 16.6662 14.309 16.6662H11.928C11.928 16.161 11.7273 15.6766 11.3701 15.3193C11.0129 14.9621 10.5284 14.7614 10.0233 14.7614C9.51808 14.7614 9.03359 14.9621 8.67638 15.3193C8.31917 15.6766 8.11849 16.161 8.11849 16.6662H5.73754C5.48495 16.6662 5.24271 16.5659 5.0641 16.3873C4.8855 16.2087 4.78516 15.9664 4.78516 15.7138V3.31859C4.78516 3.066 4.8855 2.82376 5.0641 2.64516C5.24271 2.46655 5.48495 2.36621 5.73754 2.36621L8.11849 2.36716Z" stroke="white" stroke-width="0.952381" stroke-linecap="round" stroke-linejoin="round"/>
</svg>
