<svg width="11" height="11" viewBox="0 0 11 11" fill="none" xmlns="http://www.w3.org/2000/svg">
<path d="M8.58203 1.86328H7.58203V1.36328C7.58203 1.23067 7.52935 1.1035 7.43559 1.00973C7.34182 0.91596 7.21464 0.863281 7.08203 0.863281C6.94942 0.863281 6.82225 0.91596 6.72848 1.00973C6.63471 1.1035 6.58203 1.23067 6.58203 1.36328V1.86328H3.58203V1.36328C3.58203 1.23067 3.52935 1.1035 3.43558 1.00973C3.34182 0.91596 3.21464 0.863281 3.08203 0.863281C2.94942 0.863281 2.82225 0.91596 2.72848 1.00973C2.63471 1.1035 2.58203 1.23067 2.58203 1.36328V1.86328H1.58203C1.18421 1.86328 0.802676 2.02132 0.521371 2.30262C0.240067 2.58393 0.0820313 2.96546 0.0820312 3.36328V9.36328C0.0820313 9.76111 0.240067 10.1426 0.521371 10.4239C0.802676 10.7052 1.18421 10.8633 1.58203 10.8633H8.58203C8.97986 10.8633 9.36139 10.7052 9.64269 10.4239C9.924 10.1426 10.082 9.76111 10.082 9.36328V3.36328C10.082 2.96546 9.924 2.58393 9.64269 2.30262C9.36139 2.02132 8.97986 1.86328 8.58203 1.86328ZM9.08203 9.36328C9.08203 9.49589 9.02935 9.62307 8.93559 9.71684C8.84182 9.8106 8.71464 9.86328 8.58203 9.86328H1.58203C1.44942 9.86328 1.32225 9.8106 1.22848 9.71684C1.13471 9.62307 1.08203 9.49589 1.08203 9.36328V5.86328H9.08203V9.36328ZM9.08203 4.86328H1.08203V3.36328C1.08203 3.23067 1.13471 3.1035 1.22848 3.00973C1.32225 2.91596 1.44942 2.86328 1.58203 2.86328H2.58203V3.36328C2.58203 3.49589 2.63471 3.62307 2.72848 3.71683C2.82225 3.8106 2.94942 3.86328 3.08203 3.86328C3.21464 3.86328 3.34182 3.8106 3.43558 3.71683C3.52935 3.62307 3.58203 3.49589 3.58203 3.36328V2.86328H6.58203V3.36328C6.58203 3.49589 6.63471 3.62307 6.72848 3.71683C6.82225 3.8106 6.94942 3.86328 7.08203 3.86328C7.21464 3.86328 7.34182 3.8106 7.43559 3.71683C7.52935 3.62307 7.58203 3.49589 7.58203 3.36328V2.86328H8.58203C8.71464 2.86328 8.84182 2.91596 8.93559 3.00973C9.02935 3.1035 9.08203 3.23067 9.08203 3.36328V4.86328Z" fill="#93989A"/>
</svg>
