<svg width="32" height="32" viewBox="0 0 32 32" fill="none" xmlns="http://www.w3.org/2000/svg">
<path d="M8.053 10.3627C4.773 11.1053 3.133 11.476 2.74233 12.7307C2.353 13.984 3.47033 15.292 5.70633 17.9067L6.285 18.5827C6.91966 19.3253 7.23833 19.6973 7.381 20.156C7.52366 20.616 7.47566 21.112 7.37966 22.1027L7.29166 23.0053C6.95433 26.4947 6.785 28.2387 7.80633 29.0133C8.82766 29.788 10.3637 29.0813 13.433 27.668L14.229 27.3027C15.101 26.9 15.537 26.7 15.9997 26.7C16.4623 26.7 16.8983 26.9 17.7717 27.3027L18.565 27.668C21.6357 29.0813 23.1717 29.788 24.1917 29.0147C25.2143 28.2387 25.045 26.4947 24.7077 23.0053M26.293 17.9067C28.529 15.2933 29.6463 13.9853 29.257 12.7307C28.8677 11.476 27.2263 11.104 23.9463 10.3627L23.0983 10.1707C22.1663 9.96001 21.701 9.85467 21.3263 9.57067C20.9517 9.28667 20.713 8.85601 20.233 7.99467L19.7957 7.21067C18.1063 4.18134 17.2623 2.66667 15.9997 2.66667C14.737 2.66667 13.893 4.18134 12.2037 7.21067" stroke="white" stroke-width="3" stroke-linecap="round"/>
</svg>
