<svg width="30" height="30" viewBox="0 0 30 30" fill="none" xmlns="http://www.w3.org/2000/svg">
<path d="M17.3004 3.59199L19.647 8.32399C19.967 8.98266 20.8204 9.61466 21.5404 9.73466L25.7924 10.448C28.5124 10.9053 29.1524 12.8947 27.1924 14.8573L23.8857 18.1907C23.3257 18.7547 23.019 19.844 23.1924 20.624L24.139 24.7507C24.8857 28.0173 23.1657 29.28 20.299 27.5733L16.3124 25.1933C15.5924 24.764 14.4057 24.764 13.6724 25.1933L9.68835 27.5733C6.83502 29.28 5.10169 28.0027 5.84835 24.7507L6.79502 20.624C6.96835 19.844 6.66169 18.7547 6.10169 18.1907L2.79502 14.8573C0.849685 12.8933 1.47635 10.9053 4.19502 10.448L8.44835 9.73466C9.15502 9.61466 10.0084 8.98266 10.3284 8.32399L12.675 3.59199C13.955 1.02533 16.035 1.02533 17.3017 3.59199" stroke="white" stroke-width="2" stroke-linecap="round" stroke-linejoin="round"/>
</svg>
