<svg width="186" height="187" viewBox="0 0 186 187" fill="none" xmlns="http://www.w3.org/2000/svg">
<g opacity="0.15">
<path d="M164.639 117.653C176.357 79.5858 155.009 39.2233 116.957 27.5008C78.9045 15.7783 38.5579 37.1349 26.8401 75.2021C15.1222 113.269 36.4704 153.632 74.5226 165.354C112.575 177.077 152.921 155.72 164.639 117.653Z" fill="white"/>
</g>
<path d="M159.284 112.301C171.018 74.2377 149.686 33.8655 111.638 22.1271C73.5898 10.3887 33.2336 31.7291 21.4998 69.7924C9.76601 107.856 31.098 148.228 69.1462 159.966C107.194 171.705 147.551 150.364 159.284 112.301Z" fill="#CDF2C6"/>
<g opacity="0.15">
<path d="M105.79 157.648C139.58 152.102 162.478 120.203 156.935 86.4008C151.391 52.5983 119.505 29.6919 85.7146 35.2379C51.9245 40.7839 29.0262 72.6821 34.5699 106.485C40.1135 140.287 71.9998 163.194 105.79 157.648Z" fill="white"/>
</g>
<path d="M100.407 152.263C134.197 146.717 157.095 114.819 151.552 81.0165C146.008 47.214 114.122 24.3076 80.3318 29.8536C46.5417 35.3996 23.6434 67.2978 29.1871 101.1C34.7307 134.903 66.617 157.809 100.407 152.263Z" fill="#3ECE23"/>
<path d="M66.8783 70.5115C64.9343 70.5115 63.1343 69.8635 61.6223 68.4955L62.9543 66.9115C64.1783 67.9735 65.3663 68.5495 66.9323 68.5495C68.3003 68.5495 69.1643 67.9015 69.1643 66.9655V66.9295C69.1643 66.0475 68.6603 65.5255 66.3203 65.0035C63.6383 64.3735 62.1263 63.5455 62.1263 61.2415V61.2055C62.1263 59.0455 63.9263 57.5515 66.4283 57.5515C68.2823 57.5515 69.7043 58.1095 71.0003 59.1355L69.8123 60.8095C68.6603 59.9635 67.5443 59.5135 66.3923 59.5135C65.0963 59.5135 64.3403 60.1615 64.3403 61.0075V61.0435C64.3403 62.0155 64.9163 62.4475 67.3463 63.0235C69.9923 63.7075 71.3783 64.6075 71.3783 66.7135V66.7495C71.3783 69.1255 69.5243 70.5115 66.8783 70.5115ZM79.1539 70.3315V59.7835H75.1399V57.7315H85.3819V59.7835H81.3679V70.3315H79.1539ZM90.0175 70.3315V57.7315H99.3595V59.7115H92.2315V62.9875H98.5495V64.9855H92.2315V68.3515H99.4495V70.3315H90.0175ZM104.416 70.3315V57.7315H109.384C112.336 57.7315 114.172 59.4055 114.172 61.9435V61.9795C114.172 64.7875 111.922 66.2815 109.132 66.2815H106.63V70.3315H104.416ZM106.63 64.2835H109.204C110.878 64.2835 111.922 63.3475 111.922 62.0335V61.9975C111.922 60.5035 110.86 59.7475 109.204 59.7475H106.63V64.2835Z" fill="white"/>
<path d="M75.5812 127.1C63.5492 127.1 55.7412 117.116 55.7412 104.06V103.932C55.7412 90.9395 63.7412 80.7635 75.7092 80.7635C87.5492 80.7635 95.5492 90.7475 95.5492 103.804V103.932C95.5492 116.924 87.5492 127.1 75.5812 127.1ZM75.7092 118.204C81.6612 118.204 85.4372 112.252 85.4372 104.06V103.932C85.4372 95.8035 81.4692 89.6595 75.5812 89.6595C69.6932 89.6595 65.8532 95.6115 65.8532 103.804V103.932C65.8532 112.124 69.7572 118.204 75.7092 118.204ZM110.115 126.332V91.1955L102.307 93.1155L100.259 85.0515L113.123 81.2115H119.843V126.332H110.115Z" fill="white"/>
</svg>
