<svg width="59" height="40" viewBox="0 0 59 40" fill="none" xmlns="http://www.w3.org/2000/svg">
<rect x="0.981369" y="0.413986" width="57.13" height="38.9147" rx="4.55384" fill="white" stroke="#D9D9D9" stroke-width="0.827972"/>
<path fill-rule="evenodd" clip-rule="evenodd" d="M31.7084 13.4827L28.7643 14.1146V11.7276L31.7084 11.1074V13.4827ZM19.744 12.465L16.882 13.0735L16.8702 22.4459C16.8702 24.1777 18.1722 25.4531 19.9082 25.4531C20.8701 25.4531 21.5738 25.2775 21.9609 25.0669V22.6916C21.5856 22.8437 19.7323 23.382 19.7323 21.6503V17.4964H21.9609V15.0041H19.7323L19.744 12.465ZM12.8123 17.3441C12.1906 17.3441 11.8153 17.5196 11.8153 17.976C11.8153 18.4742 12.4612 18.6934 13.2627 18.9653C14.5691 19.4086 16.2887 19.992 16.296 22.1532C16.296 24.2477 14.6186 25.4529 12.1789 25.4529C11.1701 25.4529 10.0675 25.254 8.97668 24.7859V22.0011C9.96197 22.5393 11.2053 22.9372 12.1789 22.9372C12.8357 22.9372 13.3049 22.7616 13.3049 22.2234C13.3049 21.6715 12.6047 21.4192 11.7593 21.1147C10.4718 20.6509 8.84766 20.0658 8.84766 18.1164C8.84766 16.0453 10.4312 14.805 12.8123 14.805C13.7858 14.805 14.7477 14.9571 15.7212 15.3432V18.093C14.8298 17.6132 13.7037 17.3441 12.8123 17.3441ZM25.6097 15.8694L25.422 15.0036H22.8884V25.2419H25.8208V18.3032C26.5129 17.4023 27.6858 17.5661 28.0494 17.6948V15.0036C27.6741 14.8632 26.3017 14.6057 25.6097 15.8694ZM28.7643 15.0039H31.7084V25.2422H28.7643V15.0039ZM51.0735 20.1642C51.0735 17.1687 49.619 14.8052 46.8391 14.8052C44.0475 14.8052 42.3584 17.1687 42.3584 20.1408C42.3584 23.6628 44.3524 25.4413 47.2145 25.4413C48.6103 25.4413 49.6659 25.1254 50.4636 24.6808V22.3406C49.6659 22.7384 48.751 22.9841 47.5898 22.9841C46.452 22.9841 45.4433 22.5863 45.3143 21.2056H51.05C51.05 21.1411 51.0542 20.9946 51.0591 20.8258C51.0657 20.5964 51.0735 20.326 51.0735 20.1642ZM45.2789 19.0529C45.2789 17.7307 46.0883 17.1807 46.8272 17.1807C47.5428 17.1807 48.3052 17.7307 48.3052 19.0529H45.2789ZM35.5316 15.7178C35.9422 15.3434 36.6811 14.8052 37.8306 14.8052C39.8833 14.8052 41.8187 16.6539 41.8304 20.0472C41.8304 23.7564 39.9185 25.4413 37.8189 25.4413C36.7867 25.4413 36.165 25.0084 35.7427 24.7042L35.731 28.0155L32.7986 28.6357V14.9924H35.3791L35.5316 15.7178ZM35.743 22.3175C36.0245 22.6217 36.4351 22.8674 37.1271 22.8674C38.2062 22.8674 38.9335 21.6973 38.9335 20.1294C38.9335 18.5966 38.1945 17.4031 37.1271 17.4031C36.4585 17.4031 36.0362 17.6371 35.7313 17.9764L35.743 22.3175Z" fill="#6461FC"/>
</svg>
