<svg width="33" height="32" viewBox="0 0 33 32" fill="none" xmlns="http://www.w3.org/2000/svg">
<path d="M10.1922 9.90475H11.716M14.7636 9.90475H16.2874M19.335 9.90475H20.8588M10.1922 20.5714H11.716M14.7636 20.5714H16.2874M19.335 20.5714H20.8588M12.4779 3.78818V3.80951C12.4779 4.61779 12.799 5.39296 13.3705 5.9645C13.942 6.53604 14.7172 6.85713 15.5255 6.85713C16.3338 6.85713 17.1089 6.53604 17.6805 5.9645C18.252 5.39296 18.5731 4.61779 18.5731 3.80951L18.5716 3.78665H22.3826C22.7868 3.78665 23.1744 3.9472 23.4601 4.23297C23.7459 4.51874 23.9064 4.90632 23.9064 5.31046V25.1428C23.9064 25.547 23.7459 25.9346 23.4601 26.2203C23.1744 26.5061 22.7868 26.6667 22.3826 26.6667H18.5731C18.5731 25.8584 18.252 25.0832 17.6805 24.5117C17.1089 23.9401 16.3338 23.619 15.5255 23.619C14.7172 23.619 13.942 23.9401 13.3705 24.5117C12.799 25.0832 12.4779 25.8584 12.4779 26.6667H8.66834C8.2642 26.6667 7.87661 26.5061 7.59085 26.2203C7.30508 25.9346 7.14453 25.547 7.14453 25.1428V5.31046C7.14453 4.90632 7.30508 4.51874 7.59085 4.23297C7.87661 3.9472 8.2642 3.78665 8.66834 3.78665L12.4779 3.78818Z" stroke="white" stroke-width="1.5" stroke-linecap="round" stroke-linejoin="round"/>
</svg>
