<svg width="19" height="19" viewBox="0 0 19 19" fill="none" xmlns="http://www.w3.org/2000/svg">
<path d="M16.5768 10.3273C16.7445 8.89301 16.4724 7.44163 15.7966 6.16549C15.1207 4.88934 14.0731 3.84867 12.7925 3.18137C11.5119 2.51407 10.0587 2.25165 8.62556 2.42887C7.19243 2.6061 5.84697 3.21461 4.76748 4.17377C3.68799 5.13293 2.92543 6.39745 2.58084 7.79979C2.23624 9.20212 2.32589 10.6761 2.83791 12.0263C3.34992 13.3765 4.26012 14.5393 5.4479 15.3606C6.63568 16.1818 8.04497 16.6228 9.48902 16.625M2.84931 7.125H16.1493M2.84931 11.875H10.291" stroke="white" stroke-width="1.58333" stroke-linecap="round" stroke-linejoin="round"/>
<path d="M9.10325 2.375C7.76957 4.51219 7.0625 6.98081 7.0625 9.5C7.0625 12.0192 7.76957 14.4878 9.10325 16.625M9.89492 2.375C11.4138 4.80866 12.1153 7.66399 11.897 10.5244M12.6658 17.4167L16.6241 13.4583M16.6241 13.4583V17.0208M16.6241 13.4583H13.0616" stroke="white" stroke-width="1.58333" stroke-linecap="round" stroke-linejoin="round"/>
</svg>
