<svg width="77" height="78" viewBox="0 0 77 78" fill="none" xmlns="http://www.w3.org/2000/svg">
<path d="M55.0503 22.3494C53.7992 21.0979 53.0666 19.4202 52.9992 17.6519C52.9317 15.8835 53.5342 14.1549 54.6863 12.8116C54.7816 12.6999 54.8312 12.5563 54.825 12.4096C54.8189 12.2629 54.7575 12.124 54.6533 12.0206L48.0165 5.37633C47.9068 5.26668 47.7581 5.20508 47.6029 5.20508C47.4478 5.20508 47.2991 5.26668 47.1894 5.37633L36.6109 15.9548C36.2205 16.3449 35.9265 16.8207 35.7522 17.3444C35.5784 17.8692 35.2848 18.3464 34.8945 18.7379C34.5042 19.1295 34.0281 19.4248 33.5038 19.6003C32.9799 19.7749 32.5036 20.0688 32.1127 20.459L4.98375 47.582C4.8741 47.6917 4.8125 47.8404 4.8125 47.9955C4.8125 48.1506 4.8741 48.2994 4.98375 48.4091L11.6205 55.0458C11.7239 55.1501 11.8628 55.2115 12.0095 55.2176C12.1562 55.2238 12.2998 55.1742 12.4115 55.0789C13.7545 53.9256 15.4835 53.322 17.2525 53.3891C19.0214 53.4562 20.6998 54.189 21.9515 55.4407C23.2032 56.6924 23.936 58.3708 24.0031 60.1397C24.0702 61.9087 23.4666 63.6377 22.3133 64.9806C22.218 65.0924 22.1684 65.236 22.1746 65.3827C22.1807 65.5294 22.2421 65.6683 22.3463 65.7717L28.9831 72.4084C29.0928 72.5181 29.2416 72.5797 29.3967 72.5797C29.5518 72.5797 29.7005 72.5181 29.8102 72.4084L56.9407 45.2795C57.3309 44.8886 57.6248 44.4123 57.7994 43.8884C57.9732 43.3635 58.2668 42.8864 58.6571 42.4948C59.0474 42.1033 59.5235 41.808 60.0478 41.6325C60.5714 41.4582 61.0472 41.1642 61.4374 40.7738L72.0159 30.1953C72.1255 30.0856 72.1871 29.9368 72.1871 29.7817C72.1871 29.6266 72.1255 29.4778 72.0159 29.3681L65.3791 22.7314C65.2758 22.6271 65.1368 22.5658 64.9901 22.5596C64.8434 22.5535 64.6998 22.603 64.5881 22.6983C63.2467 23.8524 61.5191 24.4576 59.7508 24.3929C57.9825 24.3282 56.3038 23.5984 55.0503 22.3494Z" stroke="#93989A" stroke-width="4.8125" stroke-miterlimit="10"/>
<path d="M37.6724 21.5132L35.1895 19.0303M44.2926 28.1334L42.6368 26.4791M50.9128 34.7551L49.2585 33.0993M58.3616 42.2025L55.8787 39.7195" stroke="#93989A" stroke-width="4.8125" stroke-miterlimit="10" stroke-linecap="round"/>
</svg>
