<svg width="30" height="32" viewBox="0 0 30 32" fill="none" xmlns="http://www.w3.org/2000/svg">
<g clip-path="url(#clip0_4290_38411)">
<path d="M21.8104 11.5219C23.8714 12.9944 26.3963 13.8609 29.1233 13.8609V8.61617C28.6071 8.61637 28.0924 8.56253 27.5875 8.45551V12.5838C24.8607 12.5838 22.3362 11.7175 20.2747 10.2451V20.9481C20.2747 26.3024 15.932 30.6424 10.5754 30.6424C8.57672 30.6424 6.71895 30.0385 5.17578 29.0027C6.93711 30.8028 9.39338 31.9193 12.1107 31.9193C17.4678 31.9193 21.8106 27.5793 21.8106 22.2248V11.5219H21.8104ZM23.705 6.23063C22.6516 5.08051 21.96 3.59416 21.8104 1.95091V1.27637H20.355C20.7214 3.36486 21.971 5.14914 23.705 6.23063ZM8.56381 24.8941C7.97527 24.123 7.65716 23.1795 7.65865 22.2094C7.65865 19.7607 9.64497 17.7751 12.0956 17.7751C12.5522 17.7749 13.0062 17.845 13.4415 17.9829V12.6209C12.9328 12.5513 12.4195 12.5216 11.9064 12.5325V16.706C11.4709 16.568 11.0167 16.498 10.5598 16.4983C8.1093 16.4983 6.12309 18.4837 6.12309 20.9328C6.12309 22.6645 7.11586 24.1638 8.56381 24.8941Z" fill="#FF004F"/>
<path d="M20.2734 10.245C22.335 11.7174 24.8594 12.5837 27.5862 12.5837V8.4554C26.0641 8.13132 24.7167 7.3364 23.7036 6.23063C21.9696 5.14903 20.7201 3.36475 20.3538 1.27637H16.5311V22.2246C16.5224 24.6667 14.5395 26.6441 12.0941 26.6441C10.6532 26.6441 9.37302 25.9576 8.56232 24.894C7.1146 24.1638 6.12172 22.6644 6.12172 20.9329C6.12172 18.484 8.10792 16.4984 10.5585 16.4984C11.028 16.4984 11.4805 16.5715 11.905 16.7061V12.5326C6.64243 12.6413 2.41016 16.939 2.41016 22.2247C2.41016 24.8632 3.46406 27.2552 5.17463 29.0029C6.7178 30.0385 8.57545 30.6427 10.5742 30.6427C15.9309 30.6427 20.2735 26.3022 20.2735 20.9481L20.2734 10.245Z" fill="black"/>
<path d="M27.5867 8.45572V7.3397C26.2142 7.34169 24.8687 6.95751 23.7041 6.23106C24.735 7.35902 26.0924 8.13686 27.5867 8.45595M20.3542 1.27669C20.3193 1.07714 20.2925 0.876257 20.2738 0.674538V0H14.9956V20.9484C14.9872 23.3903 13.0043 25.3677 10.5589 25.3677C9.86559 25.3688 9.1818 25.2067 8.56272 24.8947C9.37343 25.9581 10.6536 26.6444 12.0945 26.6444C14.5398 26.6444 16.5229 24.6673 16.5315 22.2251V1.2768L20.3542 1.27669ZM11.9057 12.533V11.3447C11.4647 11.2844 11.02 11.2543 10.5749 11.2544C5.21762 11.2544 0.875 15.5947 0.875 20.9484C0.875 24.305 2.5817 27.2631 5.17525 29.0031C3.46468 27.2555 2.41078 24.8634 2.41078 22.225C2.41078 16.9395 6.64295 12.6417 11.9057 12.533Z" fill="#00F2EA"/>
</g>
<defs>
<clipPath id="clip0_4290_38411">
<rect width="28.25" height="32" fill="white" transform="translate(0.875)"/>
</clipPath>
</defs>
</svg>
