<svg width="27" height="27" viewBox="0 0 27 27" fill="none" xmlns="http://www.w3.org/2000/svg">
<path d="M21.0417 5.51567H18.875V4.43233C18.875 4.14501 18.7609 3.86946 18.5577 3.6663C18.3545 3.46314 18.079 3.349 17.7917 3.349C17.5043 3.349 17.2288 3.46314 17.0256 3.6663C16.8225 3.86946 16.7083 4.14501 16.7083 4.43233V5.51567H10.2083V4.43233C10.2083 4.14501 10.0942 3.86946 9.89103 3.6663C9.68787 3.46314 9.41232 3.349 9.125 3.349C8.83768 3.349 8.56213 3.46314 8.35897 3.6663C8.1558 3.86946 8.04167 4.14501 8.04167 4.43233V5.51567H5.875C5.01305 5.51567 4.1864 5.85808 3.5769 6.46757C2.96741 7.07706 2.625 7.90371 2.625 8.76567V21.7657C2.625 22.6276 2.96741 23.4543 3.5769 24.0638C4.1864 24.6733 5.01305 25.0157 5.875 25.0157H21.0417C21.9036 25.0157 22.7303 24.6733 23.3398 24.0638C23.9493 23.4543 24.2917 22.6276 24.2917 21.7657V8.76567C24.2917 7.90371 23.9493 7.07706 23.3398 6.46757C22.7303 5.85808 21.9036 5.51567 21.0417 5.51567ZM22.125 21.7657C22.125 22.053 22.0109 22.3285 21.8077 22.5317C21.6045 22.7349 21.329 22.849 21.0417 22.849H5.875C5.58768 22.849 5.31213 22.7349 5.10897 22.5317C4.9058 22.3285 4.79167 22.053 4.79167 21.7657V14.1823H22.125V21.7657ZM22.125 12.0157H4.79167V8.76567C4.79167 8.47835 4.9058 8.2028 5.10897 7.99963C5.31213 7.79647 5.58768 7.68233 5.875 7.68233H8.04167V8.76567C8.04167 9.05298 8.1558 9.32853 8.35897 9.5317C8.56213 9.73486 8.83768 9.849 9.125 9.849C9.41232 9.849 9.68787 9.73486 9.89103 9.5317C10.0942 9.32853 10.2083 9.05298 10.2083 8.76567V7.68233H16.7083V8.76567C16.7083 9.05298 16.8225 9.32853 17.0256 9.5317C17.2288 9.73486 17.5043 9.849 17.7917 9.849C18.079 9.849 18.3545 9.73486 18.5577 9.5317C18.7609 9.32853 18.875 9.05298 18.875 8.76567V7.68233H21.0417C21.329 7.68233 21.6045 7.79647 21.8077 7.99963C22.0109 8.2028 22.125 8.47835 22.125 8.76567V12.0157Z" fill="#93989A"/>
</svg>
