<svg width="70" height="48" viewBox="0 0 70 48" fill="none" xmlns="http://www.w3.org/2000/svg">
<rect x="0.5" y="0.493164" width="69" height="47" rx="5.5" fill="#93989A" stroke="#D9D9D9"/>
<path d="M21.6555 9.99512H32.687C34.2269 9.99512 35.1847 11.2503 34.8255 12.7953L29.6895 34.846C29.327 36.3857 27.7853 37.6419 26.2443 37.6419H15.2138C13.676 37.6419 12.7161 36.3857 13.0754 34.846L18.2135 12.7953C18.5727 11.2503 20.1137 9.99512 21.6555 9.99512Z" fill="#E21836"/>
<path d="M31.7681 9.99316H44.4541C45.9937 9.99316 45.2995 11.2483 44.9373 12.7933L39.8021 34.8441C39.4418 36.3837 39.5542 37.6399 38.0113 37.6399H25.3253C23.7825 37.6399 22.8276 36.3837 23.1901 34.8441L28.325 12.7933C28.6896 11.2483 30.2274 9.99316 31.7681 9.99316Z" fill="#1F71BE"/>
<path d="M43.9511 9.99316H54.9827C56.5248 9.99316 57.4825 11.2483 57.1203 12.7933L51.9852 34.8441C51.6227 36.3837 50.0799 37.6399 48.5381 37.6399H37.5116C35.9688 37.6399 35.0118 36.3837 35.3732 34.8441L40.5092 12.7933C40.8684 11.2483 42.4083 9.99316 43.9511 9.99316Z" fill="#007B84"/>
<path d="M24.5356 17.0594C23.4012 17.071 23.0661 17.0594 22.9591 17.0342C22.918 17.2296 22.1525 20.7609 22.1503 20.7639C21.9855 21.4783 21.8656 21.9876 21.4582 22.3164C21.227 22.5076 20.957 22.5998 20.644 22.5998C20.1409 22.5998 19.8478 22.35 19.7986 21.8763L19.7892 21.7136C19.7892 21.7136 19.9425 20.7566 19.9425 20.7512C19.9425 20.7512 20.7459 17.5332 20.8898 17.1078C20.8973 17.0836 20.8995 17.071 20.9013 17.0594C19.3375 17.0732 19.0603 17.0594 19.0412 17.0342C19.0307 17.0689 18.992 17.2684 18.992 17.2684L18.1716 20.8954L18.1012 21.203L17.9648 22.2091C17.9648 22.5076 18.0235 22.7512 18.1402 22.9572C18.5139 23.6103 19.58 23.7082 20.1831 23.7082C20.9602 23.7082 21.6892 23.5431 22.1818 23.2416C23.0368 22.7364 23.2605 21.9467 23.4601 21.2449L23.5525 20.8849C23.5525 20.8849 24.3802 17.5426 24.5208 17.1078C24.5262 17.0836 24.5283 17.071 24.5356 17.0594ZM27.3515 19.7557C27.152 19.7557 26.7874 19.8041 26.4599 19.9646C26.3411 20.0256 26.2287 20.0961 26.1101 20.1662L26.2171 19.7799L26.1585 19.7148C25.464 19.8554 25.3086 19.8742 24.667 19.9646L24.6132 20.0003C24.5387 20.618 24.4726 21.0823 24.1964 22.2964C24.0913 22.7438 23.9821 23.1955 23.8727 23.6419L23.9023 23.6986C24.5597 23.6639 24.7592 23.6639 25.3306 23.6733L25.3769 23.623C25.4495 23.2512 25.4589 23.164 25.6197 22.4109C25.6952 22.0538 25.8528 21.2692 25.9305 20.9898C26.0733 20.9237 26.2142 20.8586 26.3486 20.8586C26.6688 20.8586 26.6299 21.138 26.6175 21.2493C26.6038 21.4362 26.4871 22.0466 26.3674 22.5706L26.2876 22.9089C26.2319 23.1587 26.1709 23.4015 26.1152 23.6491L26.1394 23.6986C26.7874 23.6639 26.9851 23.6639 27.5384 23.6733L27.6035 23.623C27.7035 23.0422 27.7328 22.8868 27.9103 22.0412L27.9996 21.6526C28.173 20.8922 28.2601 20.5067 28.1289 20.1926C27.9901 19.8406 27.6573 19.7557 27.3515 19.7557ZM30.4973 20.5518C30.1528 20.6179 29.9332 20.662 29.7148 20.6905C29.4984 20.7252 29.2873 20.7567 28.9544 20.8029L28.9281 20.8269L28.9039 20.846C28.8692 21.0939 28.845 21.3082 28.799 21.5601C28.76 21.8207 28.7001 22.1167 28.6025 22.5421C28.5269 22.8677 28.4879 22.9812 28.4449 23.0957C28.4029 23.2103 28.3567 23.3216 28.2717 23.6418L28.2916 23.6714L28.3083 23.6986C28.6194 23.6838 28.8229 23.6733 29.0321 23.6714C29.2411 23.6639 29.4575 23.6714 29.7925 23.6733L29.8218 23.6494L29.8533 23.623C29.9017 23.3342 29.909 23.2565 29.9385 23.1156C29.9679 22.9645 30.0184 22.7553 30.1424 22.1966C30.201 21.9341 30.2663 21.6725 30.3271 21.4047C30.3903 21.138 30.4564 20.8753 30.5193 20.6128L30.5099 20.5811L30.4973 20.5518ZM30.5046 19.4784C30.1916 19.2936 29.6423 19.3523 29.2726 19.6074C28.904 19.8575 28.862 20.2124 29.1739 20.3996C29.4815 20.5792 30.033 20.5257 30.3995 20.2683C30.7673 20.0129 30.8133 19.6612 30.5046 19.4784ZM32.3974 23.7565C33.0307 23.7565 33.6798 23.582 34.1683 23.0641C34.5442 22.6441 34.7166 22.0192 34.7763 21.7619C34.9707 20.909 34.8193 20.5107 34.6292 20.2682C34.3404 19.8985 33.8301 19.7799 33.3006 19.7799C32.9823 19.7799 32.224 19.8114 31.6317 20.3575C31.2063 20.7514 31.0097 21.2859 30.8911 21.7984C30.7715 22.3206 30.6338 23.2606 31.4983 23.6105C31.765 23.725 32.1495 23.7565 32.3974 23.7565ZM32.348 21.8374C32.494 21.1916 32.6663 20.6495 33.1062 20.6495C33.4509 20.6495 33.4759 21.0528 33.3227 21.7008C33.2953 21.8447 33.1694 22.3795 32.9992 22.6072C32.8804 22.7753 32.7397 22.8772 32.5843 22.8772C32.5381 22.8772 32.263 22.8772 32.2587 22.4688C32.2565 22.2671 32.2977 22.0611 32.348 21.8374ZM36.3592 23.6734L36.4087 23.6231C36.4789 23.2512 36.4904 23.1639 36.6458 22.411C36.7235 22.0539 36.8843 21.2693 36.9599 20.9899C37.1029 20.9235 37.2414 20.8584 37.3802 20.8584C37.6982 20.8584 37.6595 21.1378 37.6469 21.2491C37.6353 21.4363 37.5186 22.0464 37.3968 22.5704L37.3213 22.9087C37.2635 23.1588 37.2005 23.4013 37.1449 23.6492L37.1691 23.6987C37.8192 23.664 38.0093 23.664 38.5659 23.6734L38.6332 23.6231C38.7308 23.0421 38.7571 22.8866 38.94 22.0413L39.0271 21.6525C39.2013 20.8921 39.2895 20.5067 39.1604 20.1927C39.0177 19.8407 38.6826 19.7557 38.3812 19.7557C38.1814 19.7557 37.8149 19.8039 37.4893 19.9647C37.3729 20.0257 37.2562 20.0959 37.1417 20.1663L37.2414 19.7799L37.1879 19.7146C36.4936 19.8555 36.335 19.8743 35.6942 19.9647L35.645 20.0004C35.5673 20.6181 35.5041 21.0822 35.228 22.2964C35.1229 22.7439 35.0137 23.1956 34.9045 23.6419L34.9338 23.6987C35.5923 23.664 35.7889 23.664 36.3592 23.6734ZM41.1361 23.6985C41.1769 23.499 41.4198 22.3165 41.4219 22.3165C41.4219 22.3165 41.6287 21.4488 41.6413 21.4173C41.6413 21.4173 41.7064 21.327 41.7715 21.2912H41.8672C42.7704 21.2912 43.7902 21.2912 44.5896 20.7032C45.1336 20.2998 45.5055 19.7043 45.6714 18.9804C45.7144 18.8029 45.7461 18.5919 45.7461 18.3808C45.7461 18.1036 45.6905 17.8293 45.5297 17.615C45.122 17.0447 44.3103 17.0342 43.3732 17.0299C43.3702 17.0299 42.9113 17.0342 42.9113 17.0342C41.7118 17.049 41.2307 17.0447 41.0331 17.0205C41.0164 17.1079 40.985 17.2633 40.985 17.2633C40.985 17.2633 40.5553 19.2547 40.5553 19.2579C40.5553 19.2579 39.5271 23.4918 39.4787 23.6913C40.526 23.6786 40.9554 23.6786 41.1361 23.6985ZM41.9322 20.1611C41.9322 20.1611 42.3891 18.1738 42.3869 18.1813L42.4017 18.0794L42.4082 18.0017L42.5907 18.0205C42.5907 18.0205 43.5329 18.1014 43.555 18.1036C43.9268 18.2474 44.0801 18.6182 43.9731 19.1022C43.8755 19.5445 43.5886 19.9164 43.2199 20.096C42.9164 20.2482 42.5445 20.2608 42.1613 20.2608H41.9134L41.9322 20.1611ZM44.7766 21.8742C44.6559 22.3889 44.5171 23.3289 45.3773 23.6639C45.6516 23.7806 45.8973 23.8153 46.1471 23.8027C46.4109 23.7884 46.6553 23.6561 46.8817 23.4658C46.8613 23.544 46.8409 23.6223 46.8204 23.7008L46.8594 23.7511C47.4781 23.725 47.6701 23.725 48.3404 23.7301L48.4012 23.6838C48.4991 23.1084 48.5913 22.5497 48.8457 21.4489C48.9696 20.9216 49.0933 20.3994 49.2205 19.8743L49.2006 19.8165C48.5085 19.9447 48.3235 19.9721 47.6577 20.0665L47.6072 20.1077C47.6005 20.1612 47.5935 20.2125 47.587 20.2639C47.4835 20.0966 47.3335 19.9539 47.1019 19.8649C46.8059 19.7484 46.1106 19.8985 45.5128 20.4427C45.0928 20.8312 44.8912 21.3636 44.7766 21.8742ZM46.2302 21.9057C46.3784 21.2714 46.5486 20.7347 46.9895 20.7347C47.2684 20.7347 47.4152 20.992 47.3853 21.4308C47.3617 21.5403 47.3361 21.6556 47.3058 21.786C47.2617 21.9745 47.2138 22.1614 47.1673 22.3485C47.12 22.4765 47.0648 22.5973 47.0043 22.6777C46.8909 22.8385 46.6209 22.9382 46.4655 22.9382C46.4214 22.9382 46.1493 22.9382 46.1399 22.537C46.1377 22.3373 46.1789 22.1316 46.2302 21.9057ZM53.821 19.8113L53.7675 19.7503C53.0826 19.889 52.9587 19.9111 52.3295 19.996L52.2832 20.0423C52.2811 20.0498 52.2792 20.0614 52.276 20.0719L52.2738 20.0614C51.8054 21.142 51.8191 20.9089 51.4379 21.7597C51.4357 21.7209 51.4357 21.6967 51.4335 21.6556L51.3381 19.8113L51.2781 19.7503C50.5607 19.889 50.5438 19.9111 49.8813 19.996L49.8296 20.0423C49.8224 20.0643 49.8224 20.0885 49.8181 20.1149L49.8224 20.1243C49.9052 20.5475 49.8853 20.4531 49.9684 21.1211C50.0071 21.4488 50.0587 21.7785 50.0975 22.1022C50.1628 22.644 50.1994 22.9108 50.2792 23.7376C49.8318 24.4759 49.7259 24.7553 49.2951 25.4033L49.2981 25.4098L48.9948 25.8895C48.9601 25.94 48.9286 25.9747 48.8845 25.9895C48.8361 26.0134 48.7732 26.0177 48.6858 26.0177H48.5178L48.268 26.8486L49.1249 26.8634C49.628 26.8612 49.9442 26.6259 50.1144 26.3097L50.6532 25.3864H50.6446L50.7014 25.3213C51.0638 24.541 53.821 19.8113 53.821 19.8113ZM44.7766 30.7234H44.4131L45.7586 26.273H46.2049L46.3466 25.8146L46.3603 26.3244C46.3437 26.6395 46.5916 26.9189 47.2428 26.8726H47.996L48.2552 26.0157H47.9718C47.8088 26.0157 47.7333 25.9746 47.7427 25.8864L47.729 25.3677H46.3342V25.3704C45.8833 25.3798 44.5368 25.4137 44.2641 25.4863C43.9342 25.5712 43.5865 25.8213 43.5865 25.8213L43.7231 25.3623H42.4185L42.1466 26.273L40.7831 30.7914H40.5185L40.2591 31.6421H42.8576L42.7704 31.9258H44.0509L44.1358 31.6421H44.4951L44.7766 30.7234ZM43.7105 27.1773C43.5015 27.2351 43.1127 27.4104 43.1127 27.4104L43.4585 26.273H44.4951L44.245 27.1017C44.245 27.1017 43.9248 27.1206 43.7105 27.1773ZM43.7304 28.8022C43.7304 28.8022 43.4047 28.843 43.1904 28.8914C42.9794 28.9554 42.5836 29.1571 42.5836 29.1571L42.9406 27.9735H43.9826L43.7304 28.8022ZM43.1496 30.7338H42.1098L42.4112 29.7349H43.4478L43.1496 30.7338ZM45.6536 27.9735H47.1524L46.937 28.671H45.4183L45.1903 29.4335H46.5191L45.513 30.8503C45.4425 30.9543 45.3793 30.9912 45.3091 31.0205C45.2387 31.0562 45.1462 31.0982 45.0392 31.0982H44.6705L44.4173 31.9333H45.3815C45.8827 31.9333 46.1787 31.7053 46.3973 31.4061L47.0873 30.4617L47.2354 31.4206C47.2669 31.6002 47.396 31.7053 47.4834 31.7462C47.5799 31.7946 47.6796 31.8777 47.8205 31.89C47.9717 31.8965 48.0808 31.9016 48.1534 31.9016H48.6272L48.9117 30.967H48.7248C48.6175 30.967 48.4328 30.9489 48.4013 30.9153C48.3699 30.8745 48.3699 30.8115 48.3529 30.7158L48.2026 29.7548H47.5871L47.8571 29.4335H49.3728L49.6059 28.671H48.2026L48.4212 27.9735H49.8202L50.0797 27.1133H45.9088L45.6536 27.9735ZM32.995 30.9281L33.3448 29.7643H34.7825L35.0452 28.8988H33.6061L33.8258 28.1825H35.2321L35.4926 27.3444H31.974L31.7188 28.1825H32.5182L32.305 28.8988H31.5035L31.2378 29.7791H32.0369L31.5707 31.3187C31.5078 31.5226 31.6003 31.6003 31.6589 31.6949C31.7188 31.7871 31.7796 31.8482 31.9162 31.8829C32.0571 31.9143 32.1536 31.9331 32.2848 31.9331H33.9057L34.1945 30.9743L33.476 31.073C33.3373 31.073 32.953 31.0563 32.995 30.9281ZM33.1599 25.3571L32.7955 26.0156C32.7176 26.1594 32.6474 26.2487 32.5842 26.2898C32.5285 26.3245 32.4183 26.339 32.2586 26.339H32.0685L31.8144 27.1815H32.4457C32.7493 27.1815 32.9824 27.0701 33.0937 27.0145C33.2134 26.9505 33.2448 26.9871 33.3373 26.8978L33.5506 26.7131H35.522L35.7836 25.836H34.3405L34.5925 25.3571H33.1599ZM36.0704 30.945C36.0368 30.8966 36.061 30.8113 36.1123 30.6339L36.6512 28.8504H38.5681C38.8474 28.8463 39.0491 28.8431 39.1803 28.8337C39.3212 28.8189 39.4745 28.7686 39.6415 28.6783C39.8138 28.5836 39.902 28.4839 39.9765 28.3693C40.0596 28.255 40.1929 28.005 40.3075 27.6194L40.9848 25.3624L38.9956 25.3739C38.9956 25.3739 38.3831 25.4643 38.1134 25.564C37.8413 25.6754 37.4525 25.9862 37.4525 25.9862L37.6321 25.3675H36.4033L34.6829 31.073C34.6219 31.2945 34.581 31.4553 34.5716 31.5518C34.5684 31.6559 34.7028 31.7589 34.79 31.8366C34.8929 31.9143 35.0451 31.9017 35.1911 31.9143C35.3447 31.9259 35.563 31.9331 35.8644 31.9331H36.8087L37.0986 30.9544L36.2532 31.0342C36.1629 31.0342 36.0975 30.9858 36.0704 30.945ZM36.9989 27.6457H39.0123L38.8843 28.0469C38.8663 28.0563 38.8232 28.027 38.6183 28.0512H36.8749L36.9989 27.6457ZM37.4022 26.3002H39.4325L39.2865 26.7834C39.2865 26.7834 38.3296 26.774 38.1763 26.8023C37.5019 26.919 37.108 27.2793 37.108 27.2793L37.4022 26.3002ZM38.9293 29.3904C38.9127 29.4503 38.8863 29.4869 38.8495 29.5143C38.8086 29.5407 38.7425 29.5501 38.6438 29.5501H38.3569L38.3738 29.0615H37.1805L37.1321 31.45C37.1302 31.6224 37.1469 31.7221 37.273 31.802C37.3991 31.9017 37.7877 31.9144 38.3106 31.9144H39.0584L39.3284 31.0203L38.6774 31.0561L38.4609 31.0687C38.4314 31.0561 38.4031 31.0445 38.3717 31.0131C38.3442 30.9859 38.298 31.0026 38.3055 30.8302L38.3106 30.218L38.9933 30.1898C39.362 30.1898 39.5195 30.0698 39.654 29.9556C39.7822 29.8461 39.8242 29.7203 39.8726 29.5501L39.9871 29.008H39.049L38.9293 29.3904Z" fill="#FEFEFE"/>
</svg>
