<svg width="49" height="48" viewBox="0 0 49 48" fill="none" xmlns="http://www.w3.org/2000/svg">
<path d="M42.8169 19.98C29.5969 18.164 18.1969 27.98 18.9629 41M13.9629 16C13.9629 17.0609 14.3843 18.0783 15.1345 18.8284C15.8846 19.5786 16.902 20 17.9629 20C19.0238 20 20.0412 19.5786 20.7913 18.8284C21.5415 18.0783 21.9629 17.0609 21.9629 16C21.9629 14.9391 21.5415 13.9217 20.7913 13.1716C20.0412 12.4214 19.0238 12 17.9629 12C16.902 12 15.8846 12.4214 15.1345 13.1716C14.3843 13.9217 13.9629 14.9391 13.9629 16Z" stroke="white" stroke-width="1.625" stroke-linecap="round" stroke-linejoin="round"/>
<path d="M6.96289 26.132C12.5229 25.362 17.5129 28.048 20.2109 32.332" stroke="white" stroke-width="1.625" stroke-linecap="round" stroke-linejoin="round"/>
<path d="M6.96289 18.8C6.96289 14.32 6.96289 12.08 7.83489 10.368C8.60187 8.86277 9.82566 7.63898 11.3309 6.872C13.0429 6 15.2829 6 19.7629 6H30.1629C34.6429 6 36.8829 6 38.5949 6.872C40.1001 7.63898 41.3239 8.86277 42.0909 10.368C42.9629 12.08 42.9629 14.32 42.9629 18.8V29.2C42.9629 33.68 42.9629 35.92 42.0909 37.632C41.3239 39.1372 40.1001 40.361 38.5949 41.128C36.8829 42 34.6429 42 30.1629 42H19.7629C15.2829 42 13.0429 42 11.3309 41.128C9.82566 40.361 8.60187 39.1372 7.83489 37.632C6.96289 35.92 6.96289 33.68 6.96289 29.2V18.8Z" stroke="white" stroke-width="1.625" stroke-linecap="round" stroke-linejoin="round"/>
</svg>
