<svg width="64" height="64" viewBox="0 0 64 64" fill="none" xmlns="http://www.w3.org/2000/svg">
<path fill-rule="evenodd" clip-rule="evenodd" d="M16.0001 28.8C17.6975 28.8 19.3254 28.1258 20.5256 26.9255C21.7259 25.7253 22.4001 24.0974 22.4001 22.4C22.4001 20.7027 21.7259 19.0748 20.5256 17.8746C19.3254 16.6743 17.6975 16 16.0001 16C14.3028 16 12.6749 16.6743 11.4747 17.8746C10.2744 19.0748 9.60015 20.7027 9.60015 22.4C9.60015 24.0974 10.2744 25.7253 11.4747 26.9255C12.6749 28.1258 14.3028 28.8 16.0001 28.8ZM16.0001 32C17.2608 32 18.5092 31.7517 19.6739 31.2693C20.8386 30.7868 21.8969 30.0797 22.7884 29.1883C23.6798 28.2968 24.3869 27.2385 24.8694 26.0738C25.3518 24.9091 25.6001 23.6607 25.6001 22.4C25.6001 21.1394 25.3518 19.891 24.8694 18.7263C24.3869 17.5616 23.6798 16.5033 22.7884 15.6118C21.8969 14.7204 20.8386 14.0133 19.6739 13.5308C18.5092 13.0484 17.2608 12.8 16.0001 12.8C13.4541 12.8 11.0123 13.8115 9.21192 15.6118C7.41157 17.4122 6.40015 19.854 6.40015 22.4C6.40015 24.9461 7.41157 27.3879 9.21192 29.1883C11.0123 30.9886 13.4541 32 16.0001 32Z" fill="white"/>
<path fill-rule="evenodd" clip-rule="evenodd" d="M12.3328 28.4672C12.4819 28.6158 12.6001 28.7924 12.6807 28.9867C12.7614 29.1811 12.8029 29.3895 12.8029 29.6C12.8029 29.8104 12.7614 30.0188 12.6807 30.2132C12.6001 30.4076 12.4819 30.5841 12.3328 30.7328L11.2512 31.8112C9.16976 33.8932 8.00032 36.7167 8.00005 39.6608V45.6C8.00005 46.0243 7.83148 46.4313 7.53142 46.7313C7.23136 47.0314 6.8244 47.2 6.40005 47.2C5.9757 47.2 5.56874 47.0314 5.26868 46.7313C4.96862 46.4313 4.80005 46.0243 4.80005 45.6V39.6608C4.8005 35.8681 6.3072 32.2308 8.98885 29.5488L10.0672 28.4672C10.2159 28.3182 10.3924 28.2 10.5868 28.1193C10.7812 28.0386 10.9896 27.9971 11.2 27.9971C11.4105 27.9971 11.6189 28.0386 11.8133 28.1193C12.0077 28.2 12.1842 28.3182 12.3328 28.4672ZM50.0672 27.5072C49.9182 27.6558 49.8 27.8324 49.7194 28.0267C49.6387 28.2211 49.5972 28.4295 49.5972 28.64C49.5972 28.8504 49.6387 29.0588 49.7194 29.2532C49.8 29.4476 49.9182 29.6241 50.0672 29.7728L51.1488 30.8512C52.1796 31.882 52.9973 33.1058 53.5551 34.4526C54.113 35.7995 54.4001 37.243 54.4001 38.7008V45.6C54.4001 46.0243 54.5686 46.4313 54.8687 46.7313C55.1687 47.0314 55.5757 47.2 56 47.2C56.4244 47.2 56.8314 47.0314 57.1314 46.7313C57.4315 46.4313 57.6 46.0243 57.6 45.6V38.7008C57.5996 34.9081 56.0929 31.2708 53.4113 28.5888L52.3329 27.5072C52.1842 27.3582 52.0077 27.24 51.8133 27.1593C51.6189 27.0786 51.4105 27.0371 51.2001 27.0371C50.9896 27.0371 50.7812 27.0786 50.5868 27.1593C50.3924 27.24 50.2159 27.3582 50.0672 27.5072Z" fill="white"/>
<path fill-rule="evenodd" clip-rule="evenodd" d="M44.7999 28.8C43.1026 28.8 41.4747 28.1258 40.2745 26.9255C39.0742 25.7253 38.4 24.0974 38.4 22.4C38.4 20.7027 39.0742 19.0748 40.2745 17.8746C41.4747 16.6743 43.1026 16 44.7999 16C46.4973 16 48.1252 16.6743 49.3254 17.8746C50.5257 19.0748 51.1999 20.7027 51.1999 22.4C51.1999 24.0974 50.5257 25.7253 49.3254 26.9255C48.1252 28.1258 46.4973 28.8 44.7999 28.8ZM44.7999 32C43.5393 32 42.2909 31.7517 41.1262 31.2693C39.9615 30.7868 38.9032 30.0797 38.0117 29.1883C37.1203 28.2968 36.4132 27.2385 35.9307 26.0738C35.4483 24.9091 35.2 23.6607 35.2 22.4C35.2 21.1394 35.4483 19.891 35.9307 18.7263C36.4132 17.5616 37.1203 16.5033 38.0117 15.6118C38.9032 14.7204 39.9615 14.0133 41.1262 13.5308C42.2909 13.0484 43.5393 12.8 44.7999 12.8C47.346 12.8 49.7878 13.8115 51.5882 15.6118C53.3885 17.4122 54.3999 19.854 54.3999 22.4C54.3999 24.9461 53.3885 27.3879 51.5882 29.1883C49.7878 30.9886 47.346 32 44.7999 32ZM30.4 42.4C28.2782 42.4 26.2434 43.2429 24.7431 44.7432C23.2428 46.2435 22.4 48.2783 22.4 50.4001V54.56C22.4 54.9844 22.2314 55.3914 21.9313 55.6914C21.6313 55.9915 21.2243 56.16 20.8 56.16C20.3756 56.16 19.9686 55.9915 19.6686 55.6914C19.3685 55.3914 19.2 54.9844 19.2 54.56V50.4001C19.2 47.4296 20.3799 44.5809 22.4804 42.4805C24.5808 40.38 27.4295 39.2 30.4 39.2C33.3704 39.2 36.2191 40.38 38.3195 42.4805C40.42 44.5809 41.5999 47.4296 41.5999 50.4001V54.56C41.5999 54.9844 41.4314 55.3914 41.1313 55.6914C40.8313 55.9915 40.4243 56.16 40 56.16C39.5756 56.16 39.1686 55.9915 38.8686 55.6914C38.5685 55.3914 38.4 54.9844 38.4 54.56V50.4001C38.4 49.3495 38.193 48.3092 37.791 47.3386C37.389 46.368 36.7997 45.4861 36.0568 44.7432C35.3139 44.0003 34.432 43.4111 33.4614 43.009C32.4908 42.607 31.4505 42.4 30.4 42.4Z" fill="white"/>
<path fill-rule="evenodd" clip-rule="evenodd" d="M30.4 37.6001C32.0974 37.6001 33.7253 36.9258 34.9255 35.7256C36.1258 34.5253 36.8 32.8975 36.8 31.2001C36.8 29.5027 36.1258 27.8748 34.9255 26.6746C33.7253 25.4744 32.0974 24.8001 30.4 24.8001C28.7027 24.8001 27.0748 25.4744 25.8746 26.6746C24.6743 27.8748 24 29.5027 24 31.2001C24 32.8975 24.6743 34.5253 25.8746 35.7256C27.0748 36.9258 28.7027 37.6001 30.4 37.6001ZM30.4 40.8001C32.9461 40.8001 35.3879 39.7887 37.1883 37.9883C38.9886 36.188 40 33.7462 40 31.2001C40 28.654 38.9886 26.2122 37.1883 24.4119C35.3879 22.6115 32.9461 21.6001 30.4 21.6001C27.854 21.6001 25.4122 22.6115 23.6118 24.4119C21.8115 26.2122 20.8 28.654 20.8 31.2001C20.8 33.7462 21.8115 36.188 23.6118 37.9883C25.4122 39.7887 27.854 40.8001 30.4 40.8001Z" fill="white"/>
</svg>
