<svg width="64" height="64" viewBox="0 0 64 64" fill="none" xmlns="http://www.w3.org/2000/svg">
<path d="M46.0052 33.3066C45.2479 39.6132 41.1172 42.1332 39.3332 43.9626C37.5465 45.7972 37.8665 46.1626 37.9865 48.8532C38.0065 49.1861 37.9582 49.5196 37.8444 49.8331C37.7307 50.1466 37.5539 50.4335 37.3251 50.6761C37.0962 50.9186 36.8201 51.1118 36.5138 51.2436C36.2074 51.3755 35.8774 51.4432 35.5439 51.4426H28.4559C28.1224 51.4427 27.7923 51.3748 27.486 51.2429C27.1797 51.1109 26.9036 50.9178 26.6747 50.6754C26.4457 50.4329 26.2687 50.1462 26.1545 49.8329C26.0402 49.5195 25.9913 49.1862 26.0105 48.8532C26.0105 46.2132 26.2559 45.5999 24.6665 43.9626C22.6399 41.9359 17.8719 39.0746 17.8719 31.2052C17.8597 29.2505 18.2526 27.3146 19.0258 25.5193C19.7989 23.724 20.9357 22.1083 22.3642 20.7742C23.7928 19.44 25.4823 18.4162 27.3262 17.7674C29.1701 17.1186 31.1284 16.8588 33.0777 17.0044C35.027 17.15 36.9249 17.6978 38.652 18.6134C40.379 19.5289 41.8977 20.7923 43.1122 22.3239C44.3268 23.8554 45.2109 25.622 45.7088 27.5123C46.2067 29.4025 46.3076 31.3754 46.0052 33.3066Z" stroke="white" stroke-width="2.5" stroke-linecap="round" stroke-linejoin="round"/>
<path d="M27.8934 51.296V55.3279C27.8934 56.4293 28.5067 57.3333 29.2614 57.3333H34.7361C35.4961 57.3333 36.1067 56.4266 36.1067 55.3279V51.296M29.9201 23.1893C28.3455 23.19 26.8357 23.816 25.7225 24.9296C24.6094 26.0433 23.9841 27.5534 23.9841 29.128M51.5521 31.744H56.4427M46.6294 15.712L50.0987 12.2426M49.2961 45.3333L52.7654 48.8M32.0001 6.33862V10.2933M13.9734 12.24L17.4187 15.712M11.3067 48.8L14.7521 45.3333M12.4481 31.744H7.56006" stroke="white" stroke-width="2.5" stroke-linecap="round" stroke-linejoin="round"/>
</svg>
