<svg width="74" height="74" viewBox="0 0 74 74" fill="none" xmlns="http://www.w3.org/2000/svg">
<path d="M69.375 64.75C69.375 64.75 74 64.75 74 60.125C74 55.5 69.375 41.625 50.875 41.625C32.375 41.625 27.75 55.5 27.75 60.125C27.75 64.75 32.375 64.75 32.375 64.75H69.375ZM32.4767 60.125L32.375 60.1065C32.3796 58.8855 33.1474 55.3428 35.89 52.1515C38.443 49.1591 42.9292 46.25 50.875 46.25C58.8161 46.25 63.3024 49.1637 65.86 52.1515C68.6026 55.3428 69.3658 58.8901 69.375 60.1065L69.338 60.1157L69.2732 60.125H32.4767ZM50.875 32.375C53.3283 32.375 55.681 31.4004 57.4157 29.6657C59.1504 27.931 60.125 25.5783 60.125 23.125C60.125 20.6717 59.1504 18.319 57.4157 16.5843C55.681 14.8496 53.3283 13.875 50.875 13.875C48.4217 13.875 46.069 14.8496 44.3343 16.5843C42.5996 18.319 41.625 20.6717 41.625 23.125C41.625 25.5783 42.5996 27.931 44.3343 29.6657C46.069 31.4004 48.4217 32.375 50.875 32.375ZM64.75 23.125C64.75 24.9471 64.3911 26.7513 63.6938 28.4347C62.9965 30.1181 61.9745 31.6477 60.6861 32.9361C59.3977 34.2245 57.8681 35.2465 56.1847 35.9438C54.5013 36.6411 52.6971 37 50.875 37C49.0529 37 47.2487 36.6411 45.5653 35.9438C43.8819 35.2465 42.3523 34.2245 41.0639 32.9361C39.7755 31.6477 38.7535 30.1181 38.0562 28.4347C37.3589 26.7513 37 24.9471 37 23.125C37 19.4451 38.4618 15.916 41.0639 13.3139C43.666 10.7118 47.1951 9.25 50.875 9.25C54.5549 9.25 58.084 10.7118 60.6861 13.3139C63.2882 15.916 64.75 19.4451 64.75 23.125ZM32.079 42.92C30.2279 42.3415 28.3212 41.9586 26.3902 41.7776C25.3051 41.6718 24.2153 41.6209 23.125 41.625C4.625 41.625 0 55.5 0 60.125C0 63.2083 1.54167 64.75 4.625 64.75H24.124C23.4387 63.306 23.0968 61.7231 23.125 60.125C23.125 55.4538 24.8686 50.6807 28.1663 46.694C29.2901 45.3342 30.599 44.0624 32.079 42.92ZM22.755 46.25C20.0194 50.3637 18.5409 55.1849 18.5 60.125H4.625C4.625 58.9225 5.3835 55.3613 8.14 52.1515C10.6606 49.21 15.0405 46.3425 22.755 46.2546V46.25ZM6.9375 25.4375C6.9375 21.7576 8.39933 18.2285 11.0014 15.6264C13.6035 13.0243 17.1326 11.5625 20.8125 11.5625C24.4924 11.5625 28.0215 13.0243 30.6236 15.6264C33.2257 18.2285 34.6875 21.7576 34.6875 25.4375C34.6875 29.1174 33.2257 32.6465 30.6236 35.2486C28.0215 37.8507 24.4924 39.3125 20.8125 39.3125C17.1326 39.3125 13.6035 37.8507 11.0014 35.2486C8.39933 32.6465 6.9375 29.1174 6.9375 25.4375ZM20.8125 16.1875C18.3592 16.1875 16.0065 17.1621 14.2718 18.8968C12.5371 20.6315 11.5625 22.9842 11.5625 25.4375C11.5625 27.8908 12.5371 30.2435 14.2718 31.9782C16.0065 33.7129 18.3592 34.6875 20.8125 34.6875C23.2658 34.6875 25.6185 33.7129 27.3532 31.9782C29.0879 30.2435 30.0625 27.8908 30.0625 25.4375C30.0625 22.9842 29.0879 20.6315 27.3532 18.8968C25.6185 17.1621 23.2658 16.1875 20.8125 16.1875Z" fill="white"/>
</svg>
