<svg width="64" height="64" viewBox="0 0 64 64" fill="none" xmlns="http://www.w3.org/2000/svg">
<path d="M24.9976 17.0881C22.6776 17.1774 20.5802 18.0054 19.4589 19.1281C19.335 19.2519 19.188 19.3501 19.0261 19.417C18.8643 19.484 18.6909 19.5184 18.5157 19.5184C18.3406 19.5183 18.1672 19.4837 18.0054 19.4167C17.8437 19.3496 17.6967 19.2513 17.5729 19.1274C17.4491 19.0035 17.3509 18.8565 17.284 18.6947C17.217 18.5328 17.1826 18.3594 17.1826 18.1843C17.1827 18.0092 17.2172 17.8358 17.2843 17.674C17.3514 17.5122 17.4497 17.3652 17.5736 17.2414C19.3029 15.5121 22.1189 14.5308 24.8936 14.4228C27.6869 14.3148 30.7362 15.0788 32.8722 17.2148C33.1222 17.4649 33.2626 17.8042 33.2625 18.1579C33.2624 18.5116 33.1217 18.8507 32.8716 19.1008C32.6214 19.3508 32.2821 19.4912 31.9284 19.491C31.5747 19.4909 31.2356 19.3503 30.9856 19.1001C29.5322 17.6454 27.3002 16.9974 24.9976 17.0868" fill="white"/>
<path fill-rule="evenodd" clip-rule="evenodd" d="M36.512 38.5813C33.3877 41.2249 29.426 42.6727 25.3333 42.6667C15.76 42.6667 8 34.9067 8 25.3333C8 15.76 15.76 8 25.3333 8C34.9067 8 42.6667 15.76 42.6667 25.3333C42.6667 29.5933 41.1307 33.4933 38.5813 36.512L41.5253 36L55.2373 49.712C56.2547 50.7293 56.2547 52.3787 55.2373 53.3947L53.3947 55.2373C52.3773 56.2547 50.728 56.2547 49.712 55.2373L36 41.5253L36.512 38.5813ZM40 25.3333C40 33.4333 33.4333 40 25.3333 40C17.2333 40 10.6667 33.4333 10.6667 25.3333C10.6667 17.2333 17.2333 10.6667 25.3333 10.6667C33.4333 10.6667 40 17.2333 40 25.3333ZM49.6653 47.9107L40.6187 38.864L39.1253 39.124L38.864 40.6187L47.9373 49.692L49.6653 47.9107ZM49.8227 51.5773L51.5533 53.308L53.308 51.5533L51.5507 49.796L49.8227 51.5773Z" fill="white"/>
</svg>
