<svg width="64" height="64" viewBox="0 0 64 64" fill="none" xmlns="http://www.w3.org/2000/svg">
<path fill-rule="evenodd" clip-rule="evenodd" d="M18.24 27.2096H10.24V44.8096H18.24V27.2096ZM10.24 24.0096C9.39135 24.0096 8.57741 24.3468 7.9773 24.9469C7.37718 25.547 7.04004 26.3609 7.04004 27.2096V44.8096C7.04004 45.6583 7.37718 46.4723 7.9773 47.0724C8.57741 47.6725 9.39135 48.0096 10.24 48.0096H18.24C19.0887 48.0096 19.9027 47.6725 20.5028 47.0724C21.1029 46.4723 21.44 45.6583 21.44 44.8096V27.2096C21.44 26.3609 21.1029 25.547 20.5028 24.9469C19.9027 24.3468 19.0887 24.0096 18.24 24.0096H10.24ZM31.1808 9.05604C32.1408 9.21604 32.784 10.1216 32.624 11.0784L31.9104 15.3728C31.542 17.5826 30.7244 19.6933 29.508 21.5746C28.2916 23.4558 26.7024 25.0677 24.8384 26.3104L22.8864 23.3856C24.3506 22.4094 25.599 21.1432 26.5545 19.6654C27.51 18.1876 28.1523 16.5295 28.4416 14.7936L29.1584 10.4992C29.236 10.0401 29.4924 9.63035 29.8715 9.35985C30.2506 9.08934 30.7214 8.9801 31.1808 9.05604Z" fill="white"/>
<path fill-rule="evenodd" clip-rule="evenodd" d="M36.531 10.1248C36.2377 9.83082 35.8715 9.61999 35.47 9.51386C35.0685 9.40774 34.646 9.41012 34.2457 9.52077C33.8454 9.63142 33.4816 9.84638 33.1916 10.1437C32.9016 10.4409 32.6957 10.8099 32.595 11.2128L29.187 10.3616C30.291 5.94562 35.795 4.41922 39.0142 7.64162L39.1646 7.78882C39.3404 7.94916 39.4818 8.14348 39.5804 8.36003C39.6789 8.57658 39.7325 8.81086 39.738 9.04871C39.7434 9.28657 39.7006 9.52306 39.6121 9.7439C39.5236 9.96473 39.3912 10.1653 39.223 10.3336C39.0547 10.5018 38.8541 10.6342 38.6333 10.7227C38.4125 10.8112 38.176 10.854 37.9381 10.8486C37.7003 10.8431 37.466 10.7895 37.2494 10.691C37.0329 10.5924 36.8386 10.451 36.6782 10.2752L36.531 10.1248Z" fill="white"/>
<path fill-rule="evenodd" clip-rule="evenodd" d="M38.3743 21.2799C37.9229 21.1665 37.5348 20.879 37.295 20.4802C37.0551 20.0814 36.9829 19.6038 37.0943 19.1519L37.6159 17.0623C37.8143 16.2751 37.9007 15.4623 37.8719 14.6527L37.8239 13.2095C37.7861 12.097 37.3579 11.0332 36.6143 10.2047L39.2287 7.85913C40.5247 9.29913 41.2703 11.1519 41.3375 13.0879L41.3855 14.5311C41.4245 15.6709 41.3039 16.8104 41.0271 17.9167L40.5055 20.0031C40.3921 20.4552 40.104 20.8438 39.7045 21.0838C39.305 21.3237 38.8266 21.3922 38.3743 21.2799Z" fill="white"/>
<path fill-rule="evenodd" clip-rule="evenodd" d="M37.9199 19.5776C37.9199 19.1108 38.1053 18.6632 38.4354 18.3331C38.7655 18.0031 39.2131 17.8176 39.6799 17.8176H44.9503C45.4037 17.837 45.8321 18.0307 46.146 18.3583C46.46 18.686 46.6353 19.1222 46.6353 19.576C46.6353 20.0298 46.46 20.4661 46.146 20.7937C45.8321 21.1214 45.4037 21.3151 44.9503 21.3344H39.6799C39.2131 21.3344 38.7655 21.149 38.4354 20.8189C38.1053 20.4889 37.9199 20.0444 37.9199 19.5776Z" fill="white"/>
<path fill-rule="evenodd" clip-rule="evenodd" d="M51.0078 25.0784C50.4452 23.9535 49.5805 23.0075 48.5106 22.3462C47.4408 21.685 46.2079 21.3346 44.9502 21.3344V17.8208C48.8478 17.8208 52.4126 20.0224 54.1534 23.5072L55.3118 25.8208C55.4949 26.2347 55.5116 26.7032 55.3583 27.129C55.2051 27.5548 54.8937 27.9053 54.4888 28.1075C54.0839 28.3097 53.6167 28.3482 53.1842 28.215C52.7517 28.0817 52.3871 27.787 52.1662 27.392L51.0078 25.0784Z" fill="white"/>
<path fill-rule="evenodd" clip-rule="evenodd" d="M51.3603 45.8239C50.9251 45.6588 50.5731 45.3281 50.3812 44.9041C50.1893 44.4801 50.1731 43.9974 50.3363 43.5615L52.2371 38.5439C53.6156 34.9029 53.5699 30.8759 52.1091 27.2671L55.3699 25.9487C57.1627 30.3778 57.2187 35.3202 55.5267 39.7887L53.6259 44.8063C53.4602 45.2416 53.1287 45.5935 52.704 45.7849C52.2793 45.9762 51.7961 45.9914 51.3603 45.8271" fill="white"/>
<path fill-rule="evenodd" clip-rule="evenodd" d="M41.9138 47.7633C43.3365 48.1657 44.8517 48.0929 46.2291 47.5557C47.6066 47.0186 48.7711 46.0466 49.5458 44.7873L50.4834 43.2609C50.5992 43.0537 50.7557 42.8721 50.9435 42.727C51.1313 42.5818 51.3466 42.4762 51.5762 42.4164C51.8059 42.3566 52.0453 42.3439 52.2801 42.379C52.5148 42.4141 52.74 42.4963 52.9421 42.6207C53.1443 42.7451 53.3191 42.9091 53.4563 43.1028C53.5934 43.2965 53.6899 43.516 53.74 43.748C53.7901 43.98 53.7928 44.2197 53.7479 44.4527C53.703 44.6858 53.6114 44.9073 53.4786 45.1041L52.541 46.6305C51.3652 48.5418 49.5976 50.0171 47.5068 50.8321C45.4159 51.647 43.1162 51.7571 40.957 51.1457L41.9138 47.7633Z" fill="white"/>
<path fill-rule="evenodd" clip-rule="evenodd" d="M22.1376 45.5968C22.2295 45.1401 22.4987 44.7386 22.8862 44.48C23.2737 44.2215 23.7478 44.1271 24.2048 44.2176L41.7824 47.7312C42.2189 47.8432 42.5958 48.1182 42.8354 48.4998C43.0751 48.8813 43.1594 49.3403 43.0708 49.7821C42.9821 50.2239 42.7275 50.6149 42.3592 50.8745C41.9909 51.1341 41.5371 51.2426 41.0912 51.1776L23.52 47.664C23.0639 47.5714 22.6631 47.3019 22.4053 46.9145C22.1474 46.5271 22.0534 46.0533 22.144 45.5968" fill="white"/>
<path fill-rule="evenodd" clip-rule="evenodd" d="M23.872 23.0913C24.3388 23.0913 24.7865 23.2767 25.1165 23.6068C25.4466 23.9369 25.632 24.3845 25.632 24.8513V45.9393C25.6465 46.1789 25.6118 46.419 25.5301 46.6447C25.4483 46.8704 25.3213 47.077 25.1567 47.2518C24.9921 47.4266 24.7936 47.5659 24.5732 47.6611C24.3528 47.7563 24.1153 47.8054 23.8752 47.8054C23.6352 47.8054 23.3976 47.7563 23.1773 47.6611C22.9569 47.5659 22.7583 47.4266 22.5938 47.2518C22.4292 47.077 22.3022 46.8704 22.2204 46.6447C22.1387 46.419 22.104 46.1789 22.1184 45.9393V24.8513C22.1184 24.3851 22.3034 23.9379 22.6328 23.6079C22.9622 23.278 23.4058 23.0922 23.872 23.0913Z" fill="white"/>
<path d="M17.44 40.0127C17.44 40.8614 17.1029 41.6754 16.5028 42.2755C15.9027 42.8756 15.0887 43.2127 14.24 43.2127C13.3913 43.2127 12.5774 42.8756 11.9773 42.2755C11.3772 41.6754 11.04 40.8614 11.04 40.0127C11.04 39.1641 11.3772 38.3501 11.9773 37.75C12.5774 37.1499 13.3913 36.8127 14.24 36.8127C15.0887 36.8127 15.9027 37.1499 16.5028 37.75C17.1029 38.3501 17.44 39.1641 17.44 40.0127Z" fill="white"/>
</svg>
