<svg width="9" height="10" viewBox="0 0 9 10" fill="none" xmlns="http://www.w3.org/2000/svg">
<path d="M2.36842 2.86842V5.23684H5.21053V2.86842H2.36842ZM0 0.5H1.42105V0.973684H7.57895V0.5H9V1.92105H8.52632V8.07895H9V9.5H7.57895V9.02632H1.42105V9.5H0V8.07895H0.473684V1.92105H0V0.5ZM1.42105 8.07895V8.55263H7.57895V8.07895H8.05263V1.92105H7.57895V1.44737H1.42105V1.92105H0.947368V8.07895H1.42105ZM1.89474 2.39474H5.68421V4.28947H7.10526V7.60526H2.84211V5.71053H1.89474V2.39474ZM5.68421 5.71053H3.31579V7.13158H6.63158V4.76316H5.68421V5.71053ZM0.473684 0.973684V1.44737H0.947368V0.973684H0.473684ZM8.05263 0.973684V1.44737H8.52632V0.973684H8.05263ZM8.05263 8.55263V9.02632H8.52632V8.55263H8.05263ZM0.473684 8.55263V9.02632H0.947368V8.55263H0.473684Z" fill="white"/>
</svg>
