<svg width="59" height="40" viewBox="0 0 59 40" fill="none" xmlns="http://www.w3.org/2000/svg">
<rect x="0.947189" y="0.413986" width="57.13" height="38.9147" rx="4.55384" fill="white" stroke="#D9D9D9" stroke-width="0.827972"/>
<path fill-rule="evenodd" clip-rule="evenodd" d="M18.1275 26.9232H14.6163L11.9834 16.8785C11.8584 16.4164 11.5931 16.008 11.2028 15.8154C10.2287 15.3316 9.15532 14.9466 7.98438 14.7524V14.3656H13.6405C14.4212 14.3656 15.0066 14.9466 15.1042 15.6212L16.4703 22.8668L19.9797 14.3656H23.3933L18.1275 26.9232ZM25.3451 26.9232H22.0292L24.7597 14.3656H28.0756L25.3451 26.9232ZM32.3657 17.8446C32.4633 17.1683 33.0488 16.7816 33.7319 16.7816C34.8052 16.6845 35.9745 16.8787 36.9502 17.3608L37.5357 14.6571C36.5599 14.2704 35.4866 14.0762 34.5125 14.0762C31.2941 14.0762 28.9522 15.8156 28.9522 18.2297C28.9522 20.0662 30.611 21.0305 31.782 21.6114C33.0488 22.1906 33.5367 22.5774 33.4391 23.1566C33.4391 24.0255 32.4633 24.4122 31.4892 24.4122C30.3183 24.4122 29.1474 24.1226 28.0757 23.6388L27.4902 26.3441C28.6612 26.8263 29.928 27.0205 31.0989 27.0205C34.7076 27.1159 36.9502 25.3782 36.9502 22.7699C36.9502 19.4853 32.3657 19.2927 32.3657 17.8446V17.8446ZM48.5552 26.9232L45.9223 14.3656H43.0942C42.5088 14.3656 41.9233 14.7524 41.7281 15.3316L36.8526 26.9232H40.2662L40.9475 25.0884H45.1417L45.532 26.9232H48.5552ZM43.5817 17.7479L44.5558 22.4806H41.8253L43.5817 17.7479Z" fill="#172B85"/>
</svg>
