<svg width="70" height="48" viewBox="0 0 70 48" fill="none" xmlns="http://www.w3.org/2000/svg">
<rect x="0.5" y="0.493164" width="69" height="47" rx="5.5" fill="#93989A" stroke="#D9D9D9"/>
<path fill-rule="evenodd" clip-rule="evenodd" d="M21.2505 32.5097H17.0099L13.8299 20.3779C13.679 19.8198 13.3585 19.3265 12.8871 19.094C11.7106 18.5096 10.4142 18.0446 9 17.81V17.343H15.8313C16.7742 17.343 17.4813 18.0446 17.5991 18.8594L19.2491 27.6105L23.4877 17.343H27.6104L21.2505 32.5097ZM29.9675 32.5097H25.9626L29.2604 17.343H33.2653L29.9675 32.5097ZM38.4467 21.5446C38.5646 20.7277 39.2717 20.2606 40.0967 20.2606C41.3931 20.1434 42.8052 20.3779 43.9838 20.9602L44.6909 17.6948C43.5123 17.2277 42.216 16.9932 41.0395 16.9932C37.1524 16.9932 34.3239 19.094 34.3239 22.0096C34.3239 24.2277 36.3274 25.3924 37.7417 26.094C39.2717 26.7936 39.861 27.2607 39.7431 27.9603C39.7431 29.0097 38.5646 29.4767 37.3881 29.4767C35.9739 29.4767 34.5596 29.1269 33.2653 28.5426L32.5582 31.8101C33.9724 32.3924 35.5025 32.6269 36.9167 32.6269C41.2752 32.7422 43.9838 30.6434 43.9838 27.4932C43.9838 23.5261 38.4467 23.2936 38.4467 21.5446ZM58 32.5097L54.82 17.343H51.4044C50.6972 17.343 49.9901 17.81 49.7544 18.5096L43.8659 32.5097H47.9887L48.8116 30.2936H53.8772L54.3486 32.5097H58ZM51.9936 21.4273L53.1701 27.1434H49.8723L51.9936 21.4273Z" fill="#172B85"/>
</svg>
