<svg width="72" height="73" viewBox="0 0 72 73" fill="none" xmlns="http://www.w3.org/2000/svg">
<path d="M50.12 7.5538C49.5575 6.99116 48.7946 6.67497 47.999 6.6748H23.999C23.2034 6.67497 22.4405 6.99116 21.878 7.5538L6.87802 22.5538C6.31538 23.1163 5.99919 23.8792 5.99902 24.6748V48.6748C5.99902 49.4728 6.31402 50.2348 6.87802 50.7958L21.878 65.7958C22.4405 66.3585 23.2034 66.6746 23.999 66.6748H47.999C48.797 66.6748 49.559 66.3598 50.12 65.7958L65.12 50.7958C65.6827 50.2333 65.9989 49.4704 65.999 48.6748V24.6748C65.9989 23.8792 65.6827 23.1163 65.12 22.5538L50.12 7.5538ZM38.999 51.6748H32.999V45.6748H38.999V51.6748ZM38.999 39.6748H32.999V21.6748H38.999V39.6748Z" fill="#BD3A20"/>
</svg>
