<svg width="14" height="14" viewBox="0 0 14 14" fill="none" xmlns="http://www.w3.org/2000/svg">
<path d="M7 0.740967C5.71442 0.740967 4.45772 1.12219 3.3888 1.83641C2.31988 2.55064 1.48676 3.5658 0.994786 4.75352C0.502816 5.94124 0.374095 7.24818 0.624899 8.50905C0.875703 9.76993 1.49477 10.9281 2.40381 11.8372C3.31285 12.7462 4.47104 13.3653 5.73192 13.6161C6.99279 13.8669 8.29972 13.7382 9.48744 13.2462C10.6752 12.7542 11.6903 11.9211 12.4046 10.8522C13.1188 9.78325 13.5 8.52655 13.5 7.24097C13.498 5.51767 12.8126 3.86552 11.594 2.64696C10.3754 1.42841 8.7233 0.742952 7 0.740967ZM12.5 7.24097C12.5004 7.74819 12.4304 8.25302 12.2919 8.74097H9.885C10.0384 7.74685 10.0384 6.73509 9.885 5.74097H12.2919C12.4304 6.22891 12.5004 6.73374 12.5 7.24097ZM5.375 9.74097H8.625C8.30484 10.7901 7.74901 11.7521 7 12.5535C6.25135 11.7519 5.69557 10.7899 5.375 9.74097ZM5.13125 8.74097C4.95954 7.74834 4.95954 6.7336 5.13125 5.74097H8.87375C9.04546 6.7336 9.04546 7.74834 8.87375 8.74097H5.13125ZM1.5 7.24097C1.49956 6.73374 1.5696 6.22891 1.70813 5.74097H4.115C3.96163 6.73509 3.96163 7.74685 4.115 8.74097H1.70813C1.5696 8.25302 1.49956 7.74819 1.5 7.24097ZM8.625 4.74097H5.375C5.69516 3.69184 6.251 2.72982 7 1.92847C7.74865 2.73008 8.30444 3.69202 8.625 4.74097ZM11.8956 4.74097H9.66938C9.38876 3.71154 8.91585 2.74453 8.27563 1.89097C9.0492 2.0768 9.77344 2.4277 10.3987 2.91963C11.024 3.41155 11.5355 4.03286 11.8981 4.74097H11.8956ZM5.72438 1.89097C5.08415 2.74453 4.61125 3.71154 4.33063 4.74097H2.10188C2.46455 4.03286 2.97605 3.41155 3.60131 2.91963C4.22657 2.4277 4.95081 2.0768 5.72438 1.89097ZM2.10188 9.74097H4.33063C4.61125 10.7704 5.08415 11.7374 5.72438 12.591C4.95081 12.4051 4.22657 12.0542 3.60131 11.5623C2.97605 11.0704 2.46455 10.4491 2.10188 9.74097ZM8.27563 12.591C8.91585 11.7374 9.38876 10.7704 9.66938 9.74097H11.8981C11.5355 10.4491 11.024 11.0704 10.3987 11.5623C9.77344 12.0542 9.0492 12.4051 8.27563 12.591Z" fill="white"/>
</svg>
